<?xml version="1.0" standalone="no"?>
<!DOCTYPE svg PUBLIC "-//W3C//DTD SVG 1.1//EN" "http://www.w3.org/Graphics/SVG/1.1/DTD/svg11.dtd">
<svg xmlns="http://www.w3.org/2000/svg" xmlns:xlink="http://www.w3.org/1999/xlink" width="810" zoomAndPan="magnify" viewBox="0 0 810 809.999993" height="810" preserveAspectRatio="xMidYMid meet" version="1.0"><defs><clipPath id="22c97fe846"><path d="M 74.488281 74.488281 L 735.511719 74.488281 L 735.511719 735.511719 L 74.488281 735.511719 Z M 74.488281 74.488281 " clip-rule="nonzero"/></clipPath><clipPath id="a52e8d47ad"><path d="M 405 74.488281 C 222.460938 74.488281 74.488281 222.460938 74.488281 405 C 74.488281 587.539062 222.460938 735.511719 405 735.511719 C 587.539062 735.511719 735.511719 587.539062 735.511719 405 C 735.511719 222.460938 587.539062 74.488281 405 74.488281 Z M 405 74.488281 " clip-rule="nonzero"/></clipPath></defs><g clip-path="url(#22c97fe846)"><g clip-path="url(#a52e8d47ad)"><path fill="#ffffff" d="M 74.488281 74.488281 L 735.511719 74.488281 L 735.511719 735.511719 L 74.488281 735.511719 Z M 74.488281 74.488281 " fill-opacity="1" fill-rule="nonzero"/></g></g><path fill="#000000" d="M 377.378906 25.964844 C 354.046875 28.316406 344.65625 29.671875 329.238281 32.917969 C 304.402344 38.144531 290.90625 41.972656 271.398438 49.339844 C 197.007812 77.417969 134.679688 126.789062 90.113281 192.925781 C 62.917969 233.289062 41.832031 284.105469 33.5625 329.222656 C 27.601562 361.746094 26.640625 372.144531 26.660156 403.941406 C 26.679688 431.507812 27.066406 437.382812 30.121094 456.507812 C 34.390625 483.230469 38.324219 500.074219 45.058594 520.472656 C 78.222656 620.953125 149.976562 701.710938 245.632812 746.207031 C 358.910156 798.902344 492.371094 791.371094 599.839844 726.222656 C 625.972656 710.382812 647.253906 693.457031 671.320312 669.371094 C 703.976562 636.691406 724.703125 607.417969 744.726562 565.710938 C 793.359375 464.40625 794.160156 347.8125 746.925781 244.503906 C 693.785156 128.292969 582.164062 46.070312 453.425781 28.308594 C 440.144531 26.476562 388.183594 24.875 377.378906 25.964844 M 373.183594 104.050781 C 370.960938 110.5625 369.144531 116.574219 369.144531 117.414062 C 369.144531 119.859375 372.777344 119.175781 374.503906 116.410156 C 376.464844 113.269531 385.710938 112.839844 388.144531 115.773438 C 390.058594 118.078125 393.242188 118.28125 393.132812 116.09375 C 393.085938 115.222656 391.175781 109.664062 388.878906 103.742188 C 385.050781 93.863281 384.398438 92.945312 380.964844 92.597656 C 377.308594 92.226562 377.140625 92.46875 373.183594 104.050781 M 355.503906 94.511719 C 354.296875 94.957031 354.109375 97.566406 354.734375 105.09375 C 355.472656 113.949219 355.3125 115.179688 353.320312 115.945312 C 352.085938 116.421875 350.015625 116.148438 348.722656 115.34375 C 345.570312 113.371094 343.808594 113.492188 343.808594 115.683594 C 343.808594 120.964844 352.144531 123.226562 357.585938 119.417969 C 360.328125 117.496094 360.492188 116.65625 360.082031 106.8125 C 359.644531 96.3125 358.558594 93.394531 355.503906 94.511719 M 423.480469 93.925781 C 423.191406 94.605469 420.085938 118.320312 420.261719 118.503906 C 420.363281 118.613281 421.582031 118.898438 422.96875 119.136719 C 425.273438 119.539062 425.605469 118.507812 426.816406 107.167969 C 427.546875 100.34375 427.886719 94.5 427.570312 94.183594 C 426.96875 93.582031 423.714844 93.375 423.480469 93.925781 M 434.398438 95.191406 C 433.777344 97.007812 431.21875 115.683594 431.21875 118.398438 C 431.21875 119.394531 432.296875 120.207031 433.613281 120.207031 C 435.46875 120.207031 436.257812 118.867188 437.097656 114.296875 C 437.695312 111.042969 438.816406 108.171875 439.59375 107.914062 C 440.367188 107.660156 442.621094 110.644531 444.597656 114.550781 C 448.183594 121.640625 452.089844 125.199219 454.070312 123.175781 C 455.824219 121.382812 459.171875 99.519531 457.886719 98.238281 C 455.464844 95.8125 452.90625 98.542969 452.511719 103.980469 C 451.9375 111.917969 448.921875 111.792969 445.117188 103.667969 C 441.292969 95.5 435.78125 91.144531 434.398438 95.191406 M 323.539062 99.589844 C 321.796875 99.902344 319.875 100.632812 319.269531 101.214844 C 317.789062 102.636719 322.457031 125.425781 324.382812 126.164062 C 325.210938 126.480469 328.636719 125.964844 331.996094 125.015625 C 339.773438 122.820312 340.394531 119.574219 333.039062 119.574219 C 328.816406 119.574219 327.972656 119.152344 327.972656 117.042969 C 327.972656 115.378906 328.953125 114.371094 330.824219 114.101562 C 332.71875 113.835938 333.671875 112.832031 333.671875 111.105469 C 333.671875 109.203125 333.046875 108.675781 331.320312 109.128906 C 328.707031 109.8125 324.804688 108.074219 324.804688 106.230469 C 324.804688 105.574219 326.839844 104.191406 329.332031 103.152344 C 336.710938 100.070312 333.132812 97.867188 323.539062 99.589844 M 465.421875 101.59375 C 465.421875 102.683594 466.625 103.953125 468.09375 104.417969 C 470.417969 105.15625 470.664062 105.925781 469.972656 110.253906 C 469.535156 112.992188 468.410156 117.460938 467.472656 120.179688 C 466.273438 123.664062 466.167969 125.515625 467.117188 126.464844 C 469.949219 129.296875 471.367188 127.492188 473.542969 118.253906 C 475.613281 109.484375 476.09375 108.636719 479.394531 107.976562 C 484.972656 106.863281 485.085938 104.046875 479.613281 102.507812 C 469.839844 99.753906 465.421875 99.472656 465.421875 101.59375 M 378.628906 103.796875 C 377.691406 106.753906 378.765625 108.808594 381.253906 108.808594 C 383.664062 108.808594 383.65625 102.964844 381.242188 102.042969 C 380.132812 101.617188 379.097656 102.3125 378.628906 103.796875 M 296.058594 106.867188 L 292.011719 108.625 L 294.632812 117.902344 C 298.347656 131.058594 299.164062 132.875 301.339844 132.875 C 302.703125 132.875 303.269531 131.570312 303.269531 128.441406 C 303.269531 123.171875 305.953125 122.515625 310.410156 126.703125 C 312.078125 128.269531 314.117188 129.074219 315.292969 128.621094 C 317.066406 127.941406 316.988281 127.414062 314.648438 124.25 C 312.378906 121.179688 312.210938 120.167969 313.492188 117.355469 C 317.722656 108.078125 307.464844 101.90625 296.058594 106.867188 M 488.933594 106.148438 C 487.414062 108.609375 482.15625 129.828125 482.90625 130.488281 C 484.304688 131.714844 492.164062 134.140625 494.746094 134.140625 C 498.480469 134.140625 497.460938 130.71875 493.289062 129.265625 C 490.675781 128.351562 489.488281 127.101562 489.488281 125.246094 C 489.488281 122.96875 490.121094 122.617188 493.585938 122.964844 C 498.824219 123.488281 500.222656 119.683594 495.253906 118.4375 C 493.078125 117.890625 492.023438 116.761719 492.023438 114.972656 C 492.023438 112.546875 492.507812 112.394531 497.722656 113.175781 C 502.695312 113.921875 503.425781 113.738281 503.421875 111.734375 C 503.421875 110.046875 501.574219 108.898438 496.429688 107.386719 C 492.585938 106.253906 489.214844 105.699219 488.933594 106.148438 M 299.957031 111.902344 C 298.734375 115.089844 300.039062 118.296875 302.71875 118.679688 C 305.976562 119.148438 309.9375 114.949219 308.867188 112.160156 C 307.863281 109.546875 300.9375 109.34375 299.957031 111.902344 M 504.917969 124.144531 C 502.710938 130.484375 501.222656 136.1875 501.605469 136.808594 C 502.859375 138.832031 505.644531 138.007812 506.324219 135.410156 C 506.707031 133.941406 508.054688 132.875 509.511719 132.875 C 511.386719 132.875 512.328125 134.097656 513.160156 137.617188 C 514.675781 144.023438 518.625 144.988281 518.625 138.949219 C 518.625 135.820312 519.621094 133.832031 522.425781 131.371094 C 524.667969 129.402344 526.226562 126.789062 526.226562 124.992188 C 526.226562 120.285156 516.988281 112.609375 511.328125 112.609375 C 509.441406 112.609375 508.066406 115.082031 504.917969 124.144531 M 270.71875 116.351562 C 264.6875 120.027344 262.265625 124.421875 263.164062 130.050781 C 264.257812 136.945312 268.886719 140.476562 276.835938 140.476562 C 282.175781 140.476562 283.789062 139.882812 286.898438 136.773438 C 289.523438 134.148438 290.597656 131.839844 290.582031 128.855469 C 290.550781 122.144531 289.238281 120.992188 284.148438 123.210938 C 281.773438 124.246094 278.835938 125.398438 277.617188 125.777344 C 276.398438 126.15625 275.402344 127.398438 275.402344 128.546875 C 275.402344 130.148438 276.292969 130.5 279.257812 130.0625 C 284.027344 129.363281 285.21875 130.992188 282.296875 134.222656 C 279.613281 137.1875 275.6875 137.367188 271.882812 134.703125 C 269.808594 133.25 269.066406 131.457031 269.066406 127.890625 C 269.066406 122.40625 271.207031 120.003906 276.34375 119.722656 C 278.261719 119.613281 280.632812 119.023438 281.609375 118.410156 C 283.078125 117.484375 282.980469 116.992188 281.050781 115.582031 C 277.878906 113.261719 275.496094 113.441406 270.71875 116.351562 M 511.179688 122.273438 C 510.347656 124.105469 509.828125 125.734375 510.027344 125.902344 C 510.226562 126.0625 511.742188 126.902344 513.394531 127.765625 C 516 129.121094 516.761719 128.964844 519.097656 126.589844 L 521.792969 123.855469 L 518.800781 121.398438 C 514.785156 118.097656 512.988281 118.304688 511.179688 122.273438 M 533.027344 127.492188 C 531.960938 130.105469 529.699219 135.332031 527.992188 139.113281 C 525.582031 144.464844 525.253906 146.214844 526.511719 147.011719 C 529.332031 148.800781 530.183594 148.199219 532.242188 142.957031 C 535.121094 135.625 537.792969 136.761719 539.664062 146.105469 C 541.308594 154.3125 544.527344 158.207031 547.316406 155.371094 C 548.179688 154.492188 550.871094 149.117188 553.300781 143.425781 C 556.988281 134.78125 557.398438 132.953125 555.800781 132.34375 C 554.75 131.9375 553.703125 131.609375 553.480469 131.609375 C 553.253906 131.609375 551.519531 134.257812 549.621094 137.496094 C 545.675781 144.222656 545.042969 143.769531 542.742188 132.554688 C 541.769531 127.824219 540.417969 124.824219 538.886719 124.003906 C 535.414062 122.144531 535.140625 122.304688 533.027344 127.492188 M 248.796875 127 C 248.796875 127.949219 251.09375 133.625 253.902344 139.613281 C 257.621094 147.550781 259.511719 150.308594 260.867188 149.785156 C 263.609375 148.734375 263.246094 147.105469 257.710938 135.65625 C 254.660156 129.34375 251.925781 125.273438 250.742188 125.273438 C 249.671875 125.273438 248.796875 126.050781 248.796875 127 M 562.648438 150.71875 C 553.128906 158.097656 550.476562 162.027344 555.046875 161.988281 C 556.265625 161.976562 558.050781 161.472656 559.011719 160.863281 C 561.683594 159.171875 569.296875 164.144531 569.296875 167.582031 C 569.296875 170.222656 571.398438 173.410156 573.140625 173.410156 C 573.582031 173.410156 574.996094 167.652344 576.285156 160.621094 C 578.683594 147.5625 578.257812 143.984375 574.230469 143.375 C 573.257812 143.230469 568.046875 146.535156 562.648438 150.71875 M 567.539062 153.515625 C 565.695312 154.863281 565.644531 155.394531 567.160156 157.46875 C 569.171875 160.214844 571.832031 159.195312 571.832031 155.675781 C 571.832031 152.472656 570.132812 151.621094 567.539062 153.515625 M 213.320312 162.789062 C 192.914062 178.078125 163.121094 210.972656 146.75 236.296875 C 132.289062 258.664062 116.816406 293.277344 109.492188 319.652344 C 101.960938 346.769531 99.003906 368.691406 99.089844 396.78125 C 99.238281 444.523438 106.191406 480.488281 122.390625 517.308594 C 125.152344 523.578125 128.300781 530.847656 129.390625 533.457031 C 130.480469 536.070312 131.875 538.207031 132.496094 538.207031 C 133.117188 538.207031 135.9375 537.027344 138.769531 535.582031 C 144.953125 532.425781 145.007812 532.90625 136.226562 512.875 C 127.414062 492.765625 121.210938 471.367188 116.21875 443.839844 C 112.953125 425.832031 112.960938 373.226562 116.234375 355.808594 C 127.003906 298.46875 148.722656 252.140625 184.203125 210.835938 C 195.28125 197.941406 212.238281 181.9375 225.1875 172.164062 L 232.289062 166.800781 L 228.296875 161.238281 C 226.097656 158.179688 223.964844 155.675781 223.558594 155.675781 C 223.152344 155.675781 218.542969 158.875 213.320312 162.789062 M 591.464844 163.207031 C 584.246094 166.160156 581.46875 175.214844 585.703125 181.984375 C 588.566406 186.566406 593.402344 189.351562 596.453125 188.183594 C 599.542969 186.996094 598.789062 184.800781 594.808594 183.414062 C 589.726562 181.640625 587.746094 176.886719 590.152344 172.234375 C 593.386719 165.976562 598.253906 165.433594 603.558594 170.738281 C 606.507812 173.6875 607.492188 174.070312 608.613281 172.71875 C 610.34375 170.636719 608.535156 166.816406 604.476562 163.972656 C 601.46875 161.867188 595.585938 161.519531 591.464844 163.207031 M 371.457031 167.636719 C 358.578125 172.984375 349.46875 180.640625 339.714844 194.308594 C 333.980469 202.34375 329.9375 211.269531 324.808594 227.242188 C 320.960938 239.226562 320.75 240.890625 320.886719 258.109375 C 320.96875 268.121094 321.390625 277.8125 321.828125 279.640625 C 323.441406 286.371094 331.402344 301.519531 335.457031 305.574219 C 343.289062 313.40625 354.6875 320.019531 363.996094 322.136719 C 374.882812 324.613281 380.8125 324.648438 394.0625 322.316406 C 405.59375 320.289062 412.15625 317.398438 422.113281 309.964844 C 451.902344 287.722656 451.238281 227.972656 420.75 186.609375 C 406.097656 166.734375 389.242188 160.246094 371.457031 167.636719 M 448 168.503906 C 445.738281 169.152344 443.882812 170.351562 443.882812 171.175781 C 443.882812 172 445.847656 177.253906 448.246094 182.855469 C 453.738281 195.679688 458.652344 212.617188 460.933594 226.570312 C 461.902344 232.511719 463.355469 240.226562 464.15625 243.707031 C 469.082031 265.101562 469.703125 293.28125 465.535156 306.410156 C 464.097656 310.9375 462.910156 315.328125 462.902344 316.164062 C 462.871094 319.011719 472.339844 320.328125 492.023438 320.207031 C 513.605469 320.078125 517.765625 319.429688 518.410156 316.097656 C 518.644531 314.871094 517.382812 310.230469 515.605469 305.789062 C 512.949219 299.15625 503.726562 259.589844 502.992188 251.675781 C 502.421875 245.535156 506.441406 251.101562 516.980469 271.050781 C 529.777344 295.269531 532.066406 297.640625 539.976562 294.882812 C 543.5 293.652344 543.96875 292.730469 546.402344 282.152344 C 547.847656 275.882812 549.027344 267.25 549.027344 262.972656 C 549.027344 255.878906 549.203125 255.375 551.035156 257.207031 C 554 260.171875 559.003906 278.960938 559.917969 290.574219 C 560.585938 299.054688 560.265625 302.03125 557.964844 308.804688 C 556.035156 314.484375 555.613281 317.300781 556.550781 318.238281 C 558.550781 320.238281 570.367188 321.382812 590.273438 321.5 C 614.167969 321.644531 613.855469 321.914062 607.914062 306.375 C 605.394531 299.777344 602.484375 290.671875 601.449219 286.140625 C 599.640625 278.222656 588.238281 254.054688 578.085938 236.628906 C 572.859375 227.65625 563.449219 218.21875 544.890625 203.347656 C 529.839844 191.285156 517.753906 183.542969 513.980469 183.542969 L 510.992188 183.542969 L 515.28125 192.089844 C 520.1875 201.867188 522.078125 209.585938 523.226562 224.570312 C 524.253906 237.894531 522.132812 239.792969 516.773438 230.351562 C 516.050781 229.078125 511.09375 220.730469 505.761719 211.804688 C 500.429688 202.878906 495.214844 193.578125 494.171875 191.140625 C 492.78125 187.875 491.410156 184.597656 490.054688 181.316406 C 488.832031 178.351562 487.144531 175.355469 486.304688 174.660156 C 485.460938 173.964844 478.28125 172.234375 470.347656 170.820312 C 462.414062 169.410156 455.0625 168.046875 454.019531 167.789062 C 452.972656 167.535156 450.265625 167.859375 448 168.503906 M 316.570312 175.964844 C 313.085938 177.222656 306.253906 179.167969 301.386719 180.289062 C 286.980469 183.601562 275.753906 190.535156 255.269531 208.773438 C 244.753906 218.136719 222.613281 244.074219 213.34375 257.890625 C 206.898438 267.496094 201.925781 279.019531 201.925781 284.351562 C 201.925781 288.359375 204.855469 294.175781 210.191406 300.769531 C 215.070312 306.792969 234.101562 316.824219 244.742188 318.980469 C 248.433594 319.730469 262.03125 320.339844 274.953125 320.339844 L 298.453125 320.339844 L 302.039062 316.503906 C 307.558594 310.597656 312.171875 294.023438 310.332031 286.703125 C 309.570312 283.675781 309.074219 283.425781 305.203125 284.152344 C 302.847656 284.59375 296.460938 287.046875 291.011719 289.605469 C 274.734375 297.242188 261.289062 295.9375 254.4375 286.054688 C 250.054688 279.726562 249.414062 273.132812 251.789062 258.734375 C 255.113281 238.570312 267.8125 217.226562 281.128906 209.421875 C 289.605469 204.460938 296.445312 204.144531 305.699219 208.296875 C 312.761719 211.464844 313.734375 211.621094 315.492188 209.863281 C 319.007812 206.347656 326.242188 176.8125 324.082031 174.785156 C 323.40625 174.148438 320.226562 174.644531 316.570312 175.964844 M 608.679688 184.359375 C 601.246094 192.46875 599.734375 195.296875 602.058594 196.734375 C 603.5625 197.664062 619.96875 180.46875 619.96875 177.964844 C 619.96875 173.980469 616.269531 176.074219 608.679688 184.359375 M 620.421875 189.800781 C 613.355469 192.820312 611.191406 204.625 616.558594 210.867188 C 618.828125 213.503906 620.957031 214.410156 626.035156 214.898438 C 632.152344 215.484375 632.84375 215.253906 636.414062 211.433594 C 641.5625 205.921875 641.691406 199.140625 636.753906 193.617188 C 632.976562 189.390625 625.480469 187.636719 620.421875 189.800781 M 374.703125 196.808594 C 365.753906 203.863281 361.066406 224.140625 361.855469 252.394531 C 362.472656 274.671875 364.546875 283.066406 371.039062 289.558594 C 374.785156 293.304688 375.972656 293.742188 382.378906 293.742188 C 390.800781 293.742188 393.554688 291.488281 399.222656 279.945312 C 402.652344 272.964844 402.710938 272.445312 402.621094 250.042969 C 402.523438 225.191406 400.914062 215.257812 395.152344 203.886719 C 389.804688 193.332031 382.375 190.761719 374.703125 196.808594 M 620.546875 196.785156 C 618.835938 198.496094 617.433594 201.058594 617.433594 202.484375 C 617.433594 209.703125 629.390625 213.078125 633.378906 206.984375 C 634.746094 204.898438 635.160156 202.667969 634.59375 200.414062 C 632.839844 193.421875 625.742188 191.589844 620.546875 196.785156 M 645.085938 213.617188 C 642.765625 215.527344 640.078125 217.847656 639.109375 218.773438 C 638.140625 219.695312 636.003906 221.332031 634.359375 222.40625 C 632.714844 223.484375 631.371094 225.121094 631.371094 226.046875 C 631.371094 229.4375 634.085938 229.226562 639.25 225.429688 C 646.195312 220.324219 647.75 221.804688 644.910156 230.820312 C 642.289062 239.125 642.246094 241.0625 644.636719 243.046875 C 646.171875 244.320312 648.171875 243.285156 655.949219 237.183594 C 661.148438 233.109375 665.4375 229.097656 665.488281 228.265625 C 665.660156 225.25 663.027344 225.320312 658.042969 228.460938 C 651.691406 232.472656 649.820312 232.566406 650.886719 228.824219 C 652.839844 221.964844 654.042969 213.816406 653.367188 212.054688 C 652.289062 209.242188 649.828125 209.707031 645.085938 213.617188 M 662.40625 246.113281 C 654.253906 248.164062 650.890625 249.582031 650.597656 251.09375 C 650.296875 252.632812 651.085938 253.207031 653.503906 253.207031 C 655.367188 253.207031 658.230469 254.617188 660.035156 256.421875 C 662.792969 259.179688 663.128906 260.34375 662.398438 264.652344 C 661.890625 267.679688 662.046875 269.675781 662.796875 269.675781 C 664.351562 269.675781 670.320312 262.9375 675.714844 255.101562 C 679.214844 250.015625 679.601562 248.71875 678.414062 246.117188 C 676.761719 242.484375 676.84375 242.484375 662.40625 246.113281 M 665.152344 251.519531 C 663.449219 253.222656 664.375 255.742188 666.707031 255.742188 C 668.691406 255.742188 670.640625 253.496094 670.640625 251.203125 C 670.640625 250.339844 666.070312 250.601562 665.152344 251.519531 M 677.855469 270.488281 C 667.863281 275.519531 666.792969 276.398438 667.566406 278.90625 C 669.367188 284.734375 673.292969 291.207031 675.027344 291.207031 C 678.039062 291.207031 678.230469 289.324219 675.644531 285.070312 C 674.285156 282.839844 673.175781 280.472656 673.175781 279.8125 C 673.175781 279.152344 676.738281 276.847656 681.09375 274.695312 C 690.605469 269.992188 691.492188 269.207031 690.09375 266.761719 C 689.1875 265.179688 687.191406 265.789062 677.855469 270.488281 M 689.230469 319.355469 C 686.5625 320.0625 684.109375 321.34375 683.78125 322.207031 C 683.449219 323.070312 684.886719 330.273438 686.980469 338.210938 C 693.0625 361.316406 695.125 379.449219 695.167969 410.273438 C 695.210938 439.0625 693.40625 455.902344 688.257812 474.875 C 686.839844 480.097656 685.121094 486.65625 684.4375 489.441406 C 680.449219 505.683594 665.007812 539.917969 651.148438 563.234375 C 642.1875 578.316406 630.796875 592.121094 611.171875 611.695312 C 590.679688 632.132812 579.34375 641.402344 561.480469 652.308594 C 555.675781 655.855469 550.386719 659.277344 549.726562 659.914062 C 548.972656 660.640625 549.574219 663.234375 551.332031 666.851562 C 553.738281 671.808594 554.542969 672.507812 556.96875 671.777344 C 562.066406 670.234375 584.824219 654.597656 600.605469 641.792969 C 633.242188 615.3125 659.003906 582.664062 678.84375 542.640625 C 693.890625 512.292969 702.351562 485.117188 707.34375 451.089844 C 712.445312 416.347656 710.175781 369.457031 701.796875 336.5 C 700.15625 330.050781 698.449219 323.207031 698.003906 321.292969 C 697.132812 317.535156 696.570312 317.410156 689.230469 319.355469 M 183.859375 335.117188 C 175.699219 335.882812 174.441406 338.203125 174.222656 352.898438 C 174.125 359.308594 173.492188 369.855469 172.808594 376.332031 C 170.449219 398.730469 171.164062 421.011719 174.757812 436.921875 C 178.824219 454.945312 182.734375 463.230469 191.125 471.621094 C 203.238281 483.730469 215.976562 488.808594 234.242188 488.808594 C 247.804688 488.808594 257.992188 486.386719 270.15625 480.273438 C 285.25 472.683594 290.183594 464.945312 292.949219 444.507812 C 293.710938 438.890625 293.507812 431.5 292.300781 421.074219 C 291.097656 410.652344 290.800781 400.039062 291.367188 387.476562 C 292.183594 369.304688 292.25 368.972656 297.730469 356.59375 C 300.777344 349.714844 303.269531 343.367188 303.269531 342.492188 C 303.269531 340.148438 299.6875 339.523438 277.167969 337.933594 C 260.1875 336.734375 256.15625 336.785156 253.101562 338.25 L 249.429688 340.003906 L 248.609375 374.1875 C 248.160156 393.042969 248.300781 411.148438 248.925781 414.5625 C 250.449219 422.84375 250.363281 432.828125 248.703125 440.5625 C 247.171875 447.710938 240.753906 454.609375 235.640625 454.609375 C 228.96875 454.609375 219.046875 444.449219 217.875 436.417969 C 215.105469 417.429688 214.296875 404.800781 215.007812 391.648438 C 216.167969 370.261719 217.808594 362.984375 224.191406 350.914062 C 227.273438 345.089844 229.796875 339.597656 229.796875 338.714844 C 229.796875 337.828125 228.511719 336.742188 226.945312 336.296875 C 223.246094 335.25 191.667969 334.382812 183.859375 335.117188 M 578.785156 338.066406 C 551.394531 347.480469 539.898438 367.5 538.046875 409.007812 C 537.378906 424.039062 537.617188 427.390625 540.042969 436.722656 C 545.359375 457.203125 550.179688 465.652344 561.777344 474.820312 C 573.011719 483.699219 580.046875 485.371094 618.703125 488.347656 C 626.492188 488.945312 627.191406 488.769531 631.632812 485.046875 C 636.695312 480.804688 645.882812 464 647.316406 456.363281 C 648.691406 449.03125 647.023438 448.761719 631.796875 453.832031 C 604.539062 462.914062 591.773438 459.160156 586.210938 440.433594 C 583.640625 431.785156 584.40625 391.738281 587.335938 381.371094 C 589.617188 373.304688 595.375 366.878906 602.140625 364.851562 C 610.597656 362.320312 612.421875 362.710938 633.695312 371.632812 C 646.277344 376.90625 647.5 375.019531 642.3125 358.339844 C 639.0625 347.898438 635.011719 339.257812 632.414062 337.230469 C 631.40625 336.445312 621.644531 335.917969 607.933594 335.90625 C 589.621094 335.886719 583.882812 336.3125 578.785156 338.066406 M 322.726562 341.988281 C 317.511719 343.5 317.074219 345.058594 319.324219 354.019531 C 320.667969 359.351562 321.527344 373.902344 322.320312 404.574219 C 323.378906 445.550781 322.847656 459.609375 319.945312 467.441406 C 318.039062 472.59375 319.339844 473.609375 327.859375 473.609375 C 338.832031 473.609375 362.980469 471.070312 365.660156 469.636719 C 368.640625 468.042969 368.507812 466.742188 363.9375 453.082031 C 360.78125 443.644531 359.871094 438.457031 359.339844 426.933594 C 358.769531 414.488281 358.941406 412.617188 360.613281 413 C 364.433594 413.875 392.980469 446.828125 397.707031 455.820312 C 403.617188 467.066406 406.511719 468.542969 422.660156 468.542969 C 432.484375 468.542969 434.96875 468.144531 436.535156 466.324219 C 438.175781 464.417969 438.414062 456.933594 438.222656 412.964844 C 438.003906 362.921875 438.058594 361.644531 440.84375 353.679688 L 443.6875 345.535156 L 440.300781 344.242188 C 435.902344 342.558594 396.339844 343.300781 394.542969 345.101562 C 393.621094 346.027344 394.164062 349.699219 396.339844 357.203125 C 400.167969 370.40625 402.628906 389.980469 400.695312 391.871094 C 399.046875 393.476562 396.136719 390.046875 384.886719 373.242188 C 375.613281 359.386719 372.945312 353.816406 372.945312 348.304688 C 372.945312 344.03125 373.84375 344.308594 352.433594 341.957031 C 338.027344 340.375 328.261719 340.386719 322.726562 341.988281 M 478.722656 341.894531 C 464.199219 342.804688 460.34375 343.695312 460.367188 346.128906 C 460.371094 346.925781 461.851562 350.710938 463.65625 354.542969 C 470.300781 368.65625 470.761719 371.410156 471.40625 400.816406 C 472.179688 435.90625 470.828125 444.316406 460.816406 466.859375 C 459.660156 469.464844 465.53125 471.390625 481.84375 473.769531 C 499.144531 476.292969 511.898438 476.753906 514.730469 474.960938 C 516.269531 473.988281 516.296875 472.523438 514.925781 465.160156 C 513.796875 459.105469 513.574219 451.179688 514.183594 438.773438 C 514.664062 429.023438 514.910156 413.917969 514.738281 405.207031 C 514.167969 377.039062 514.457031 352.753906 515.421875 347.910156 C 516.289062 343.566406 516.089844 343.078125 512.980469 341.894531 C 509.339844 340.511719 500.757812 340.511719 478.722656 341.894531 M 419.914062 481.542969 C 416.128906 483.476562 414.230469 488.816406 415.300781 494.527344 C 415.992188 498.210938 416.75 498.964844 420.457031 499.660156 C 423.160156 500.167969 427.054688 499.707031 430.765625 498.441406 C 438.648438 495.757812 442.09375 495.875 447.164062 499.011719 C 455.746094 504.316406 475.632812 503.554688 477.375 497.855469 C 478.664062 493.644531 478.566406 486.246094 477.203125 484.882812 C 475.820312 483.5 468.164062 483.851562 459.320312 485.707031 C 456.058594 486.390625 453.753906 485.84375 449.015625 483.265625 C 443.878906 480.46875 441.324219 479.945312 432.945312 479.960938 C 427.464844 479.96875 421.601562 480.683594 419.914062 481.542969 M 377.703125 507.269531 C 377.304688 507.671875 369.371094 508.4375 360.074219 508.972656 C 344.730469 509.859375 342.464844 510.308594 335.464844 513.859375 C 318.816406 522.300781 311.71875 537.175781 314.5625 557.644531 C 317.757812 580.601562 330.875 601 352.289062 616.316406 C 357.019531 619.699219 362.175781 624.917969 365.261719 629.4375 C 369.90625 636.242188 370.242188 637.253906 368.859375 640.289062 C 367.484375 643.3125 367.679688 643.933594 370.84375 646.65625 C 374.90625 650.152344 378.277344 650.507812 380.617188 647.6875 C 381.988281 646.035156 381.816406 644.160156 379.601562 636.644531 C 378.136719 631.664062 377.210938 627.144531 377.550781 626.597656 C 377.886719 626.054688 382.421875 625.609375 387.625 625.609375 C 398.746094 625.609375 398.789062 625.554688 398.835938 612.308594 C 398.871094 602.121094 397.648438 596.472656 395.40625 596.472656 C 394.546875 596.472656 390.710938 598.160156 386.878906 600.226562 C 370.886719 608.828125 359.445312 602.179688 350.738281 579.21875 C 347.0625 569.519531 344.667969 548.019531 346.519531 541.3125 C 348.359375 534.652344 352.9375 531.476562 361.601562 530.847656 C 367.917969 530.394531 370.535156 530.886719 376.863281 533.726562 C 386.929688 538.242188 388.144531 537.648438 388.144531 528.175781 C 388.144531 516.398438 386 508.207031 382.683594 507.320312 C 379.179688 506.378906 378.601562 506.375 377.703125 507.269531 M 417.355469 508.9375 C 416.691406 510.175781 416.664062 511.871094 417.289062 512.882812 C 419.328125 516.183594 419.902344 526.136719 418.601562 535.675781 C 417.257812 545.519531 415.660156 561.277344 413.460938 586.339844 C 412.757812 594.351562 411.53125 605.589844 410.734375 611.308594 C 408.734375 625.695312 409.078125 626.027344 425.152344 625.382812 C 440.027344 624.785156 442 623.574219 440.4375 616.007812 C 439.871094 613.277344 439.703125 608.476562 440.0625 605.339844 C 440.664062 600.105469 441.027344 599.609375 444.519531 599.269531 C 446.609375 599.0625 449.386719 599.675781 450.691406 600.628906 C 452.953125 602.289062 452.964844 602.6875 451.007812 609.429688 C 448.015625 619.71875 448.261719 623.914062 451.894531 624.609375 C 455.738281 625.34375 471.46875 623.628906 475.667969 622.019531 L 478.945312 620.757812 L 480.074219 595 C 480.695312 580.832031 481.335938 558.410156 481.5 545.175781 C 481.660156 531.9375 481.957031 519.398438 482.160156 517.308594 C 482.511719 513.613281 482.3125 513.464844 474.921875 511.953125 C 464.207031 509.757812 446.738281 507.875 431.519531 507.277344 C 420.210938 506.832031 418.367188 507.050781 417.355469 508.9375 M 213.761719 518.640625 C 213.480469 519.375 214.140625 522.105469 215.226562 524.710938 C 216.316406 527.320312 218.328125 534.984375 219.695312 541.746094 C 221.667969 551.5 223.933594 557.511719 230.675781 570.84375 C 235.351562 580.082031 240.359375 588.757812 241.804688 590.117188 C 245.835938 593.902344 281.101562 608.933594 282.550781 607.480469 C 282.714844 607.316406 280.605469 604.238281 277.859375 600.636719 C 271.691406 592.550781 271.503906 590.820312 276.917969 591.902344 C 283.117188 593.140625 286.488281 595.9375 289.898438 602.664062 C 291.609375 606.046875 294.777344 610.296875 296.933594 612.109375 C 303.421875 617.570312 329.875 624.386719 329.875 620.597656 C 329.875 619.753906 326.515625 614.976562 322.410156 609.984375 C 311.644531 596.890625 305.460938 586.84375 295.375 566.074219 C 290.46875 555.972656 284.539062 543.785156 282.195312 538.988281 C 279.355469 533.179688 277.933594 528.4375 277.933594 524.78125 C 277.933594 520.660156 277.328125 518.972656 275.492188 517.988281 C 272.15625 516.207031 214.464844 516.816406 213.761719 518.640625 M 543.328125 519.699219 C 525.648438 524.476562 517.222656 531.339844 509.496094 547.25 C 500.867188 565.019531 496.152344 592.539062 499.574219 605.175781 C 501.316406 611.621094 507.257812 617.664062 512.886719 618.714844 C 527.046875 621.363281 558.929688 602.917969 585.261719 576.84375 C 607.765625 554.5625 611.203125 543.15625 598.863281 531.703125 C 587.515625 521.167969 559.941406 515.207031 543.328125 519.699219 M 447.160156 535.992188 C 445.535156 544.039062 442.421875 576.398438 443.101562 578.167969 C 443.707031 579.746094 444.820312 580.007812 448 579.316406 C 450.265625 578.824219 452.40625 577.980469 452.753906 577.441406 C 453.101562 576.902344 453.21875 566.714844 453.011719 554.800781 C 452.65625 534.355469 452.5 533.140625 450.183594 533.140625 C 448.660156 533.140625 447.515625 534.214844 447.160156 535.992188 M 553.179688 536.511719 C 545.636719 538.113281 536.128906 555.128906 530.105469 577.804688 C 525.816406 593.945312 526.761719 599.488281 533.769531 599.285156 C 549.917969 598.828125 572.429688 565.890625 570.199219 545.992188 C 569.859375 542.960938 568.804688 539.710938 567.855469 538.769531 C 565.945312 536.875 557.554688 535.582031 553.179688 536.511719 M 249.382812 541.574219 C 249.847656 544.25 252.394531 552.699219 255.042969 560.347656 L 259.851562 574.253906 L 264.6875 575.257812 C 267.34375 575.808594 269.945312 575.824219 270.46875 575.285156 C 271.984375 573.722656 253.347656 537.644531 250.765625 537.140625 C 248.835938 536.765625 248.648438 537.363281 249.382812 541.574219 M 165.34375 567.457031 C 159.6875 571.726562 155.054688 575.796875 155.054688 576.496094 C 155.054688 578.957031 164.921875 587.609375 167.890625 587.753906 C 174.195312 588.058594 176.082031 587.34375 180.074219 583.128906 C 184.757812 578.179688 185.105469 575.175781 181.832031 567.972656 C 177.644531 558.773438 176.878906 558.75 165.34375 567.457031 M 167.378906 572.5 C 161.910156 577.003906 161.722656 577.808594 165.300781 581.382812 C 167.257812 583.339844 168.816406 583.808594 171.316406 583.1875 C 175.957031 582.027344 179.125 578.902344 179.125 575.480469 C 179.125 567.582031 174.707031 566.460938 167.378906 572.5 M 185.921875 593.164062 C 180.257812 595.5 174.953125 597.820312 174.144531 598.320312 C 171.546875 599.925781 174.988281 602.417969 178.988281 601.832031 C 181.960938 601.394531 183.15625 601.980469 184.984375 604.773438 C 186.242188 606.691406 187.289062 610.023438 187.316406 612.183594 C 187.394531 619.066406 190.632812 616.585938 196.957031 604.785156 C 201.652344 596.03125 202.75 592.945312 201.800781 591.167969 C 200.097656 587.992188 197.769531 588.285156 185.921875 593.164062 M 189.574219 597.3125 C 188.707031 597.664062 187.992188 598.796875 187.992188 599.835938 C 187.992188 602.523438 193.558594 601.476562 194.089844 598.691406 C 194.503906 596.527344 192.804688 596.007812 189.574219 597.3125 M 216.386719 614.742188 C 203.410156 620.390625 204.175781 637.378906 217.523438 640.058594 C 221.359375 640.832031 228.859375 638.28125 230.484375 635.652344 C 231.929688 633.316406 222.191406 625.300781 220.058594 627.070312 C 218.820312 628.097656 218.894531 628.992188 220.410156 631.304688 C 222.914062 635.128906 220.660156 636.6875 216.535156 633.984375 C 212.417969 631.285156 211.410156 627.421875 213.855469 623.691406 C 218.28125 616.933594 224.007812 616.722656 228.582031 623.148438 C 231.691406 627.511719 233.597656 627.933594 233.597656 624.257812 C 233.597656 619.980469 231.132812 616.640625 226.570312 614.734375 C 221.429688 612.585938 221.335938 612.585938 216.386719 614.742188 M 235.679688 638.589844 C 230.753906 646.164062 229.238281 649.488281 230.164062 650.667969 C 231.175781 651.949219 232.050781 651.722656 234.328125 649.585938 C 237.707031 646.410156 239.929688 647.265625 239.929688 651.734375 C 239.929688 655.429688 242.015625 659.808594 243.777344 659.808594 C 244.449219 659.808594 245 657.855469 245 655.472656 C 245 651.640625 245.511719 650.96875 249.441406 649.671875 C 254.183594 648.105469 256.398438 645.246094 256.398438 640.695312 C 256.398438 637.585938 247.308594 628.140625 244.316406 628.140625 C 243.304688 628.140625 239.417969 632.84375 235.679688 638.589844 M 242.71875 637.261719 C 240.570312 639.40625 240.832031 642.929688 243.203125 643.839844 C 249.171875 646.128906 252.753906 643.300781 250.117188 638.375 C 248.554688 635.453125 245.050781 634.925781 242.71875 637.261719 M 261.984375 655.234375 C 252.058594 664.511719 250.566406 667.941406 257.621094 665.28125 C 260.617188 664.148438 261.980469 664.328125 265.171875 666.269531 C 267.3125 667.570312 269.066406 669.714844 269.066406 671.035156 C 269.066406 672.351562 269.964844 674.175781 271.0625 675.085938 C 274.027344 677.546875 274.914062 675.3125 276.769531 660.765625 C 278.136719 650.035156 278.105469 648.027344 276.570312 647.054688 C 273.382812 645.039062 272.179688 645.714844 261.984375 655.234375 M 266.960938 657.992188 C 266.042969 660.375 268.285156 662.972656 270.222656 661.777344 C 272.3125 660.484375 271.875 656.007812 269.660156 656.007812 C 268.59375 656.007812 267.378906 656.902344 266.960938 657.992188 M 290.542969 662.023438 C 285.234375 666.769531 284.023438 674.871094 287.847656 680.042969 C 289.644531 682.476562 290.398438 685.128906 290.15625 688.195312 C 289.867188 691.875 290.234375 692.742188 292.101562 692.742188 C 293.710938 692.742188 294.402344 691.789062 294.402344 689.574219 C 294.402344 687.367188 295.097656 686.40625 296.683594 686.40625 C 298.953125 686.40625 302.003906 684.160156 302.003906 682.492188 C 302.003906 682.007812 300.4375 681.222656 298.519531 680.746094 C 290.34375 678.707031 288.183594 672.0625 293.953125 666.714844 C 297.917969 663.039062 299.742188 662.875 304.621094 665.757812 C 308.726562 668.183594 310.214844 667.527344 309.035156 663.808594 C 308.195312 661.160156 302.414062 658.539062 297.402344 658.539062 C 295.773438 658.539062 292.6875 660.109375 290.542969 662.023438 M 497.445312 663.632812 C 494.050781 665 492.554688 670 494.472656 673.582031 C 495.238281 675.015625 498.070312 676.78125 500.765625 677.507812 C 506.074219 678.9375 509.46875 681.855469 507.34375 683.167969 C 506.644531 683.597656 504.683594 683.601562 502.988281 683.175781 C 499.339844 682.261719 497.480469 684.457031 499.671875 687.097656 C 501.882812 689.765625 507.617188 689.363281 511.558594 686.261719 C 516.78125 682.152344 515.492188 678.851562 506.914062 674.375 C 498.765625 670.121094 497.859375 668.675781 503.351562 668.675781 C 508.230469 668.675781 509.238281 666.808594 505.699219 664.328125 C 502.515625 662.101562 501.472656 662.011719 497.445312 663.632812 M 318.203125 675.152344 C 308.554688 688.90625 308.289062 689.394531 309.9375 690.414062 C 310.769531 690.925781 312.429688 690.457031 313.628906 689.371094 C 316.957031 686.359375 325.09375 688.589844 326.078125 692.777344 C 326.515625 694.652344 327.855469 696.058594 329.417969 696.289062 C 331.9375 696.652344 332.007812 696.214844 331.492188 683.621094 C 330.839844 667.75 330.742188 667.40625 326.792969 667.40625 C 324.363281 667.40625 322.382812 669.191406 318.203125 675.152344 M 482.355469 669.285156 C 481.960938 670.316406 482.546875 673.839844 483.664062 677.109375 C 486.5 685.4375 486.238281 688.523438 482.488281 690.980469 C 479.496094 692.941406 479.132812 692.929688 476.800781 690.820312 C 475.386719 689.542969 473.636719 685.304688 472.75 681.007812 C 471.207031 673.554688 469.019531 670.902344 466.496094 673.425781 C 464.804688 675.113281 468.703125 689.210938 472.03125 693.4375 C 477.210938 700.023438 490.757812 695.925781 490.757812 687.773438 C 490.757812 681.816406 486.546875 667.40625 484.808594 667.40625 C 483.855469 667.40625 482.753906 668.253906 482.355469 669.285156 M 452.996094 674.652344 C 450.691406 674.941406 448.488281 676.003906 448.105469 677.011719 C 447.410156 678.816406 449.734375 697.605469 451.085938 701.128906 C 451.75 702.855469 456.09375 702.730469 463.203125 700.777344 C 467.316406 699.652344 465.652344 696.714844 460.671875 696.300781 C 456.894531 695.988281 455.921875 695.386719 455.921875 693.375 C 455.921875 691.710938 456.898438 690.703125 458.769531 690.4375 C 460.601562 690.175781 461.621094 689.15625 461.621094 687.585938 C 461.621094 685.714844 460.730469 685.140625 457.820312 685.140625 C 454.847656 685.140625 454.019531 684.582031 454.019531 682.574219 C 454.019531 680.730469 455.101562 679.792969 457.878906 679.238281 C 460.515625 678.710938 461.617188 677.824219 461.347656 676.433594 C 460.921875 674.203125 459.296875 673.855469 452.996094 674.652344 M 322.332031 678.105469 C 320.449219 680.375 321.554688 684.324219 323.859375 683.558594 C 325.871094 682.886719 326.683594 678.910156 325.125 677.351562 C 324.386719 676.617188 323.328125 676.902344 322.332031 678.105469 M 359.066406 679.296875 C 357.53125 683.332031 355.183594 700.539062 355.988281 701.84375 C 356.90625 703.328125 370.128906 703.113281 373.015625 701.570312 C 374.355469 700.851562 376.3125 698.601562 377.367188 696.566406 C 381.203125 689.144531 379.050781 681.644531 372.144531 678.351562 C 365.625 675.242188 360.464844 675.617188 359.066406 679.296875 M 386.339844 680.324219 C 386.054688 681.230469 385.5 687.246094 385.101562 693.691406 L 384.375 705.40625 L 391.960938 705.40625 C 397.859375 705.40625 399.546875 704.984375 399.546875 703.507812 C 399.546875 702.367188 398.378906 701.609375 396.621094 701.609375 C 392.722656 701.609375 388.371094 698.382812 390.046875 696.734375 C 390.742188 696.050781 392.730469 695.296875 394.46875 695.066406 C 398.816406 694.480469 399.585938 690.207031 395.34375 690.207031 C 392.253906 690.207031 390.003906 687.261719 391.382812 685.027344 C 391.777344 684.390625 394.097656 683.875 396.546875 683.875 C 400.105469 683.875 400.914062 683.429688 400.578125 681.65625 C 400.253906 679.945312 398.648438 679.355469 393.503906 679.058594 C 388.875 678.792969 386.695312 679.175781 386.339844 680.324219 M 421.535156 686.59375 C 421.984375 690.875 422.351562 696.859375 422.351562 699.894531 L 422.351562 705.40625 L 427.101562 705.378906 C 429.714844 705.363281 434.238281 704.269531 437.160156 702.941406 C 441.570312 700.941406 442.613281 699.765625 443.316406 696.003906 C 445.566406 684.019531 440.902344 678.808594 427.933594 678.808594 L 420.722656 678.808594 Z M 363.652344 682.289062 C 363.335938 682.8125 362.875 686.375 362.628906 690.207031 C 362.1875 697.042969 362.246094 697.183594 365.773438 697.585938 C 373.402344 698.457031 377.644531 687.691406 371.394531 683.3125 C 368.40625 681.21875 364.605469 680.714844 363.652344 682.289062 M 427.289062 684.425781 C 426.988281 684.726562 427.035156 688.289062 427.394531 692.339844 C 427.941406 698.503906 428.46875 699.765625 430.609375 700.074219 C 434.082031 700.570312 438.816406 695.898438 438.816406 691.976562 C 438.816406 686.503906 436.613281 683.875 432.015625 683.875 C 429.71875 683.875 427.59375 684.121094 427.289062 684.425781 " fill-opacity="1" fill-rule="evenodd"/></svg>