<?xml version="1.0" standalone="no"?>
<!DOCTYPE svg PUBLIC "-//W3C//DTD SVG 1.1//EN" "http://www.w3.org/Graphics/SVG/1.1/DTD/svg11.dtd">
<svg xmlns="http://www.w3.org/2000/svg" xmlns:xlink="http://www.w3.org/1999/xlink" width="810" zoomAndPan="magnify" viewBox="0 0 810 809.999993" height="810" preserveAspectRatio="xMidYMid meet" version="1.0"><defs><clipPath id="5ab39ea8bf"><path d="M 74.488281 74.488281 L 735.511719 74.488281 L 735.511719 735.511719 L 74.488281 735.511719 Z M 74.488281 74.488281 " clip-rule="nonzero"/></clipPath><clipPath id="9011b74a0b"><path d="M 405 74.488281 C 222.460938 74.488281 74.488281 222.460938 74.488281 405 C 74.488281 587.539062 222.460938 735.511719 405 735.511719 C 587.539062 735.511719 735.511719 587.539062 735.511719 405 C 735.511719 222.460938 587.539062 74.488281 405 74.488281 Z M 405 74.488281 " clip-rule="nonzero"/></clipPath></defs><g clip-path="url(#5ab39ea8bf)"><g clip-path="url(#9011b74a0b)"><path fill="#000000" d="M 74.488281 74.488281 L 735.511719 74.488281 L 735.511719 735.511719 L 74.488281 735.511719 Z M 74.488281 74.488281 " fill-opacity="1" fill-rule="nonzero"/></g></g><path fill="#ffffff" d="M 377.425781 26.039062 C 354.09375 28.394531 344.703125 29.75 329.285156 32.992188 C 304.449219 38.222656 290.953125 42.054688 271.441406 49.417969 C 197.050781 77.5 134.722656 126.878906 90.15625 193.027344 C 62.957031 233.394531 41.871094 284.21875 33.601562 329.335938 C 27.640625 361.863281 26.679688 372.265625 26.699219 404.066406 C 26.71875 431.636719 27.105469 437.511719 30.160156 456.640625 C 34.429688 483.363281 38.363281 500.210938 45.097656 520.613281 C 78.261719 621.105469 150.019531 701.875 245.675781 746.375 C 358.957031 799.078125 492.421875 791.546875 599.894531 726.390625 C 626.027344 710.550781 647.308594 693.617188 671.375 669.527344 C 704.03125 636.84375 724.757812 607.570312 744.78125 565.855469 C 793.417969 464.542969 794.21875 347.933594 746.980469 244.609375 C 693.84375 128.382812 582.21875 46.148438 453.476562 28.386719 C 440.191406 26.554688 388.230469 24.949219 377.425781 26.039062 M 373.234375 104.140625 C 371.011719 110.648438 369.191406 116.664062 369.191406 117.503906 C 369.191406 119.949219 372.824219 119.265625 374.550781 116.496094 C 376.515625 113.359375 385.757812 112.929688 388.195312 115.863281 C 390.105469 118.167969 393.292969 118.371094 393.179688 116.179688 C 393.136719 115.308594 391.222656 109.75 388.929688 103.828125 C 385.101562 93.949219 384.445312 93.027344 381.015625 92.683594 C 377.355469 92.3125 377.1875 92.554688 373.234375 104.140625 M 355.554688 94.597656 C 354.34375 95.039062 354.15625 97.652344 354.78125 105.179688 C 355.519531 114.035156 355.359375 115.269531 353.367188 116.035156 C 352.132812 116.507812 350.0625 116.238281 348.769531 115.429688 C 345.617188 113.460938 343.855469 113.582031 343.855469 115.773438 C 343.855469 121.054688 352.191406 123.316406 357.632812 119.503906 C 360.375 117.582031 360.542969 116.746094 360.128906 106.902344 C 359.691406 96.398438 358.605469 93.480469 355.554688 94.597656 M 423.53125 94.011719 C 423.242188 94.691406 420.132812 118.410156 420.308594 118.59375 C 420.414062 118.699219 421.632812 118.984375 423.019531 119.226562 C 425.320312 119.625 425.652344 118.597656 426.867188 107.253906 C 427.597656 100.429688 427.9375 94.585938 427.617188 94.269531 C 427.015625 93.667969 423.765625 93.460938 423.53125 94.011719 M 434.445312 95.277344 C 433.824219 97.09375 431.265625 115.773438 431.265625 118.488281 C 431.265625 119.484375 432.34375 120.296875 433.664062 120.296875 C 435.515625 120.296875 436.304688 118.957031 437.148438 114.382812 C 437.746094 111.132812 438.867188 108.261719 439.640625 108.003906 C 440.417969 107.746094 442.667969 110.730469 444.644531 114.640625 C 448.234375 121.730469 452.140625 125.289062 454.117188 123.265625 C 455.871094 121.472656 459.222656 99.605469 457.9375 98.324219 C 455.511719 95.898438 452.953125 98.628906 452.5625 104.066406 C 451.988281 112.007812 448.972656 111.882812 445.167969 103.757812 C 441.339844 95.585938 435.828125 91.230469 434.445312 95.277344 M 323.585938 99.675781 C 321.84375 99.988281 319.921875 100.71875 319.316406 101.300781 C 317.835938 102.722656 322.503906 125.515625 324.429688 126.253906 C 325.257812 126.570312 328.683594 126.054688 332.042969 125.105469 C 339.820312 122.910156 340.445312 119.664062 333.085938 119.664062 C 328.863281 119.664062 328.019531 119.242188 328.019531 117.128906 C 328.019531 115.46875 329 114.457031 330.871094 114.191406 C 332.765625 113.921875 333.71875 112.917969 333.71875 111.195312 C 333.71875 109.289062 333.09375 108.765625 331.367188 109.214844 C 328.753906 109.898438 324.851562 108.160156 324.851562 106.316406 C 324.851562 105.664062 326.886719 104.277344 329.378906 103.238281 C 336.757812 100.15625 333.179688 97.953125 323.585938 99.675781 M 465.46875 101.679688 C 465.46875 102.769531 466.675781 104.039062 468.144531 104.507812 C 470.46875 105.242188 470.714844 106.011719 470.023438 110.339844 C 469.585938 113.082031 468.460938 117.546875 467.523438 120.265625 C 466.320312 123.753906 466.214844 125.605469 467.164062 126.554688 C 470 129.386719 471.417969 127.582031 473.59375 118.339844 C 475.660156 109.570312 476.144531 108.726562 479.445312 108.066406 C 485.023438 106.949219 485.136719 104.136719 479.664062 102.59375 C 469.890625 99.84375 465.46875 99.558594 465.46875 101.679688 M 378.675781 103.882812 C 377.738281 106.839844 378.8125 108.894531 381.300781 108.894531 C 383.710938 108.894531 383.703125 103.054688 381.289062 102.128906 C 380.183594 101.703125 379.148438 102.398438 378.675781 103.882812 M 296.105469 106.953125 L 292.058594 108.714844 L 294.679688 117.988281 C 298.394531 131.148438 299.207031 132.964844 301.382812 132.964844 C 302.746094 132.964844 303.316406 131.660156 303.316406 128.53125 C 303.316406 123.257812 306 122.605469 310.457031 126.792969 C 312.125 128.359375 314.164062 129.164062 315.339844 128.710938 C 317.113281 128.03125 317.035156 127.5 314.695312 124.339844 C 312.425781 121.269531 312.257812 120.257812 313.539062 117.445312 C 317.765625 108.164062 307.511719 101.992188 296.105469 106.953125 M 488.984375 106.238281 C 487.464844 108.695312 482.207031 129.917969 482.957031 130.578125 C 484.355469 131.804688 492.214844 134.234375 494.796875 134.234375 C 498.53125 134.234375 497.511719 130.808594 493.339844 129.355469 C 490.726562 128.441406 489.539062 127.191406 489.539062 125.335938 C 489.539062 123.054688 490.171875 122.703125 493.636719 123.050781 C 498.875 123.578125 500.273438 119.773438 495.304688 118.527344 C 493.128906 117.980469 492.074219 116.847656 492.074219 115.0625 C 492.074219 112.636719 492.558594 112.480469 497.773438 113.265625 C 502.75 114.007812 503.476562 113.824219 503.472656 111.824219 C 503.472656 110.136719 501.625 108.984375 496.480469 107.472656 C 492.636719 106.339844 489.265625 105.785156 488.984375 106.238281 M 300.003906 111.988281 C 298.777344 115.175781 300.085938 118.382812 302.765625 118.769531 C 306.023438 119.238281 309.984375 115.035156 308.910156 112.246094 C 307.910156 109.632812 300.984375 109.433594 300.003906 111.988281 M 504.96875 124.230469 C 502.761719 130.578125 501.273438 136.277344 501.65625 136.902344 C 502.910156 138.925781 505.695312 138.097656 506.375 135.5 C 506.757812 134.035156 508.105469 132.964844 509.566406 132.964844 C 511.441406 132.964844 512.382812 134.1875 513.214844 137.707031 C 514.726562 144.113281 518.675781 145.078125 518.675781 139.042969 C 518.675781 135.910156 519.675781 133.921875 522.476562 131.460938 C 524.722656 129.492188 526.277344 126.878906 526.277344 125.082031 C 526.277344 120.375 517.042969 112.695312 511.378906 112.695312 C 509.492188 112.695312 508.121094 115.171875 504.96875 124.230469 M 270.765625 116.441406 C 264.734375 120.117188 262.308594 124.511719 263.207031 130.140625 C 264.304688 137.039062 268.933594 140.566406 276.882812 140.566406 C 282.222656 140.566406 283.835938 139.972656 286.945312 136.863281 C 289.570312 134.238281 290.644531 131.933594 290.628906 128.945312 C 290.597656 122.234375 289.28125 121.082031 284.195312 123.296875 C 281.820312 124.332031 278.882812 125.488281 277.664062 125.867188 C 276.445312 126.242188 275.445312 127.488281 275.445312 128.636719 C 275.445312 130.238281 276.339844 130.589844 279.300781 130.152344 C 284.074219 129.453125 285.265625 131.082031 282.339844 134.3125 C 279.660156 137.277344 275.730469 137.457031 271.929688 134.792969 C 269.851562 133.34375 269.113281 131.546875 269.113281 127.980469 C 269.113281 122.496094 271.25 120.09375 276.386719 119.808594 C 278.308594 119.703125 280.679688 119.113281 281.65625 118.496094 C 283.125 117.570312 283.027344 117.082031 281.097656 115.667969 C 277.925781 113.351562 275.542969 113.527344 270.765625 116.441406 M 511.230469 122.359375 C 510.398438 124.191406 509.878906 125.824219 510.078125 125.992188 C 510.277344 126.152344 511.792969 126.992188 513.449219 127.855469 C 516.050781 129.210938 516.8125 129.054688 519.148438 126.679688 L 521.84375 123.941406 L 518.851562 121.488281 C 514.835938 118.1875 513.039062 118.390625 511.230469 122.359375 M 533.078125 127.582031 C 532.015625 130.195312 529.75 135.425781 528.046875 139.207031 C 525.632812 144.554688 525.304688 146.304688 526.5625 147.101562 C 529.382812 148.894531 530.234375 148.289062 532.292969 143.046875 C 535.171875 135.71875 537.84375 136.851562 539.71875 146.199219 C 541.363281 154.40625 544.578125 158.300781 547.367188 155.464844 C 548.230469 154.585938 550.925781 149.210938 553.351562 143.515625 C 557.039062 134.871094 557.449219 133.046875 555.851562 132.433594 C 554.800781 132.03125 553.757812 131.699219 553.53125 131.699219 C 553.304688 131.699219 551.570312 134.347656 549.671875 137.585938 C 545.726562 144.316406 545.09375 143.863281 542.792969 132.644531 C 541.824219 127.914062 540.46875 124.914062 538.9375 124.09375 C 535.464844 122.234375 535.195312 122.394531 533.078125 127.582031 M 248.84375 127.089844 C 248.84375 128.039062 251.140625 133.714844 253.945312 139.703125 C 257.667969 147.644531 259.554688 150.398438 260.914062 149.878906 C 263.65625 148.828125 263.292969 147.195312 257.757812 135.75 C 254.703125 129.433594 251.972656 125.363281 250.789062 125.363281 C 249.71875 125.363281 248.84375 126.140625 248.84375 127.089844 M 562.699219 150.8125 C 553.183594 158.191406 550.53125 162.121094 555.097656 162.082031 C 556.320312 162.070312 558.101562 161.566406 559.0625 160.957031 C 561.734375 159.265625 569.351562 164.238281 569.351562 167.675781 C 569.351562 170.316406 571.449219 173.503906 573.191406 173.503906 C 573.632812 173.503906 575.050781 167.75 576.339844 160.714844 C 578.734375 147.65625 578.308594 144.074219 574.28125 143.46875 C 573.3125 143.320312 568.101562 146.625 562.699219 150.8125 M 567.59375 153.605469 C 565.746094 154.957031 565.695312 155.484375 567.214844 157.5625 C 569.222656 160.308594 571.882812 159.289062 571.882812 155.769531 C 571.882812 152.566406 570.183594 151.710938 567.59375 153.605469 M 213.367188 162.882812 C 192.957031 178.171875 163.164062 211.074219 146.792969 236.398438 C 132.332031 258.769531 116.859375 293.390625 109.535156 319.765625 C 102 346.886719 99.046875 368.8125 99.132812 396.90625 C 99.277344 444.65625 106.230469 480.625 122.433594 517.449219 C 125.191406 523.71875 128.34375 530.988281 129.433594 533.601562 C 130.519531 536.214844 131.917969 538.351562 132.539062 538.351562 C 133.15625 538.351562 135.980469 537.167969 138.808594 535.722656 C 144.996094 532.570312 145.050781 533.046875 136.269531 513.015625 C 127.457031 492.902344 121.253906 471.5 116.261719 443.972656 C 112.996094 425.960938 113.003906 373.347656 116.273438 355.925781 C 127.046875 298.582031 148.765625 252.246094 184.246094 210.9375 C 195.324219 198.039062 212.285156 182.035156 225.230469 172.257812 L 232.335938 166.894531 L 228.339844 161.332031 C 226.140625 158.273438 224.011719 155.769531 223.601562 155.769531 C 223.195312 155.769531 218.585938 158.96875 213.367188 162.882812 M 591.519531 163.300781 C 584.300781 166.253906 581.519531 175.3125 585.753906 182.082031 C 588.621094 186.664062 593.457031 189.449219 596.503906 188.277344 C 599.597656 187.09375 598.84375 184.898438 594.863281 183.507812 C 589.78125 181.738281 587.800781 176.980469 590.203125 172.328125 C 593.441406 166.070312 598.308594 165.527344 603.613281 170.832031 C 606.5625 173.78125 607.546875 174.167969 608.667969 172.8125 C 610.398438 170.730469 608.589844 166.910156 604.53125 164.066406 C 601.523438 161.960938 595.640625 161.613281 591.519531 163.300781 M 371.503906 167.730469 C 358.628906 173.082031 349.515625 180.738281 339.761719 194.40625 C 334.027344 202.441406 329.984375 211.371094 324.855469 227.34375 C 321.007812 239.328125 320.796875 240.996094 320.933594 258.214844 C 321.015625 268.230469 321.4375 277.917969 321.875 279.75 C 323.488281 286.480469 331.449219 301.628906 335.503906 305.6875 C 343.335938 313.519531 354.734375 320.132812 364.046875 322.253906 C 374.929688 324.726562 380.863281 324.761719 394.109375 322.429688 C 405.644531 320.402344 412.207031 317.511719 422.164062 310.078125 C 451.949219 287.832031 451.289062 228.074219 420.800781 186.707031 C 406.148438 166.828125 389.289062 160.339844 371.503906 167.730469 M 448.050781 168.601562 C 445.785156 169.246094 443.933594 170.449219 443.933594 171.269531 C 443.933594 172.09375 445.894531 177.351562 448.292969 182.953125 C 453.785156 195.78125 458.703125 212.71875 460.980469 226.671875 C 461.953125 232.617188 463.402344 240.328125 464.207031 243.8125 C 469.132812 265.207031 469.753906 293.390625 465.585938 306.519531 C 464.144531 311.050781 462.960938 315.441406 462.953125 316.28125 C 462.921875 319.128906 472.390625 320.441406 492.074219 320.324219 C 513.65625 320.191406 517.816406 319.542969 518.460938 316.210938 C 518.695312 314.984375 517.433594 310.34375 515.65625 305.898438 C 513 299.265625 503.777344 259.695312 503.042969 251.78125 C 502.472656 245.640625 506.492188 251.207031 517.03125 271.15625 C 529.828125 295.382812 532.117188 297.753906 540.03125 294.992188 C 543.554688 293.765625 544.019531 292.839844 546.453125 282.265625 C 547.898438 275.992188 549.082031 267.359375 549.082031 263.082031 C 549.082031 255.984375 549.253906 255.480469 551.089844 257.3125 C 554.054688 260.277344 559.054688 279.070312 559.96875 290.6875 C 560.636719 299.167969 560.320312 302.140625 558.015625 308.917969 C 556.085938 314.597656 555.664062 317.414062 556.605469 318.351562 C 558.605469 320.351562 570.421875 321.496094 590.328125 321.617188 C 614.222656 321.757812 613.90625 322.03125 607.96875 306.488281 C 605.445312 299.886719 602.539062 290.78125 601.503906 286.25 C 599.695312 278.332031 588.289062 254.160156 578.140625 236.734375 C 572.910156 227.757812 563.5 218.320312 544.941406 203.445312 C 529.890625 191.382812 517.804688 183.636719 514.03125 183.636719 L 511.042969 183.636719 L 515.332031 192.191406 C 520.238281 201.964844 522.128906 209.6875 523.277344 224.671875 C 524.304688 238 522.183594 239.898438 516.824219 230.457031 C 516.101562 229.179688 511.144531 220.832031 505.8125 211.90625 C 500.480469 202.976562 495.265625 193.679688 494.222656 191.238281 C 492.832031 187.972656 491.460938 184.695312 490.105469 181.414062 C 488.882812 178.449219 487.195312 175.453125 486.355469 174.753906 C 485.511719 174.058594 478.332031 172.332031 470.398438 170.917969 C 462.460938 169.503906 455.113281 168.140625 454.070312 167.886719 C 453.023438 167.632812 450.316406 167.953125 448.050781 168.601562 M 316.617188 176.0625 C 313.132812 177.320312 306.300781 179.265625 301.433594 180.382812 C 287.023438 183.695312 275.796875 190.632812 255.316406 208.871094 C 244.800781 218.238281 222.65625 244.179688 213.386719 257.996094 C 206.941406 267.605469 201.96875 279.128906 201.96875 284.460938 C 201.96875 288.46875 204.898438 294.289062 210.238281 300.882812 C 215.113281 306.90625 234.144531 316.9375 244.789062 319.09375 C 248.480469 319.84375 262.074219 320.457031 275 320.457031 L 298.5 320.457031 L 302.085938 316.617188 C 307.605469 310.710938 312.214844 294.136719 310.378906 286.8125 C 309.617188 283.785156 309.121094 283.535156 305.25 284.261719 C 302.894531 284.703125 296.503906 287.160156 291.054688 289.714844 C 274.78125 297.355469 261.332031 296.050781 254.484375 286.164062 C 250.097656 279.835938 249.457031 273.238281 251.832031 258.839844 C 255.15625 238.675781 267.859375 217.328125 281.175781 209.523438 C 289.648438 204.558594 296.492188 204.246094 305.746094 208.394531 C 312.808594 211.566406 313.78125 211.722656 315.539062 209.960938 C 319.054688 206.445312 326.289062 176.90625 324.128906 174.882812 C 323.449219 174.242188 320.269531 174.742188 316.617188 176.0625 M 608.734375 184.457031 C 601.300781 192.570312 599.789062 195.394531 602.113281 196.832031 C 603.617188 197.761719 620.023438 180.566406 620.023438 178.0625 C 620.023438 174.078125 616.324219 176.171875 608.734375 184.457031 M 620.476562 189.898438 C 613.410156 192.917969 611.246094 204.726562 616.613281 210.96875 C 618.882812 213.605469 621.011719 214.511719 626.089844 214.996094 C 632.207031 215.585938 632.898438 215.355469 636.46875 211.535156 C 641.617188 206.023438 641.746094 199.238281 636.808594 193.714844 C 633.03125 189.488281 625.535156 187.734375 620.476562 189.898438 M 374.75 196.910156 C 365.804688 203.960938 361.113281 224.246094 361.902344 252.5 C 362.519531 274.78125 364.597656 283.175781 371.085938 289.667969 C 374.835938 293.414062 376.019531 293.851562 382.425781 293.851562 C 390.851562 293.851562 393.605469 291.597656 399.273438 280.054688 C 402.699219 273.074219 402.761719 272.554688 402.671875 250.148438 C 402.570312 225.292969 400.964844 215.359375 395.199219 203.984375 C 389.851562 193.429688 382.425781 190.859375 374.75 196.910156 M 620.597656 196.882812 C 618.890625 198.59375 617.488281 201.160156 617.488281 202.585938 C 617.488281 209.804688 629.441406 213.175781 633.433594 207.082031 C 634.800781 205 635.214844 202.769531 634.648438 200.511719 C 632.890625 193.519531 625.792969 191.6875 620.597656 196.882812 M 645.140625 213.71875 C 642.820312 215.628906 640.132812 217.949219 639.164062 218.871094 C 638.195312 219.796875 636.058594 221.433594 634.414062 222.511719 C 632.769531 223.585938 631.425781 225.226562 631.425781 226.148438 C 631.425781 229.542969 634.140625 229.332031 639.300781 225.53125 C 646.25 220.425781 647.804688 221.90625 644.960938 230.921875 C 642.34375 239.230469 642.300781 241.167969 644.691406 243.152344 C 646.226562 244.425781 648.222656 243.390625 656.003906 237.289062 C 661.203125 233.210938 665.492188 229.199219 665.542969 228.367188 C 665.714844 225.351562 663.082031 225.421875 658.097656 228.566406 C 651.746094 232.578125 649.875 232.671875 650.941406 228.929688 C 652.894531 222.066406 654.097656 213.914062 653.421875 212.15625 C 652.34375 209.34375 649.882812 209.808594 645.140625 213.71875 M 662.460938 246.21875 C 654.308594 248.269531 650.945312 249.6875 650.652344 251.199219 C 650.351562 252.742188 651.140625 253.3125 653.558594 253.3125 C 655.421875 253.3125 658.285156 254.722656 660.089844 256.527344 C 662.847656 259.285156 663.183594 260.449219 662.453125 264.761719 C 661.945312 267.785156 662.101562 269.78125 662.851562 269.78125 C 664.40625 269.78125 670.378906 263.042969 675.769531 255.207031 C 679.269531 250.121094 679.65625 248.824219 678.472656 246.222656 C 676.816406 242.589844 676.898438 242.589844 662.460938 246.21875 M 665.207031 251.625 C 663.503906 253.328125 664.429688 255.847656 666.761719 255.847656 C 668.746094 255.847656 670.695312 253.601562 670.695312 251.308594 C 670.695312 250.445312 666.125 250.707031 665.207031 251.625 M 677.910156 270.597656 C 667.917969 275.628906 666.847656 276.507812 667.621094 279.015625 C 669.421875 284.84375 673.347656 291.320312 675.082031 291.320312 C 678.097656 291.320312 678.285156 289.4375 675.699219 285.179688 C 674.339844 282.949219 673.230469 280.582031 673.230469 279.921875 C 673.230469 279.261719 676.792969 276.957031 681.148438 274.804688 C 690.660156 270.097656 691.546875 269.316406 690.148438 266.871094 C 689.242188 265.289062 687.246094 265.894531 677.910156 270.597656 M 689.285156 319.46875 C 686.617188 320.175781 684.167969 321.460938 683.835938 322.324219 C 683.503906 323.1875 684.941406 330.386719 687.035156 338.324219 C 693.121094 361.4375 695.179688 379.570312 695.222656 410.402344 C 695.265625 439.191406 693.464844 456.03125 688.3125 475.007812 C 686.894531 480.234375 685.175781 486.789062 684.492188 489.578125 C 680.503906 505.820312 665.0625 540.058594 651.203125 563.382812 C 642.242188 578.464844 630.851562 592.269531 611.226562 611.847656 C 590.734375 632.289062 579.394531 641.554688 561.535156 652.46875 C 555.730469 656.011719 550.441406 659.433594 549.777344 660.070312 C 549.023438 660.796875 549.625 663.390625 551.382812 667.011719 C 553.792969 671.96875 554.59375 672.667969 557.019531 671.9375 C 562.117188 670.394531 584.875 654.757812 600.65625 641.949219 C 633.296875 615.464844 659.058594 582.8125 678.898438 542.785156 C 693.945312 512.429688 702.40625 485.25 707.402344 451.222656 C 712.503906 416.472656 710.230469 369.578125 701.851562 336.617188 C 700.210938 330.167969 698.503906 323.320312 698.0625 321.40625 C 697.1875 317.648438 696.628906 317.523438 689.285156 319.46875 M 183.902344 335.230469 C 175.742188 335.996094 174.484375 338.316406 174.265625 353.015625 C 174.167969 359.429688 173.535156 369.976562 172.851562 376.453125 C 170.492188 398.855469 171.207031 421.140625 174.800781 437.050781 C 178.867188 455.074219 182.777344 463.363281 191.167969 471.753906 C 203.28125 483.863281 216.019531 488.945312 234.289062 488.945312 C 247.851562 488.945312 258.039062 486.523438 270.203125 480.410156 C 285.296875 472.820312 290.230469 465.078125 292.996094 444.636719 C 293.757812 439.019531 293.550781 431.628906 292.347656 421.199219 C 291.140625 410.78125 290.847656 400.164062 291.414062 387.597656 C 292.226562 369.425781 292.296875 369.09375 297.777344 356.714844 C 300.824219 349.832031 303.316406 343.484375 303.316406 342.609375 C 303.316406 340.265625 299.734375 339.640625 277.214844 338.050781 C 260.234375 336.851562 256.199219 336.902344 253.144531 338.363281 L 249.476562 340.121094 L 248.65625 374.308594 C 248.203125 393.167969 248.34375 411.277344 248.972656 414.691406 C 250.492188 422.972656 250.40625 432.957031 248.746094 440.695312 C 247.214844 447.84375 240.800781 454.738281 235.683594 454.738281 C 229.015625 454.738281 219.09375 444.578125 217.921875 436.546875 C 215.148438 417.554688 214.339844 404.925781 215.054688 391.769531 C 216.210938 370.382812 217.851562 363.105469 224.234375 351.035156 C 227.316406 345.207031 229.839844 339.714844 229.839844 338.828125 C 229.839844 337.945312 228.558594 336.859375 226.992188 336.414062 C 223.289062 335.367188 191.714844 334.5 183.902344 335.230469 M 578.835938 338.183594 C 551.445312 347.597656 539.949219 367.621094 538.097656 409.132812 C 537.429688 424.167969 537.671875 427.519531 540.09375 436.851562 C 545.414062 457.335938 550.230469 465.785156 561.828125 474.953125 C 573.066406 483.832031 580.097656 485.503906 618.757812 488.484375 C 626.546875 489.082031 627.246094 488.90625 631.6875 485.183594 C 636.75 480.941406 645.9375 464.132812 647.371094 456.496094 C 648.746094 449.164062 647.078125 448.890625 631.851562 453.964844 C 604.59375 463.046875 591.828125 459.292969 586.265625 440.5625 C 583.695312 431.914062 584.457031 391.863281 587.390625 381.492188 C 589.667969 373.425781 595.429688 367 602.195312 364.972656 C 610.648438 362.4375 612.476562 362.832031 633.75 371.753906 C 646.332031 377.027344 647.554688 375.140625 642.367188 358.460938 C 639.117188 348.015625 635.066406 339.375 632.46875 337.347656 C 631.460938 336.5625 621.699219 336.03125 607.988281 336.023438 C 589.675781 336.003906 583.9375 336.429688 578.835938 338.183594 M 322.773438 342.105469 C 317.558594 343.617188 317.117188 345.175781 319.371094 354.136719 C 320.714844 359.472656 321.574219 374.023438 322.367188 404.699219 C 323.425781 445.683594 322.894531 459.742188 319.992188 467.574219 C 318.085938 472.726562 319.386719 473.742188 327.90625 473.742188 C 338.878906 473.742188 363.027344 471.207031 365.707031 469.773438 C 368.691406 468.175781 368.554688 466.875 363.988281 453.214844 C 360.828125 443.773438 359.917969 438.585938 359.390625 427.0625 C 358.816406 414.613281 358.988281 412.746094 360.660156 413.128906 C 364.480469 414 393.027344 446.957031 397.753906 455.953125 C 403.664062 467.199219 406.558594 468.675781 422.710938 468.675781 C 432.53125 468.675781 435.015625 468.277344 436.582031 466.457031 C 438.226562 464.550781 438.460938 457.066406 438.269531 413.089844 C 438.050781 363.042969 438.109375 361.765625 440.894531 353.796875 L 443.738281 345.65625 L 440.351562 344.359375 C 435.949219 342.675781 396.386719 343.417969 394.589844 345.21875 C 393.667969 346.144531 394.210938 349.820312 396.386719 357.320312 C 400.21875 370.527344 402.675781 390.105469 400.742188 391.992188 C 399.097656 393.601562 396.183594 390.167969 384.933594 373.363281 C 375.660156 359.507812 372.992188 353.9375 372.992188 348.425781 C 372.992188 344.148438 373.890625 344.425781 352.480469 342.074219 C 338.074219 340.492188 328.308594 340.503906 322.769531 342.109375 M 478.773438 342.011719 C 464.25 342.921875 460.394531 343.8125 460.414062 346.246094 C 460.421875 347.042969 461.902344 350.828125 463.707031 354.660156 C 470.351562 368.777344 470.808594 371.53125 471.457031 400.941406 C 472.230469 436.035156 470.878906 444.445312 460.867188 466.992188 C 459.710938 469.597656 465.578125 471.523438 481.894531 473.90625 C 499.195312 476.425781 511.949219 476.886719 514.785156 475.09375 C 516.320312 474.121094 516.347656 472.65625 514.976562 465.296875 C 513.847656 459.238281 513.625 451.3125 514.234375 438.90625 C 514.714844 429.148438 514.964844 414.042969 514.789062 405.332031 C 514.21875 377.160156 514.507812 352.875 515.476562 348.03125 C 516.339844 343.683594 516.140625 343.195312 513.03125 342.011719 C 509.390625 340.628906 500.808594 340.628906 478.773438 342.011719 M 419.964844 481.679688 C 416.175781 483.609375 414.28125 488.953125 415.351562 494.664062 C 416.042969 498.347656 416.800781 499.101562 420.503906 499.796875 C 423.210938 500.304688 427.101562 499.84375 430.816406 498.578125 C 438.695312 495.894531 442.140625 496.011719 447.214844 499.148438 C 455.796875 504.453125 475.679688 503.691406 477.425781 497.992188 C 478.710938 493.78125 478.617188 486.378906 477.253906 485.019531 C 475.871094 483.636719 468.214844 483.988281 459.371094 485.84375 C 456.109375 486.527344 453.804688 485.980469 449.0625 483.398438 C 443.929688 480.605469 441.371094 480.078125 432.996094 480.09375 C 427.515625 480.105469 421.652344 480.816406 419.964844 481.679688 M 377.753906 507.410156 C 377.351562 507.808594 369.417969 508.578125 360.121094 509.113281 C 344.777344 510 342.511719 510.449219 335.511719 514 C 318.863281 522.441406 311.765625 537.316406 314.609375 557.792969 C 317.804688 580.75 330.921875 601.152344 352.339844 616.46875 C 357.066406 619.851562 362.222656 625.070312 365.308594 629.589844 C 369.957031 636.398438 370.292969 637.410156 368.90625 640.445312 C 367.53125 643.464844 367.726562 644.089844 370.890625 646.8125 C 374.957031 650.308594 378.324219 650.664062 380.667969 647.84375 C 382.039062 646.191406 381.863281 644.316406 379.652344 636.796875 C 378.183594 631.816406 377.261719 627.296875 377.597656 626.753906 C 377.933594 626.207031 382.46875 625.761719 387.675781 625.761719 C 398.792969 625.761719 398.839844 625.707031 398.886719 612.460938 C 398.917969 602.269531 397.695312 596.625 395.453125 596.625 C 394.597656 596.625 390.757812 598.3125 386.925781 600.375 C 370.9375 608.980469 359.492188 602.328125 350.785156 579.367188 C 347.109375 569.667969 344.714844 548.164062 346.566406 541.457031 C 348.40625 534.796875 352.988281 531.617188 361.648438 530.988281 C 367.964844 530.535156 370.582031 531.027344 376.910156 533.867188 C 386.980469 538.386719 388.195312 537.789062 388.195312 528.320312 C 388.195312 516.539062 386.050781 508.347656 382.734375 507.457031 C 379.226562 506.519531 378.648438 506.511719 377.753906 507.410156 M 417.402344 509.078125 C 416.742188 510.316406 416.710938 512.011719 417.335938 513.019531 C 419.378906 516.324219 419.949219 526.277344 418.648438 535.816406 C 417.308594 545.660156 415.710938 561.421875 413.511719 586.488281 C 412.804688 594.503906 411.578125 605.738281 410.785156 611.460938 C 408.78125 625.847656 409.125 626.183594 425.199219 625.535156 C 440.078125 624.9375 442.046875 623.730469 440.484375 616.160156 C 439.921875 613.425781 439.753906 608.628906 440.113281 605.492188 C 440.714844 600.257812 441.078125 599.761719 444.566406 599.417969 C 446.660156 599.214844 449.433594 599.828125 450.738281 600.78125 C 453.003906 602.4375 453.015625 602.839844 451.058594 609.582031 C 448.066406 619.871094 448.3125 624.066406 451.945312 624.761719 C 455.789062 625.496094 471.519531 623.78125 475.714844 622.171875 L 478.996094 620.910156 L 480.125 595.148438 C 480.746094 580.980469 481.386719 558.554688 481.550781 545.316406 C 481.710938 532.078125 482.007812 519.539062 482.210938 517.449219 C 482.5625 513.753906 482.359375 513.605469 474.972656 512.089844 C 464.257812 509.894531 446.789062 508.015625 431.566406 507.414062 C 420.257812 506.972656 418.414062 507.1875 417.402344 509.078125 M 213.804688 518.78125 C 213.523438 519.515625 214.183594 522.246094 215.273438 524.855469 C 216.363281 527.460938 218.371094 535.125 219.738281 541.890625 C 221.710938 551.644531 223.980469 557.65625 230.722656 570.992188 C 235.394531 580.230469 240.402344 588.90625 241.851562 590.265625 C 245.878906 594.054688 281.144531 609.082031 282.59375 607.632812 C 282.761719 607.46875 280.648438 604.386719 277.902344 600.789062 C 271.738281 592.699219 271.550781 590.96875 276.964844 592.050781 C 283.160156 593.289062 286.53125 596.085938 289.941406 602.816406 C 291.65625 606.195312 294.820312 610.445312 296.980469 612.261719 C 303.46875 617.722656 329.921875 624.539062 329.921875 620.75 C 329.921875 619.90625 326.5625 615.128906 322.457031 610.136719 C 311.691406 597.042969 305.507812 586.992188 295.417969 566.21875 C 290.511719 556.117188 284.582031 543.925781 282.242188 539.128906 C 279.402344 533.324219 277.980469 528.578125 277.980469 524.921875 C 277.980469 520.800781 277.371094 519.113281 275.535156 518.128906 C 272.203125 516.34375 214.507812 516.953125 213.804688 518.78125 M 543.378906 519.839844 C 525.699219 524.621094 517.273438 531.480469 509.546875 547.394531 C 500.917969 565.164062 496.203125 592.6875 499.625 605.328125 C 501.367188 611.773438 507.308594 617.816406 512.9375 618.867188 C 527.097656 621.515625 558.980469 603.066406 585.316406 576.992188 C 607.820312 554.707031 611.257812 543.300781 598.917969 531.84375 C 587.570312 521.308594 559.992188 515.347656 543.378906 519.839844 M 447.207031 536.132812 C 445.585938 544.183594 442.46875 576.546875 443.148438 578.316406 C 443.753906 579.890625 444.871094 580.15625 448.050781 579.464844 C 450.316406 578.972656 452.453125 578.128906 452.800781 577.589844 C 453.152344 577.050781 453.265625 566.859375 453.0625 554.945312 C 452.707031 534.496094 452.550781 533.28125 450.234375 533.28125 C 448.707031 533.28125 447.566406 534.355469 447.207031 536.132812 M 553.234375 536.652344 C 545.691406 538.253906 536.179688 555.273438 530.15625 577.953125 C 525.871094 594.09375 526.8125 599.636719 533.824219 599.4375 C 549.96875 598.976562 572.480469 566.039062 570.25 546.136719 C 569.910156 543.105469 568.855469 539.851562 567.90625 538.910156 C 565.996094 537.015625 557.605469 535.722656 553.234375 536.652344 M 249.425781 541.714844 C 249.890625 544.394531 252.4375 552.84375 255.085938 560.492188 L 259.898438 574.402344 L 264.730469 575.40625 C 267.390625 575.957031 269.992188 575.96875 270.511719 575.433594 C 272.027344 573.871094 253.394531 537.785156 250.8125 537.28125 C 248.882812 536.90625 248.695312 537.503906 249.425781 541.714844 M 165.386719 567.601562 C 159.726562 571.875 155.097656 575.945312 155.097656 576.644531 C 155.097656 579.105469 164.964844 587.757812 167.933594 587.902344 C 174.238281 588.207031 176.125 587.492188 180.117188 583.277344 C 184.800781 578.328125 185.148438 575.324219 181.875 568.121094 C 177.6875 558.917969 176.921875 558.894531 165.386719 567.601562 M 167.421875 572.648438 C 161.953125 577.152344 161.765625 577.957031 165.34375 581.53125 C 167.300781 583.488281 168.859375 583.957031 171.359375 583.335938 C 176 582.175781 179.167969 579.050781 179.167969 575.628906 C 179.167969 567.726562 174.75 566.605469 167.421875 572.648438 M 185.964844 593.3125 C 180.300781 595.648438 174.996094 597.96875 174.1875 598.472656 C 171.589844 600.078125 175.03125 602.570312 179.03125 601.980469 C 182.003906 601.546875 183.199219 602.128906 185.027344 604.921875 C 186.285156 606.839844 187.332031 610.175781 187.359375 612.335938 C 187.4375 619.21875 190.675781 616.738281 197 604.9375 C 201.695312 596.179688 202.792969 593.09375 201.84375 591.320312 C 200.144531 588.140625 197.8125 588.433594 185.964844 593.3125 M 189.621094 597.464844 C 188.75 597.816406 188.035156 598.949219 188.035156 599.984375 C 188.035156 602.671875 193.601562 601.628906 194.132812 598.839844 C 194.546875 596.675781 192.851562 596.160156 189.621094 597.464844 M 216.429688 614.894531 C 203.457031 620.542969 204.21875 637.535156 217.566406 640.214844 C 221.40625 640.984375 228.90625 638.4375 230.53125 635.808594 C 231.972656 633.46875 222.234375 625.453125 220.105469 627.222656 C 218.863281 628.253906 218.941406 629.148438 220.453125 631.460938 C 222.960938 635.28125 220.703125 636.839844 216.578125 634.140625 C 212.460938 631.441406 211.457031 627.574219 213.902344 623.84375 C 218.328125 617.085938 224.054688 616.878906 228.628906 623.300781 C 231.734375 627.664062 233.640625 628.085938 233.640625 624.410156 C 233.640625 620.132812 231.175781 616.792969 226.613281 614.886719 C 221.472656 612.738281 221.382812 612.738281 216.429688 614.894531 M 235.726562 638.746094 C 230.800781 646.320312 229.28125 649.644531 230.210938 650.824219 C 231.21875 652.109375 232.09375 651.878906 234.371094 649.742188 C 237.75 646.566406 239.976562 647.421875 239.976562 651.890625 C 239.976562 655.589844 242.058594 659.964844 243.820312 659.964844 C 244.492188 659.964844 245.042969 658.015625 245.042969 655.628906 C 245.042969 651.796875 245.558594 651.125 249.488281 649.828125 C 254.226562 648.261719 256.445312 645.402344 256.445312 640.851562 C 256.445312 637.742188 247.351562 628.296875 244.359375 628.296875 C 243.347656 628.296875 239.460938 632.996094 235.726562 638.746094 M 242.761719 637.417969 C 240.617188 639.5625 240.875 643.085938 243.246094 643.996094 C 249.21875 646.285156 252.800781 643.457031 250.164062 638.527344 C 248.601562 635.605469 245.097656 635.082031 242.761719 637.417969 M 262.03125 655.390625 C 252.101562 664.671875 250.609375 668.101562 257.664062 665.4375 C 260.660156 664.308594 262.023438 664.484375 265.21875 666.429688 C 267.359375 667.730469 269.113281 669.875 269.113281 671.195312 C 269.113281 672.511719 270.011719 674.335938 271.109375 675.246094 C 274.070312 677.707031 274.960938 675.472656 276.816406 660.921875 C 278.183594 650.195312 278.152344 648.183594 276.613281 647.210938 C 273.429688 645.191406 272.222656 645.871094 262.03125 655.390625 M 267.003906 658.152344 C 266.089844 660.535156 268.332031 663.132812 270.269531 661.933594 C 272.355469 660.644531 271.917969 656.164062 269.707031 656.164062 C 268.640625 656.164062 267.425781 657.058594 267.003906 658.152344 M 290.589844 662.183594 C 285.28125 666.925781 284.066406 675.03125 287.890625 680.203125 C 289.691406 682.636719 290.445312 685.289062 290.203125 688.359375 C 289.910156 692.039062 290.28125 692.902344 292.144531 692.902344 C 293.757812 692.902344 294.449219 691.953125 294.449219 689.734375 C 294.449219 687.53125 295.140625 686.570312 296.730469 686.570312 C 299 686.570312 302.050781 684.324219 302.050781 682.652344 C 302.050781 682.171875 300.484375 681.386719 298.566406 680.90625 C 290.390625 678.867188 288.230469 672.222656 294 666.871094 C 297.964844 663.199219 299.789062 663.035156 304.667969 665.917969 C 308.773438 668.34375 310.261719 667.683594 309.082031 663.96875 C 308.238281 661.316406 302.460938 658.699219 297.449219 658.699219 C 295.820312 658.699219 292.734375 660.265625 290.589844 662.183594 M 497.496094 663.792969 C 494.101562 665.15625 492.605469 670.160156 494.523438 673.738281 C 495.289062 675.175781 498.121094 676.941406 500.816406 677.667969 C 506.128906 679.097656 509.519531 682.015625 507.394531 683.328125 C 506.695312 683.757812 504.734375 683.765625 503.039062 683.339844 C 499.390625 682.421875 497.53125 684.617188 499.722656 687.257812 C 501.933594 689.925781 507.667969 689.523438 511.609375 686.421875 C 516.832031 682.3125 515.542969 679.011719 506.964844 674.535156 C 498.816406 670.28125 497.910156 668.832031 503.402344 668.832031 C 508.28125 668.832031 509.289062 666.964844 505.75 664.484375 C 502.566406 662.257812 501.523438 662.171875 497.496094 663.792969 M 318.25 675.3125 C 308.601562 689.066406 308.335938 689.558594 309.984375 690.574219 C 310.8125 691.089844 312.476562 690.621094 313.675781 689.53125 C 317.003906 686.523438 325.140625 688.75 326.125 692.9375 C 326.5625 694.816406 327.902344 696.222656 329.464844 696.449219 C 331.984375 696.816406 332.054688 696.378906 331.539062 683.78125 C 330.886719 667.910156 330.789062 667.566406 326.839844 667.566406 C 324.410156 667.566406 322.429688 669.351562 318.25 675.3125 M 482.40625 669.445312 C 482.011719 670.476562 482.597656 674 483.714844 677.269531 C 486.550781 685.597656 486.289062 688.683594 482.539062 691.140625 C 479.546875 693.101562 479.183594 693.09375 476.851562 690.984375 C 475.4375 689.703125 473.6875 685.464844 472.800781 681.167969 C 471.257812 673.714844 469.070312 671.0625 466.546875 673.585938 C 464.855469 675.273438 468.753906 689.371094 472.082031 693.601562 C 477.261719 700.1875 490.808594 696.085938 490.808594 687.9375 C 490.808594 681.976562 486.597656 667.566406 484.859375 667.566406 C 483.90625 667.566406 482.800781 668.410156 482.40625 669.445312 M 453.046875 674.808594 C 450.742188 675.101562 448.539062 676.164062 448.152344 677.171875 C 447.460938 678.976562 449.785156 697.769531 451.136719 701.292969 C 451.800781 703.019531 456.144531 702.890625 463.253906 700.941406 C 467.363281 699.8125 465.703125 696.875 460.71875 696.464844 C 456.945312 696.152344 455.96875 695.550781 455.96875 693.535156 C 455.96875 691.875 456.949219 690.863281 458.820312 690.597656 C 460.652344 690.339844 461.671875 689.320312 461.671875 687.746094 C 461.671875 685.875 460.78125 685.300781 457.871094 685.300781 C 454.898438 685.300781 454.070312 684.742188 454.070312 682.738281 C 454.070312 680.890625 455.152344 679.957031 457.929688 679.398438 C 460.566406 678.871094 461.667969 677.984375 461.398438 676.59375 C 460.96875 674.363281 459.347656 674.015625 453.046875 674.8125 M 322.378906 678.265625 C 320.492188 680.535156 321.601562 684.488281 323.90625 683.71875 C 325.917969 683.046875 326.730469 679.070312 325.171875 677.511719 C 324.433594 676.777344 323.375 677.0625 322.378906 678.265625 M 359.113281 679.457031 C 357.578125 683.492188 355.230469 700.703125 356.035156 702.007812 C 356.953125 703.492188 370.175781 703.277344 373.0625 701.734375 C 374.402344 701.015625 376.359375 698.765625 377.414062 696.730469 C 381.25 689.308594 379.101562 681.804688 372.191406 678.511719 C 365.675781 675.402344 360.511719 675.777344 359.113281 679.457031 M 386.386719 680.484375 C 386.105469 681.394531 385.546875 687.410156 385.148438 693.851562 L 384.421875 705.570312 L 392.007812 705.570312 C 397.910156 705.570312 399.597656 705.148438 399.597656 703.671875 C 399.597656 702.53125 398.425781 701.769531 396.671875 701.769531 C 392.769531 701.769531 388.417969 698.542969 390.09375 696.894531 C 390.792969 696.210938 392.78125 695.460938 394.515625 695.226562 C 398.863281 694.644531 399.636719 690.371094 395.390625 690.371094 C 392.304688 690.371094 390.050781 687.421875 391.433594 685.1875 C 391.824219 684.554688 394.148438 684.035156 396.597656 684.035156 C 400.152344 684.035156 400.964844 683.589844 400.628906 681.820312 C 400.300781 680.105469 398.695312 679.515625 393.550781 679.21875 C 388.921875 678.953125 386.742188 679.335938 386.386719 680.484375 M 421.585938 686.753906 C 422.03125 691.039062 422.398438 697.023438 422.398438 700.058594 L 422.398438 705.570312 L 427.148438 705.542969 C 429.761719 705.527344 434.289062 704.429688 437.210938 703.105469 C 441.617188 701.105469 442.660156 699.929688 443.367188 696.167969 C 445.613281 684.183594 440.949219 678.96875 427.980469 678.96875 L 420.769531 678.96875 Z M 363.699219 682.453125 C 363.386719 682.976562 362.925781 686.539062 362.675781 690.371094 C 362.234375 697.207031 362.292969 697.34375 365.820312 697.75 C 373.449219 698.621094 377.691406 687.851562 371.441406 683.472656 C 368.453125 681.378906 364.652344 680.878906 363.699219 682.453125 M 427.339844 684.585938 C 427.035156 684.886719 427.082031 688.449219 427.445312 692.503906 C 427.992188 698.667969 428.519531 699.929688 430.65625 700.238281 C 434.132812 700.734375 438.867188 696.0625 438.867188 692.136719 C 438.867188 686.664062 436.660156 684.035156 432.066406 684.035156 C 429.769531 684.035156 427.640625 684.28125 427.339844 684.585938 " fill-opacity="1" fill-rule="evenodd"/></svg>