<?xml version="1.0" standalone="no"?>
<!DOCTYPE svg PUBLIC "-//W3C//DTD SVG 1.1//EN" "http://www.w3.org/Graphics/SVG/1.1/DTD/svg11.dtd">
<svg xmlns="http://www.w3.org/2000/svg" xmlns:xlink="http://www.w3.org/1999/xlink" width="810" zoomAndPan="magnify" viewBox="0 0 810 809.999993" height="810" preserveAspectRatio="xMidYMid meet" version="1.0"><path fill="#000000" d="M 368.980469 45.953125 C 357.441406 77.867188 357.460938 80.203125 369.203125 73.917969 C 375.027344 70.800781 377.734375 70.699219 382.113281 73.433594 C 385.160156 75.335938 388.316406 76.894531 389.128906 76.894531 C 392.160156 76.894531 390.433594 68.59375 384.714844 55.671875 C 379.066406 42.898438 371.726562 38.363281 368.980469 45.953125 M 343.894531 46.855469 C 343.007812 47.746094 342.964844 53.589844 343.800781 59.839844 C 345.226562 70.464844 344.878906 71.15625 338.464844 70.453125 C 333.953125 69.957031 331.605469 71.175781 331.605469 74.015625 C 331.605469 79.953125 345.578125 81.164062 350.171875 75.625 C 352.683594 72.597656 353.234375 67.0625 351.910156 58.210938 C 350.097656 46.121094 347.832031 42.917969 343.894531 46.855469 M 422.234375 50.269531 C 422.21875 53.039062 421.402344 60.164062 420.421875 66.101562 C 419.019531 74.585938 419.566406 76.894531 422.96875 76.894531 C 425.523438 76.894531 428.042969 73.195312 429.101562 67.898438 C 432.101562 52.902344 431.25 45.234375 426.585938 45.234375 C 424.210938 45.234375 422.253906 47.5 422.234375 50.269531 M 435.300781 54.585938 C 432.261719 72.191406 432.34375 77.699219 435.652344 78.878906 C 437.46875 79.527344 440.175781 76.433594 441.664062 72 L 444.367188 63.941406 L 449.21875 73.296875 C 455.355469 85.117188 461.316406 85.265625 463.640625 73.65625 C 466.640625 58.660156 465.789062 50.988281 461.121094 50.988281 C 458.726562 50.988281 456.804688 53.546875 456.804688 56.746094 C 456.804688 64.949219 453.269531 63.835938 447.585938 53.851562 C 441.242188 42.699219 437.316406 42.933594 435.300781 54.585938 M 304.871094 53.429688 C 301.050781 55.855469 302.515625 75.164062 307.089844 82.558594 C 310.195312 87.589844 327.289062 83.535156 327.289062 77.769531 C 327.289062 74.761719 325.445312 73.824219 321.535156 74.847656 C 315.289062 76.480469 313.5 72.5625 319.375 70.117188 C 321.980469 69.03125 321.5625 67.476562 317.851562 64.460938 C 313.417969 60.863281 313.320312 60.078125 317.132812 58.617188 C 319.554688 57.6875 321.535156 55.589844 321.535156 53.957031 C 321.535156 50.4375 310.160156 50.078125 304.871094 53.429688 M 472.882812 55.699219 C 472.054688 57.859375 472.777344 59.625 474.492188 59.625 C 476.550781 59.625 476.949219 64.007812 475.664062 72.574219 C 474.121094 82.863281 474.582031 85.527344 477.894531 85.527344 C 480.386719 85.527344 482.828125 81.464844 483.957031 75.453125 C 485.136719 69.160156 487.496094 65.378906 490.246094 65.378906 C 492.84375 65.378906 494.253906 63.367188 493.695312 60.457031 C 492.464844 54.066406 475.039062 50.082031 472.882812 55.699219 M 273.757812 61.75 C 271.496094 63.316406 271.804688 68.242188 274.847656 79.050781 C 279.238281 94.660156 283.570312 98.316406 286.121094 88.5625 C 287.339844 83.90625 288.476562 83.527344 292.917969 86.296875 C 300.132812 90.804688 300.953125 89.117188 298.863281 74.015625 C 297.152344 61.667969 296.601562 61.027344 286.996094 60.3125 C 281.457031 59.898438 275.496094 60.546875 273.757812 61.75 M 498.667969 63.222656 C 490.78125 88.328125 490.671875 89.089844 494.601562 91.582031 C 496.769531 92.953125 501.191406 94.09375 504.4375 94.117188 C 507.683594 94.140625 511.835938 95.660156 513.671875 97.496094 C 516.191406 100.015625 518.019531 99.980469 521.199219 97.34375 C 524.609375 94.507812 525.746094 94.964844 527.269531 99.765625 C 529.648438 107.261719 537.390625 107.511719 537.390625 100.085938 C 537.390625 97.015625 538.6875 93.699219 540.269531 92.722656 C 545.429688 89.535156 543.539062 74.425781 537.582031 71.238281 C 527.84375 66.027344 523.351562 67.960938 518.074219 79.640625 C 513.292969 90.21875 512.535156 90.726562 507.34375 86.835938 C 502.472656 83.1875 502.378906 82.648438 506.621094 82.648438 C 512.25 82.648438 513.234375 75.199219 507.890625 73.042969 C 505.914062 72.246094 507.132812 71.488281 510.601562 71.363281 C 520.097656 71.019531 521.472656 65.75 512.914062 62.496094 C 502.988281 58.722656 500.03125 58.871094 498.667969 63.222656 M 282.957031 67.808594 C 281.960938 69.421875 282.550781 71.605469 284.261719 72.664062 C 288.6875 75.398438 291.542969 71.65625 287.847656 67.960938 C 285.78125 65.890625 284.171875 65.84375 282.957031 67.808594 M 244.542969 72.671875 C 235.855469 78.773438 235.503906 95.464844 243.964844 99.992188 C 253.84375 105.28125 264.921875 102.289062 269.277344 93.160156 C 274.09375 83.070312 270.398438 78.257812 259.863281 80.898438 C 252.117188 82.84375 249.875 89.632812 256.054688 92.433594 C 258.035156 93.328125 257.0625 93.746094 253.898438 93.363281 C 250.441406 92.941406 247.777344 90.128906 247.234375 86.320312 C 246.550781 81.519531 248.15625 79.515625 253.835938 78.089844 C 257.964844 77.054688 260.855469 74.742188 260.261719 72.953125 C 258.558594 67.832031 251.613281 67.710938 244.542969 72.671875 M 527.597656 79.320312 C 526.601562 80.933594 527.191406 83.117188 528.902344 84.175781 C 533.328125 86.910156 536.183594 83.167969 532.488281 79.472656 C 530.421875 77.40625 528.8125 77.355469 527.597656 79.320312 M 546.644531 93.976562 C 543.210938 102.246094 541.789062 109.152344 543.332031 110.101562 C 547.070312 112.414062 551.78125 109.050781 551.78125 104.066406 C 551.78125 101.78125 553.078125 99.917969 554.660156 99.917969 C 556.246094 99.917969 557.539062 102.402344 557.539062 105.4375 C 557.539062 113.980469 560.636719 120.066406 564.984375 120.066406 C 570.296875 120.066406 581.441406 97.703125 579.109375 91.722656 C 577.496094 87.574219 576.566406 87.816406 571.839844 93.605469 L 566.425781 100.246094 L 563.957031 90.734375 C 560.148438 76.035156 553.589844 77.265625 546.644531 93.976562 M 220.800781 85.160156 C 220.800781 86.542969 223.449219 93.667969 226.691406 100.992188 C 232.460938 114.039062 238.066406 118.5 238.066406 110.046875 C 238.066406 101.851562 228.769531 82.648438 224.800781 82.648438 C 222.601562 82.648438 220.800781 83.78125 220.800781 85.160156 M 585.703125 110.816406 C 572.453125 120.5 569.910156 125.804688 578.496094 125.863281 C 586.347656 125.917969 590.488281 128.59375 592.917969 135.175781 C 596.289062 144.320312 599.871094 140.4375 603.160156 124.054688 C 607.933594 100.296875 604.09375 97.386719 585.703125 110.816406 M 174.578125 130.472656 C 109.878906 185.359375 70.914062 251.304688 52.277344 337.445312 C 45.792969 367.429688 45.761719 431.738281 52.21875 466.1875 C 59.484375 504.960938 80.867188 563.296875 87.8125 563.296875 C 89.019531 563.296875 92.804688 561.335938 96.222656 558.9375 L 102.445312 554.582031 L 95.109375 538.070312 C 61.675781 462.839844 57.277344 374.398438 83.132812 297.203125 C 100.550781 245.203125 135.015625 192.238281 174.601562 156.648438 C 186.554688 145.902344 198.175781 135.976562 200.425781 134.585938 C 203.90625 132.445312 203.785156 130.957031 199.640625 124.625 C 196.957031 120.535156 193.746094 117.1875 192.5 117.1875 C 191.253906 117.1875 183.1875 123.164062 174.578125 130.472656 M 614.023438 130.1875 C 611.449219 132.761719 609.347656 137.8125 609.347656 141.410156 C 609.347656 149.675781 619.085938 158.773438 625.359375 156.371094 C 629.457031 154.796875 629.214844 153.863281 623.550781 149.273438 C 619.375 145.894531 617.679688 142.265625 618.847656 139.222656 C 620.972656 133.679688 629.695312 132.929688 634.625 137.859375 C 639.359375 142.59375 642.917969 138.132812 639.175781 132.160156 C 635.003906 125.5 619.898438 124.3125 614.023438 130.1875 M 356.753906 134.773438 C 338.714844 143.707031 323.070312 163.214844 312.992188 189.34375 C 305.640625 208.410156 304.265625 215.988281 304.265625 237.410156 C 304.265625 258.960938 305.394531 265.109375 311.671875 277.703125 C 325.515625 305.484375 354.316406 318.703125 388.632812 313.03125 C 425.101562 307 445.085938 284.035156 449.960938 242.5625 C 453.542969 212.078125 435.148438 164.746094 410.90625 142.066406 C 398.011719 130.007812 395.257812 128.699219 382.816406 128.703125 C 374.582031 128.703125 364.078125 131.152344 356.753906 134.773438 M 449.347656 135.539062 C 448.390625 138.03125 450.921875 148.839844 454.96875 159.5625 C 471.695312 203.882812 480.109375 274.109375 471.257812 295.476562 C 467.988281 303.375 468.019531 305.1875 471.453125 307.363281 C 476.667969 310.664062 533.679688 310.820312 535.707031 307.542969 C 536.550781 306.179688 534.789062 298.085938 531.792969 289.554688 C 526.460938 274.363281 516.902344 229.433594 519 229.433594 C 519.589844 229.433594 525.960938 241.167969 533.160156 255.507812 C 545.890625 280.847656 546.523438 281.5625 555.472656 280.691406 C 564.351562 279.832031 564.851562 279.074219 569.351562 259.652344 L 574.019531 239.507812 L 577.1875 251.019531 C 581.265625 265.820312 582.007812 282.484375 579.265625 297.351562 L 577.089844 309.148438 L 592.496094 311 C 600.972656 312.015625 615.394531 312.863281 624.546875 312.871094 C 644.976562 312.90625 646.898438 309.667969 638.472656 289.394531 C 635.117188 281.320312 632.371094 272.519531 632.371094 269.832031 C 632.371094 259.214844 605.492188 210.789062 591.226562 195.703125 C 575.082031 178.632812 542.445312 153.542969 532.355469 150.445312 C 524.371094 147.992188 524.125 151.328125 531.234375 165.511719 C 537.023438 177.0625 542.164062 210.792969 537.714844 208.046875 C 534.160156 205.851562 510.078125 164.585938 504.363281 150.902344 C 499.183594 138.492188 494.242188 136 469.054688 133.089844 C 454.089844 131.363281 450.792969 131.773438 449.347656 135.539062 M 303.71875 138.839844 C 302.890625 139.671875 293.636719 142.722656 283.164062 145.628906 C 260.144531 152.011719 240.820312 166.183594 209.761719 199.464844 C 181.832031 229.390625 167.683594 252.347656 167.683594 267.734375 C 167.683594 277.542969 169.410156 280.667969 180.027344 290.085938 C 198.066406 306.097656 213.835938 310.386719 251.046875 309.402344 C 280.363281 308.628906 282.363281 308.183594 287.339844 301.386719 C 290.238281 297.429688 292.964844 288.410156 293.398438 281.347656 C 294.382812 265.425781 289.8125 263.691406 269.683594 272.347656 C 251.546875 280.152344 243.097656 279.9375 233.191406 271.410156 C 225.894531 265.128906 225.183594 262.886719 225.816406 248.074219 C 226.683594 227.742188 237.792969 201.957031 251.351562 188.820312 C 259.558594 180.863281 263.347656 179.257812 273.410156 179.476562 C 280.089844 179.617188 288.972656 180.679688 293.148438 181.835938 C 300.25 183.796875 301.03125 183.027344 305.21875 169.984375 C 309.585938 156.390625 311.023438 148.246094 310.351562 140.929688 C 310.015625 137.257812 306.429688 136.128906 303.71875 138.839844 M 638.691406 149.703125 C 629.128906 159.566406 626.902344 166.101562 633.089844 166.132812 C 637.714844 166.15625 655.566406 145.691406 653.636719 142.574219 C 651.125 138.507812 648.179688 139.914062 638.691406 149.703125 M 650.28125 159.082031 C 637.40625 168.097656 645.277344 189.140625 661.523438 189.140625 C 671.160156 189.140625 675.542969 184.058594 675.542969 172.898438 C 675.542969 163.894531 667.503906 154.601562 659.714844 154.601562 C 658.042969 154.601562 653.796875 156.621094 650.28125 159.082031 M 369.976562 166.214844 C 360.371094 171.820312 354.632812 194.386719 354.632812 226.554688 C 354.632812 251.285156 355.636719 258.4375 360.167969 265.925781 C 369.898438 282.007812 384.785156 281.027344 393.617188 263.714844 C 404.367188 242.648438 399.671875 183.777344 386.042969 168.71875 C 380.519531 162.613281 377.0625 162.078125 369.976562 166.214844 M 656.117188 165.140625 C 651.074219 167.175781 651.617188 177.464844 656.871094 179.476562 C 663.847656 182.15625 670.222656 175.1875 666.746094 168.691406 C 663.75 163.09375 662.347656 162.625 656.117188 165.140625 M 674.761719 189.351562 C 662.75 199.246094 661.246094 203.53125 669.785156 203.53125 C 672.953125 203.53125 675.542969 202.234375 675.542969 200.652344 C 675.542969 199.070312 676.851562 197.773438 678.457031 197.773438 C 680.238281 197.773438 680.652344 202.226562 679.527344 209.285156 C 677.253906 223.480469 681.996094 224.546875 696.1875 213.027344 C 701.453125 208.753906 706.324219 204.847656 707.007812 204.347656 C 707.695312 203.84375 706.722656 201.902344 704.851562 200.027344 C 702.230469 197.40625 700.652344 197.417969 697.992188 200.078125 C 692.019531 206.046875 690.429688 203.902344 692.027344 192.019531 C 693.953125 177.632812 689.761719 176.980469 674.761719 189.351562 M 692.847656 224.195312 C 683.289062 226.9375 683.082031 227.261719 688.53125 231.035156 C 699.199219 238.421875 701.253906 240.980469 699.714844 244.992188 C 698.867188 247.195312 699.445312 249.78125 700.996094 250.742188 C 704.460938 252.882812 721.59375 231.820312 721.59375 225.421875 C 721.59375 220.066406 709.105469 219.535156 692.847656 224.195312 M 718.527344 250.574219 C 705.574219 257.101562 703.40625 263.003906 710.703125 271.886719 C 715.707031 277.96875 719.453125 275.929688 717.507812 268.175781 C 715.910156 261.828125 717.007812 260.308594 725.828125 256.625 C 735.675781 252.511719 738.460938 248.574219 733.636719 245.589844 C 732.347656 244.796875 725.550781 247.035156 718.527344 250.574219 M 730.945312 307.242188 C 727.382812 308.667969 724.472656 310.261719 724.472656 310.785156 C 724.472656 311.304688 727.25 323.972656 730.648438 338.9375 C 739.023438 375.800781 739.660156 444.160156 731.960938 479.820312 C 722.457031 523.835938 705.214844 563.542969 678.214844 603.589844 C 662.214844 627.320312 617.148438 671.078125 591.511719 687.777344 C 568.707031 702.628906 565.554688 707.792969 575.484375 714.046875 C 581.667969 717.941406 591 713.257812 619.375 692.023438 C 720.234375 616.542969 773.984375 485.398438 754.707031 361.828125 C 749.488281 328.359375 743.8125 306.332031 740.164062 305.371094 C 738.65625 304.976562 734.511719 305.816406 730.945312 307.242188 M 137.976562 327.953125 C 135.914062 330.4375 133.886719 350.238281 132.714844 379.292969 C 130.691406 429.457031 133.21875 451.761719 143.140625 471.195312 C 158.644531 501.558594 198.230469 513.71875 237.113281 500.050781 C 270.882812 488.179688 274.136719 480.726562 273.164062 417.425781 C 272.425781 369.519531 272.632812 367.5 279.753906 352.730469 C 283.800781 344.351562 286.542969 336.019531 285.851562 334.21875 C 284.40625 330.449219 235.472656 325.898438 226.609375 328.710938 C 221.019531 330.484375 220.800781 332.886719 220.800781 391.792969 C 220.800781 448.960938 220.425781 453.375 215.15625 458.140625 C 206.566406 465.914062 195.554688 461.847656 189.832031 448.785156 C 186.351562 440.847656 185.105469 428.753906 184.984375 401.796875 C 184.832031 367.429688 185.269531 364.5625 193.25 347.867188 C 197.886719 338.167969 200.695312 329.25 199.492188 328.042969 C 198.289062 326.835938 184.714844 325.414062 169.320312 324.878906 C 147.871094 324.136719 140.550781 324.851562 137.976562 327.953125 M 627.835938 327.054688 C 591.191406 329.171875 578.257812 336.332031 567.113281 360.675781 C 553.25 390.957031 551.824219 429.796875 563.4375 460.835938 C 573.734375 488.367188 591.078125 499.0625 632.761719 503.59375 C 660.636719 506.621094 661.355469 506.546875 668.347656 499.976562 C 676.605469 492.21875 688.492188 462.847656 684.847656 459.203125 C 683.484375 457.839844 674.878906 459.324219 665.5625 462.53125 C 625.765625 476.222656 612.191406 465.445312 612.253906 420.199219 C 612.300781 389.457031 614.703125 377.488281 622.535156 369.039062 C 630.882812 360.03125 645.28125 359.488281 661.152344 367.582031 C 681.582031 378.003906 684.617188 374.679688 678.140625 348.953125 C 674.808594 335.726562 666.183594 324.082031 660.320312 324.894531 C 658.402344 325.160156 643.785156 326.128906 627.835938 327.054688 M 311.460938 332.949219 L 302.824219 334.609375 L 304.09375 357.570312 C 305.699219 386.683594 305.671875 473.648438 304.046875 481.269531 C 302.882812 486.753906 304.125 486.984375 330.144531 486.183594 C 345.171875 485.722656 358.546875 484.261719 359.871094 482.9375 C 361.195312 481.613281 359.585938 471.820312 356.296875 461.171875 C 350.523438 442.484375 348.28125 419.390625 352.234375 419.390625 C 355.527344 419.390625 378.949219 446.03125 389.035156 461.246094 C 402.660156 481.796875 404.914062 483.136719 424.183594 482.136719 L 440.976562 481.269531 L 442.664062 416.511719 C 443.589844 380.894531 445.363281 348.191406 446.597656 343.839844 L 448.839844 335.925781 L 419.894531 335.925781 C 403.972656 335.925781 390.28125 336.996094 389.472656 338.308594 C 388.664062 339.621094 389.691406 346.421875 391.765625 353.421875 C 396.425781 369.167969 399.34375 390.632812 396.8125 390.539062 C 393.472656 390.417969 370.320312 354.527344 368.011719 345.898438 C 366.257812 339.34375 363.644531 337.128906 355.886719 335.621094 C 338.972656 332.335938 320.460938 331.222656 311.460938 332.949219 M 495.074219 332.8125 C 467.929688 334.734375 462.363281 337.996094 468.980469 348.09375 C 482.058594 368.050781 483.722656 439.625 471.730469 466.472656 C 468.296875 474.164062 466.117188 481.472656 466.886719 482.71875 C 468.789062 485.800781 513.707031 492.207031 524.441406 490.929688 C 531.089844 490.140625 532.929688 488.578125 532.441406 484.148438 C 530.644531 467.789062 530.164062 355.980469 531.855469 346.511719 C 533.617188 336.636719 533.097656 335.242188 526.785156 332.839844 C 522.914062 331.371094 519.511719 330.386719 519.21875 330.652344 C 518.925781 330.921875 508.058594 331.894531 495.074219 332.8125 M 422.269531 495.050781 C 417.304688 497.546875 414.800781 501.472656 414.1875 507.714844 C 413.148438 518.34375 417.652344 520.277344 434.820312 516.582031 C 441.238281 515.207031 447.320312 515.308594 449.210938 516.835938 C 454.960938 521.464844 476.152344 523.632812 482.492188 520.238281 C 486.835938 517.917969 488.464844 514.222656 488.464844 506.699219 L 488.464844 496.355469 L 474.519531 498.207031 C 464.914062 499.480469 457.335938 498.703125 450.148438 495.699219 C 437.535156 490.429688 431.714844 490.296875 422.269531 495.050781 M 351.753906 525.988281 C 320.515625 529.402344 307.820312 536.8125 299.628906 556.417969 C 287.96875 584.324219 306.441406 629.269531 339 652.191406 C 351.398438 660.921875 360.777344 673.710938 359.492188 680.128906 C 358.253906 686.3125 364.246094 692.8125 371.183594 692.8125 C 376.449219 692.8125 376.789062 691.542969 375.050781 678.421875 L 373.140625 664.03125 L 396.363281 664.03125 L 396.363281 647.242188 C 396.363281 638.007812 395.554688 629.644531 394.570312 628.65625 C 393.582031 627.667969 387.804688 629.394531 381.730469 632.496094 C 366.910156 640.054688 363.332031 639.648438 353.410156 629.269531 C 336.785156 611.871094 329.679688 569.835938 341.550781 559.09375 C 347.199219 553.980469 349.863281 553.992188 375.886719 559.226562 L 385.628906 561.1875 L 384.261719 544.707031 C 383.066406 530.308594 378.855469 522.105469 373.339844 523.4375 C 372.546875 523.625 362.835938 524.773438 351.753906 525.988281 M 417.851562 526.808594 C 417.1875 528.671875 416.875 536.671875 417.148438 544.589844 C 417.421875 552.503906 415.453125 581.582031 412.765625 609.214844 C 410.074219 636.84375 407.878906 660.542969 407.878906 661.878906 C 407.878906 663.210938 415.972656 663.917969 425.867188 663.449219 L 443.855469 662.589844 L 444.753906 649.640625 C 445.769531 635.03125 447.890625 631.519531 453.566406 635.027344 C 456.738281 636.988281 456.832031 639.398438 454.058594 647.804688 C 452.175781 653.5 451.453125 659.484375 452.453125 661.09375 C 454.769531 664.847656 466.789062 664.820312 480.410156 661.039062 C 490.609375 658.207031 491.050781 657.5625 490.796875 645.945312 C 490.652344 639.269531 491.289062 610.941406 492.210938 582.992188 C 494.121094 525.152344 496.714844 530.835938 466.878906 527.445312 C 433.285156 523.625 419.042969 523.441406 417.851562 526.808594 M 181.722656 545.222656 C 182.78125 549.621094 184.988281 559.625 186.625 567.441406 C 189.632812 581.828125 199.890625 604.574219 209.53125 618.246094 C 214.644531 625.496094 257.125 645.933594 260.363281 642.695312 C 261.195312 641.867188 259.652344 637.792969 256.9375 633.648438 C 250.21875 623.398438 253.398438 621.394531 261.621094 630.691406 C 280.484375 652.015625 284.128906 654.636719 299.09375 657.636719 C 307.480469 659.320312 315.324219 659.75 316.523438 658.597656 C 317.726562 657.4375 314.453125 651.390625 309.253906 645.152344 C 304.058594 638.914062 296.480469 628.628906 292.425781 622.296875 C 281.402344 605.082031 258.589844 555.984375 257.367188 546.835938 L 256.300781 538.832031 L 218.050781 538.027344 L 179.800781 537.21875 Z M 559.738281 540.257812 C 542.164062 545.550781 531.925781 554.808594 522.523438 573.902344 C 514.769531 589.660156 513.03125 596.898438 512.042969 617.625 C 511.015625 639.082031 511.617188 643.40625 516.484375 649.417969 C 530.53125 666.761719 569.371094 649.875 612.714844 607.578125 C 639.171875 581.761719 643.671875 564.582031 627.335938 551.730469 C 612.421875 540.003906 579.273438 534.375 559.738281 540.257812 M 453.574219 558.980469 C 449.964844 564.773438 447.636719 609.347656 450.941406 609.347656 C 452.683594 609.347656 454.773438 607.613281 455.585938 605.496094 C 457.675781 600.046875 455.75 555.484375 453.574219 558.980469 M 567.558594 567.945312 C 558.847656 577.34375 548.585938 604.222656 547.945312 619.3125 C 547.222656 636.546875 554.855469 636.25 572.085938 618.378906 C 595.632812 593.949219 601.230469 560.417969 581.765625 560.417969 C 577.664062 560.417969 571.515625 563.675781 567.558594 567.945312 M 223.648438 565.453125 C 223.632812 566.640625 226.464844 575.710938 229.9375 585.601562 C 234.574219 598.800781 237.652344 603.589844 241.515625 603.589844 C 246.144531 603.589844 245.558594 601.175781 236.628906 583.441406 C 227.265625 564.851562 223.722656 559.941406 223.648438 565.453125 M 123.664062 595.238281 C 116.9375 600.007812 111.429688 604.902344 111.429688 606.121094 C 111.429688 610.679688 124.980469 620.859375 131.042969 620.859375 C 137.550781 620.859375 148.847656 611.636719 148.847656 606.324219 C 148.847656 601.800781 140.371094 586.300781 137.976562 586.449219 C 136.832031 586.519531 130.390625 590.476562 123.664062 595.238281 M 129.253906 602.375 C 125.730469 604.839844 123.59375 608.066406 124.503906 609.542969 C 127.183594 613.878906 137.363281 612.617188 139.246094 607.714844 C 142.046875 600.410156 136.378906 597.382812 129.253906 602.375 M 148.019531 624.382812 C 140.445312 627.636719 134.722656 631.734375 135.308594 633.492188 C 135.894531 635.25 137.5625 636.707031 139.011719 636.730469 C 144.285156 636.820312 148.847656 641.46875 148.847656 646.761719 C 148.847656 657.1875 154.34375 655.425781 161.859375 642.59375 C 169.289062 629.921875 170.410156 620.601562 164.675781 619.183594 C 163.09375 618.792969 155.597656 621.132812 148.019531 624.382812 M 179.453125 652.726562 C 162.121094 666.363281 178.566406 688.703125 198.203125 678.191406 C 203.734375 675.230469 203.773438 674.824219 199.003906 669.554688 C 192.863281 662.769531 184.90625 662.105469 187.394531 668.589844 C 188.46875 671.390625 187.828125 672.707031 185.722656 672.003906 C 180.445312 670.246094 180.023438 665.789062 184.550781 659.597656 C 188.617188 654.035156 188.769531 654.046875 195.597656 660.457031 C 206.214844 670.433594 211.019531 662.882812 200.652344 652.519531 C 193.363281 645.226562 188.933594 645.269531 179.453125 652.726562 M 211.710938 669.066406 C 203.257812 679.144531 197.574219 690.164062 199.347656 693.03125 C 200.582031 695.023438 202.328125 695.003906 204.769531 692.976562 C 209.117188 689.371094 212.164062 691.871094 212.164062 699.046875 C 212.164062 701.949219 213.460938 704.324219 215.042969 704.324219 C 216.625 704.324219 217.921875 702.53125 217.921875 700.335938 C 217.921875 698.144531 221.160156 694.230469 225.117188 691.636719 C 234.097656 685.75 234.28125 678.398438 225.652344 670.289062 C 217.609375 662.734375 217.058594 662.6875 211.710938 669.066406 M 215.042969 681.300781 C 215.042969 682.882812 216.261719 684.175781 217.75 684.175781 C 219.242188 684.175781 221.257812 682.882812 222.238281 681.300781 C 223.214844 679.714844 221.996094 678.421875 219.53125 678.421875 C 217.0625 678.421875 215.042969 679.714844 215.042969 681.300781 M 235.863281 696.433594 C 224.71875 707.929688 224 712.648438 233.667969 710.800781 C 239.226562 709.738281 241.523438 711.078125 244.199219 716.957031 C 246.085938 721.089844 248.652344 724.472656 249.910156 724.472656 C 252.296875 724.472656 255.179688 711.90625 256.1875 697.132812 C 257.046875 684.542969 247.699219 684.21875 235.863281 696.433594 M 267.035156 706.851562 C 263.289062 713.851562 263.023438 726.425781 266.578125 728.621094 C 268.011719 729.507812 268.507812 732.824219 267.679688 735.984375 C 265.710938 743.53125 271.011719 743.335938 278.765625 735.582031 L 284.921875 729.421875 L 278.316406 724.4375 C 268.691406 717.175781 272.515625 708.769531 284.367188 711.136719 C 291.675781 712.597656 293.003906 712.046875 292.214844 707.890625 C 290.746094 700.148438 271.058594 699.332031 267.035156 706.851562 M 509.332031 706.230469 C 502.675781 708.917969 505.160156 721.519531 512.929688 724.472656 C 516.886719 725.976562 520.125 727.847656 520.125 728.625 C 520.125 729.40625 518.3125 729.351562 516.097656 728.5 C 510.207031 726.242188 507.945312 731.847656 513.046875 736.082031 C 516.382812 738.851562 519.097656 738.941406 524.527344 736.46875 C 533.238281 732.496094 533.648438 726.207031 525.570312 720.546875 C 522.019531 718.058594 520.378906 714.871094 521.621094 712.867188 C 522.785156 710.980469 521.953125 708.308594 519.773438 706.925781 C 515.410156 704.160156 514.59375 704.105469 509.332031 706.230469 M 299.0625 723.113281 C 290.160156 735.75 288.835938 745.695312 296.960938 738.949219 C 301.367188 735.296875 308.949219 737.671875 311.144531 743.398438 C 312.011719 745.652344 314.117188 747.496094 315.824219 747.496094 C 317.804688 747.496094 318.621094 740.996094 318.074219 729.535156 C 316.980469 706.628906 311.894531 704.910156 299.0625 723.113281 M 492.78125 724.472656 C 494.433594 736.484375 494.011719 738.863281 490.230469 738.863281 C 487.625 738.863281 484.960938 735.496094 483.964844 730.945312 C 481.109375 717.929688 480.152344 715.835938 477.042969 715.835938 C 475.410156 715.835938 474.074219 716.871094 474.074219 718.136719 C 474.074219 719.398438 469.695312 719.925781 464.339844 719.300781 C 452.078125 717.867188 450.359375 720.761719 452.746094 738.765625 C 454.71875 753.625 457.835938 755.988281 469.519531 751.503906 C 476.234375 748.929688 475.050781 744.632812 467.597656 744.527344 C 461.425781 744.4375 461.371094 744.242188 466.445312 740.402344 C 472.378906 735.90625 470.589844 730.335938 463.109375 730.027344 C 459.140625 729.859375 459.308594 729.367188 464 727.347656 C 472.714844 723.605469 473.296875 723.859375 475.433594 732.367188 C 478.136719 743.132812 482.246094 747.496094 489.679688 747.496094 C 501.992188 747.496094 506.5 734.433594 500.050781 717.460938 C 495.070312 704.367188 490.609375 708.667969 492.78125 724.472656 M 349.023438 724.230469 C 348.128906 725.683594 346.578125 732.804688 345.582031 740.0625 L 343.777344 753.253906 L 355.105469 753.253906 C 361.335938 753.253906 367.984375 751.699219 369.886719 749.796875 C 375.507812 744.175781 374.152344 727.988281 367.773438 724.570312 C 360.878906 720.882812 351.199219 720.707031 349.023438 724.230469 M 422.941406 724.261719 C 421.65625 725.167969 421.101562 732.710938 421.710938 741.019531 C 422.761719 755.261719 423.273438 756.128906 430.628906 756.128906 C 453.191406 756.128906 456.148438 727.140625 433.921875 723.878906 C 429.167969 723.179688 424.226562 723.351562 422.941406 724.261719 M 379.097656 739.964844 C 379.097656 754.574219 379.546875 755.546875 387.011719 757.011719 C 396.871094 758.949219 403.402344 753.800781 394.15625 751.382812 C 386.929688 749.492188 385.410156 744.617188 392.046875 744.617188 C 398.148438 744.617188 397.449219 736.023438 391.328125 735.800781 C 387.46875 735.660156 387.804688 735.011719 392.765625 733.015625 C 402.503906 729.101562 400.554688 724.472656 389.167969 724.472656 L 379.097656 724.472656 Z M 356.070312 738.863281 C 356.070312 748.789062 356.820312 749.214844 363.160156 742.875 C 366.726562 739.304688 367.023438 737.335938 364.453125 734.238281 C 359.148438 727.847656 356.070312 729.546875 356.070312 738.863281 M 430.902344 740.300781 C 430.902344 748.855469 438.183594 750.09375 440.328125 741.90625 C 441.972656 735.617188 440.375 733.105469 434.738281 733.105469 C 432.566406 733.105469 430.902344 736.222656 430.902344 740.300781 " fill-opacity="1" fill-rule="evenodd"/></svg>