<svg xmlns="http://www.w3.org/2000/svg" xmlns:xlink="http://www.w3.org/1999/xlink" width="320" zoomAndPan="magnify" viewBox="0 0 240 239.999995" height="320" preserveAspectRatio="xMidYMid meet" version="1.0"><defs><g/></defs><path fill="#ffffff" d="M 118.824219 3.109375 C 118.558594 3.539062 118.308594 3.554688 112.691406 3.554688 C 107.023438 3.554688 106.832031 3.570312 106.71875 4 C 106.609375 4.417969 106.414062 4.445312 103.574219 4.449219 C 100.109375 4.449219 99.542969 4.546875 99.542969 5.136719 C 99.542969 5.519531 99.347656 5.554688 97.125 5.554688 C 94.894531 5.554688 94.699219 5.589844 94.59375 6 C 94.488281 6.394531 94.289062 6.445312 92.804688 6.445312 C 91.179688 6.445312 90.433594 6.730469 90.433594 7.347656 C 90.433594 7.460938 89.785156 7.554688 88.988281 7.554688 C 87.707031 7.554688 87.546875 7.601562 87.546875 7.988281 C 87.546875 8.367188 87.363281 8.429688 86.15625 8.488281 C 84.964844 8.546875 84.738281 8.625 84.546875 9.054688 C 84.355469 9.496094 84.167969 9.554688 82.9375 9.554688 C 81.695312 9.554688 81.546875 9.601562 81.546875 10 C 81.546875 10.390625 81.398438 10.445312 80.339844 10.445312 C 79.1875 10.445312 78.433594 10.800781 78.433594 11.347656 C 78.433594 11.460938 78.027344 11.554688 77.523438 11.554688 C 76.8125 11.554688 76.589844 11.648438 76.503906 11.988281 C 76.417969 12.3125 76.160156 12.4375 75.46875 12.488281 C 74.707031 12.542969 74.535156 12.640625 74.476562 13.054688 C 74.410156 13.511719 74.285156 13.554688 73.066406 13.554688 C 71.925781 13.554688 71.710938 13.617188 71.613281 13.988281 C 71.527344 14.3125 71.273438 14.4375 70.578125 14.488281 C 69.816406 14.542969 69.644531 14.640625 69.585938 15.054688 C 69.527344 15.480469 69.378906 15.554688 68.621094 15.554688 C 67.933594 15.554688 67.703125 15.652344 67.617188 15.972656 C 67.542969 16.261719 67.230469 16.4375 66.617188 16.535156 C 65.988281 16.636719 65.691406 16.808594 65.609375 17.117188 C 65.535156 17.398438 65.304688 17.554688 64.964844 17.554688 C 64.589844 17.554688 64.4375 17.679688 64.4375 17.988281 C 64.4375 18.335938 64.253906 18.429688 63.492188 18.484375 C 62.707031 18.542969 62.535156 18.640625 62.476562 19.054688 C 62.417969 19.464844 62.265625 19.554688 61.621094 19.554688 C 61.035156 19.554688 60.8125 19.660156 60.726562 19.988281 C 60.664062 20.222656 60.398438 20.449219 60.136719 20.488281 C 59.835938 20.527344 59.632812 20.742188 59.585938 21.054688 C 59.527344 21.488281 59.382812 21.554688 58.53125 21.554688 C 57.707031 21.554688 57.546875 21.625 57.546875 21.984375 C 57.546875 22.257812 57.367188 22.4375 57.046875 22.484375 C 56.726562 22.527344 56.523438 22.734375 56.476562 23.054688 C 56.429688 23.375 56.25 23.554688 55.976562 23.554688 C 55.699219 23.554688 55.546875 23.707031 55.546875 23.984375 C 55.546875 24.335938 55.367188 24.429688 54.601562 24.484375 C 53.816406 24.542969 53.648438 24.636719 53.585938 25.054688 C 53.539062 25.382812 53.363281 25.554688 53.066406 25.554688 C 52.808594 25.554688 52.570312 25.738281 52.503906 25.984375 C 52.429688 26.277344 52.121094 26.457031 51.527344 26.558594 C 50.871094 26.667969 50.660156 26.808594 50.660156 27.128906 C 50.660156 27.433594 50.503906 27.554688 50.101562 27.554688 C 49.703125 27.554688 49.546875 27.671875 49.546875 27.984375 C 49.546875 28.257812 49.367188 28.4375 49.046875 28.484375 C 48.726562 28.527344 48.523438 28.734375 48.476562 29.054688 C 48.429688 29.375 48.253906 29.554688 47.976562 29.554688 C 47.699219 29.554688 47.546875 29.707031 47.546875 29.984375 C 47.546875 30.257812 47.367188 30.4375 47.046875 30.484375 C 46.730469 30.527344 46.523438 30.734375 46.476562 31.042969 C 46.421875 31.425781 46.238281 31.542969 45.589844 31.597656 C 44.824219 31.660156 44.757812 31.726562 44.5625 32.59375 C 44.382812 33.410156 44.269531 33.535156 43.609375 33.660156 C 43.195312 33.738281 42.804688 33.9375 42.742188 34.101562 C 42.679688 34.265625 42.382812 34.464844 42.085938 34.539062 C 41.757812 34.621094 41.546875 34.835938 41.546875 35.085938 C 41.546875 35.316406 41.347656 35.554688 41.105469 35.617188 C 40.859375 35.683594 40.660156 35.886719 40.660156 36.074219 C 40.660156 36.257812 40.433594 36.445312 40.160156 36.484375 C 39.839844 36.527344 39.632812 36.730469 39.589844 37.054688 C 39.542969 37.371094 39.363281 37.554688 39.09375 37.554688 C 38.828125 37.554688 38.617188 37.757812 38.535156 38.089844 C 38.460938 38.382812 38.214844 38.671875 37.988281 38.730469 C 37.71875 38.800781 37.554688 39.082031 37.507812 39.566406 C 37.445312 40.203125 37.328125 40.324219 36.546875 40.539062 C 35.738281 40.765625 35.652344 40.859375 35.589844 41.601562 C 35.539062 42.242188 35.421875 42.429688 35.035156 42.484375 C 34.726562 42.527344 34.523438 42.734375 34.476562 43.054688 C 34.433594 43.375 34.253906 43.554688 33.976562 43.554688 C 33.714844 43.554688 33.546875 43.707031 33.546875 43.945312 C 33.546875 44.160156 33.324219 44.433594 33.046875 44.554688 C 32.679688 44.71875 32.53125 44.996094 32.480469 45.609375 C 32.425781 46.261719 32.316406 46.441406 31.980469 46.441406 C 31.667969 46.441406 31.546875 46.597656 31.546875 46.996094 C 31.546875 47.441406 31.4375 47.554688 30.992188 47.554688 C 30.597656 47.554688 30.4375 47.671875 30.4375 47.972656 C 30.4375 48.203125 30.238281 48.441406 29.992188 48.507812 C 29.640625 48.597656 29.546875 48.808594 29.546875 49.515625 C 29.546875 50.273438 29.472656 50.421875 29.046875 50.480469 C 28.726562 50.527344 28.523438 50.730469 28.476562 51.050781 C 28.433594 51.375 28.253906 51.550781 27.976562 51.550781 C 27.714844 51.550781 27.550781 51.707031 27.550781 51.945312 C 27.550781 52.160156 27.324219 52.433594 27.050781 52.554688 C 26.683594 52.714844 26.53125 52.996094 26.480469 53.585938 C 26.433594 54.167969 26.292969 54.429688 25.980469 54.507812 C 25.726562 54.574219 25.550781 54.8125 25.550781 55.085938 C 25.550781 55.394531 25.40625 55.550781 25.128906 55.550781 C 24.703125 55.550781 24.445312 56.113281 24.441406 57.050781 C 24.4375 57.402344 24.304688 57.550781 23.992188 57.550781 C 23.71875 57.550781 23.550781 57.699219 23.550781 57.945312 C 23.550781 58.160156 23.324219 58.433594 23.050781 58.554688 C 22.6875 58.714844 22.53125 58.996094 22.480469 59.585938 C 22.433594 60.167969 22.292969 60.425781 21.980469 60.507812 C 21.644531 60.597656 21.550781 60.816406 21.550781 61.515625 C 21.550781 62.273438 21.472656 62.421875 21.050781 62.480469 C 20.664062 62.535156 20.53125 62.722656 20.480469 63.28125 C 20.4375 63.703125 20.230469 64.125 19.980469 64.28125 C 19.699219 64.453125 19.550781 64.796875 19.550781 65.265625 C 19.550781 65.789062 19.398438 66.085938 18.992188 66.351562 C 18.5625 66.632812 18.4375 66.902344 18.4375 67.550781 C 18.4375 68.203125 18.339844 68.414062 17.992188 68.503906 C 17.640625 68.597656 17.550781 68.808594 17.550781 69.515625 C 17.550781 70.273438 17.472656 70.421875 17.050781 70.480469 C 16.59375 70.546875 16.542969 70.6875 16.484375 72.050781 C 16.425781 73.371094 16.367188 73.550781 15.984375 73.550781 C 15.617188 73.550781 15.550781 73.707031 15.550781 74.535156 C 15.550781 75.386719 15.480469 75.53125 15.050781 75.589844 C 14.632812 75.652344 14.539062 75.820312 14.480469 76.605469 C 14.425781 77.371094 14.332031 77.550781 13.980469 77.550781 C 13.597656 77.550781 13.550781 77.714844 13.550781 78.980469 C 13.550781 80.292969 13.507812 80.414062 13.050781 80.480469 C 12.597656 80.542969 12.542969 80.6875 12.484375 82.027344 C 12.429688 83.277344 12.351562 83.523438 11.984375 83.617188 C 11.609375 83.714844 11.550781 83.929688 11.550781 85.195312 C 11.550781 86.363281 11.480469 86.660156 11.210938 86.660156 C 10.785156 86.660156 10.4375 87.550781 10.4375 88.648438 C 10.4375 89.3125 10.339844 89.523438 9.996094 89.613281 C 9.585938 89.722656 9.550781 89.917969 9.550781 92.085938 L 9.550781 94.4375 L 11.550781 94.4375 C 13.429688 94.4375 13.550781 94.410156 13.550781 93.972656 C 13.550781 93.695312 13.726562 93.460938 13.992188 93.394531 C 14.402344 93.285156 14.4375 93.089844 14.4375 90.875 C 14.4375 88.550781 14.457031 88.46875 14.9375 88.398438 C 15.386719 88.335938 15.445312 88.1875 15.503906 86.953125 C 15.558594 85.8125 15.644531 85.550781 16.003906 85.4375 C 16.375 85.320312 16.4375 85.09375 16.4375 83.871094 C 16.4375 82.613281 16.488281 82.441406 16.859375 82.441406 C 17.328125 82.441406 17.550781 82.027344 17.550781 81.140625 C 17.550781 80.789062 17.730469 80.433594 17.992188 80.269531 C 18.378906 80.03125 18.4375 79.75 18.4375 78.214844 C 18.4375 76.46875 18.449219 76.441406 18.992188 76.441406 C 19.503906 76.441406 19.550781 76.359375 19.550781 75.441406 C 19.550781 74.589844 19.613281 74.441406 19.992188 74.441406 C 20.371094 74.441406 20.4375 74.292969 20.4375 73.457031 C 20.4375 72.605469 20.503906 72.460938 20.9375 72.402344 C 21.34375 72.34375 21.453125 72.167969 21.511719 71.449219 C 21.554688 70.894531 21.738281 70.460938 22.011719 70.269531 C 22.289062 70.074219 22.4375 69.710938 22.4375 69.222656 C 22.4375 68.613281 22.53125 68.457031 22.9375 68.402344 C 23.351562 68.339844 23.449219 68.171875 23.507812 67.386719 C 23.5625 66.621094 23.65625 66.441406 24.007812 66.441406 C 24.367188 66.441406 24.4375 66.28125 24.4375 65.457031 C 24.4375 64.605469 24.503906 64.460938 24.9375 64.402344 C 25.351562 64.339844 25.449219 64.171875 25.507812 63.386719 C 25.5625 62.621094 25.65625 62.441406 26.007812 62.441406 C 26.289062 62.441406 26.4375 62.289062 26.4375 61.996094 C 26.4375 61.753906 26.53125 61.550781 26.644531 61.550781 C 27.058594 61.550781 27.550781 60.835938 27.550781 60.230469 C 27.550781 59.789062 27.683594 59.570312 27.992188 59.488281 C 28.257812 59.417969 28.4375 59.183594 28.4375 58.90625 C 28.4375 58.636719 28.582031 58.441406 28.777344 58.441406 C 29.207031 58.441406 29.546875 57.550781 29.546875 56.425781 C 29.546875 55.699219 29.625 55.550781 29.992188 55.550781 C 30.320312 55.550781 30.4375 55.402344 30.4375 54.996094 C 30.4375 54.550781 30.546875 54.441406 30.992188 54.441406 C 31.410156 54.441406 31.546875 54.324219 31.546875 53.976562 C 31.546875 53.699219 31.726562 53.464844 31.992188 53.394531 C 32.238281 53.332031 32.4375 53.101562 32.4375 52.886719 C 32.4375 52.671875 32.632812 52.441406 32.875 52.378906 C 33.1875 52.296875 33.355469 52 33.460938 51.351562 C 33.570312 50.664062 33.707031 50.441406 34.019531 50.441406 C 34.285156 50.441406 34.4375 50.285156 34.4375 50.011719 C 34.4375 49.738281 34.617188 49.558594 34.9375 49.511719 C 35.257812 49.46875 35.460938 49.261719 35.507812 48.941406 C 35.546875 48.667969 35.730469 48.441406 35.917969 48.441406 C 36.105469 48.441406 36.304688 48.25 36.367188 48.019531 C 36.429688 47.785156 36.667969 47.542969 36.902344 47.484375 C 37.132812 47.421875 37.394531 47.1875 37.476562 46.964844 C 37.5625 46.738281 37.8125 46.421875 38.035156 46.261719 C 38.289062 46.078125 38.4375 45.691406 38.4375 45.207031 C 38.4375 44.539062 38.507812 44.441406 38.992188 44.441406 C 39.386719 44.441406 39.546875 44.320312 39.546875 44.023438 C 39.546875 43.792969 39.746094 43.554688 39.992188 43.488281 C 40.257812 43.417969 40.4375 43.1875 40.4375 42.90625 C 40.4375 42.582031 40.578125 42.441406 40.902344 42.441406 C 41.171875 42.441406 41.414062 42.265625 41.476562 42.019531 C 41.539062 41.785156 41.78125 41.542969 42.011719 41.484375 C 42.261719 41.417969 42.4375 41.179688 42.4375 40.90625 C 42.4375 40.582031 42.578125 40.441406 42.902344 40.441406 C 43.179688 40.441406 43.414062 40.265625 43.480469 40.003906 C 43.542969 39.765625 43.785156 39.507812 44.015625 39.433594 C 44.246094 39.363281 44.4375 39.109375 44.4375 38.871094 C 44.4375 38.585938 44.589844 38.441406 44.902344 38.441406 C 45.171875 38.441406 45.414062 38.265625 45.476562 38.019531 C 45.539062 37.785156 45.78125 37.542969 46.011719 37.484375 C 46.257812 37.417969 46.4375 37.179688 46.4375 36.90625 C 46.4375 36.582031 46.578125 36.441406 46.902344 36.441406 C 47.179688 36.441406 47.414062 36.265625 47.484375 35.996094 C 47.546875 35.753906 47.785156 35.554688 48.019531 35.554688 C 48.316406 35.554688 48.4375 35.394531 48.4375 35 C 48.4375 34.582031 48.554688 34.441406 48.902344 34.441406 C 49.179688 34.441406 49.414062 34.265625 49.484375 34 C 49.546875 33.753906 49.785156 33.554688 50.019531 33.554688 C 50.316406 33.554688 50.4375 33.394531 50.4375 33 C 50.4375 32.554688 50.546875 32.441406 50.992188 32.441406 C 51.386719 32.441406 51.546875 32.324219 51.546875 32.023438 C 51.546875 31.792969 51.746094 31.554688 51.992188 31.488281 C 52.257812 31.417969 52.4375 31.1875 52.4375 30.90625 C 52.4375 30.503906 52.570312 30.441406 53.4375 30.441406 C 54.277344 30.441406 54.4375 30.375 54.4375 30.015625 C 54.4375 29.738281 54.613281 29.558594 54.9375 29.515625 C 55.257812 29.46875 55.460938 29.265625 55.507812 28.941406 C 55.554688 28.621094 55.730469 28.441406 56.007812 28.441406 C 56.289062 28.441406 56.4375 28.289062 56.4375 28 C 56.4375 27.65625 56.585938 27.554688 57.085938 27.554688 C 58.023438 27.554688 58.4375 27.34375 58.4375 26.863281 C 58.4375 26.5625 58.59375 26.441406 58.992188 26.441406 C 59.394531 26.441406 59.546875 26.324219 59.546875 26.011719 C 59.546875 25.675781 59.726562 25.566406 60.378906 25.511719 C 60.992188 25.460938 61.273438 25.3125 61.433594 24.941406 C 61.554688 24.667969 61.828125 24.441406 62.042969 24.441406 C 62.285156 24.441406 62.4375 24.277344 62.4375 24.011719 C 62.4375 23.664062 62.617188 23.566406 63.378906 23.511719 C 64.164062 23.453125 64.335938 23.359375 64.394531 22.941406 C 64.457031 22.511719 64.597656 22.441406 65.453125 22.441406 C 66.289062 22.441406 66.4375 22.375 66.4375 22 C 66.4375 21.6875 66.585938 21.554688 66.933594 21.550781 C 67.875 21.546875 68.433594 21.289062 68.433594 20.863281 C 68.433594 20.5625 68.59375 20.441406 68.992188 20.441406 C 69.394531 20.441406 69.546875 20.324219 69.546875 20.011719 C 69.546875 19.664062 69.726562 19.566406 70.492188 19.511719 C 71.277344 19.453125 71.449219 19.359375 71.507812 18.945312 C 71.566406 18.519531 71.714844 18.445312 72.472656 18.445312 C 73.171875 18.445312 73.390625 18.347656 73.480469 18.011719 C 73.5625 17.683594 73.820312 17.5625 74.511719 17.511719 C 75.273438 17.453125 75.449219 17.355469 75.507812 16.945312 C 75.566406 16.511719 75.710938 16.445312 76.5625 16.445312 C 77.398438 16.445312 77.546875 16.375 77.546875 16 C 77.546875 15.640625 77.695312 15.554688 78.308594 15.554688 C 79.332031 15.554688 80.210938 15.199219 80.210938 14.78125 C 80.210938 14.523438 80.476562 14.445312 81.324219 14.445312 C 82.285156 14.445312 82.433594 14.382812 82.433594 14 C 82.433594 13.609375 82.582031 13.554688 83.628906 13.554688 C 85.375 13.554688 86.253906 13.332031 86.378906 12.855469 C 86.460938 12.535156 86.699219 12.445312 87.460938 12.445312 C 88.285156 12.445312 88.433594 12.375 88.433594 12 C 88.433594 11.609375 88.582031 11.554688 89.628906 11.554688 C 91.355469 11.554688 92.179688 11.34375 92.332031 10.863281 C 92.445312 10.5 92.695312 10.445312 94.214844 10.445312 C 95.703125 10.445312 96.011719 10.378906 96.269531 10.007812 C 96.535156 9.628906 96.882812 9.5625 98.894531 9.507812 C 101.054688 9.449219 101.226562 9.410156 101.429688 8.945312 C 101.640625 8.46875 101.773438 8.445312 104.042969 8.445312 C 106.285156 8.445312 106.433594 8.417969 106.433594 8 C 106.433594 7.644531 106.582031 7.554688 107.167969 7.554688 C 107.570312 7.554688 108.019531 7.675781 108.167969 7.820312 C 108.375 8.027344 108.492188 8.027344 108.699219 7.820312 C 108.902344 7.621094 111.863281 7.554688 120.671875 7.554688 C 132.191406 7.554688 132.382812 7.5625 132.496094 8 C 132.605469 8.410156 132.800781 8.445312 135.0625 8.445312 C 137.265625 8.445312 137.527344 8.484375 137.644531 8.863281 C 137.808594 9.378906 138.628906 9.554688 140.878906 9.554688 C 142.414062 9.554688 142.613281 9.601562 142.71875 10 C 142.824219 10.410156 143.019531 10.445312 145.171875 10.445312 C 147.429688 10.445312 147.515625 10.460938 147.582031 10.945312 C 147.640625 11.351562 147.816406 11.457031 148.53125 11.515625 C 149.089844 11.5625 149.523438 11.746094 149.710938 12.015625 C 149.964844 12.375 150.285156 12.445312 151.761719 12.445312 C 153.40625 12.445312 153.515625 12.472656 153.582031 12.945312 C 153.644531 13.398438 153.789062 13.449219 155.128906 13.507812 C 156.378906 13.5625 156.625 13.640625 156.71875 14.007812 C 156.816406 14.378906 157.03125 14.445312 158.171875 14.445312 C 159.390625 14.445312 159.515625 14.488281 159.582031 14.945312 C 159.640625 15.359375 159.8125 15.457031 160.597656 15.511719 C 161.359375 15.566406 161.542969 15.664062 161.542969 16.011719 C 161.542969 16.394531 161.703125 16.445312 162.96875 16.445312 C 164.28125 16.445312 164.40625 16.484375 164.46875 16.945312 C 164.515625 17.257812 164.71875 17.46875 165.019531 17.511719 C 165.28125 17.550781 165.546875 17.773438 165.609375 18.011719 C 165.695312 18.347656 165.917969 18.445312 166.605469 18.445312 C 167.296875 18.445312 167.515625 18.539062 167.605469 18.882812 C 167.683594 19.191406 167.984375 19.363281 168.628906 19.464844 C 169.320312 19.574219 169.539062 19.710938 169.539062 20.027344 C 169.539062 20.316406 169.703125 20.441406 170.070312 20.441406 C 170.410156 20.441406 170.640625 20.601562 170.714844 20.882812 C 170.796875 21.191406 171.09375 21.363281 171.722656 21.460938 C 172.332031 21.558594 172.648438 21.738281 172.722656 22.023438 C 172.808594 22.34375 173.035156 22.441406 173.703125 22.441406 C 174.34375 22.441406 174.710938 22.589844 175.097656 23 C 175.382812 23.304688 175.789062 23.554688 175.996094 23.554688 C 176.207031 23.554688 176.429688 23.753906 176.492188 24 C 176.578125 24.320312 176.796875 24.441406 177.292969 24.441406 C 177.773438 24.441406 178.082031 24.605469 178.339844 25 C 178.539062 25.304688 178.890625 25.554688 179.121094 25.554688 C 179.390625 25.554688 179.539062 25.710938 179.539062 26 C 179.539062 26.375 179.6875 26.441406 180.527344 26.441406 L 181.515625 26.441406 L 181.582031 27.386719 C 181.652344 28.324219 181.660156 28.332031 182.582031 28.398438 C 183.34375 28.453125 183.523438 28.554688 183.582031 28.953125 C 183.640625 29.355469 183.816406 29.453125 184.597656 29.511719 C 185.359375 29.566406 185.539062 29.664062 185.539062 30.011719 C 185.539062 30.289062 185.691406 30.441406 185.96875 30.441406 C 186.246094 30.441406 186.421875 30.621094 186.46875 30.941406 C 186.523438 31.324219 186.707031 31.457031 187.257812 31.511719 C 188.007812 31.585938 188.652344 32.234375 188.652344 32.917969 C 188.652344 33.160156 188.898438 33.351562 189.328125 33.445312 C 189.699219 33.527344 190.125 33.785156 190.269531 34.019531 C 190.417969 34.25 190.761719 34.441406 191.039062 34.441406 C 191.425781 34.441406 191.539062 34.570312 191.539062 35 C 191.539062 35.40625 191.660156 35.554688 191.984375 35.554688 C 192.28125 35.554688 192.429688 35.703125 192.429688 35.996094 C 192.429688 36.324219 192.578125 36.441406 192.984375 36.441406 C 193.429688 36.441406 193.539062 36.554688 193.539062 36.996094 C 193.539062 37.40625 193.65625 37.554688 193.984375 37.554688 C 194.28125 37.554688 194.429688 37.703125 194.429688 37.996094 C 194.429688 38.324219 194.578125 38.441406 194.984375 38.441406 C 195.429688 38.441406 195.539062 38.554688 195.539062 38.996094 C 195.539062 39.40625 195.65625 39.554688 195.984375 39.554688 C 196.28125 39.554688 196.429688 39.703125 196.429688 39.996094 C 196.429688 40.324219 196.578125 40.441406 196.984375 40.441406 C 197.429688 40.441406 197.539062 40.554688 197.539062 40.996094 C 197.539062 41.40625 197.65625 41.554688 197.984375 41.554688 C 198.28125 41.554688 198.429688 41.703125 198.429688 41.996094 C 198.429688 42.324219 198.578125 42.441406 198.984375 42.441406 C 199.429688 42.441406 199.539062 42.554688 199.539062 42.996094 C 199.539062 43.394531 199.660156 43.554688 199.960938 43.554688 C 200.265625 43.554688 200.417969 43.769531 200.53125 44.355469 C 200.628906 44.882812 200.828125 45.195312 201.109375 45.269531 C 201.351562 45.332031 201.539062 45.574219 201.539062 45.820312 C 201.539062 46.066406 201.726562 46.308594 201.964844 46.371094 C 202.195312 46.433594 202.4375 46.679688 202.503906 46.921875 C 202.566406 47.164062 202.8125 47.414062 203.054688 47.476562 C 203.324219 47.546875 203.542969 47.855469 203.628906 48.273438 C 203.703125 48.65625 204.140625 49.308594 204.613281 49.753906 C 205.082031 50.195312 205.527344 50.726562 205.605469 50.941406 C 205.683594 51.15625 205.894531 51.332031 206.070312 51.332031 C 206.25 51.332031 206.429688 51.554688 206.46875 51.832031 C 206.511719 52.152344 206.71875 52.355469 207.039062 52.402344 C 207.402344 52.453125 207.539062 52.621094 207.539062 53.011719 C 207.539062 53.398438 207.660156 53.550781 207.96875 53.550781 C 208.308594 53.550781 208.414062 53.734375 208.46875 54.386719 C 208.519531 55 208.671875 55.277344 209.039062 55.4375 C 209.3125 55.558594 209.539062 55.835938 209.539062 56.050781 C 209.539062 56.289062 209.707031 56.441406 209.96875 56.441406 C 210.320312 56.441406 210.414062 56.621094 210.46875 57.386719 C 210.527344 58.171875 210.625 58.34375 211.039062 58.402344 C 211.402344 58.453125 211.539062 58.621094 211.539062 59.011719 C 211.539062 59.398438 211.660156 59.550781 211.96875 59.550781 C 212.320312 59.550781 212.414062 59.734375 212.46875 60.496094 C 212.527344 61.28125 212.625 61.453125 213.039062 61.511719 C 213.460938 61.570312 213.539062 61.71875 213.539062 62.476562 C 213.539062 63.175781 213.632812 63.394531 213.972656 63.484375 C 214.28125 63.566406 214.421875 63.824219 214.472656 64.40625 C 214.519531 64.996094 214.675781 65.277344 215.039062 65.4375 C 215.425781 65.609375 215.539062 65.839844 215.539062 66.46875 C 215.539062 67.070312 215.644531 67.304688 215.953125 67.386719 C 216.222656 67.457031 216.421875 67.785156 216.523438 68.324219 C 216.625 68.878906 216.820312 69.195312 217.109375 69.269531 C 217.382812 69.339844 217.539062 69.574219 217.539062 69.910156 C 217.539062 70.289062 217.664062 70.441406 217.972656 70.441406 C 218.347656 70.441406 218.414062 70.621094 218.472656 71.828125 C 218.527344 73.023438 218.609375 73.25 219.039062 73.4375 C 219.425781 73.609375 219.539062 73.839844 219.539062 74.476562 C 219.539062 75.097656 219.644531 75.332031 219.96875 75.4375 C 220.292969 75.539062 220.421875 75.8125 220.46875 76.507812 C 220.527344 77.28125 220.625 77.453125 221.039062 77.511719 C 221.5 77.578125 221.539062 77.695312 221.539062 79.121094 C 221.539062 80.367188 221.625 80.746094 221.984375 81.105469 C 222.226562 81.351562 222.425781 81.839844 222.425781 82.191406 C 222.425781 83.398438 222.707031 84.273438 223.128906 84.382812 C 223.449219 84.46875 223.539062 84.707031 223.539062 85.464844 C 223.539062 86.285156 223.605469 86.441406 223.972656 86.441406 C 224.355469 86.441406 224.414062 86.621094 224.472656 87.941406 C 224.53125 89.300781 224.582031 89.445312 225.039062 89.511719 C 225.527344 89.578125 225.539062 89.644531 225.539062 92.429688 C 225.539062 95.089844 225.566406 95.285156 225.980469 95.390625 C 226.25 95.464844 226.425781 95.695312 226.425781 95.984375 C 226.425781 96.433594 226.515625 96.453125 228.371094 96.390625 L 230.316406 96.328125 L 230.378906 93.9375 C 230.4375 91.664062 230.417969 91.550781 229.988281 91.550781 C 229.605469 91.550781 229.539062 91.40625 229.535156 90.605469 C 229.53125 89.277344 229.339844 88.71875 228.851562 88.59375 C 228.488281 88.496094 228.425781 88.269531 228.425781 87.015625 C 228.425781 85.699219 228.382812 85.550781 227.980469 85.550781 C 227.578125 85.550781 227.539062 85.402344 227.539062 83.902344 C 227.539062 81.964844 227.417969 81.550781 226.847656 81.550781 C 226.480469 81.550781 226.425781 81.378906 226.425781 80.195312 C 226.425781 79.042969 226.363281 78.828125 225.992188 78.730469 C 225.65625 78.640625 225.546875 78.386719 225.492188 77.582031 C 225.4375 76.707031 225.351562 76.539062 224.925781 76.480469 C 224.480469 76.417969 224.425781 76.285156 224.425781 75.214844 C 224.425781 74.289062 224.332031 73.953125 224 73.722656 C 223.726562 73.53125 223.542969 73.097656 223.5 72.542969 C 223.441406 71.824219 223.335938 71.648438 222.925781 71.589844 C 222.496094 71.53125 222.425781 71.386719 222.425781 70.535156 C 222.425781 69.699219 222.359375 69.550781 221.984375 69.550781 C 221.609375 69.550781 221.539062 69.402344 221.535156 68.605469 C 221.53125 67.277344 221.339844 66.722656 220.851562 66.59375 C 220.519531 66.507812 220.425781 66.28125 220.425781 65.574219 C 220.425781 64.8125 220.355469 64.664062 219.984375 64.664062 C 219.625 64.664062 219.539062 64.515625 219.539062 63.902344 C 219.539062 63.179688 219.082031 62.441406 218.632812 62.441406 C 218.519531 62.441406 218.425781 62.242188 218.425781 61.996094 C 218.425781 61.703125 218.277344 61.550781 217.996094 61.550781 C 217.648438 61.550781 217.550781 61.371094 217.496094 60.609375 C 217.4375 59.824219 217.34375 59.652344 216.925781 59.59375 C 216.503906 59.53125 216.425781 59.386719 216.425781 58.628906 C 216.425781 57.929688 216.332031 57.707031 215.996094 57.621094 C 215.757812 57.558594 215.53125 57.292969 215.496094 57.03125 C 215.453125 56.730469 215.242188 56.527344 214.925781 56.480469 C 214.507812 56.421875 214.425781 56.273438 214.425781 55.535156 C 214.425781 54.828125 214.347656 54.664062 214.007812 54.664062 C 213.683594 54.664062 213.554688 54.441406 213.4375 53.664062 C 213.320312 52.875 213.199219 52.664062 212.859375 52.664062 C 212.570312 52.664062 212.425781 52.511719 212.425781 52.199219 C 212.425781 51.925781 212.25 51.6875 211.996094 51.621094 C 211.757812 51.558594 211.53125 51.292969 211.496094 51.03125 C 211.453125 50.730469 211.242188 50.527344 210.925781 50.480469 C 210.511719 50.421875 210.425781 50.273438 210.425781 49.574219 C 210.425781 48.894531 210.320312 48.6875 209.871094 48.480469 C 209.566406 48.34375 209.316406 48.078125 209.316406 47.890625 C 209.316406 47.699219 209.121094 47.554688 208.871094 47.554688 C 208.570312 47.554688 208.429688 47.40625 208.429688 47.085938 C 208.429688 46.808594 208.25 46.574219 207.984375 46.507812 C 207.648438 46.417969 207.539062 46.203125 207.539062 45.632812 C 207.539062 45.042969 207.417969 44.820312 206.984375 44.625 C 206.679688 44.484375 206.429688 44.1875 206.429688 43.960938 C 206.429688 43.710938 206.269531 43.554688 206.007812 43.554688 C 205.773438 43.554688 205.539062 43.351562 205.46875 43.09375 C 205.402344 42.839844 205.140625 42.578125 204.890625 42.511719 C 204.628906 42.441406 204.429688 42.207031 204.429688 41.972656 C 204.429688 41.707031 204.269531 41.554688 204 41.554688 C 203.722656 41.554688 203.542969 41.375 203.5 41.054688 C 203.453125 40.730469 203.25 40.527344 202.929688 40.480469 C 202.601562 40.4375 202.429688 40.257812 202.429688 39.96875 C 202.429688 39.1875 202 38.6875 201.203125 38.539062 C 200.644531 38.433594 200.429688 38.277344 200.429688 37.972656 C 200.429688 37.703125 200.269531 37.554688 199.984375 37.554688 C 199.699219 37.554688 199.539062 37.40625 199.539062 37.140625 C 199.539062 36.914062 199.296875 36.46875 199 36.148438 C 198.707031 35.832031 198.429688 35.390625 198.390625 35.171875 C 198.339844 34.910156 198 34.707031 197.371094 34.566406 C 196.6875 34.414062 196.429688 34.246094 196.429688 33.957031 C 196.429688 33.707031 196.265625 33.554688 196 33.554688 C 195.722656 33.554688 195.546875 33.375 195.5 33.054688 C 195.453125 32.730469 195.25 32.527344 194.929688 32.484375 C 194.605469 32.4375 194.429688 32.257812 194.429688 31.984375 C 194.429688 31.707031 194.273438 31.554688 194 31.554688 C 193.722656 31.554688 193.546875 31.375 193.5 31.054688 C 193.457031 30.769531 193.242188 30.523438 192.988281 30.472656 C 192.742188 30.425781 192.414062 30.203125 192.25 29.972656 C 192.089844 29.742188 191.832031 29.554688 191.675781 29.554688 C 191.523438 29.554688 191.160156 29.304688 190.875 29 C 190.585938 28.691406 190.167969 28.441406 189.945312 28.441406 C 189.6875 28.441406 189.539062 28.28125 189.539062 28 C 189.539062 27.671875 189.390625 27.554688 188.984375 27.554688 C 188.570312 27.554688 188.429688 27.4375 188.429688 27.089844 C 188.429688 26.8125 188.25 26.578125 187.992188 26.507812 C 187.75 26.445312 187.496094 26.207031 187.421875 25.972656 C 187.320312 25.65625 187.078125 25.554688 186.429688 25.554688 C 185.707031 25.554688 185.558594 25.472656 185.5 25.054688 C 185.453125 24.734375 185.25 24.527344 184.929688 24.484375 C 184.609375 24.4375 184.429688 24.257812 184.429688 23.984375 C 184.429688 23.671875 184.273438 23.554688 183.875 23.554688 C 183.464844 23.554688 183.316406 23.4375 183.316406 23.109375 C 183.316406 22.847656 183.167969 22.664062 182.953125 22.664062 C 182.753906 22.664062 182.359375 22.414062 182.078125 22.109375 C 181.785156 21.796875 181.3125 21.554688 180.996094 21.554688 C 180.589844 21.554688 180.429688 21.4375 180.429688 21.132812 C 180.429688 20.65625 180.015625 20.441406 179.078125 20.441406 C 178.578125 20.441406 178.429688 20.339844 178.429688 20 C 178.429688 19.621094 178.28125 19.554688 177.429688 19.554688 C 176.511719 19.554688 176.429688 19.507812 176.429688 19 C 176.429688 18.601562 176.308594 18.445312 176.011719 18.445312 C 175.777344 18.445312 175.539062 18.246094 175.476562 18 C 175.382812 17.648438 175.171875 17.554688 174.464844 17.554688 C 173.707031 17.554688 173.5625 17.480469 173.5 17.054688 C 173.441406 16.640625 173.269531 16.542969 172.507812 16.488281 C 171.816406 16.4375 171.558594 16.3125 171.472656 15.988281 C 171.386719 15.648438 171.164062 15.554688 170.464844 15.554688 C 169.707031 15.554688 169.5625 15.480469 169.5 15.054688 C 169.441406 14.640625 169.269531 14.542969 168.507812 14.488281 C 167.816406 14.4375 167.558594 14.3125 167.472656 13.988281 C 167.386719 13.652344 167.164062 13.554688 166.503906 13.554688 C 165.828125 13.554688 165.601562 13.449219 165.425781 13.054688 C 165.265625 12.6875 164.988281 12.535156 164.386719 12.488281 C 163.804688 12.4375 163.523438 12.292969 163.425781 11.988281 C 163.308594 11.617188 163.078125 11.554688 161.875 11.554688 C 160.578125 11.554688 160.457031 11.511719 160.390625 11.054688 C 160.332031 10.640625 160.160156 10.542969 159.398438 10.488281 C 158.703125 10.4375 158.449219 10.3125 158.363281 9.988281 C 158.265625 9.621094 158.050781 9.554688 156.910156 9.554688 C 155.792969 9.554688 155.550781 9.484375 155.4375 9.132812 C 155.285156 8.648438 154.699219 8.453125 153.402344 8.445312 C 152.671875 8.445312 152.457031 8.351562 152.367188 8 C 152.265625 7.617188 152.0625 7.554688 150.910156 7.554688 C 149.792969 7.554688 149.550781 7.484375 149.4375 7.132812 C 149.277344 6.628906 148.695312 6.453125 147.1875 6.445312 C 146.339844 6.445312 145.953125 6.332031 145.652344 6 C 145.292969 5.601562 144.96875 5.554688 142.449219 5.554688 C 139.757812 5.554688 139.640625 5.535156 139.429688 5.054688 C 139.21875 4.578125 139.074219 4.550781 136.351562 4.492188 C 133.726562 4.433594 133.488281 4.394531 133.382812 3.992188 C 133.273438 3.570312 133.046875 3.554688 126.765625 3.554688 C 120.449219 3.554688 120.257812 3.542969 120.144531 3.109375 C 120.113281 2.980469 120.042969 2.871094 119.933594 2.789062 C 119.824219 2.707031 119.703125 2.664062 119.566406 2.667969 C 119.3125 2.667969 118.976562 2.867188 118.824219 3.109375 M 10.441406 146.09375 C 10.324219 146.402344 10.074219 146.660156 9.890625 146.660156 C 9.632812 146.660156 9.550781 146.914062 9.554688 147.714844 C 9.558594 149.125 9.746094 149.765625 10.117188 149.625 C 10.34375 149.535156 10.433594 149.84375 10.484375 150.917969 C 10.542969 152.183594 10.601562 152.332031 11.050781 152.394531 C 11.511719 152.460938 11.550781 152.582031 11.550781 153.917969 C 11.550781 155.167969 11.609375 155.382812 11.984375 155.480469 C 12.367188 155.578125 12.429688 155.824219 12.484375 157.402344 C 12.542969 159.035156 12.597656 159.234375 13.050781 159.433594 C 13.492188 159.625 13.550781 159.8125 13.550781 161.042969 C 13.550781 162.273438 13.601562 162.433594 13.980469 162.433594 C 14.332031 162.433594 14.425781 162.617188 14.480469 163.378906 C 14.539062 164.164062 14.632812 164.335938 15.050781 164.394531 C 15.507812 164.460938 15.550781 164.582031 15.550781 165.871094 C 15.550781 167.085938 15.609375 167.289062 15.992188 167.386719 C 16.3125 167.472656 16.4375 167.691406 16.4375 168.164062 C 16.4375 169.367188 16.703125 170.195312 17.132812 170.332031 C 17.363281 170.40625 17.550781 170.667969 17.550781 170.914062 C 17.550781 171.179688 17.734375 171.414062 17.992188 171.480469 C 18.300781 171.5625 18.4375 171.785156 18.4375 172.210938 C 18.4375 173.394531 18.722656 174.269531 19.136719 174.378906 C 19.363281 174.4375 19.550781 174.683594 19.550781 174.925781 C 19.550781 175.179688 19.738281 175.414062 19.992188 175.480469 C 20.238281 175.546875 20.4375 175.769531 20.4375 175.976562 C 20.4375 176.1875 20.6875 176.59375 20.992188 176.878906 C 21.300781 177.167969 21.550781 177.632812 21.550781 177.917969 C 21.550781 178.203125 21.734375 178.621094 21.964844 178.847656 C 22.191406 179.078125 22.449219 179.726562 22.53125 180.292969 C 22.65625 181.109375 22.777344 181.324219 23.117188 181.324219 C 23.429688 181.324219 23.550781 181.476562 23.550781 181.878906 C 23.550781 182.285156 23.667969 182.433594 23.992188 182.433594 C 24.335938 182.433594 24.4375 182.582031 24.4375 183.082031 C 24.4375 184.019531 24.648438 184.433594 25.128906 184.433594 C 25.429688 184.433594 25.550781 184.59375 25.550781 184.988281 C 25.550781 185.390625 25.667969 185.546875 25.980469 185.546875 C 26.328125 185.546875 26.425781 185.726562 26.480469 186.488281 C 26.539062 187.273438 26.632812 187.445312 27.050781 187.503906 C 27.371094 187.550781 27.550781 187.730469 27.550781 188.003906 C 27.550781 188.277344 27.703125 188.433594 27.964844 188.433594 C 28.28125 188.433594 28.417969 188.65625 28.527344 189.34375 C 28.628906 189.992188 28.800781 190.289062 29.109375 190.371094 C 29.359375 190.4375 29.546875 190.675781 29.546875 190.925781 C 29.546875 191.171875 29.734375 191.414062 29.972656 191.476562 C 30.207031 191.535156 30.445312 191.777344 30.507812 192.011719 C 30.570312 192.257812 30.8125 192.433594 31.082031 192.433594 C 31.429688 192.433594 31.546875 192.574219 31.546875 192.988281 C 31.546875 193.292969 31.738281 193.734375 31.972656 193.96875 C 32.207031 194.203125 32.433594 194.578125 32.472656 194.800781 C 32.515625 195.027344 32.777344 195.308594 33.050781 195.429688 C 33.324219 195.550781 33.546875 195.828125 33.546875 196.042969 C 33.546875 196.28125 33.714844 196.433594 33.976562 196.433594 C 34.253906 196.433594 34.433594 196.613281 34.476562 196.933594 C 34.523438 197.253906 34.726562 197.457031 35.046875 197.503906 C 35.359375 197.546875 35.546875 197.730469 35.546875 197.980469 C 35.546875 198.203125 35.703125 198.445312 35.890625 198.519531 C 36.082031 198.589844 36.382812 199 36.5625 199.429688 C 36.742188 199.859375 37.035156 200.210938 37.21875 200.210938 C 37.417969 200.210938 37.546875 200.421875 37.546875 200.75 C 37.546875 201.09375 37.707031 201.34375 37.980469 201.429688 C 38.21875 201.503906 38.476562 201.761719 38.550781 202 C 38.628906 202.238281 38.882812 202.433594 39.117188 202.433594 C 39.386719 202.433594 39.546875 202.585938 39.546875 202.84375 C 39.546875 203.066406 39.796875 203.363281 40.105469 203.503906 C 40.410156 203.644531 40.660156 203.910156 40.660156 204.09375 C 40.660156 204.28125 40.851562 204.433594 41.089844 204.433594 C 41.324219 204.433594 41.582031 204.632812 41.660156 204.878906 C 41.757812 205.183594 42.070312 205.363281 42.675781 205.460938 C 43.246094 205.550781 43.546875 205.71875 43.546875 205.9375 C 43.546875 206.121094 43.71875 206.398438 43.925781 206.550781 C 44.136719 206.703125 44.417969 207.164062 44.558594 207.574219 C 44.769531 208.214844 44.921875 208.332031 45.609375 208.390625 C 46.238281 208.445312 46.425781 208.5625 46.476562 208.945312 C 46.523438 209.253906 46.730469 209.457031 47.046875 209.503906 C 47.367188 209.550781 47.546875 209.726562 47.546875 210.003906 C 47.546875 210.277344 47.699219 210.433594 47.964844 210.433594 C 48.203125 210.433594 48.4375 210.632812 48.503906 210.894531 C 48.570312 211.148438 48.824219 211.40625 49.066406 211.46875 C 49.308594 211.53125 49.554688 211.777344 49.617188 212.007812 C 49.683594 212.253906 49.921875 212.433594 50.191406 212.433594 C 50.507812 212.433594 50.660156 212.574219 50.660156 212.875 C 50.660156 213.214844 50.855469 213.347656 51.527344 213.457031 C 52.121094 213.550781 52.433594 213.726562 52.507812 214.011719 C 52.570312 214.253906 52.8125 214.433594 53.082031 214.433594 C 53.402344 214.433594 53.546875 214.574219 53.546875 214.882812 C 53.546875 215.15625 53.761719 215.414062 54.101562 215.542969 C 54.410156 215.660156 54.660156 215.90625 54.660156 216.09375 C 54.660156 216.28125 54.851562 216.433594 55.09375 216.433594 C 55.335938 216.433594 55.636719 216.628906 55.765625 216.867188 C 55.890625 217.105469 56.335938 217.367188 56.75 217.445312 C 57.230469 217.535156 57.546875 217.738281 57.617188 218.007812 C 57.703125 218.335938 57.929688 218.433594 58.621094 218.433594 C 59.378906 218.433594 59.527344 218.507812 59.585938 218.929688 C 59.625 219.203125 59.84375 219.464844 60.066406 219.503906 C 60.292969 219.546875 60.667969 219.773438 60.902344 220.007812 C 61.132812 220.242188 61.550781 220.433594 61.828125 220.433594 C 62.136719 220.433594 62.414062 220.625 62.550781 220.933594 C 62.710938 221.296875 62.988281 221.449219 63.578125 221.5 C 64.160156 221.546875 64.421875 221.6875 64.503906 222 C 64.589844 222.335938 64.8125 222.433594 65.511719 222.433594 C 66.269531 222.433594 66.414062 222.507812 66.476562 222.933594 C 66.527344 223.285156 66.71875 223.453125 67.132812 223.5 C 67.457031 223.539062 67.898438 223.761719 68.113281 224 C 68.328125 224.238281 68.730469 224.433594 69.011719 224.433594 C 69.363281 224.433594 69.535156 224.582031 69.585938 224.933594 C 69.648438 225.355469 69.8125 225.441406 70.6875 225.5 C 71.363281 225.542969 71.855469 225.714844 72.113281 226 C 72.382812 226.300781 72.792969 226.433594 73.453125 226.433594 C 74.269531 226.433594 74.414062 226.503906 74.476562 226.929688 C 74.515625 227.214844 74.734375 227.464844 74.988281 227.511719 C 75.230469 227.558594 75.5625 227.785156 75.722656 228.015625 C 75.96875 228.363281 76.304688 228.433594 77.765625 228.433594 C 79.410156 228.433594 79.519531 228.460938 79.585938 228.933594 C 79.644531 229.347656 79.816406 229.441406 80.601562 229.5 C 81.363281 229.554688 81.546875 229.652344 81.546875 230 C 81.546875 230.367188 81.703125 230.433594 82.632812 230.433594 C 83.5 230.433594 83.738281 230.515625 83.824219 230.84375 C 83.9375 231.285156 84.933594 231.535156 86.574219 231.539062 C 87.304688 231.542969 87.515625 231.632812 87.609375 231.988281 C 87.710938 232.367188 87.914062 232.429688 89.042969 232.429688 C 90.234375 232.429688 90.386719 232.484375 90.617188 232.988281 C 90.863281 233.527344 90.929688 233.542969 93.179688 233.542969 C 95.304688 233.542969 95.503906 233.578125 95.609375 233.988281 C 95.714844 234.386719 95.914062 234.429688 97.636719 234.429688 C 99.355469 234.429688 99.542969 234.472656 99.542969 234.851562 C 99.542969 235.449219 100.101562 235.535156 104.042969 235.539062 C 107.246094 235.542969 107.582031 235.582031 107.988281 235.988281 C 108.421875 236.417969 108.730469 236.429688 119.851562 236.429688 C 131.082031 236.429688 131.269531 236.425781 131.386719 235.988281 C 131.496094 235.566406 131.6875 235.542969 135.171875 235.542969 C 138.214844 235.542969 138.902344 235.484375 139.195312 235.195312 C 139.386719 235 139.542969 234.75 139.542969 234.636719 C 139.542969 234.523438 140.402344 234.429688 141.453125 234.429688 C 143.175781 234.429688 143.375 234.386719 143.476562 233.988281 C 143.582031 233.589844 143.78125 233.542969 145.332031 233.542969 C 147.25 233.542969 148.207031 233.285156 148.207031 232.769531 C 148.207031 232.5 148.519531 232.429688 149.785156 232.429688 C 151.164062 232.429688 151.375 232.375 151.476562 231.996094 C 151.570312 231.636719 151.816406 231.550781 152.953125 231.496094 C 154.175781 231.4375 154.328125 231.378906 154.390625 230.933594 C 154.457031 230.472656 154.578125 230.433594 155.910156 230.433594 C 157.175781 230.433594 157.375 230.375 157.476562 229.988281 C 157.570312 229.632812 157.78125 229.542969 158.511719 229.539062 C 159.859375 229.535156 160.429688 229.328125 160.429688 228.851562 C 160.429688 228.484375 160.605469 228.433594 161.785156 228.433594 C 162.953125 228.433594 163.15625 228.371094 163.253906 227.988281 C 163.339844 227.65625 163.558594 227.542969 164.105469 227.542969 C 164.808594 227.542969 165.542969 227.082031 165.542969 226.636719 C 165.542969 226.523438 165.949219 226.433594 166.449219 226.433594 C 167.164062 226.433594 167.382812 226.339844 167.472656 226 C 167.558594 225.671875 167.816406 225.550781 168.507812 225.5 C 169.269531 225.445312 169.441406 225.34375 169.5 224.933594 C 169.5625 224.507812 169.707031 224.433594 170.464844 224.433594 C 171.164062 224.433594 171.386719 224.335938 171.472656 224 C 171.554688 223.6875 171.816406 223.546875 172.398438 223.5 C 172.988281 223.449219 173.265625 223.296875 173.425781 222.933594 C 173.589844 222.554688 173.832031 222.433594 174.390625 222.433594 C 174.949219 222.433594 175.167969 222.320312 175.253906 221.988281 C 175.328125 221.699219 175.558594 221.542969 175.898438 221.542969 C 176.316406 221.542969 176.429688 221.425781 176.429688 220.988281 C 176.429688 220.476562 176.511719 220.433594 177.429688 220.433594 C 178.269531 220.433594 178.429688 220.363281 178.429688 220.003906 C 178.429688 219.726562 178.609375 219.550781 178.929688 219.503906 C 179.25 219.457031 179.453125 219.253906 179.5 218.933594 C 179.5625 218.5 179.703125 218.433594 180.554688 218.433594 C 181.390625 218.433594 181.539062 218.367188 181.539062 217.988281 C 181.539062 217.691406 181.6875 217.542969 181.984375 217.542969 C 182.3125 217.542969 182.429688 217.394531 182.429688 216.988281 C 182.429688 216.476562 182.511719 216.433594 183.429688 216.433594 C 184.257812 216.433594 184.429688 216.363281 184.429688 216.015625 C 184.429688 215.699219 184.648438 215.566406 185.339844 215.453125 C 185.988281 215.351562 186.285156 215.183594 186.367188 214.871094 C 186.429688 214.628906 186.664062 214.433594 186.882812 214.433594 C 187.105469 214.433594 187.347656 214.242188 187.421875 214.011719 C 187.496094 213.78125 187.75 213.539062 187.992188 213.476562 C 188.25 213.410156 188.429688 213.171875 188.429688 212.898438 C 188.429688 212.53125 188.566406 212.433594 189.078125 212.433594 C 189.910156 212.433594 190.429688 211.914062 190.429688 211.082031 C 190.429688 210.539062 190.519531 210.433594 190.984375 210.433594 C 191.386719 210.433594 191.539062 210.3125 191.539062 210 C 191.539062 209.664062 191.71875 209.554688 192.375 209.5 C 192.984375 209.449219 193.265625 209.300781 193.425781 208.933594 C 193.546875 208.65625 193.820312 208.433594 194.035156 208.433594 C 194.277344 208.433594 194.429688 208.265625 194.429688 208.003906 C 194.429688 207.726562 194.605469 207.550781 194.929688 207.503906 C 195.25 207.457031 195.453125 207.253906 195.5 206.933594 C 195.546875 206.613281 195.722656 206.433594 196 206.433594 C 196.273438 206.433594 196.429688 206.28125 196.429688 206.003906 C 196.429688 205.726562 196.605469 205.550781 196.929688 205.503906 C 197.25 205.457031 197.453125 205.253906 197.5 204.933594 C 197.546875 204.613281 197.722656 204.433594 198 204.433594 C 198.273438 204.433594 198.429688 204.28125 198.429688 204.003906 C 198.429688 203.726562 198.605469 203.550781 198.929688 203.503906 C 199.25 203.457031 199.453125 203.253906 199.5 202.933594 C 199.546875 202.613281 199.722656 202.433594 200 202.433594 C 200.273438 202.433594 200.429688 202.28125 200.429688 202.003906 C 200.429688 201.730469 200.605469 201.550781 200.929688 201.503906 C 201.25 201.457031 201.453125 201.253906 201.5 200.933594 C 201.539062 200.660156 201.703125 200.433594 201.863281 200.433594 C 202.289062 200.433594 203.539062 199.207031 203.539062 198.789062 C 203.539062 198.582031 203.722656 198.433594 203.984375 198.433594 C 204.269531 198.433594 204.429688 198.285156 204.429688 198.015625 C 204.429688 197.777344 204.628906 197.542969 204.890625 197.476562 C 205.140625 197.410156 205.402344 197.148438 205.46875 196.894531 C 205.539062 196.632812 205.773438 196.433594 206.007812 196.433594 C 206.355469 196.433594 206.429688 196.265625 206.429688 195.433594 C 206.429688 194.515625 206.472656 194.433594 206.984375 194.433594 C 207.378906 194.433594 207.539062 194.3125 207.539062 194.015625 C 207.539062 193.785156 207.738281 193.542969 207.984375 193.480469 C 208.25 193.410156 208.425781 193.175781 208.425781 192.898438 C 208.425781 192.589844 208.570312 192.433594 208.847656 192.433594 C 209.328125 192.433594 209.539062 192.019531 209.539062 191.082031 C 209.539062 190.582031 209.640625 190.433594 209.984375 190.433594 C 210.273438 190.433594 210.425781 190.285156 210.425781 190.003906 C 210.425781 189.730469 210.605469 189.550781 210.925781 189.503906 C 211.214844 189.464844 211.457031 189.246094 211.503906 188.988281 C 211.550781 188.746094 211.777344 188.367188 212.007812 188.148438 C 212.238281 187.929688 212.425781 187.453125 212.425781 187.09375 C 212.425781 186.539062 212.515625 186.433594 212.984375 186.433594 C 213.421875 186.433594 213.539062 186.320312 213.539062 185.90625 C 213.539062 185.5625 213.695312 185.332031 213.984375 185.257812 C 214.320312 185.171875 214.425781 184.957031 214.425781 184.359375 C 214.425781 183.71875 214.515625 183.5625 214.925781 183.503906 C 215.214844 183.464844 215.457031 183.246094 215.503906 182.988281 C 215.550781 182.746094 215.777344 182.367188 216.007812 182.148438 C 216.238281 181.929688 216.425781 181.453125 216.425781 181.09375 C 216.425781 180.59375 216.53125 180.433594 216.847656 180.433594 C 217.328125 180.433594 217.539062 180.019531 217.539062 179.082031 C 217.539062 178.582031 217.640625 178.433594 217.984375 178.433594 C 218.273438 178.433594 218.425781 178.285156 218.425781 178.003906 C 218.425781 177.730469 218.605469 177.550781 218.925781 177.503906 C 219.382812 177.441406 219.433594 177.296875 219.492188 175.933594 C 219.550781 174.617188 219.613281 174.433594 219.992188 174.433594 C 220.359375 174.433594 220.425781 174.277344 220.425781 173.433594 C 220.425781 172.515625 220.472656 172.433594 220.984375 172.433594 C 221.398438 172.433594 221.539062 172.316406 221.539062 171.96875 C 221.539062 171.691406 221.714844 171.457031 221.984375 171.386719 C 222.328125 171.296875 222.425781 171.085938 222.425781 170.417969 C 222.425781 169.804688 222.582031 169.410156 222.984375 169.011719 C 223.460938 168.535156 223.539062 168.253906 223.539062 167.027344 C 223.539062 165.785156 223.597656 165.582031 223.984375 165.480469 C 224.328125 165.390625 224.425781 165.179688 224.425781 164.507812 C 224.425781 163.832031 224.53125 163.605469 224.925781 163.433594 C 225.292969 163.273438 225.445312 162.992188 225.496094 162.390625 C 225.542969 161.808594 225.6875 161.527344 225.996094 161.429688 C 226.378906 161.308594 226.425781 161.082031 226.425781 159.4375 C 226.425781 157.679688 226.453125 157.574219 226.925781 157.507812 C 227.351562 157.445312 227.4375 157.28125 227.492188 156.402344 C 227.546875 155.597656 227.65625 155.34375 227.992188 155.257812 C 228.363281 155.160156 228.425781 154.945312 228.425781 153.796875 C 228.425781 152.679688 228.5 152.410156 228.871094 152.214844 C 229.136719 152.070312 229.316406 151.75 229.316406 151.40625 C 229.316406 151.027344 229.167969 150.800781 228.871094 150.722656 C 228.582031 150.648438 228.425781 150.417969 228.425781 150.078125 C 228.425781 149.5625 228.378906 149.546875 226.5625 149.546875 C 224.441406 149.546875 224.425781 149.558594 224.425781 151.375 C 224.425781 152.15625 224.316406 152.578125 224.0625 152.761719 C 223.835938 152.929688 223.664062 153.472656 223.59375 154.230469 C 223.519531 155.085938 223.359375 155.539062 223.039062 155.792969 C 222.726562 156.039062 222.554688 156.503906 222.476562 157.320312 C 222.390625 158.21875 222.269531 158.519531 221.953125 158.601562 C 221.589844 158.695312 221.539062 158.941406 221.539062 160.558594 C 221.539062 162.304688 221.511719 162.410156 221.039062 162.476562 C 220.625 162.535156 220.527344 162.707031 220.472656 163.46875 C 220.421875 164.160156 220.296875 164.417969 219.972656 164.503906 C 219.714844 164.570312 219.539062 164.808594 219.539062 165.082031 C 219.539062 165.351562 219.394531 165.546875 219.199219 165.546875 C 218.769531 165.546875 218.425781 166.433594 218.425781 167.546875 C 218.425781 168.210938 218.328125 168.4375 217.984375 168.546875 C 217.644531 168.652344 217.539062 168.882812 217.539062 169.507812 C 217.539062 170.148438 217.425781 170.378906 217.039062 170.550781 C 216.675781 170.707031 216.519531 170.988281 216.472656 171.578125 C 216.421875 172.160156 216.28125 172.421875 215.972656 172.503906 C 215.632812 172.589844 215.539062 172.8125 215.539062 173.507812 C 215.539062 174.269531 215.460938 174.414062 215.039062 174.476562 C 214.625 174.535156 214.527344 174.707031 214.472656 175.46875 C 214.421875 176.160156 214.296875 176.417969 213.972656 176.503906 C 213.632812 176.589844 213.539062 176.808594 213.539062 177.507812 C 213.539062 178.269531 213.460938 178.414062 213.039062 178.472656 C 212.726562 178.519531 212.511719 178.722656 212.46875 179.023438 C 212.433594 179.285156 212.207031 179.550781 211.96875 179.613281 C 211.632812 179.703125 211.539062 179.921875 211.539062 180.621094 C 211.539062 181.378906 211.460938 181.527344 211.039062 181.585938 C 210.726562 181.628906 210.511719 181.835938 210.472656 182.132812 C 210.433594 182.394531 210.207031 182.660156 209.972656 182.722656 C 209.644531 182.808594 209.539062 183.03125 209.539062 183.621094 C 209.539062 184.261719 209.449219 184.414062 209.039062 184.472656 C 208.65625 184.527344 208.523438 184.714844 208.46875 185.273438 C 208.429688 185.699219 208.21875 186.117188 207.96875 186.273438 C 207.730469 186.421875 207.539062 186.765625 207.539062 187.042969 C 207.539062 187.40625 207.410156 187.546875 207.074219 187.546875 C 206.796875 187.546875 206.5625 187.722656 206.492188 187.980469 C 206.429688 188.222656 206.191406 188.480469 205.960938 188.550781 C 205.726562 188.625 205.539062 188.878906 205.539062 189.117188 C 205.539062 189.390625 205.386719 189.546875 205.117188 189.546875 C 204.640625 189.546875 204.429688 189.960938 204.429688 190.898438 C 204.429688 191.453125 204.34375 191.546875 203.816406 191.546875 C 202.949219 191.554688 202.710938 191.765625 202.535156 192.710938 C 202.417969 193.324219 202.269531 193.542969 201.960938 193.542969 C 201.6875 193.542969 201.539062 193.703125 201.539062 193.988281 C 201.539062 194.234375 201.445312 194.433594 201.332031 194.433594 C 200.914062 194.433594 200.429688 195.148438 200.429688 195.761719 C 200.429688 196.324219 200.332031 196.410156 199.554688 196.542969 C 198.75 196.679688 198.671875 196.753906 198.535156 197.5625 C 198.425781 198.21875 198.285156 198.433594 197.964844 198.433594 C 197.660156 198.433594 197.539062 198.589844 197.539062 198.988281 C 197.539062 199.433594 197.429688 199.542969 196.984375 199.542969 C 196.578125 199.542969 196.429688 199.664062 196.429688 199.988281 C 196.429688 200.285156 196.28125 200.433594 195.984375 200.433594 C 195.65625 200.433594 195.539062 200.582031 195.539062 200.988281 C 195.539062 201.433594 195.429688 201.542969 194.984375 201.542969 C 194.578125 201.542969 194.429688 201.664062 194.429688 201.988281 C 194.429688 202.285156 194.28125 202.433594 193.984375 202.433594 C 193.65625 202.433594 193.539062 202.582031 193.539062 202.988281 C 193.539062 203.453125 193.433594 203.542969 192.890625 203.542969 C 192.058594 203.542969 191.539062 204.0625 191.539062 204.894531 C 191.539062 205.441406 191.449219 205.542969 190.984375 205.542969 C 190.582031 205.542969 190.429688 205.664062 190.429688 205.976562 C 190.429688 206.3125 190.25 206.421875 189.59375 206.476562 C 188.984375 206.527344 188.703125 206.675781 188.542969 207.042969 C 188.421875 207.320312 188.148438 207.542969 187.933594 207.542969 C 187.691406 207.542969 187.539062 207.710938 187.539062 207.972656 C 187.539062 208.25 187.363281 208.425781 187.039062 208.472656 C 186.71875 208.519531 186.515625 208.722656 186.46875 209.042969 C 186.410156 209.464844 186.261719 209.542969 185.539062 209.542969 C 184.894531 209.542969 184.648438 209.648438 184.546875 209.964844 C 184.472656 210.195312 184.21875 210.4375 183.976562 210.5 C 183.71875 210.566406 183.539062 210.804688 183.539062 211.078125 C 183.539062 211.402344 183.398438 211.542969 183.074219 211.542969 C 182.796875 211.542969 182.5625 211.722656 182.492188 211.988281 C 182.429688 212.234375 182.191406 212.433594 181.957031 212.433594 C 181.660156 212.433594 181.539062 212.59375 181.539062 212.988281 C 181.539062 213.5 181.457031 213.542969 180.539062 213.542969 C 179.710938 213.542969 179.539062 213.613281 179.539062 213.960938 C 179.539062 214.273438 179.320312 214.410156 178.628906 214.519531 C 177.980469 214.625 177.683594 214.792969 177.601562 215.105469 C 177.539062 215.355469 177.300781 215.542969 177.050781 215.542969 C 176.800781 215.542969 176.5625 215.730469 176.496094 215.976562 C 176.417969 216.285156 176.15625 216.425781 175.574219 216.476562 C 174.984375 216.523438 174.703125 216.679688 174.542969 217.042969 C 174.421875 217.320312 174.148438 217.542969 173.933594 217.542969 C 173.691406 217.542969 173.539062 217.710938 173.539062 217.976562 C 173.539062 218.324219 173.359375 218.417969 172.597656 218.476562 C 171.8125 218.53125 171.640625 218.628906 171.582031 219.042969 C 171.519531 219.476562 171.378906 219.542969 170.527344 219.542969 C 169.699219 219.542969 169.542969 219.613281 169.542969 219.976562 C 169.542969 220.324219 169.359375 220.417969 168.597656 220.476562 C 167.8125 220.53125 167.640625 220.628906 167.582031 221.042969 C 167.519531 221.476562 167.378906 221.542969 166.527344 221.542969 C 165.699219 221.542969 165.542969 221.613281 165.542969 221.976562 C 165.542969 222.324219 165.359375 222.417969 164.597656 222.476562 C 163.8125 222.53125 163.640625 222.628906 163.582031 223.042969 C 163.519531 223.484375 163.382812 223.542969 162.433594 223.542969 C 161.167969 223.542969 160.652344 223.703125 160.652344 224.097656 C 160.652344 224.265625 160.238281 224.445312 159.652344 224.53125 C 158.863281 224.648438 158.652344 224.773438 158.652344 225.113281 C 158.652344 225.476562 158.492188 225.542969 157.632812 225.542969 C 156.796875 225.542969 156.589844 225.625 156.496094 225.988281 C 156.394531 226.371094 156.191406 226.433594 155.015625 226.433594 C 153.269531 226.4375 152.722656 226.59375 152.582031 227.117188 C 152.488281 227.476562 152.261719 227.542969 151.097656 227.542969 C 149.910156 227.542969 149.707031 227.601562 149.605469 227.988281 C 149.507812 228.363281 149.304688 228.433594 148.308594 228.433594 C 147.183594 228.433594 146.429688 228.792969 146.429688 229.335938 C 146.429688 229.449219 145.59375 229.542969 144.570312 229.542969 C 142.890625 229.542969 142.695312 229.585938 142.589844 229.988281 C 142.480469 230.398438 142.285156 230.433594 140.0625 230.433594 C 137.257812 230.4375 136.734375 230.542969 136.585938 231.117188 C 136.480469 231.515625 136.222656 231.542969 132.730469 231.546875 C 129.359375 231.550781 128.933594 231.59375 128.433594 231.988281 C 127.902344 232.402344 127.460938 232.421875 118.179688 232.425781 C 108.671875 232.429688 108.484375 232.421875 108.367188 231.988281 C 108.261719 231.578125 108.066406 231.542969 105.859375 231.542969 C 103.6875 231.542969 103.414062 231.496094 102.9375 231.046875 C 102.457031 230.601562 102.140625 230.546875 99.421875 230.46875 C 96.675781 230.386719 96.433594 230.347656 96.433594 229.960938 C 96.433594 229.59375 96.257812 229.542969 94.96875 229.542969 C 93.71875 229.542969 93.488281 229.480469 93.394531 229.121094 C 93.277344 228.683594 92.488281 228.433594 91.234375 228.433594 C 90.808594 228.433594 90.382812 228.257812 90.152344 227.988281 C 89.835938 227.617188 89.496094 227.542969 88.101562 227.542969 C 86.613281 227.542969 86.433594 227.496094 86.433594 227.121094 C 86.433594 226.589844 86.015625 226.433594 84.617188 226.433594 C 83.691406 226.433594 83.484375 226.355469 83.386719 225.988281 C 83.289062 225.601562 83.085938 225.542969 81.867188 225.542969 C 80.582031 225.542969 80.460938 225.5 80.394531 225.042969 C 80.335938 224.628906 80.164062 224.53125 79.378906 224.476562 C 78.617188 224.417969 78.433594 224.324219 78.433594 223.976562 C 78.433594 223.613281 78.277344 223.542969 77.433594 223.542969 C 76.59375 223.542969 76.433594 223.476562 76.433594 223.113281 C 76.433594 222.773438 76.226562 222.648438 75.457031 222.535156 C 74.753906 222.429688 74.445312 222.265625 74.363281 221.964844 C 74.28125 221.636719 74.050781 221.542969 73.34375 221.542969 C 72.601562 221.542969 72.433594 221.46875 72.433594 221.121094 C 72.433594 220.59375 72.019531 220.433594 70.640625 220.433594 C 69.695312 220.433594 69.546875 220.371094 69.546875 219.988281 C 69.546875 219.660156 69.398438 219.542969 68.992188 219.542969 C 68.589844 219.542969 68.4375 219.425781 68.4375 219.113281 C 68.4375 218.773438 68.226562 218.648438 67.4375 218.53125 C 66.65625 218.414062 66.4375 218.289062 66.4375 217.960938 C 66.4375 217.613281 66.265625 217.542969 65.4375 217.542969 C 64.515625 217.542969 64.4375 217.5 64.4375 216.988281 C 64.4375 216.570312 64.320312 216.433594 63.96875 216.433594 C 63.691406 216.433594 63.457031 216.253906 63.390625 215.988281 C 63.296875 215.640625 63.085938 215.542969 62.425781 215.542969 C 61.714844 215.542969 61.566406 215.460938 61.507812 215.042969 C 61.460938 214.730469 61.257812 214.519531 60.957031 214.476562 C 60.695312 214.4375 60.429688 214.214844 60.367188 213.976562 C 60.28125 213.636719 60.058594 213.542969 59.347656 213.542969 C 58.570312 213.542969 58.4375 213.476562 58.4375 213.078125 C 58.4375 212.804688 58.257812 212.566406 58 212.5 C 57.757812 212.4375 57.503906 212.195312 57.429688 211.964844 C 57.355469 211.734375 57.113281 211.542969 56.890625 211.542969 C 56.667969 211.542969 56.4375 211.347656 56.375 211.105469 C 56.292969 210.792969 55.996094 210.625 55.347656 210.523438 C 54.65625 210.410156 54.4375 210.273438 54.4375 209.960938 C 54.4375 209.710938 54.277344 209.542969 54.042969 209.542969 C 53.828125 209.542969 53.554688 209.320312 53.433594 209.042969 C 53.273438 208.679688 52.992188 208.527344 52.398438 208.476562 C 51.640625 208.414062 51.570312 208.347656 51.4375 207.546875 C 51.304688 206.757812 51.222656 206.675781 50.417969 206.542969 C 49.761719 206.429688 49.546875 206.289062 49.546875 205.96875 C 49.546875 205.664062 49.390625 205.542969 48.992188 205.542969 C 48.578125 205.542969 48.4375 205.425781 48.4375 205.078125 C 48.4375 204.808594 48.257812 204.566406 48.011719 204.503906 C 47.78125 204.441406 47.539062 204.203125 47.476562 203.96875 C 47.414062 203.722656 47.171875 203.542969 46.902344 203.542969 C 46.578125 203.542969 46.4375 203.402344 46.4375 203.078125 C 46.4375 202.808594 46.257812 202.566406 46.011719 202.503906 C 45.78125 202.441406 45.539062 202.203125 45.476562 201.96875 C 45.414062 201.722656 45.171875 201.542969 44.902344 201.542969 C 44.589844 201.542969 44.4375 201.402344 44.4375 201.113281 C 44.4375 200.878906 44.246094 200.625 44.015625 200.550781 C 43.785156 200.476562 43.542969 200.222656 43.480469 199.980469 C 43.414062 199.722656 43.179688 199.542969 42.902344 199.542969 C 42.578125 199.542969 42.4375 199.402344 42.4375 199.078125 C 42.4375 198.808594 42.261719 198.566406 42.011719 198.503906 C 41.78125 198.441406 41.539062 198.203125 41.476562 197.96875 C 41.414062 197.722656 41.171875 197.542969 40.902344 197.542969 C 40.578125 197.542969 40.4375 197.402344 40.4375 197.078125 C 40.4375 196.800781 40.257812 196.566406 39.992188 196.496094 C 39.746094 196.433594 39.546875 196.195312 39.546875 195.964844 C 39.546875 195.664062 39.386719 195.542969 38.992188 195.542969 C 38.53125 195.542969 38.4375 195.4375 38.4375 194.910156 C 38.4375 194.542969 38.203125 194.023438 37.882812 193.675781 C 37.574219 193.347656 37.324219 192.996094 37.324219 192.894531 C 37.324219 192.789062 37.125 192.65625 36.882812 192.589844 C 36.617188 192.523438 36.4375 192.289062 36.4375 192.011719 C 36.4375 191.699219 36.296875 191.542969 36.007812 191.542969 C 35.734375 191.542969 35.554688 191.367188 35.507812 191.046875 C 35.464844 190.730469 35.257812 190.519531 34.960938 190.476562 C 34.609375 190.425781 34.441406 190.199219 34.335938 189.632812 C 34.257812 189.203125 34.054688 188.804688 33.890625 188.738281 C 33.722656 188.675781 33.527344 188.382812 33.453125 188.085938 C 33.367188 187.742188 33.160156 187.546875 32.878906 187.546875 C 32.578125 187.546875 32.4375 187.394531 32.4375 187.078125 C 32.4375 186.800781 32.257812 186.566406 31.992188 186.5 C 31.679688 186.417969 31.546875 186.195312 31.546875 185.757812 C 31.546875 185.148438 31.058594 184.433594 30.644531 184.433594 C 30.53125 184.433594 30.4375 184.234375 30.4375 183.988281 C 30.4375 183.703125 30.289062 183.546875 30.023438 183.546875 C 29.707031 183.546875 29.570312 183.324219 29.460938 182.632812 C 29.355469 181.988281 29.1875 181.691406 28.875 181.609375 C 28.625 181.542969 28.4375 181.304688 28.4375 181.054688 C 28.4375 180.800781 28.25 180.566406 27.992188 180.5 C 27.683594 180.417969 27.550781 180.195312 27.550781 179.757812 C 27.550781 179.148438 27.058594 178.433594 26.644531 178.433594 C 26.53125 178.433594 26.4375 178.074219 26.4375 177.636719 C 26.4375 177.03125 26.332031 176.808594 26.003906 176.722656 C 25.769531 176.664062 25.542969 176.398438 25.507812 176.132812 C 25.464844 175.835938 25.25 175.628906 24.9375 175.585938 C 24.503906 175.523438 24.4375 175.382812 24.4375 174.53125 C 24.4375 173.703125 24.367188 173.546875 24.007812 173.546875 C 23.65625 173.546875 23.5625 173.363281 23.507812 172.601562 C 23.449219 171.816406 23.355469 171.644531 22.9375 171.585938 C 22.515625 171.527344 22.4375 171.378906 22.4375 170.621094 C 22.4375 169.914062 22.34375 169.703125 21.992188 169.609375 C 21.636719 169.515625 21.550781 169.308594 21.550781 168.558594 C 21.550781 167.847656 21.414062 167.5 20.992188 167.101562 C 20.6875 166.816406 20.4375 166.347656 20.4375 166.0625 C 20.4375 165.695312 20.3125 165.546875 19.992188 165.546875 C 19.605469 165.546875 19.550781 165.398438 19.550781 164.339844 C 19.550781 163.1875 19.191406 162.433594 18.644531 162.433594 C 18.53125 162.433594 18.4375 161.824219 18.4375 161.082031 C 18.4375 159.925781 18.375 159.710938 18.003906 159.613281 C 17.679688 159.527344 17.554688 159.273438 17.503906 158.578125 C 17.449219 157.816406 17.351562 157.644531 16.9375 157.585938 C 16.480469 157.523438 16.4375 157.398438 16.4375 156.101562 C 16.4375 154.894531 16.375 154.667969 16.003906 154.550781 C 15.644531 154.4375 15.558594 154.171875 15.503906 153.035156 C 15.445312 151.820312 15.382812 151.648438 14.957031 151.589844 C 14.511719 151.527344 14.472656 151.378906 14.402344 149.292969 C 14.34375 147.550781 14.25 147.007812 13.964844 146.800781 C 13.765625 146.65625 13.5625 146.339844 13.519531 146.097656 C 13.445312 145.726562 13.222656 145.648438 12.046875 145.59375 C 10.734375 145.53125 10.644531 145.558594 10.441406 146.09375 " fill-opacity="1" fill-rule="evenodd"/><g fill="#ffffff" fill-opacity="1"><g transform="translate(47.851833, 143.438992)"><g><path d="M 14.359375 0.8125 C 11.148438 0.8125 8.203125 0.210938 5.515625 -0.984375 C 2.828125 -2.179688 0.628906 -3.882812 -1.078125 -6.09375 L 5.015625 -13.40625 C 7.585938 -9.925781 10.519531 -8.1875 13.8125 -8.1875 C 18.28125 -8.1875 20.515625 -10.804688 20.515625 -16.046875 L 20.515625 -38.59375 L 3.859375 -38.59375 L 3.859375 -47.390625 L 31.421875 -47.390625 L 31.421875 -16.65625 C 31.421875 -10.832031 29.972656 -6.460938 27.078125 -3.546875 C 24.191406 -0.640625 19.953125 0.8125 14.359375 0.8125 Z M 14.359375 0.8125 "/></g></g></g><g fill="#ffffff" fill-opacity="1"><g transform="translate(84.473418, 143.438992)"><g><path d="M 56.875 5.078125 C 55.332031 6.972656 53.46875 8.414062 51.28125 9.40625 C 49.09375 10.40625 46.691406 10.90625 44.078125 10.90625 C 40.554688 10.90625 37.375 10.144531 34.53125 8.625 C 31.6875 7.113281 28.4375 4.441406 24.78125 0.609375 C 20.488281 0.0664062 16.660156 -1.304688 13.296875 -3.515625 C 9.941406 -5.734375 7.328125 -8.585938 5.453125 -12.078125 C 3.578125 -15.578125 2.640625 -19.453125 2.640625 -23.703125 C 2.640625 -28.347656 3.753906 -32.53125 5.984375 -36.25 C 8.222656 -39.976562 11.316406 -42.898438 15.265625 -45.015625 C 19.210938 -47.140625 23.648438 -48.203125 28.578125 -48.203125 C 33.492188 -48.203125 37.914062 -47.140625 41.84375 -45.015625 C 45.769531 -42.898438 48.859375 -39.976562 51.109375 -36.25 C 53.367188 -32.53125 54.5 -28.347656 54.5 -23.703125 C 54.5 -18.191406 52.953125 -13.359375 49.859375 -9.203125 C 46.765625 -5.054688 42.671875 -2.171875 37.578125 -0.546875 C 38.703125 0.628906 39.796875 1.476562 40.859375 2 C 41.921875 2.519531 43.0625 2.78125 44.28125 2.78125 C 47.207031 2.78125 49.78125 1.601562 52 -0.75 Z M 13.75 -23.703125 C 13.75 -20.765625 14.390625 -18.144531 15.671875 -15.84375 C 16.960938 -13.539062 18.734375 -11.742188 20.984375 -10.453125 C 23.242188 -9.171875 25.773438 -8.53125 28.578125 -8.53125 C 31.367188 -8.53125 33.890625 -9.171875 36.140625 -10.453125 C 38.398438 -11.742188 40.171875 -13.539062 41.453125 -15.84375 C 42.742188 -18.144531 43.390625 -20.765625 43.390625 -23.703125 C 43.390625 -26.628906 42.742188 -29.242188 41.453125 -31.546875 C 40.171875 -33.847656 38.398438 -35.640625 36.140625 -36.921875 C 33.890625 -38.210938 31.367188 -38.859375 28.578125 -38.859375 C 25.773438 -38.859375 23.242188 -38.210938 20.984375 -36.921875 C 18.734375 -35.640625 16.960938 -33.847656 15.671875 -31.546875 C 14.390625 -29.242188 13.75 -26.628906 13.75 -23.703125 Z M 13.75 -23.703125 "/></g></g></g><g fill="#ffffff" fill-opacity="1"><g transform="translate(141.605794, 143.438992)"><g><path d="M 51.1875 -47.390625 L 30.671875 0 L 19.84375 0 L -0.609375 -47.390625 L 11.234375 -47.390625 L 25.65625 -13.546875 L 40.28125 -47.390625 Z M 51.1875 -47.390625 "/></g></g></g><g fill="#ffffff" fill-opacity="1"><g transform="translate(67.701718, 181.692998)"><g><path d="M 1.90625 -16.09375 L 5.640625 -16.09375 L 5.640625 0 L 1.90625 0 Z M 1.90625 -16.09375 "/></g></g></g><g fill="#ffffff" fill-opacity="1"><g transform="translate(75.244043, 181.692998)"><g><path d="M 16.5625 0 L 16.53125 -9.65625 L 11.796875 -1.703125 L 10.125 -1.703125 L 5.40625 -9.453125 L 5.40625 0 L 1.90625 0 L 1.90625 -16.09375 L 4.984375 -16.09375 L 11.015625 -6.09375 L 16.953125 -16.09375 L 20.015625 -16.09375 L 20.0625 0 Z M 16.5625 0 "/></g></g></g><g fill="#ffffff" fill-opacity="1"><g transform="translate(97.204164, 181.692998)"><g><path d="M 13.734375 -8.375 C 14.648438 -8.082031 15.367188 -7.59375 15.890625 -6.90625 C 16.410156 -6.226562 16.671875 -5.390625 16.671875 -4.390625 C 16.671875 -2.984375 16.125 -1.898438 15.03125 -1.140625 C 13.9375 -0.378906 12.335938 0 10.234375 0 L 1.90625 0 L 1.90625 -16.09375 L 9.78125 -16.09375 C 11.738281 -16.09375 13.242188 -15.71875 14.296875 -14.96875 C 15.347656 -14.21875 15.875 -13.195312 15.875 -11.90625 C 15.875 -11.125 15.6875 -10.425781 15.3125 -9.8125 C 14.9375 -9.207031 14.410156 -8.726562 13.734375 -8.375 Z M 5.609375 -13.296875 L 5.609375 -9.5 L 9.3125 -9.5 C 10.226562 -9.5 10.925781 -9.660156 11.40625 -9.984375 C 11.882812 -10.304688 12.125 -10.78125 12.125 -11.40625 C 12.125 -12.03125 11.882812 -12.5 11.40625 -12.8125 C 10.925781 -13.132812 10.226562 -13.296875 9.3125 -13.296875 Z M 9.953125 -2.8125 C 10.941406 -2.8125 11.679688 -2.96875 12.171875 -3.28125 C 12.671875 -3.601562 12.921875 -4.101562 12.921875 -4.78125 C 12.921875 -6.113281 11.929688 -6.78125 9.953125 -6.78125 L 5.609375 -6.78125 L 5.609375 -2.8125 Z M 9.953125 -2.8125 "/></g></g></g><g fill="#ffffff" fill-opacity="1"><g transform="translate(114.79525, 181.692998)"><g><path d="M 12.515625 -3.453125 L 5.03125 -3.453125 L 3.609375 0 L -0.203125 0 L 6.96875 -16.09375 L 10.65625 -16.09375 L 17.84375 0 L 13.9375 0 Z M 11.34375 -6.28125 L 8.78125 -12.4375 L 6.234375 -6.28125 Z M 11.34375 -6.28125 "/></g></g></g><g fill="#ffffff" fill-opacity="1"><g transform="translate(132.40934, 181.692998)"><g><path d="M 12.171875 0 L 9.0625 -4.484375 L 5.640625 -4.484375 L 5.640625 0 L 1.90625 0 L 1.90625 -16.09375 L 8.875 -16.09375 C 10.300781 -16.09375 11.539062 -15.851562 12.59375 -15.375 C 13.644531 -14.90625 14.453125 -14.234375 15.015625 -13.359375 C 15.585938 -12.484375 15.875 -11.453125 15.875 -10.265625 C 15.875 -9.066406 15.582031 -8.03125 15 -7.15625 C 14.425781 -6.289062 13.613281 -5.628906 12.5625 -5.171875 L 16.171875 0 Z M 12.09375 -10.265625 C 12.09375 -11.160156 11.800781 -11.847656 11.21875 -12.328125 C 10.632812 -12.816406 9.785156 -13.0625 8.671875 -13.0625 L 5.640625 -13.0625 L 5.640625 -7.453125 L 8.671875 -7.453125 C 9.785156 -7.453125 10.632812 -7.695312 11.21875 -8.1875 C 11.800781 -8.675781 12.09375 -9.367188 12.09375 -10.265625 Z M 12.09375 -10.265625 "/></g></g></g><g fill="#ffffff" fill-opacity="1"><g transform="translate(149.310581, 181.692998)"><g><path d="M 1.90625 -16.09375 L 5.640625 -16.09375 L 5.640625 0 L 1.90625 0 Z M 1.90625 -16.09375 "/></g></g></g><g fill="#ffffff" fill-opacity="1"><g transform="translate(156.852906, 181.692998)"><g><path d="M 14.375 -2.984375 L 14.375 0 L 1.90625 0 L 1.90625 -16.09375 L 14.078125 -16.09375 L 14.078125 -13.109375 L 5.609375 -13.109375 L 5.609375 -9.609375 L 13.09375 -9.609375 L 13.09375 -6.71875 L 5.609375 -6.71875 L 5.609375 -2.984375 Z M 10 -17.40625 L 8 -19.15625 L 6 -17.40625 L 3.390625 -17.40625 L 6.421875 -20.71875 L 9.59375 -20.71875 L 12.625 -17.40625 Z M 10 -17.40625 "/></g></g></g></svg>