<svg width="713" height="766" viewBox="0 0 713 766" fill="none" xmlns="http://www.w3.org/2000/svg">
<rect width="713" height="766" rx="356.5" fill="black"/>
<path d="M554 315L497 451H466.872L410 315H443L483.085 412.124L523.745 315H554Z" fill="white"/>
<path d="M412.213 485H369.787L334 449.213L355.213 428L412.213 485Z" fill="white"/>
<path d="M328.023 450.166C316.202 448.641 305.646 444.828 296.372 438.727C287.13 432.595 279.914 424.683 274.723 415.024C269.564 405.333 267 394.609 267 382.869C267 370.001 270.07 358.403 276.242 348.108C282.398 337.814 290.928 329.727 301.816 323.833C312.704 317.955 324.922 315 338.468 315C352.047 315 364.248 317.955 375.057 323.833C385.898 329.727 394.428 337.814 400.631 348.108C406.867 358.403 410 370.001 410 382.869C410 398.12 405.727 411.497 397.213 422.968C388.683 434.454 377.399 442.445 363.346 446.925C349.293 451.405 339.845 451.691 328.023 450.166ZM297.638 382.869C297.638 391.003 299.411 398.248 302.956 404.602C306.501 410.957 311.375 415.914 317.579 419.472C323.814 423.031 330.777 424.81 338.468 424.81C346.191 424.81 353.154 423.031 359.358 419.472C365.593 415.914 370.499 410.957 374.044 404.602C377.589 398.248 379.362 391.003 379.362 382.869C379.362 374.735 377.589 367.49 374.044 361.136C370.499 354.749 365.593 349.761 359.358 346.202C353.154 342.643 346.191 340.864 338.468 340.864C330.777 340.864 323.814 342.643 317.579 346.202C311.375 349.761 306.501 354.749 302.956 361.136C299.411 367.49 297.638 374.735 297.638 382.869Z" fill="white"/>
<path d="M199.742 451C190.869 451 182.712 449.315 175.254 445.946C167.829 442.577 161.739 437.782 157 431.562L173.855 410.893C180.979 420.709 189.12 425.601 198.279 425.601C210.65 425.601 216.852 418.215 216.852 403.442V339.816V315H247V401.758C247 418.182 242.993 430.493 234.979 438.689C226.996 446.902 215.261 451 199.742 451Z" fill="white"/>
<path d="M658.022 451C634.358 596.738 507.923 708 355.5 708C203.077 708 76.6417 596.738 52.9775 451H67.3438C91.2696 588.476 211.178 693 355.5 693C499.822 693 619.73 588.476 643.656 451H658.022ZM355.5 58C507.923 58 634.358 169.262 658.022 315H643.656C619.73 177.524 499.822 73 355.5 73C211.178 73 91.2696 177.524 67.3438 315H52.9775C76.6418 169.262 203.077 58 355.5 58Z" fill="white"/>
<path d="M280.672 567V530.45H266.257V521.956H305.51V530.45H291.096V567H280.672ZM320.707 540.102H342.393V548.21H320.707V540.102ZM321.479 558.635H345.996V567H311.119V521.956H345.16V530.321H321.479V558.635ZM363.879 540.102H385.565V548.21H363.879V540.102ZM364.651 558.635H389.168V567H354.291V521.956H388.332V530.321H364.651V558.635ZM397.463 567V521.956H406.085L432.662 554.388H428.479V521.956H438.775V567H430.216L403.576 534.568H407.759V567H397.463Z" fill="white"/>
</svg>
