<svg xmlns="http://www.w3.org/2000/svg" xmlns:xlink="http://www.w3.org/1999/xlink" width="320" zoomAndPan="magnify" viewBox="0 0 240 239.999995" height="320" preserveAspectRatio="xMidYMid meet" version="1.0"><defs><g/><clipPath id="93d6ae22b4"><path d="M 23.921875 23.921875 L 216.078125 23.921875 L 216.078125 216.078125 L 23.921875 216.078125 Z M 23.921875 23.921875 " clip-rule="nonzero"/></clipPath><clipPath id="f4557da356"><path d="M 120 23.921875 C 66.9375 23.921875 23.921875 66.9375 23.921875 120 C 23.921875 173.0625 66.9375 216.078125 120 216.078125 C 173.0625 216.078125 216.078125 173.0625 216.078125 120 C 216.078125 66.9375 173.0625 23.921875 120 23.921875 Z M 120 23.921875 " clip-rule="nonzero"/></clipPath></defs><g clip-path="url(#93d6ae22b4)"><g clip-path="url(#f4557da356)"><path fill="#000000" d="M 23.921875 23.921875 L 216.078125 23.921875 L 216.078125 216.078125 L 23.921875 216.078125 Z M 23.921875 23.921875 " fill-opacity="1" fill-rule="nonzero"/></g></g><path fill="#ffffff" d="M 119.203125 40.445312 C 119.023438 40.734375 118.851562 40.746094 115.027344 40.746094 C 111.171875 40.746094 111.039062 40.753906 110.964844 41.046875 C 110.890625 41.332031 110.757812 41.351562 108.824219 41.351562 C 106.464844 41.355469 106.078125 41.421875 106.078125 41.824219 C 106.078125 42.082031 105.945312 42.105469 104.433594 42.105469 C 102.914062 42.105469 102.78125 42.128906 102.707031 42.410156 C 102.636719 42.679688 102.503906 42.710938 101.492188 42.710938 C 100.386719 42.710938 99.878906 42.90625 99.878906 43.328125 C 99.878906 43.40625 99.4375 43.46875 98.894531 43.46875 C 98.023438 43.46875 97.914062 43.5 97.914062 43.761719 C 97.914062 44.019531 97.789062 44.066406 96.96875 44.105469 C 96.15625 44.144531 96 44.195312 95.871094 44.488281 C 95.742188 44.789062 95.613281 44.828125 94.777344 44.828125 C 93.929688 44.828125 93.828125 44.863281 93.828125 45.132812 C 93.828125 45.398438 93.726562 45.433594 93.007812 45.433594 C 92.222656 45.433594 91.710938 45.675781 91.710938 46.050781 C 91.710938 46.128906 91.433594 46.191406 91.09375 46.191406 C 90.605469 46.191406 90.457031 46.253906 90.394531 46.484375 C 90.339844 46.707031 90.164062 46.792969 89.691406 46.824219 C 89.171875 46.863281 89.058594 46.929688 89.015625 47.210938 C 88.972656 47.523438 88.886719 47.550781 88.058594 47.550781 C 87.28125 47.550781 87.132812 47.597656 87.070312 47.847656 C 87.011719 48.066406 86.835938 48.152344 86.363281 48.1875 C 85.847656 48.226562 85.730469 48.292969 85.6875 48.574219 C 85.648438 48.863281 85.546875 48.914062 85.03125 48.914062 C 84.5625 48.914062 84.40625 48.980469 84.347656 49.199219 C 84.296875 49.394531 84.085938 49.515625 83.667969 49.582031 C 83.238281 49.648438 83.039062 49.765625 82.980469 49.976562 C 82.933594 50.167969 82.773438 50.273438 82.542969 50.273438 C 82.289062 50.273438 82.183594 50.359375 82.183594 50.566406 C 82.183594 50.804688 82.058594 50.871094 81.539062 50.910156 C 81.007812 50.945312 80.890625 51.011719 80.847656 51.296875 C 80.808594 51.574219 80.707031 51.636719 80.269531 51.636719 C 79.867188 51.636719 79.714844 51.707031 79.65625 51.929688 C 79.617188 52.089844 79.433594 52.246094 79.257812 52.269531 C 79.054688 52.300781 78.914062 52.445312 78.882812 52.65625 C 78.839844 52.949219 78.746094 52.996094 78.164062 52.996094 C 77.605469 52.996094 77.496094 53.042969 77.496094 53.289062 C 77.496094 53.476562 77.375 53.597656 77.15625 53.628906 C 76.9375 53.660156 76.796875 53.800781 76.765625 54.019531 C 76.734375 54.238281 76.613281 54.359375 76.425781 54.359375 C 76.238281 54.359375 76.132812 54.460938 76.132812 54.652344 C 76.132812 54.890625 76.011719 54.953125 75.492188 54.992188 C 74.957031 55.03125 74.839844 55.097656 74.800781 55.378906 C 74.769531 55.605469 74.648438 55.71875 74.445312 55.71875 C 74.269531 55.71875 74.105469 55.84375 74.0625 56.011719 C 74.011719 56.210938 73.800781 56.335938 73.394531 56.402344 C 72.949219 56.476562 72.804688 56.574219 72.804688 56.792969 C 72.804688 57 72.699219 57.082031 72.429688 57.082031 C 72.15625 57.082031 72.050781 57.160156 72.050781 57.371094 C 72.050781 57.558594 71.929688 57.683594 71.710938 57.710938 C 71.492188 57.742188 71.351562 57.882812 71.320312 58.101562 C 71.289062 58.320312 71.167969 58.441406 70.980469 58.441406 C 70.792969 58.441406 70.6875 58.546875 70.6875 58.734375 C 70.6875 58.921875 70.566406 59.042969 70.347656 59.074219 C 70.132812 59.105469 69.992188 59.242188 69.960938 59.453125 C 69.921875 59.714844 69.796875 59.796875 69.355469 59.832031 C 68.835938 59.875 68.789062 59.921875 68.65625 60.507812 C 68.535156 61.066406 68.457031 61.152344 68.007812 61.234375 C 67.726562 61.289062 67.460938 61.425781 67.417969 61.535156 C 67.375 61.648438 67.175781 61.785156 66.972656 61.832031 C 66.746094 61.890625 66.605469 62.035156 66.605469 62.207031 C 66.605469 62.363281 66.46875 62.527344 66.300781 62.570312 C 66.136719 62.613281 66 62.753906 66 62.878906 C 66 63.003906 65.847656 63.132812 65.660156 63.15625 C 65.441406 63.1875 65.300781 63.328125 65.269531 63.546875 C 65.238281 63.761719 65.117188 63.886719 64.933594 63.886719 C 64.753906 63.886719 64.609375 64.023438 64.554688 64.25 C 64.503906 64.449219 64.335938 64.648438 64.183594 64.6875 C 64 64.734375 63.886719 64.925781 63.855469 65.257812 C 63.8125 65.691406 63.734375 65.773438 63.203125 65.917969 C 62.652344 66.074219 62.59375 66.136719 62.550781 66.640625 C 62.515625 67.078125 62.433594 67.203125 62.171875 67.242188 C 61.960938 67.273438 61.824219 67.414062 61.792969 67.628906 C 61.761719 67.847656 61.640625 67.96875 61.453125 67.96875 C 61.273438 67.96875 61.160156 68.074219 61.160156 68.238281 C 61.160156 68.382812 61.007812 68.570312 60.820312 68.652344 C 60.570312 68.761719 60.46875 68.953125 60.433594 69.367188 C 60.394531 69.8125 60.320312 69.9375 60.09375 69.9375 C 59.878906 69.9375 59.800781 70.042969 59.800781 70.3125 C 59.800781 70.617188 59.722656 70.691406 59.421875 70.691406 C 59.152344 70.691406 59.042969 70.773438 59.042969 70.976562 C 59.042969 71.136719 58.90625 71.296875 58.742188 71.339844 C 58.5 71.402344 58.4375 71.546875 58.4375 72.027344 C 58.4375 72.546875 58.386719 72.644531 58.097656 72.6875 C 57.878906 72.71875 57.738281 72.855469 57.707031 73.074219 C 57.675781 73.292969 57.554688 73.414062 57.367188 73.414062 C 57.191406 73.414062 57.078125 73.519531 57.078125 73.679688 C 57.078125 73.828125 56.921875 74.015625 56.734375 74.097656 C 56.488281 74.207031 56.382812 74.398438 56.351562 74.796875 C 56.316406 75.195312 56.222656 75.371094 56.007812 75.425781 C 55.835938 75.472656 55.714844 75.632812 55.714844 75.820312 C 55.714844 76.03125 55.617188 76.136719 55.429688 76.136719 C 55.140625 76.136719 54.964844 76.519531 54.960938 77.160156 C 54.960938 77.398438 54.867188 77.5 54.65625 77.5 C 54.46875 77.5 54.355469 77.597656 54.355469 77.765625 C 54.355469 77.910156 54.199219 78.097656 54.015625 78.179688 C 53.765625 78.289062 53.660156 78.480469 53.628906 78.882812 C 53.59375 79.277344 53.5 79.457031 53.289062 79.511719 C 53.058594 79.570312 52.992188 79.71875 52.992188 80.195312 C 52.992188 80.710938 52.941406 80.8125 52.652344 80.851562 C 52.390625 80.890625 52.300781 81.015625 52.265625 81.398438 C 52.238281 81.6875 52.09375 81.972656 51.925781 82.078125 C 51.734375 82.195312 51.632812 82.429688 51.632812 82.75 C 51.632812 83.105469 51.527344 83.308594 51.253906 83.488281 C 50.960938 83.679688 50.875 83.863281 50.875 84.304688 C 50.875 84.746094 50.808594 84.890625 50.574219 84.953125 C 50.332031 85.015625 50.269531 85.160156 50.269531 85.640625 C 50.269531 86.15625 50.21875 86.257812 49.929688 86.296875 C 49.621094 86.34375 49.585938 86.441406 49.546875 87.367188 C 49.507812 88.265625 49.464844 88.386719 49.203125 88.386719 C 48.957031 88.386719 48.910156 88.496094 48.910156 89.058594 C 48.910156 89.636719 48.863281 89.734375 48.570312 89.777344 C 48.285156 89.816406 48.222656 89.933594 48.183594 90.46875 C 48.144531 90.988281 48.078125 91.109375 47.84375 91.109375 C 47.582031 91.109375 47.546875 91.222656 47.546875 92.082031 C 47.546875 92.976562 47.519531 93.058594 47.207031 93.105469 C 46.898438 93.148438 46.863281 93.246094 46.824219 94.15625 C 46.785156 95.007812 46.734375 95.175781 46.484375 95.238281 C 46.226562 95.308594 46.1875 95.453125 46.1875 96.3125 C 46.1875 97.105469 46.140625 97.3125 45.957031 97.3125 C 45.664062 97.3125 45.429688 97.914062 45.429688 98.664062 C 45.429688 99.117188 45.363281 99.261719 45.128906 99.320312 C 44.851562 99.394531 44.824219 99.527344 44.824219 101.003906 L 44.824219 102.605469 L 46.1875 102.605469 C 47.46875 102.605469 47.546875 102.585938 47.546875 102.289062 C 47.546875 102.097656 47.667969 101.941406 47.851562 101.894531 C 48.128906 101.820312 48.152344 101.6875 48.152344 100.179688 C 48.152344 98.597656 48.164062 98.539062 48.492188 98.496094 C 48.796875 98.449219 48.839844 98.347656 48.878906 97.507812 C 48.914062 96.734375 48.976562 96.554688 49.21875 96.476562 C 49.472656 96.398438 49.515625 96.242188 49.515625 95.410156 C 49.515625 94.558594 49.550781 94.4375 49.800781 94.4375 C 50.121094 94.4375 50.269531 94.15625 50.269531 93.554688 C 50.269531 93.3125 50.394531 93.074219 50.574219 92.960938 C 50.835938 92.796875 50.875 92.609375 50.875 91.5625 C 50.875 90.375 50.882812 90.355469 51.253906 90.355469 C 51.601562 90.355469 51.632812 90.300781 51.632812 89.671875 C 51.632812 89.09375 51.675781 88.992188 51.933594 88.992188 C 52.191406 88.992188 52.238281 88.890625 52.238281 88.324219 C 52.238281 87.742188 52.28125 87.648438 52.578125 87.605469 C 52.855469 87.566406 52.925781 87.445312 52.964844 86.957031 C 52.996094 86.578125 53.121094 86.285156 53.304688 86.15625 C 53.496094 86.023438 53.597656 85.773438 53.597656 85.441406 C 53.597656 85.027344 53.664062 84.921875 53.9375 84.882812 C 54.222656 84.84375 54.285156 84.726562 54.324219 84.191406 C 54.363281 83.671875 54.429688 83.546875 54.664062 83.546875 C 54.914062 83.546875 54.960938 83.441406 54.960938 82.878906 C 54.960938 82.296875 55.003906 82.203125 55.300781 82.160156 C 55.582031 82.121094 55.648438 82.003906 55.6875 81.46875 C 55.722656 80.949219 55.789062 80.824219 56.027344 80.824219 C 56.21875 80.824219 56.320312 80.722656 56.320312 80.523438 C 56.320312 80.355469 56.382812 80.222656 56.460938 80.222656 C 56.742188 80.222656 57.078125 79.734375 57.078125 79.320312 C 57.078125 79.023438 57.167969 78.871094 57.378906 78.816406 C 57.558594 78.769531 57.679688 78.609375 57.679688 78.421875 C 57.679688 78.238281 57.777344 78.105469 57.914062 78.105469 C 58.207031 78.105469 58.4375 77.496094 58.4375 76.734375 C 58.4375 76.238281 58.488281 76.136719 58.742188 76.136719 C 58.960938 76.136719 59.042969 76.035156 59.042969 75.757812 C 59.042969 75.457031 59.117188 75.382812 59.421875 75.382812 C 59.703125 75.382812 59.800781 75.300781 59.800781 75.0625 C 59.800781 74.875 59.921875 74.714844 60.101562 74.667969 C 60.269531 74.625 60.402344 74.46875 60.402344 74.324219 C 60.402344 74.175781 60.539062 74.019531 60.703125 73.976562 C 60.914062 73.921875 61.027344 73.71875 61.101562 73.277344 C 61.175781 72.808594 61.265625 72.660156 61.480469 72.660156 C 61.660156 72.660156 61.765625 72.550781 61.765625 72.367188 C 61.765625 72.179688 61.886719 72.058594 62.105469 72.027344 C 62.324219 71.996094 62.464844 71.855469 62.496094 71.636719 C 62.519531 71.449219 62.644531 71.296875 62.773438 71.296875 C 62.898438 71.296875 63.039062 71.167969 63.078125 71.007812 C 63.121094 70.851562 63.285156 70.6875 63.441406 70.644531 C 63.601562 70.605469 63.777344 70.445312 63.835938 70.289062 C 63.890625 70.136719 64.0625 69.921875 64.214844 69.8125 C 64.386719 69.6875 64.488281 69.425781 64.488281 69.097656 C 64.488281 68.640625 64.535156 68.574219 64.867188 68.574219 C 65.136719 68.574219 65.242188 68.492188 65.242188 68.289062 C 65.242188 68.132812 65.378906 67.96875 65.546875 67.925781 C 65.726562 67.878906 65.847656 67.71875 65.847656 67.53125 C 65.847656 67.308594 65.945312 67.214844 66.164062 67.214844 C 66.351562 67.214844 66.515625 67.09375 66.558594 66.925781 C 66.597656 66.765625 66.761719 66.601562 66.921875 66.5625 C 67.089844 66.515625 67.210938 66.355469 67.210938 66.167969 C 67.210938 65.949219 67.304688 65.851562 67.527344 65.851562 C 67.714844 65.851562 67.875 65.730469 67.921875 65.554688 C 67.964844 65.390625 68.128906 65.21875 68.285156 65.167969 C 68.441406 65.117188 68.570312 64.945312 68.570312 64.785156 C 68.570312 64.589844 68.675781 64.492188 68.886719 64.492188 C 69.070312 64.492188 69.234375 64.371094 69.28125 64.203125 C 69.320312 64.042969 69.484375 63.878906 69.644531 63.839844 C 69.8125 63.796875 69.933594 63.632812 69.933594 63.445312 C 69.933594 63.226562 70.027344 63.128906 70.25 63.128906 C 70.4375 63.128906 70.597656 63.007812 70.644531 62.828125 C 70.6875 62.660156 70.851562 62.523438 71.007812 62.523438 C 71.210938 62.523438 71.292969 62.417969 71.292969 62.148438 C 71.292969 61.863281 71.375 61.769531 71.609375 61.769531 C 71.800781 61.769531 71.957031 61.648438 72.007812 61.464844 C 72.050781 61.300781 72.210938 61.164062 72.371094 61.164062 C 72.574219 61.164062 72.65625 61.054688 72.65625 60.785156 C 72.65625 60.484375 72.730469 60.40625 73.03125 60.40625 C 73.300781 60.40625 73.410156 60.324219 73.410156 60.125 C 73.410156 59.964844 73.546875 59.804688 73.714844 59.757812 C 73.894531 59.710938 74.015625 59.550781 74.015625 59.363281 C 74.015625 59.089844 74.105469 59.046875 74.695312 59.046875 C 75.269531 59.046875 75.378906 59 75.378906 58.753906 C 75.378906 58.566406 75.5 58.445312 75.71875 58.414062 C 75.9375 58.382812 76.074219 58.246094 76.105469 58.027344 C 76.136719 57.808594 76.257812 57.683594 76.445312 57.683594 C 76.636719 57.683594 76.738281 57.582031 76.738281 57.382812 C 76.738281 57.148438 76.839844 57.082031 77.179688 57.082031 C 77.816406 57.082031 78.101562 56.9375 78.101562 56.609375 C 78.101562 56.40625 78.207031 56.324219 78.476562 56.324219 C 78.75 56.324219 78.855469 56.242188 78.855469 56.03125 C 78.855469 55.800781 78.980469 55.726562 79.421875 55.691406 C 79.839844 55.65625 80.03125 55.554688 80.140625 55.304688 C 80.222656 55.117188 80.410156 54.964844 80.554688 54.964844 C 80.71875 54.964844 80.820312 54.847656 80.820312 54.667969 C 80.820312 54.433594 80.945312 54.367188 81.464844 54.328125 C 82 54.289062 82.117188 54.226562 82.15625 53.941406 C 82.199219 53.648438 82.292969 53.601562 82.875 53.601562 C 83.445312 53.601562 83.542969 53.554688 83.542969 53.300781 C 83.542969 53.085938 83.644531 52.996094 83.886719 52.996094 C 84.523438 52.992188 84.90625 52.816406 84.90625 52.527344 C 84.90625 52.324219 85.015625 52.242188 85.285156 52.242188 C 85.558594 52.242188 85.660156 52.160156 85.660156 51.945312 C 85.660156 51.710938 85.785156 51.644531 86.304688 51.605469 C 86.839844 51.566406 86.957031 51.503906 86.996094 51.21875 C 87.035156 50.929688 87.136719 50.878906 87.652344 50.878906 C 88.128906 50.878906 88.277344 50.816406 88.339844 50.585938 C 88.394531 50.363281 88.570312 50.277344 89.042969 50.246094 C 89.5625 50.207031 89.679688 50.140625 89.71875 49.859375 C 89.761719 49.5625 89.855469 49.519531 90.4375 49.519531 C 91.007812 49.519531 91.105469 49.472656 91.105469 49.214844 C 91.105469 48.972656 91.207031 48.914062 91.625 48.914062 C 92.324219 48.914062 92.921875 48.671875 92.921875 48.386719 C 92.921875 48.210938 93.101562 48.15625 93.679688 48.15625 C 94.332031 48.15625 94.433594 48.117188 94.433594 47.855469 C 94.433594 47.589844 94.535156 47.550781 95.246094 47.550781 C 96.433594 47.550781 97.035156 47.398438 97.117188 47.074219 C 97.175781 46.855469 97.335938 46.796875 97.855469 46.796875 C 98.417969 46.796875 98.519531 46.75 98.519531 46.492188 C 98.519531 46.226562 98.617188 46.191406 99.332031 46.191406 C 100.503906 46.191406 101.066406 46.046875 101.171875 45.71875 C 101.25 45.472656 101.417969 45.433594 102.453125 45.433594 C 103.464844 45.433594 103.675781 45.390625 103.851562 45.136719 C 104.03125 44.878906 104.269531 44.835938 105.636719 44.796875 C 107.105469 44.757812 107.222656 44.730469 107.363281 44.414062 C 107.503906 44.089844 107.597656 44.074219 109.140625 44.074219 C 110.667969 44.074219 110.769531 44.054688 110.769531 43.769531 C 110.769531 43.53125 110.871094 43.46875 111.269531 43.46875 C 111.542969 43.46875 111.847656 43.550781 111.949219 43.648438 C 112.089844 43.789062 112.171875 43.789062 112.3125 43.648438 C 112.449219 43.511719 114.464844 43.46875 120.460938 43.46875 C 128.300781 43.46875 128.429688 43.472656 128.507812 43.769531 C 128.582031 44.050781 128.714844 44.074219 130.253906 44.074219 C 131.753906 44.074219 131.929688 44.101562 132.011719 44.359375 C 132.125 44.710938 132.683594 44.828125 134.210938 44.828125 C 135.257812 44.828125 135.394531 44.863281 135.464844 45.132812 C 135.539062 45.410156 135.671875 45.433594 137.136719 45.433594 C 138.671875 45.433594 138.730469 45.445312 138.777344 45.773438 C 138.816406 46.050781 138.9375 46.125 139.421875 46.164062 C 139.800781 46.195312 140.097656 46.320312 140.226562 46.503906 C 140.398438 46.75 140.617188 46.796875 141.621094 46.796875 C 142.742188 46.796875 142.816406 46.816406 142.859375 47.136719 C 142.902344 47.445312 143.003906 47.480469 143.914062 47.519531 C 144.761719 47.558594 144.929688 47.609375 144.996094 47.859375 C 145.0625 48.113281 145.207031 48.15625 145.984375 48.15625 C 146.8125 48.15625 146.898438 48.1875 146.945312 48.496094 C 146.984375 48.78125 147.101562 48.84375 147.632812 48.882812 C 148.15625 48.921875 148.277344 48.988281 148.277344 49.222656 C 148.277344 49.484375 148.386719 49.519531 149.25 49.519531 C 150.144531 49.519531 150.226562 49.546875 150.269531 49.859375 C 150.300781 50.070312 150.441406 50.214844 150.644531 50.246094 C 150.824219 50.269531 151.003906 50.421875 151.046875 50.585938 C 151.105469 50.8125 151.253906 50.878906 151.722656 50.878906 C 152.195312 50.878906 152.34375 50.945312 152.402344 51.175781 C 152.460938 51.390625 152.660156 51.503906 153.101562 51.574219 C 153.570312 51.648438 153.722656 51.742188 153.722656 51.957031 C 153.722656 52.15625 153.832031 52.242188 154.082031 52.242188 C 154.3125 52.242188 154.472656 52.347656 154.519531 52.539062 C 154.578125 52.75 154.777344 52.867188 155.207031 52.933594 C 155.625 53 155.835938 53.121094 155.886719 53.316406 C 155.945312 53.535156 156.101562 53.601562 156.554688 53.601562 C 156.992188 53.601562 157.242188 53.703125 157.503906 53.980469 C 157.699219 54.1875 157.976562 54.359375 158.117188 54.359375 C 158.257812 54.359375 158.410156 54.496094 158.453125 54.660156 C 158.511719 54.878906 158.660156 54.964844 159 54.964844 C 159.328125 54.964844 159.535156 55.074219 159.710938 55.339844 C 159.847656 55.550781 160.085938 55.71875 160.242188 55.71875 C 160.425781 55.71875 160.527344 55.828125 160.527344 56.023438 C 160.527344 56.277344 160.628906 56.324219 161.199219 56.324219 L 161.871094 56.324219 L 161.917969 56.96875 C 161.964844 57.605469 161.96875 57.609375 162.597656 57.65625 C 163.117188 57.695312 163.242188 57.761719 163.277344 58.035156 C 163.316406 58.308594 163.441406 58.375 163.96875 58.414062 C 164.488281 58.449219 164.613281 58.515625 164.613281 58.753906 C 164.613281 58.941406 164.714844 59.046875 164.902344 59.046875 C 165.089844 59.046875 165.214844 59.167969 165.242188 59.386719 C 165.28125 59.648438 165.40625 59.738281 165.78125 59.773438 C 166.289062 59.824219 166.730469 60.265625 166.730469 60.730469 C 166.730469 60.894531 166.898438 61.027344 167.191406 61.089844 C 167.445312 61.144531 167.730469 61.320312 167.832031 61.480469 C 167.929688 61.640625 168.164062 61.769531 168.355469 61.769531 C 168.617188 61.769531 168.695312 61.855469 168.695312 62.148438 C 168.695312 62.425781 168.777344 62.523438 168.996094 62.523438 C 169.199219 62.523438 169.300781 62.625 169.300781 62.828125 C 169.300781 63.050781 169.402344 63.128906 169.679688 63.128906 C 169.980469 63.128906 170.058594 63.207031 170.058594 63.507812 C 170.058594 63.785156 170.136719 63.886719 170.359375 63.886719 C 170.5625 63.886719 170.660156 63.988281 170.660156 64.1875 C 170.660156 64.410156 170.761719 64.492188 171.039062 64.492188 C 171.34375 64.492188 171.417969 64.566406 171.417969 64.871094 C 171.417969 65.148438 171.5 65.246094 171.71875 65.246094 C 171.921875 65.246094 172.023438 65.347656 172.023438 65.550781 C 172.023438 65.773438 172.125 65.851562 172.402344 65.851562 C 172.703125 65.851562 172.777344 65.929688 172.777344 66.230469 C 172.777344 66.507812 172.859375 66.609375 173.082031 66.609375 C 173.285156 66.609375 173.382812 66.710938 173.382812 66.910156 C 173.382812 67.132812 173.484375 67.214844 173.761719 67.214844 C 174.066406 67.214844 174.140625 67.289062 174.140625 67.59375 C 174.140625 67.863281 174.222656 67.96875 174.425781 67.96875 C 174.632812 67.96875 174.738281 68.117188 174.8125 68.515625 C 174.882812 68.875 175.015625 69.089844 175.210938 69.140625 C 175.375 69.183594 175.5 69.347656 175.5 69.515625 C 175.5 69.679688 175.628906 69.847656 175.789062 69.890625 C 175.949219 69.929688 176.113281 70.097656 176.15625 70.265625 C 176.199219 70.429688 176.371094 70.597656 176.53125 70.640625 C 176.714844 70.6875 176.867188 70.898438 176.921875 71.183594 C 176.976562 71.441406 177.273438 71.886719 177.59375 72.191406 C 177.914062 72.488281 178.214844 72.851562 178.269531 73 C 178.324219 73.144531 178.464844 73.265625 178.585938 73.265625 C 178.707031 73.265625 178.828125 73.417969 178.855469 73.605469 C 178.886719 73.824219 179.027344 73.960938 179.246094 73.992188 C 179.492188 74.027344 179.585938 74.140625 179.585938 74.410156 C 179.585938 74.671875 179.667969 74.777344 179.878906 74.777344 C 180.109375 74.777344 180.183594 74.898438 180.21875 75.34375 C 180.253906 75.761719 180.355469 75.949219 180.605469 76.058594 C 180.792969 76.140625 180.945312 76.328125 180.945312 76.476562 C 180.945312 76.640625 181.058594 76.742188 181.242188 76.742188 C 181.476562 76.742188 181.542969 76.867188 181.582031 77.386719 C 181.617188 77.917969 181.683594 78.035156 181.96875 78.078125 C 182.214844 78.109375 182.308594 78.226562 182.308594 78.492188 C 182.308594 78.753906 182.390625 78.859375 182.601562 78.859375 C 182.839844 78.859375 182.902344 78.984375 182.941406 79.503906 C 182.980469 80.035156 183.046875 80.152344 183.328125 80.195312 C 183.617188 80.234375 183.667969 80.335938 183.667969 80.851562 C 183.667969 81.328125 183.734375 81.476562 183.964844 81.535156 C 184.175781 81.589844 184.269531 81.769531 184.304688 82.164062 C 184.335938 82.566406 184.441406 82.757812 184.691406 82.867188 C 184.953125 82.980469 185.03125 83.140625 185.03125 83.566406 C 185.03125 83.976562 185.101562 84.136719 185.3125 84.191406 C 185.496094 84.238281 185.632812 84.464844 185.699219 84.832031 C 185.769531 85.207031 185.902344 85.421875 186.097656 85.472656 C 186.285156 85.523438 186.390625 85.679688 186.390625 85.910156 C 186.390625 86.167969 186.476562 86.269531 186.6875 86.269531 C 186.941406 86.269531 186.988281 86.394531 187.027344 87.214844 C 187.066406 88.027344 187.121094 88.183594 187.414062 88.3125 C 187.675781 88.425781 187.753906 88.585938 187.753906 89.019531 C 187.753906 89.441406 187.824219 89.601562 188.046875 89.671875 C 188.265625 89.742188 188.351562 89.925781 188.386719 90.398438 C 188.425781 90.925781 188.492188 91.042969 188.773438 91.082031 C 189.089844 91.128906 189.113281 91.207031 189.113281 92.179688 C 189.113281 93.027344 189.171875 93.285156 189.417969 93.53125 C 189.582031 93.695312 189.71875 94.027344 189.71875 94.269531 C 189.71875 95.089844 189.910156 95.6875 190.195312 95.761719 C 190.414062 95.820312 190.476562 95.980469 190.476562 96.496094 C 190.476562 97.054688 190.523438 97.160156 190.769531 97.160156 C 191.03125 97.160156 191.070312 97.285156 191.109375 98.179688 C 191.152344 99.109375 191.1875 99.207031 191.496094 99.25 C 191.828125 99.296875 191.835938 99.34375 191.835938 101.238281 C 191.835938 103.046875 191.855469 103.179688 192.136719 103.253906 C 192.320312 103.300781 192.441406 103.460938 192.441406 103.65625 C 192.441406 103.964844 192.5 103.976562 193.765625 103.933594 L 195.085938 103.890625 L 195.128906 102.265625 C 195.171875 100.714844 195.160156 100.640625 194.867188 100.640625 C 194.605469 100.640625 194.558594 100.542969 194.554688 99.996094 C 194.554688 99.09375 194.425781 98.710938 194.089844 98.625 C 193.84375 98.5625 193.800781 98.40625 193.800781 97.554688 C 193.800781 96.65625 193.773438 96.554688 193.5 96.554688 C 193.222656 96.554688 193.195312 96.453125 193.195312 95.433594 C 193.195312 94.113281 193.113281 93.832031 192.726562 93.832031 C 192.476562 93.832031 192.441406 93.714844 192.441406 92.910156 C 192.441406 92.125 192.398438 91.976562 192.144531 91.914062 C 191.917969 91.851562 191.839844 91.679688 191.804688 91.132812 C 191.765625 90.535156 191.710938 90.421875 191.421875 90.382812 C 191.117188 90.339844 191.078125 90.25 191.078125 89.519531 C 191.078125 88.890625 191.015625 88.664062 190.789062 88.503906 C 190.605469 88.375 190.480469 88.078125 190.449219 87.699219 C 190.410156 87.214844 190.335938 87.09375 190.058594 87.054688 C 189.765625 87.011719 189.71875 86.914062 189.71875 86.335938 C 189.71875 85.765625 189.671875 85.664062 189.417969 85.664062 C 189.160156 85.664062 189.113281 85.5625 189.113281 85.023438 C 189.109375 84.117188 188.980469 83.738281 188.644531 83.652344 C 188.421875 83.59375 188.355469 83.441406 188.355469 82.957031 C 188.355469 82.4375 188.308594 82.339844 188.054688 82.339844 C 187.8125 82.339844 187.753906 82.238281 187.753906 81.820312 C 187.753906 81.328125 187.441406 80.824219 187.136719 80.824219 C 187.058594 80.824219 186.996094 80.691406 186.996094 80.523438 C 186.996094 80.324219 186.894531 80.222656 186.703125 80.222656 C 186.464844 80.222656 186.398438 80.097656 186.363281 79.578125 C 186.324219 79.042969 186.257812 78.925781 185.976562 78.886719 C 185.6875 78.847656 185.636719 78.746094 185.636719 78.230469 C 185.636719 77.753906 185.570312 77.605469 185.339844 77.542969 C 185.179688 77.503906 185.027344 77.320312 185 77.144531 C 184.972656 76.9375 184.828125 76.800781 184.613281 76.769531 C 184.328125 76.730469 184.273438 76.628906 184.273438 76.125 C 184.273438 75.644531 184.21875 75.53125 183.988281 75.53125 C 183.765625 75.53125 183.679688 75.382812 183.601562 74.851562 C 183.519531 74.3125 183.4375 74.171875 183.207031 74.171875 C 183.007812 74.171875 182.914062 74.066406 182.914062 73.855469 C 182.914062 73.667969 182.792969 73.507812 182.617188 73.460938 C 182.457031 73.417969 182.304688 73.238281 182.277344 73.058594 C 182.25 72.855469 182.105469 72.714844 181.890625 72.6875 C 181.609375 72.644531 181.550781 72.542969 181.550781 72.066406 C 181.550781 71.605469 181.480469 71.464844 181.171875 71.324219 C 180.964844 71.230469 180.796875 71.050781 180.796875 70.921875 C 180.796875 70.792969 180.664062 70.691406 180.492188 70.691406 C 180.285156 70.691406 180.191406 70.589844 180.191406 70.375 C 180.191406 70.1875 180.070312 70.027344 179.886719 69.980469 C 179.660156 69.921875 179.585938 69.773438 179.585938 69.386719 C 179.585938 68.984375 179.503906 68.832031 179.207031 68.699219 C 179 68.605469 178.828125 68.402344 178.828125 68.25 C 178.828125 68.078125 178.71875 67.96875 178.542969 67.96875 C 178.382812 67.96875 178.222656 67.832031 178.175781 67.65625 C 178.132812 67.484375 177.953125 67.304688 177.78125 67.261719 C 177.605469 67.214844 177.46875 67.054688 177.46875 66.894531 C 177.46875 66.714844 177.359375 66.609375 177.175781 66.609375 C 176.988281 66.609375 176.867188 66.488281 176.835938 66.269531 C 176.804688 66.050781 176.664062 65.910156 176.445312 65.878906 C 176.222656 65.847656 176.105469 65.726562 176.105469 65.53125 C 176.105469 65 175.816406 64.660156 175.273438 64.558594 C 174.890625 64.484375 174.746094 64.378906 174.746094 64.171875 C 174.746094 63.988281 174.636719 63.886719 174.441406 63.886719 C 174.25 63.886719 174.140625 63.785156 174.140625 63.605469 C 174.140625 63.453125 173.976562 63.148438 173.773438 62.929688 C 173.574219 62.714844 173.386719 62.414062 173.359375 62.265625 C 173.324219 62.085938 173.089844 61.949219 172.664062 61.851562 C 172.199219 61.75 172.023438 61.636719 172.023438 61.4375 C 172.023438 61.269531 171.910156 61.164062 171.730469 61.164062 C 171.542969 61.164062 171.421875 61.042969 171.390625 60.824219 C 171.359375 60.605469 171.222656 60.464844 171.003906 60.433594 C 170.785156 60.402344 170.660156 60.28125 170.660156 60.09375 C 170.660156 59.90625 170.558594 59.804688 170.371094 59.804688 C 170.183594 59.804688 170.058594 59.679688 170.03125 59.464844 C 170 59.269531 169.851562 59.101562 169.679688 59.066406 C 169.515625 59.035156 169.289062 58.882812 169.179688 58.726562 C 169.070312 58.570312 168.894531 58.441406 168.789062 58.441406 C 168.683594 58.441406 168.4375 58.273438 168.242188 58.0625 C 168.046875 57.855469 167.761719 57.683594 167.609375 57.683594 C 167.433594 57.683594 167.335938 57.574219 167.335938 57.382812 C 167.335938 57.160156 167.234375 57.082031 166.957031 57.082031 C 166.671875 57.082031 166.578125 57 166.578125 56.765625 C 166.578125 56.578125 166.457031 56.414062 166.28125 56.371094 C 166.117188 56.328125 165.941406 56.164062 165.890625 56.003906 C 165.824219 55.789062 165.65625 55.71875 165.21875 55.71875 C 164.726562 55.71875 164.625 55.664062 164.585938 55.378906 C 164.554688 55.160156 164.414062 55.019531 164.195312 54.992188 C 163.976562 54.960938 163.855469 54.835938 163.855469 54.648438 C 163.855469 54.4375 163.75 54.359375 163.476562 54.359375 C 163.199219 54.359375 163.097656 54.277344 163.097656 54.054688 C 163.097656 53.875 163 53.753906 162.851562 53.753906 C 162.714844 53.753906 162.445312 53.582031 162.253906 53.375 C 162.058594 53.164062 161.734375 52.996094 161.519531 52.996094 C 161.242188 52.996094 161.132812 52.917969 161.132812 52.710938 C 161.132812 52.382812 160.851562 52.242188 160.214844 52.242188 C 159.871094 52.242188 159.773438 52.171875 159.773438 51.9375 C 159.773438 51.679688 159.671875 51.636719 159.089844 51.636719 C 158.464844 51.636719 158.410156 51.605469 158.410156 51.257812 C 158.410156 50.988281 158.328125 50.878906 158.125 50.878906 C 157.96875 50.878906 157.804688 50.746094 157.761719 50.578125 C 157.699219 50.335938 157.554688 50.273438 157.074219 50.273438 C 156.558594 50.273438 156.457031 50.222656 156.417969 49.933594 C 156.378906 49.652344 156.261719 49.585938 155.742188 49.546875 C 155.269531 49.511719 155.09375 49.429688 155.039062 49.207031 C 154.976562 48.976562 154.828125 48.914062 154.351562 48.914062 C 153.835938 48.914062 153.734375 48.863281 153.695312 48.574219 C 153.65625 48.292969 153.539062 48.226562 153.019531 48.1875 C 152.546875 48.152344 152.375 48.066406 152.316406 47.847656 C 152.253906 47.617188 152.105469 47.550781 151.65625 47.550781 C 151.195312 47.550781 151.039062 47.480469 150.921875 47.210938 C 150.8125 46.964844 150.621094 46.859375 150.214844 46.824219 C 149.816406 46.792969 149.625 46.691406 149.558594 46.484375 C 149.480469 46.234375 149.324219 46.191406 148.503906 46.191406 C 147.621094 46.191406 147.539062 46.164062 147.492188 45.851562 C 147.453125 45.570312 147.335938 45.503906 146.816406 45.464844 C 146.347656 45.429688 146.171875 45.34375 146.113281 45.125 C 146.046875 44.875 145.902344 44.828125 145.125 44.828125 C 144.363281 44.828125 144.199219 44.78125 144.125 44.542969 C 144.019531 44.214844 143.621094 44.078125 142.738281 44.074219 C 142.238281 44.074219 142.09375 44.011719 142.03125 43.769531 C 141.964844 43.511719 141.828125 43.46875 141.042969 43.46875 C 140.28125 43.46875 140.117188 43.421875 140.039062 43.183594 C 139.929688 42.835938 139.535156 42.71875 138.507812 42.714844 C 137.929688 42.710938 137.667969 42.636719 137.464844 42.410156 C 137.21875 42.136719 136.996094 42.105469 135.28125 42.105469 C 133.449219 42.105469 133.371094 42.09375 133.226562 41.765625 C 133.085938 41.441406 132.984375 41.425781 131.132812 41.382812 C 129.347656 41.34375 129.183594 41.316406 129.113281 41.042969 C 129.035156 40.757812 128.882812 40.746094 124.609375 40.746094 C 120.308594 40.746094 120.179688 40.738281 120.101562 40.445312 C 120.050781 40.238281 119.917969 40.136719 119.707031 40.140625 C 119.535156 40.140625 119.308594 40.277344 119.203125 40.445312 M 45.433594 137.761719 C 45.351562 137.972656 45.183594 138.148438 45.054688 138.148438 C 44.882812 138.148438 44.828125 138.324219 44.828125 138.867188 C 44.832031 139.828125 44.957031 140.261719 45.210938 140.164062 C 45.367188 140.105469 45.425781 140.316406 45.460938 141.046875 C 45.5 141.910156 45.539062 142.007812 45.847656 142.054688 C 46.160156 142.097656 46.1875 142.179688 46.1875 143.089844 C 46.1875 143.941406 46.226562 144.085938 46.484375 144.152344 C 46.742188 144.21875 46.785156 144.386719 46.824219 145.460938 C 46.863281 146.574219 46.902344 146.707031 47.207031 146.84375 C 47.507812 146.972656 47.546875 147.101562 47.546875 147.9375 C 47.546875 148.777344 47.582031 148.886719 47.84375 148.886719 C 48.078125 148.886719 48.144531 149.007812 48.183594 149.527344 C 48.222656 150.0625 48.285156 150.179688 48.570312 150.21875 C 48.882812 150.265625 48.910156 150.347656 48.910156 151.222656 C 48.910156 152.050781 48.949219 152.1875 49.210938 152.257812 C 49.429688 152.3125 49.515625 152.464844 49.515625 152.785156 C 49.515625 153.605469 49.695312 154.167969 49.984375 154.261719 C 50.144531 154.3125 50.269531 154.488281 50.269531 154.65625 C 50.269531 154.835938 50.394531 154.996094 50.574219 155.042969 C 50.785156 155.097656 50.875 155.25 50.875 155.539062 C 50.875 156.34375 51.066406 156.941406 51.351562 157.015625 C 51.507812 157.054688 51.632812 157.222656 51.632812 157.386719 C 51.632812 157.558594 51.761719 157.71875 51.933594 157.765625 C 52.101562 157.808594 52.238281 157.960938 52.238281 158.101562 C 52.238281 158.246094 52.40625 158.523438 52.613281 158.71875 C 52.824219 158.914062 52.992188 159.230469 52.992188 159.425781 C 52.992188 159.617188 53.121094 159.902344 53.273438 160.058594 C 53.429688 160.214844 53.605469 160.65625 53.664062 161.042969 C 53.746094 161.597656 53.828125 161.742188 54.0625 161.742188 C 54.273438 161.742188 54.355469 161.847656 54.355469 162.121094 C 54.355469 162.398438 54.433594 162.5 54.65625 162.5 C 54.890625 162.5 54.960938 162.597656 54.960938 162.941406 C 54.960938 163.578125 55.101562 163.859375 55.429688 163.859375 C 55.632812 163.859375 55.714844 163.96875 55.714844 164.238281 C 55.714844 164.511719 55.796875 164.617188 56.007812 164.617188 C 56.246094 164.617188 56.3125 164.738281 56.347656 165.257812 C 56.386719 165.792969 56.453125 165.910156 56.738281 165.949219 C 56.953125 165.980469 57.078125 166.101562 57.078125 166.289062 C 57.078125 166.472656 57.179688 166.582031 57.359375 166.582031 C 57.574219 166.582031 57.667969 166.730469 57.742188 167.203125 C 57.8125 167.644531 57.929688 167.84375 58.140625 167.902344 C 58.308594 167.945312 58.4375 168.105469 58.4375 168.277344 C 58.4375 168.445312 58.566406 168.609375 58.726562 168.652344 C 58.886719 168.691406 59.050781 168.855469 59.089844 169.015625 C 59.132812 169.183594 59.296875 169.304688 59.480469 169.304688 C 59.71875 169.304688 59.800781 169.398438 59.800781 169.683594 C 59.800781 169.890625 59.929688 170.191406 60.085938 170.347656 C 60.246094 170.507812 60.398438 170.761719 60.429688 170.917969 C 60.457031 171.070312 60.632812 171.261719 60.820312 171.34375 C 61.007812 171.425781 61.160156 171.613281 61.160156 171.761719 C 61.160156 171.921875 61.273438 172.027344 61.453125 172.027344 C 61.640625 172.027344 61.761719 172.148438 61.792969 172.367188 C 61.824219 172.585938 61.960938 172.722656 62.179688 172.753906 C 62.390625 172.785156 62.519531 172.910156 62.519531 173.078125 C 62.519531 173.230469 62.625 173.394531 62.753906 173.445312 C 62.882812 173.496094 63.089844 173.773438 63.210938 174.066406 C 63.332031 174.359375 63.535156 174.597656 63.65625 174.597656 C 63.796875 174.597656 63.882812 174.742188 63.882812 174.964844 C 63.882812 175.199219 63.992188 175.367188 64.175781 175.425781 C 64.339844 175.480469 64.515625 175.652344 64.566406 175.816406 C 64.617188 175.976562 64.789062 176.109375 64.953125 176.109375 C 65.132812 176.109375 65.242188 176.214844 65.242188 176.386719 C 65.242188 176.542969 65.414062 176.746094 65.621094 176.839844 C 65.828125 176.933594 66 177.113281 66 177.242188 C 66 177.367188 66.132812 177.472656 66.292969 177.472656 C 66.453125 177.472656 66.628906 177.609375 66.679688 177.773438 C 66.746094 177.984375 66.960938 178.105469 67.371094 178.171875 C 67.757812 178.234375 67.964844 178.347656 67.964844 178.496094 C 67.964844 178.621094 68.082031 178.808594 68.222656 178.914062 C 68.367188 179.015625 68.558594 179.332031 68.652344 179.609375 C 68.800781 180.046875 68.902344 180.125 69.367188 180.164062 C 69.796875 180.203125 69.925781 180.28125 69.960938 180.542969 C 69.992188 180.753906 70.132812 180.890625 70.347656 180.921875 C 70.566406 180.953125 70.6875 181.074219 70.6875 181.261719 C 70.6875 181.449219 70.792969 181.554688 70.972656 181.554688 C 71.132812 181.554688 71.292969 181.691406 71.339844 181.867188 C 71.386719 182.042969 71.558594 182.21875 71.722656 182.261719 C 71.886719 182.304688 72.054688 182.46875 72.097656 182.628906 C 72.140625 182.796875 72.304688 182.917969 72.488281 182.917969 C 72.703125 182.917969 72.804688 183.011719 72.804688 183.21875 C 72.804688 183.449219 72.941406 183.539062 73.398438 183.613281 C 73.800781 183.675781 74.011719 183.796875 74.066406 183.992188 C 74.109375 184.15625 74.273438 184.277344 74.457031 184.277344 C 74.671875 184.277344 74.773438 184.375 74.773438 184.582031 C 74.773438 184.769531 74.917969 184.945312 75.152344 185.035156 C 75.359375 185.113281 75.527344 185.28125 75.527344 185.40625 C 75.527344 185.535156 75.660156 185.640625 75.824219 185.640625 C 75.988281 185.640625 76.195312 185.773438 76.28125 185.933594 C 76.367188 186.097656 76.671875 186.273438 76.953125 186.328125 C 77.28125 186.386719 77.496094 186.527344 77.542969 186.710938 C 77.601562 186.933594 77.753906 187 78.226562 187 C 78.742188 187 78.84375 187.050781 78.882812 187.339844 C 78.910156 187.523438 79.058594 187.703125 79.210938 187.730469 C 79.363281 187.761719 79.617188 187.914062 79.777344 188.074219 C 79.9375 188.230469 80.21875 188.359375 80.40625 188.359375 C 80.617188 188.359375 80.808594 188.492188 80.898438 188.703125 C 81.007812 188.949219 81.199219 189.054688 81.601562 189.085938 C 81.996094 189.121094 82.175781 189.21875 82.230469 189.429688 C 82.289062 189.65625 82.4375 189.722656 82.914062 189.722656 C 83.429688 189.722656 83.53125 189.773438 83.570312 190.0625 C 83.605469 190.300781 83.738281 190.417969 84.019531 190.449219 C 84.242188 190.476562 84.539062 190.628906 84.6875 190.789062 C 84.832031 190.953125 85.109375 191.082031 85.296875 191.082031 C 85.539062 191.082031 85.65625 191.183594 85.6875 191.425781 C 85.730469 191.714844 85.84375 191.769531 86.441406 191.808594 C 86.898438 191.839844 87.234375 191.957031 87.410156 192.148438 C 87.59375 192.355469 87.871094 192.445312 88.320312 192.445312 C 88.875 192.445312 88.976562 192.492188 89.015625 192.785156 C 89.042969 192.976562 89.191406 193.148438 89.367188 193.179688 C 89.53125 193.210938 89.757812 193.363281 89.867188 193.523438 C 90.03125 193.757812 90.261719 193.804688 91.257812 193.804688 C 92.375 193.804688 92.449219 193.828125 92.496094 194.144531 C 92.535156 194.429688 92.652344 194.496094 93.1875 194.53125 C 93.707031 194.570312 93.828125 194.636719 93.828125 194.875 C 93.828125 195.125 93.9375 195.167969 94.566406 195.167969 C 95.160156 195.167969 95.320312 195.222656 95.378906 195.445312 C 95.457031 195.746094 96.132812 195.917969 97.253906 195.921875 C 97.75 195.921875 97.894531 195.984375 97.957031 196.226562 C 98.023438 196.484375 98.164062 196.527344 98.933594 196.527344 C 99.742188 196.527344 99.847656 196.566406 100.003906 196.90625 C 100.171875 197.273438 100.21875 197.285156 101.75 197.285156 C 103.195312 197.285156 103.328125 197.308594 103.402344 197.585938 C 103.472656 197.859375 103.609375 197.890625 104.78125 197.890625 C 105.953125 197.890625 106.078125 197.917969 106.078125 198.175781 C 106.078125 198.582031 106.457031 198.640625 109.144531 198.644531 C 111.320312 198.644531 111.550781 198.671875 111.828125 198.949219 C 112.121094 199.242188 112.332031 199.25 119.902344 199.25 C 127.546875 199.25 127.675781 199.246094 127.753906 198.949219 C 127.828125 198.660156 127.957031 198.644531 130.328125 198.644531 C 132.398438 198.644531 132.871094 198.605469 133.066406 198.410156 C 133.195312 198.277344 133.304688 198.105469 133.304688 198.03125 C 133.304688 197.953125 133.890625 197.890625 134.605469 197.890625 C 135.777344 197.890625 135.910156 197.859375 135.984375 197.585938 C 136.054688 197.316406 136.1875 197.285156 137.246094 197.285156 C 138.550781 197.285156 139.203125 197.109375 139.203125 196.757812 C 139.203125 196.574219 139.414062 196.527344 140.277344 196.527344 C 141.214844 196.527344 141.359375 196.492188 141.425781 196.234375 C 141.488281 195.988281 141.660156 195.929688 142.433594 195.890625 C 143.265625 195.851562 143.367188 195.8125 143.410156 195.507812 C 143.453125 195.195312 143.539062 195.167969 144.445312 195.167969 C 145.304688 195.167969 145.441406 195.128906 145.511719 194.863281 C 145.574219 194.625 145.71875 194.5625 146.214844 194.558594 C 147.132812 194.558594 147.519531 194.417969 147.519531 194.089844 C 147.519531 193.84375 147.640625 193.804688 148.441406 193.804688 C 149.238281 193.804688 149.375 193.765625 149.445312 193.503906 C 149.503906 193.277344 149.648438 193.199219 150.023438 193.199219 C 150.5 193.199219 151 192.886719 151 192.585938 C 151 192.507812 151.277344 192.445312 151.617188 192.445312 C 152.105469 192.445312 152.253906 192.382812 152.316406 192.148438 C 152.375 191.929688 152.546875 191.84375 153.019531 191.808594 C 153.539062 191.773438 153.65625 191.707031 153.695312 191.425781 C 153.734375 191.136719 153.835938 191.082031 154.351562 191.082031 C 154.828125 191.082031 154.976562 191.019531 155.039062 190.789062 C 155.09375 190.578125 155.269531 190.480469 155.667969 190.449219 C 156.066406 190.414062 156.257812 190.308594 156.367188 190.0625 C 156.480469 189.808594 156.644531 189.722656 157.023438 189.722656 C 157.40625 189.722656 157.550781 189.648438 157.609375 189.421875 C 157.660156 189.222656 157.816406 189.117188 158.050781 189.117188 C 158.335938 189.117188 158.410156 189.035156 158.410156 188.738281 C 158.410156 188.390625 158.464844 188.359375 159.089844 188.359375 C 159.664062 188.359375 159.773438 188.316406 159.773438 188.070312 C 159.773438 187.882812 159.894531 187.761719 160.113281 187.730469 C 160.332031 187.699219 160.46875 187.558594 160.5 187.339844 C 160.542969 187.046875 160.640625 187 161.21875 187 C 161.789062 187 161.890625 186.953125 161.890625 186.699219 C 161.890625 186.496094 161.992188 186.394531 162.191406 186.394531 C 162.414062 186.394531 162.496094 186.292969 162.496094 186.015625 C 162.496094 185.667969 162.550781 185.640625 163.175781 185.640625 C 163.738281 185.640625 163.855469 185.589844 163.855469 185.355469 C 163.855469 185.140625 164.007812 185.046875 164.476562 184.972656 C 164.917969 184.902344 165.117188 184.789062 165.175781 184.574219 C 165.21875 184.410156 165.375 184.277344 165.527344 184.277344 C 165.679688 184.277344 165.84375 184.148438 165.890625 183.992188 C 165.941406 183.835938 166.117188 183.671875 166.28125 183.628906 C 166.457031 183.582031 166.578125 183.421875 166.578125 183.234375 C 166.578125 182.984375 166.671875 182.917969 167.019531 182.917969 C 167.585938 182.917969 167.9375 182.5625 167.9375 182 C 167.9375 181.625 168 181.554688 168.316406 181.554688 C 168.589844 181.554688 168.695312 181.472656 168.695312 181.261719 C 168.695312 181.03125 168.816406 180.957031 169.261719 180.921875 C 169.679688 180.886719 169.871094 180.785156 169.980469 180.535156 C 170.0625 180.347656 170.25 180.195312 170.394531 180.195312 C 170.558594 180.195312 170.660156 180.082031 170.660156 179.902344 C 170.660156 179.714844 170.785156 179.59375 171.003906 179.5625 C 171.222656 179.53125 171.359375 179.390625 171.390625 179.171875 C 171.421875 178.953125 171.542969 178.832031 171.730469 178.832031 C 171.917969 178.832031 172.023438 178.726562 172.023438 178.539062 C 172.023438 178.351562 172.144531 178.230469 172.363281 178.199219 C 172.582031 178.167969 172.722656 178.03125 172.75 177.8125 C 172.78125 177.59375 172.90625 177.472656 173.09375 177.472656 C 173.28125 177.472656 173.382812 177.367188 173.382812 177.179688 C 173.382812 176.992188 173.503906 176.871094 173.722656 176.839844 C 173.941406 176.808594 174.082031 176.667969 174.113281 176.449219 C 174.144531 176.230469 174.265625 176.109375 174.453125 176.109375 C 174.640625 176.109375 174.746094 176.007812 174.746094 175.820312 C 174.746094 175.628906 174.867188 175.507812 175.085938 175.476562 C 175.304688 175.445312 175.441406 175.308594 175.472656 175.089844 C 175.5 174.902344 175.613281 174.75 175.722656 174.75 C 176.011719 174.75 176.863281 173.914062 176.863281 173.628906 C 176.863281 173.488281 176.988281 173.386719 177.164062 173.386719 C 177.359375 173.386719 177.46875 173.285156 177.46875 173.101562 C 177.46875 172.941406 177.605469 172.78125 177.78125 172.734375 C 177.953125 172.691406 178.132812 172.511719 178.175781 172.339844 C 178.222656 172.164062 178.382812 172.027344 178.542969 172.027344 C 178.78125 172.027344 178.828125 171.910156 178.828125 171.347656 C 178.828125 170.722656 178.859375 170.664062 179.207031 170.664062 C 179.476562 170.664062 179.585938 170.582031 179.585938 170.378906 C 179.585938 170.222656 179.71875 170.0625 179.886719 170.015625 C 180.070312 169.96875 180.191406 169.808594 180.191406 169.621094 C 180.191406 169.410156 180.285156 169.304688 180.476562 169.304688 C 180.800781 169.304688 180.945312 169.023438 180.945312 168.382812 C 180.945312 168.042969 181.015625 167.941406 181.25 167.941406 C 181.445312 167.941406 181.550781 167.84375 181.550781 167.652344 C 181.550781 167.464844 181.671875 167.339844 181.890625 167.3125 C 182.085938 167.28125 182.253906 167.136719 182.285156 166.960938 C 182.316406 166.792969 182.46875 166.535156 182.625 166.386719 C 182.785156 166.238281 182.914062 165.914062 182.914062 165.667969 C 182.914062 165.292969 182.972656 165.222656 183.289062 165.222656 C 183.589844 165.222656 183.667969 165.144531 183.667969 164.859375 C 183.667969 164.625 183.777344 164.472656 183.972656 164.421875 C 184.203125 164.359375 184.273438 164.214844 184.273438 163.808594 C 184.273438 163.371094 184.335938 163.265625 184.613281 163.226562 C 184.808594 163.199219 184.976562 163.050781 185.007812 162.875 C 185.039062 162.710938 185.191406 162.453125 185.347656 162.304688 C 185.507812 162.15625 185.636719 161.832031 185.636719 161.585938 C 185.636719 161.246094 185.703125 161.136719 185.921875 161.136719 C 186.246094 161.136719 186.390625 160.855469 186.390625 160.21875 C 186.390625 159.875 186.460938 159.777344 186.695312 159.777344 C 186.890625 159.777344 186.996094 159.675781 186.996094 159.484375 C 186.996094 159.296875 187.117188 159.175781 187.335938 159.144531 C 187.644531 159.101562 187.679688 159.003906 187.722656 158.074219 C 187.761719 157.175781 187.800781 157.054688 188.0625 157.054688 C 188.3125 157.054688 188.355469 156.949219 188.355469 156.371094 C 188.355469 155.746094 188.386719 155.691406 188.734375 155.691406 C 189.019531 155.691406 189.113281 155.613281 189.113281 155.375 C 189.113281 155.1875 189.234375 155.027344 189.417969 154.980469 C 189.652344 154.917969 189.71875 154.773438 189.71875 154.320312 C 189.71875 153.902344 189.824219 153.632812 190.097656 153.363281 C 190.421875 153.035156 190.476562 152.847656 190.476562 152.011719 C 190.476562 151.167969 190.515625 151.027344 190.777344 150.960938 C 191.015625 150.898438 191.078125 150.753906 191.078125 150.296875 C 191.078125 149.835938 191.152344 149.683594 191.421875 149.566406 C 191.667969 149.457031 191.773438 149.265625 191.808594 148.855469 C 191.839844 148.460938 191.9375 148.269531 192.148438 148.203125 C 192.40625 148.121094 192.441406 147.964844 192.441406 146.84375 C 192.441406 145.648438 192.460938 145.578125 192.78125 145.53125 C 193.070312 145.492188 193.128906 145.378906 193.167969 144.78125 C 193.203125 144.234375 193.277344 144.0625 193.507812 144 C 193.757812 143.933594 193.800781 143.789062 193.800781 143.007812 C 193.800781 142.246094 193.851562 142.0625 194.105469 141.929688 C 194.285156 141.832031 194.40625 141.613281 194.40625 141.378906 C 194.40625 141.121094 194.308594 140.96875 194.105469 140.914062 C 193.910156 140.863281 193.800781 140.707031 193.800781 140.472656 C 193.800781 140.125 193.769531 140.113281 192.53125 140.113281 C 191.089844 140.113281 191.078125 140.121094 191.078125 141.359375 C 191.078125 141.890625 191.003906 142.175781 190.832031 142.304688 C 190.679688 142.417969 190.558594 142.785156 190.515625 143.300781 C 190.460938 143.882812 190.351562 144.191406 190.136719 144.363281 C 189.921875 144.535156 189.804688 144.851562 189.753906 145.40625 C 189.695312 146.015625 189.609375 146.21875 189.394531 146.277344 C 189.148438 146.339844 189.113281 146.507812 189.113281 147.609375 C 189.113281 148.796875 189.09375 148.867188 188.773438 148.914062 C 188.492188 148.953125 188.425781 149.070312 188.386719 149.589844 C 188.351562 150.0625 188.269531 150.234375 188.046875 150.292969 C 187.875 150.339844 187.753906 150.5 187.753906 150.6875 C 187.753906 150.871094 187.65625 151.003906 187.523438 151.003906 C 187.230469 151.003906 186.996094 151.609375 186.996094 152.363281 C 186.996094 152.816406 186.925781 152.972656 186.695312 153.046875 C 186.464844 153.117188 186.390625 153.273438 186.390625 153.699219 C 186.390625 154.136719 186.316406 154.292969 186.050781 154.410156 C 185.804688 154.515625 185.699219 154.707031 185.664062 155.109375 C 185.632812 155.503906 185.535156 155.683594 185.324219 155.738281 C 185.09375 155.796875 185.03125 155.949219 185.03125 156.421875 C 185.03125 156.941406 184.976562 157.039062 184.691406 157.082031 C 184.410156 157.121094 184.339844 157.238281 184.304688 157.757812 C 184.269531 158.226562 184.183594 158.402344 183.964844 158.460938 C 183.734375 158.519531 183.667969 158.671875 183.667969 159.144531 C 183.667969 159.664062 183.617188 159.761719 183.328125 159.804688 C 183.117188 159.832031 182.972656 159.972656 182.941406 160.175781 C 182.917969 160.355469 182.761719 160.535156 182.601562 160.578125 C 182.371094 160.636719 182.308594 160.789062 182.308594 161.265625 C 182.308594 161.78125 182.257812 161.878906 181.96875 161.921875 C 181.753906 161.949219 181.609375 162.089844 181.582031 162.292969 C 181.554688 162.472656 181.402344 162.652344 181.242188 162.695312 C 181.019531 162.753906 180.945312 162.90625 180.945312 163.304688 C 180.945312 163.742188 180.886719 163.847656 180.605469 163.886719 C 180.34375 163.925781 180.253906 164.050781 180.21875 164.433594 C 180.191406 164.71875 180.046875 165.003906 179.878906 165.109375 C 179.714844 165.210938 179.585938 165.449219 179.585938 165.636719 C 179.585938 165.882812 179.496094 165.976562 179.269531 165.976562 C 179.082031 165.976562 178.921875 166.097656 178.875 166.273438 C 178.832031 166.4375 178.667969 166.613281 178.511719 166.664062 C 178.351562 166.710938 178.222656 166.886719 178.222656 167.046875 C 178.222656 167.230469 178.121094 167.339844 177.9375 167.339844 C 177.613281 167.339844 177.46875 167.621094 177.46875 168.257812 C 177.46875 168.636719 177.410156 168.699219 177.050781 168.703125 C 176.460938 168.703125 176.300781 168.851562 176.179688 169.492188 C 176.101562 169.910156 175.996094 170.0625 175.789062 170.0625 C 175.601562 170.0625 175.5 170.167969 175.5 170.363281 C 175.5 170.53125 175.4375 170.664062 175.359375 170.664062 C 175.078125 170.664062 174.746094 171.152344 174.746094 171.570312 C 174.746094 171.953125 174.679688 172.011719 174.152344 172.101562 C 173.601562 172.191406 173.550781 172.246094 173.457031 172.792969 C 173.382812 173.242188 173.285156 173.386719 173.066406 173.386719 C 172.859375 173.386719 172.777344 173.496094 172.777344 173.765625 C 172.777344 174.070312 172.703125 174.144531 172.402344 174.144531 C 172.125 174.144531 172.023438 174.226562 172.023438 174.445312 C 172.023438 174.648438 171.921875 174.75 171.71875 174.75 C 171.5 174.75 171.417969 174.851562 171.417969 175.128906 C 171.417969 175.429688 171.34375 175.503906 171.039062 175.503906 C 170.761719 175.503906 170.660156 175.585938 170.660156 175.808594 C 170.660156 176.007812 170.5625 176.109375 170.359375 176.109375 C 170.136719 176.109375 170.058594 176.210938 170.058594 176.488281 C 170.058594 176.804688 169.984375 176.867188 169.613281 176.867188 C 169.050781 176.867188 168.695312 177.21875 168.695312 177.785156 C 168.695312 178.15625 168.632812 178.226562 168.316406 178.226562 C 168.042969 178.226562 167.9375 178.308594 167.9375 178.519531 C 167.9375 178.75 167.816406 178.824219 167.371094 178.863281 C 166.957031 178.894531 166.765625 179 166.65625 179.25 C 166.574219 179.4375 166.386719 179.589844 166.238281 179.589844 C 166.078125 179.589844 165.972656 179.703125 165.972656 179.882812 C 165.972656 180.070312 165.851562 180.191406 165.632812 180.222656 C 165.414062 180.253906 165.273438 180.390625 165.246094 180.609375 C 165.203125 180.894531 165.101562 180.949219 164.613281 180.949219 C 164.171875 180.949219 164.003906 181.019531 163.9375 181.238281 C 163.886719 181.394531 163.710938 181.558594 163.546875 181.601562 C 163.371094 181.644531 163.25 181.808594 163.25 181.996094 C 163.25 182.214844 163.15625 182.3125 162.933594 182.3125 C 162.746094 182.3125 162.585938 182.433594 162.539062 182.613281 C 162.496094 182.78125 162.332031 182.917969 162.175781 182.917969 C 161.972656 182.917969 161.890625 183.023438 161.890625 183.292969 C 161.890625 183.640625 161.835938 183.671875 161.207031 183.671875 C 160.644531 183.671875 160.527344 183.722656 160.527344 183.957031 C 160.527344 184.171875 160.378906 184.261719 159.90625 184.339844 C 159.46875 184.410156 159.265625 184.523438 159.210938 184.734375 C 159.164062 184.90625 159.003906 185.035156 158.832031 185.035156 C 158.664062 185.035156 158.5 185.160156 158.457031 185.328125 C 158.402344 185.539062 158.222656 185.636719 157.828125 185.667969 C 157.425781 185.703125 157.234375 185.808594 157.128906 186.054688 C 157.046875 186.242188 156.859375 186.394531 156.710938 186.394531 C 156.546875 186.394531 156.445312 186.507812 156.445312 186.6875 C 156.445312 186.925781 156.320312 186.992188 155.800781 187.027344 C 155.269531 187.066406 155.152344 187.132812 155.109375 187.414062 C 155.070312 187.710938 154.972656 187.757812 154.390625 187.757812 C 153.828125 187.757812 153.722656 187.804688 153.722656 188.050781 C 153.722656 188.289062 153.597656 188.351562 153.078125 188.390625 C 152.546875 188.429688 152.429688 188.496094 152.386719 188.777344 C 152.347656 189.070312 152.25 189.117188 151.671875 189.117188 C 151.105469 189.117188 151 189.164062 151 189.410156 C 151 189.648438 150.875 189.714844 150.355469 189.75 C 149.824219 189.789062 149.707031 189.855469 149.664062 190.136719 C 149.625 190.4375 149.53125 190.480469 148.882812 190.480469 C 148.023438 190.480469 147.671875 190.589844 147.671875 190.855469 C 147.671875 190.96875 147.390625 191.089844 146.992188 191.152344 C 146.453125 191.230469 146.3125 191.316406 146.3125 191.546875 C 146.3125 191.792969 146.203125 191.839844 145.617188 191.839844 C 145.050781 191.839844 144.90625 191.894531 144.84375 192.140625 C 144.773438 192.402344 144.636719 192.445312 143.835938 192.445312 C 142.648438 192.449219 142.273438 192.554688 142.179688 192.914062 C 142.117188 193.15625 141.960938 193.199219 141.167969 193.199219 C 140.359375 193.199219 140.222656 193.242188 140.152344 193.503906 C 140.085938 193.757812 139.949219 193.804688 139.273438 193.804688 C 138.503906 193.804688 137.992188 194.050781 137.992188 194.421875 C 137.992188 194.5 137.421875 194.5625 136.726562 194.5625 C 135.585938 194.5625 135.449219 194.59375 135.378906 194.863281 C 135.304688 195.144531 135.171875 195.167969 133.660156 195.167969 C 131.75 195.171875 131.394531 195.242188 131.289062 195.636719 C 131.21875 195.902344 131.046875 195.921875 128.667969 195.925781 C 126.371094 195.929688 126.082031 195.960938 125.742188 196.226562 C 125.378906 196.507812 125.082031 196.523438 118.765625 196.523438 C 112.292969 196.527344 112.164062 196.523438 112.085938 196.226562 C 112.011719 195.945312 111.878906 195.921875 110.375 195.921875 C 108.898438 195.921875 108.710938 195.890625 108.386719 195.585938 C 108.0625 195.28125 107.847656 195.246094 105.996094 195.191406 C 104.125 195.136719 103.960938 195.109375 103.960938 194.847656 C 103.960938 194.597656 103.839844 194.5625 102.964844 194.5625 C 102.113281 194.5625 101.957031 194.519531 101.894531 194.277344 C 101.816406 193.976562 101.277344 193.804688 100.421875 193.804688 C 100.132812 193.804688 99.84375 193.6875 99.6875 193.503906 C 99.472656 193.25 99.242188 193.199219 98.292969 193.199219 C 97.277344 193.199219 97.15625 193.171875 97.15625 192.914062 C 97.15625 192.550781 96.871094 192.445312 95.921875 192.445312 C 95.289062 192.445312 95.148438 192.394531 95.082031 192.140625 C 95.015625 191.878906 94.875 191.839844 94.050781 191.839844 C 93.175781 191.839844 93.089844 191.8125 93.046875 191.5 C 93.003906 191.214844 92.890625 191.152344 92.355469 191.113281 C 91.835938 191.074219 91.710938 191.011719 91.710938 190.773438 C 91.710938 190.523438 91.605469 190.480469 91.03125 190.480469 C 90.457031 190.480469 90.351562 190.433594 90.351562 190.183594 C 90.351562 189.953125 90.207031 189.871094 89.683594 189.792969 C 89.207031 189.722656 88.996094 189.609375 88.941406 189.40625 C 88.882812 189.179688 88.726562 189.117188 88.246094 189.117188 C 87.742188 189.117188 87.628906 189.066406 87.628906 188.832031 C 87.628906 188.46875 87.34375 188.359375 86.40625 188.359375 C 85.761719 188.359375 85.660156 188.320312 85.660156 188.058594 C 85.660156 187.835938 85.5625 187.757812 85.285156 187.757812 C 85.011719 187.757812 84.90625 187.675781 84.90625 187.464844 C 84.90625 187.230469 84.761719 187.148438 84.226562 187.066406 C 83.695312 186.988281 83.542969 186.902344 83.542969 186.679688 C 83.542969 186.441406 83.429688 186.394531 82.863281 186.394531 C 82.238281 186.394531 82.183594 186.363281 82.183594 186.015625 C 82.183594 185.734375 82.105469 185.640625 81.867188 185.640625 C 81.675781 185.640625 81.519531 185.515625 81.472656 185.335938 C 81.410156 185.101562 81.265625 185.035156 80.816406 185.035156 C 80.332031 185.035156 80.230469 184.976562 80.191406 184.695312 C 80.160156 184.480469 80.019531 184.335938 79.816406 184.308594 C 79.636719 184.28125 79.457031 184.128906 79.414062 183.964844 C 79.355469 183.734375 79.203125 183.671875 78.71875 183.671875 C 78.191406 183.671875 78.101562 183.625 78.101562 183.355469 C 78.101562 183.167969 77.980469 183.007812 77.800781 182.960938 C 77.640625 182.917969 77.464844 182.753906 77.414062 182.597656 C 77.363281 182.441406 77.199219 182.3125 77.046875 182.3125 C 76.898438 182.3125 76.738281 182.175781 76.695312 182.011719 C 76.640625 181.800781 76.4375 181.6875 75.996094 181.617188 C 75.527344 181.539062 75.378906 181.449219 75.378906 181.234375 C 75.378906 181.0625 75.269531 180.949219 75.109375 180.949219 C 74.964844 180.949219 74.777344 180.796875 74.695312 180.609375 C 74.585938 180.363281 74.394531 180.257812 73.988281 180.222656 C 73.472656 180.179688 73.429688 180.136719 73.335938 179.59375 C 73.246094 179.050781 73.191406 179 72.644531 178.90625 C 72.195312 178.832031 72.050781 178.734375 72.050781 178.515625 C 72.050781 178.308594 71.941406 178.226562 71.671875 178.226562 C 71.390625 178.226562 71.292969 178.148438 71.292969 177.910156 C 71.292969 177.726562 71.171875 177.5625 71.003906 177.519531 C 70.847656 177.476562 70.683594 177.3125 70.640625 177.15625 C 70.597656 176.988281 70.433594 176.867188 70.25 176.867188 C 70.027344 176.867188 69.933594 176.769531 69.933594 176.550781 C 69.933594 176.367188 69.8125 176.203125 69.644531 176.15625 C 69.484375 176.117188 69.320312 175.953125 69.28125 175.792969 C 69.234375 175.625 69.070312 175.503906 68.886719 175.503906 C 68.675781 175.503906 68.570312 175.410156 68.570312 175.214844 C 68.570312 175.050781 68.441406 174.878906 68.285156 174.828125 C 68.128906 174.78125 67.964844 174.605469 67.921875 174.441406 C 67.875 174.265625 67.714844 174.144531 67.527344 174.144531 C 67.304688 174.144531 67.210938 174.046875 67.210938 173.828125 C 67.210938 173.644531 67.089844 173.480469 66.921875 173.433594 C 66.761719 173.394531 66.597656 173.230469 66.558594 173.070312 C 66.515625 172.902344 66.351562 172.78125 66.164062 172.78125 C 65.945312 172.78125 65.847656 172.6875 65.847656 172.464844 C 65.847656 172.277344 65.726562 172.117188 65.546875 172.070312 C 65.378906 172.027344 65.242188 171.863281 65.242188 171.707031 C 65.242188 171.503906 65.136719 171.421875 64.867188 171.421875 C 64.550781 171.421875 64.488281 171.351562 64.488281 170.988281 C 64.488281 170.738281 64.328125 170.386719 64.109375 170.152344 C 63.902344 169.925781 63.730469 169.6875 63.730469 169.617188 C 63.730469 169.546875 63.59375 169.457031 63.429688 169.410156 C 63.246094 169.363281 63.125 169.207031 63.125 169.015625 C 63.125 168.804688 63.03125 168.699219 62.835938 168.699219 C 62.648438 168.699219 62.523438 168.578125 62.496094 168.359375 C 62.464844 168.144531 62.324219 168 62.121094 167.972656 C 61.882812 167.9375 61.769531 167.785156 61.695312 167.398438 C 61.640625 167.105469 61.503906 166.832031 61.390625 166.789062 C 61.28125 166.746094 61.144531 166.546875 61.09375 166.34375 C 61.035156 166.109375 60.894531 165.976562 60.703125 165.976562 C 60.5 165.976562 60.402344 165.875 60.402344 165.660156 C 60.402344 165.472656 60.28125 165.3125 60.101562 165.265625 C 59.890625 165.210938 59.800781 165.058594 59.800781 164.761719 C 59.800781 164.347656 59.464844 163.859375 59.183594 163.859375 C 59.105469 163.859375 59.042969 163.722656 59.042969 163.558594 C 59.042969 163.363281 58.941406 163.253906 58.757812 163.253906 C 58.546875 163.253906 58.453125 163.105469 58.378906 162.632812 C 58.308594 162.195312 58.191406 161.992188 57.980469 161.9375 C 57.808594 161.890625 57.679688 161.730469 57.679688 161.558594 C 57.679688 161.386719 57.554688 161.226562 57.378906 161.179688 C 57.167969 161.125 57.078125 160.976562 57.078125 160.675781 C 57.078125 160.261719 56.742188 159.777344 56.460938 159.777344 C 56.382812 159.777344 56.320312 159.53125 56.320312 159.230469 C 56.320312 158.820312 56.25 158.671875 56.027344 158.613281 C 55.863281 158.570312 55.710938 158.390625 55.6875 158.210938 C 55.65625 158.007812 55.511719 157.867188 55.300781 157.835938 C 55.003906 157.796875 54.960938 157.699219 54.960938 157.117188 C 54.960938 156.554688 54.914062 156.449219 54.664062 156.449219 C 54.429688 156.449219 54.363281 156.324219 54.324219 155.804688 C 54.285156 155.269531 54.222656 155.15625 53.9375 155.113281 C 53.648438 155.074219 53.597656 154.972656 53.597656 154.457031 C 53.597656 153.976562 53.535156 153.832031 53.296875 153.769531 C 53.054688 153.707031 52.992188 153.5625 52.992188 153.054688 C 52.992188 152.570312 52.902344 152.332031 52.613281 152.0625 C 52.40625 151.867188 52.238281 151.550781 52.238281 151.355469 C 52.238281 151.105469 52.148438 151.003906 51.933594 151.003906 C 51.667969 151.003906 51.632812 150.902344 51.632812 150.183594 C 51.632812 149.398438 51.390625 148.886719 51.015625 148.886719 C 50.9375 148.886719 50.875 148.472656 50.875 147.964844 C 50.875 147.179688 50.832031 147.03125 50.582031 146.964844 C 50.359375 146.90625 50.273438 146.734375 50.242188 146.261719 C 50.203125 145.742188 50.136719 145.625 49.855469 145.585938 C 49.542969 145.542969 49.515625 145.457031 49.515625 144.574219 C 49.515625 143.753906 49.472656 143.597656 49.21875 143.519531 C 48.976562 143.441406 48.914062 143.261719 48.878906 142.488281 C 48.839844 141.660156 48.796875 141.546875 48.507812 141.503906 C 48.203125 141.460938 48.175781 141.359375 48.128906 139.941406 C 48.089844 138.753906 48.023438 138.386719 47.832031 138.246094 C 47.695312 138.144531 47.558594 137.929688 47.527344 137.765625 C 47.476562 137.511719 47.324219 137.460938 46.523438 137.421875 C 45.632812 137.378906 45.570312 137.398438 45.433594 137.761719 " fill-opacity="1" fill-rule="evenodd"/><g fill="#ffffff" fill-opacity="1"><g transform="translate(70.893917, 135.953229)"><g><path d="M 9.765625 0.546875 C 7.585938 0.546875 5.582031 0.140625 3.75 -0.671875 C 1.925781 -1.484375 0.429688 -2.640625 -0.734375 -4.140625 L 3.40625 -9.125 C 5.15625 -6.757812 7.15625 -5.578125 9.40625 -5.578125 C 12.445312 -5.578125 13.96875 -7.359375 13.96875 -10.921875 L 13.96875 -26.265625 L 2.625 -26.265625 L 2.625 -32.25 L 21.375 -32.25 L 21.375 -11.328125 C 21.375 -7.367188 20.390625 -4.398438 18.421875 -2.421875 C 16.460938 -0.441406 13.578125 0.546875 9.765625 0.546875 Z M 9.765625 0.546875 "/></g></g></g><g fill="#ffffff" fill-opacity="1"><g transform="translate(95.819602, 135.953229)"><g><path d="M 38.703125 3.453125 C 37.660156 4.742188 36.394531 5.726562 34.90625 6.40625 C 33.414062 7.082031 31.78125 7.421875 30 7.421875 C 27.601562 7.421875 25.4375 6.90625 23.5 5.875 C 21.5625 4.84375 19.347656 3.023438 16.859375 0.421875 C 13.941406 0.046875 11.335938 -0.890625 9.046875 -2.390625 C 6.765625 -3.898438 4.984375 -5.84375 3.703125 -8.21875 C 2.429688 -10.601562 1.796875 -13.238281 1.796875 -16.125 C 1.796875 -19.289062 2.554688 -22.140625 4.078125 -24.671875 C 5.597656 -27.203125 7.703125 -29.191406 10.390625 -30.640625 C 13.078125 -32.085938 16.09375 -32.8125 19.4375 -32.8125 C 22.789062 -32.8125 25.800781 -32.085938 28.46875 -30.640625 C 31.144531 -29.191406 33.25 -27.203125 34.78125 -24.671875 C 36.320312 -22.140625 37.09375 -19.289062 37.09375 -16.125 C 37.09375 -12.375 36.039062 -9.085938 33.9375 -6.265625 C 31.832031 -3.441406 29.046875 -1.476562 25.578125 -0.375 C 26.335938 0.425781 27.078125 1.003906 27.796875 1.359375 C 28.523438 1.710938 29.304688 1.890625 30.140625 1.890625 C 32.128906 1.890625 33.878906 1.09375 35.390625 -0.5 Z M 9.359375 -16.125 C 9.359375 -14.125 9.796875 -12.34375 10.671875 -10.78125 C 11.546875 -9.21875 12.75 -8 14.28125 -7.125 C 15.820312 -6.25 17.539062 -5.8125 19.4375 -5.8125 C 21.34375 -5.8125 23.0625 -6.25 24.59375 -7.125 C 26.132812 -8 27.34375 -9.21875 28.21875 -10.78125 C 29.09375 -12.34375 29.53125 -14.125 29.53125 -16.125 C 29.53125 -18.125 29.09375 -19.90625 28.21875 -21.46875 C 27.34375 -23.039062 26.132812 -24.265625 24.59375 -25.140625 C 23.0625 -26.015625 21.34375 -26.453125 19.4375 -26.453125 C 17.539062 -26.453125 15.820312 -26.015625 14.28125 -25.140625 C 12.75 -24.265625 11.546875 -23.039062 10.671875 -21.46875 C 9.796875 -19.90625 9.359375 -18.125 9.359375 -16.125 Z M 9.359375 -16.125 "/></g></g></g><g fill="#ffffff" fill-opacity="1"><g transform="translate(134.70551, 135.953229)"><g><path d="M 34.828125 -32.25 L 20.875 0 L 13.5 0 L -0.421875 -32.25 L 7.65625 -32.25 L 17.46875 -9.21875 L 27.421875 -32.25 Z M 34.828125 -32.25 "/></g></g></g></svg>