<svg width="713" height="766" viewBox="0 0 713 766" fill="none" xmlns="http://www.w3.org/2000/svg">
<rect width="713" height="766" rx="356.5" fill="black"/>
<path d="M554 315L497 451H466.872L410 315H443L483.085 412.124L523.745 315H554Z" fill="white"/>
<path d="M412.213 485H369.787L334 449.213L355.213 428L412.213 485Z" fill="white"/>
<path d="M328.023 450.166C316.202 448.641 305.646 444.828 296.372 438.727C287.13 432.595 279.914 424.683 274.723 415.024C269.564 405.333 267 394.609 267 382.869C267 370.001 270.07 358.403 276.242 348.108C282.398 337.814 290.928 329.727 301.816 323.833C312.704 317.955 324.922 315 338.468 315C352.047 315 364.248 317.955 375.057 323.833C385.898 329.727 394.428 337.814 400.631 348.108C406.867 358.403 410 370.001 410 382.869C410 398.12 405.727 411.497 397.213 422.968C388.683 434.454 377.399 442.445 363.346 446.925C349.293 451.405 339.845 451.691 328.023 450.166ZM297.638 382.869C297.638 391.003 299.411 398.248 302.956 404.602C306.501 410.957 311.375 415.914 317.579 419.472C323.814 423.031 330.777 424.81 338.468 424.81C346.191 424.81 353.154 423.031 359.358 419.472C365.593 415.914 370.499 410.957 374.044 404.602C377.589 398.248 379.362 391.003 379.362 382.869C379.362 374.735 377.589 367.49 374.044 361.136C370.499 354.749 365.593 349.761 359.358 346.202C353.154 342.643 346.191 340.864 338.468 340.864C330.777 340.864 323.814 342.643 317.579 346.202C311.375 349.761 306.501 354.749 302.956 361.136C299.411 367.49 297.638 374.735 297.638 382.869Z" fill="white"/>
<path d="M199.742 451C190.869 451 182.712 449.315 175.254 445.946C167.829 442.577 161.739 437.782 157 431.562L173.855 410.893C180.979 420.709 189.12 425.601 198.279 425.601C210.65 425.601 216.852 418.215 216.852 403.442V339.816V315H247V401.758C247 418.182 242.993 430.493 234.979 438.689C226.996 446.902 215.261 451 199.742 451Z" fill="white"/>
<path d="M658.022 451C634.358 596.738 507.923 708 355.5 708C203.077 708 76.6417 596.738 52.9775 451H67.3438C91.2696 588.476 211.178 693 355.5 693C499.822 693 619.73 588.476 643.656 451H658.022ZM355.5 58C507.923 58 634.358 169.262 658.022 315H643.656C619.73 177.524 499.822 73 355.5 73C211.178 73 91.2696 177.524 67.3438 315H52.9775C76.6418 169.262 203.077 58 355.5 58Z" fill="white"/>
<path d="M257.718 549V517.64H264.976V549H257.718ZM272.418 549V517.64H278.422L291.772 539.771H288.591L301.718 517.64H307.676L307.766 549H300.956L300.911 528.078H302.166L291.682 545.685H288.412L277.705 528.078H279.228V549H272.418ZM315.206 549V517.64H330.527C334.47 517.64 337.427 518.387 339.398 519.88C341.399 521.373 342.4 523.345 342.4 525.794C342.4 527.436 341.996 528.87 341.19 530.094C340.384 531.289 339.278 532.215 337.875 532.872C336.471 533.529 334.858 533.858 333.036 533.858L333.887 532.021C335.859 532.021 337.606 532.349 339.129 533.006C340.652 533.634 341.832 534.574 342.668 535.829C343.534 537.083 343.967 538.621 343.967 540.443C343.967 543.131 342.907 545.237 340.787 546.76C338.666 548.253 335.545 549 331.423 549H315.206ZM322.419 543.534H330.886C332.767 543.534 334.186 543.236 335.142 542.638C336.128 542.011 336.62 541.026 336.62 539.682C336.62 538.367 336.128 537.397 335.142 536.77C334.186 536.113 332.767 535.784 330.886 535.784H321.881V530.498H329.632C331.394 530.498 332.738 530.199 333.664 529.602C334.619 528.974 335.097 528.034 335.097 526.779C335.097 525.555 334.619 524.644 333.664 524.046C332.738 523.419 331.394 523.106 329.632 523.106H322.419V543.534ZM345.341 549L359.318 517.64H366.486L380.509 549H372.893L361.424 521.314H364.291L352.777 549H345.341ZM352.329 542.28L354.256 536.77H370.384L372.355 542.28H352.329ZM383.762 549V517.64H397.337C400.144 517.64 402.563 518.103 404.594 519.029C406.625 519.925 408.193 521.224 409.298 522.926C410.403 524.629 410.956 526.66 410.956 529.019C410.956 531.349 410.403 533.365 409.298 535.067C408.193 536.74 406.625 538.024 404.594 538.92C402.563 539.816 400.144 540.264 397.337 540.264H387.794L391.02 537.083V549H383.762ZM403.698 549L395.858 537.621H403.609L411.538 549H403.698ZM391.02 537.89L387.794 534.485H396.933C399.173 534.485 400.846 534.007 401.951 533.051C403.056 532.066 403.609 530.722 403.609 529.019C403.609 527.287 403.056 525.943 401.951 524.987C400.846 524.031 399.173 523.554 396.933 523.554H387.794L391.02 520.104V537.89ZM416.706 549V517.64H423.963V549H416.706ZM438.081 530.274H453.179V535.918H438.081V530.274ZM438.619 543.176H455.687V549H431.406V517.64H455.105V523.464H438.619V543.176ZM434.273 515.086L440.187 508.635H446.369L452.283 515.086H447.176L440.993 509.71H445.563L439.38 515.086H434.273Z" fill="white"/>
</svg>
