<svg xmlns="http://www.w3.org/2000/svg" xmlns:xlink="http://www.w3.org/1999/xlink" width="320" zoomAndPan="magnify" viewBox="0 0 240 239.999995" height="320" preserveAspectRatio="xMidYMid meet" version="1.0"><defs><g/><clipPath id="b31cda6bee"><path d="M 23.921875 23.921875 L 216.078125 23.921875 L 216.078125 216.078125 L 23.921875 216.078125 Z M 23.921875 23.921875 " clip-rule="nonzero"/></clipPath><clipPath id="c552b8bf0f"><path d="M 120 23.921875 C 66.9375 23.921875 23.921875 66.9375 23.921875 120 C 23.921875 173.0625 66.9375 216.078125 120 216.078125 C 173.0625 216.078125 216.078125 173.0625 216.078125 120 C 216.078125 66.9375 173.0625 23.921875 120 23.921875 Z M 120 23.921875 " clip-rule="nonzero"/></clipPath></defs><g clip-path="url(#b31cda6bee)"><g clip-path="url(#c552b8bf0f)"><path fill="#000000" d="M 23.921875 23.921875 L 216.078125 23.921875 L 216.078125 216.078125 L 23.921875 216.078125 Z M 23.921875 23.921875 " fill-opacity="1" fill-rule="nonzero"/></g></g><path fill="#ffffff" d="M 119.199219 40.441406 C 119.019531 40.730469 118.847656 40.746094 115.027344 40.746094 C 111.167969 40.746094 111.039062 40.753906 110.960938 41.046875 C 110.886719 41.332031 110.753906 41.347656 108.820312 41.351562 C 106.460938 41.355469 106.078125 41.417969 106.078125 41.820312 C 106.078125 42.082031 105.941406 42.105469 104.433594 42.105469 C 102.914062 42.105469 102.78125 42.128906 102.707031 42.40625 C 102.636719 42.675781 102.5 42.710938 101.488281 42.710938 C 100.386719 42.710938 99.875 42.90625 99.875 43.328125 C 99.875 43.402344 99.433594 43.46875 98.894531 43.46875 C 98.019531 43.46875 97.910156 43.5 97.910156 43.761719 C 97.910156 44.019531 97.785156 44.0625 96.964844 44.101562 C 96.152344 44.140625 96 44.195312 95.871094 44.488281 C 95.738281 44.789062 95.613281 44.828125 94.773438 44.828125 C 93.929688 44.828125 93.828125 44.859375 93.828125 45.128906 C 93.828125 45.394531 93.726562 45.433594 93.007812 45.433594 C 92.21875 45.433594 91.710938 45.675781 91.710938 46.046875 C 91.710938 46.125 91.429688 46.1875 91.089844 46.1875 C 90.605469 46.1875 90.453125 46.253906 90.394531 46.484375 C 90.335938 46.707031 90.160156 46.789062 89.691406 46.824219 C 89.171875 46.863281 89.054688 46.929688 89.015625 47.210938 C 88.96875 47.519531 88.886719 47.550781 88.054688 47.550781 C 87.28125 47.550781 87.132812 47.59375 87.066406 47.84375 C 87.007812 48.066406 86.835938 48.152344 86.363281 48.183594 C 85.84375 48.222656 85.726562 48.289062 85.6875 48.570312 C 85.644531 48.859375 85.546875 48.910156 85.03125 48.910156 C 84.5625 48.910156 84.40625 48.976562 84.347656 49.195312 C 84.296875 49.394531 84.082031 49.511719 83.664062 49.578125 C 83.238281 49.648438 83.035156 49.765625 82.980469 49.972656 C 82.929688 50.167969 82.773438 50.273438 82.542969 50.273438 C 82.285156 50.273438 82.179688 50.359375 82.179688 50.566406 C 82.179688 50.804688 82.058594 50.871094 81.539062 50.90625 C 81.003906 50.945312 80.886719 51.011719 80.847656 51.292969 C 80.808594 51.574219 80.703125 51.632812 80.265625 51.632812 C 79.867188 51.632812 79.714844 51.707031 79.65625 51.929688 C 79.613281 52.089844 79.433594 52.242188 79.253906 52.269531 C 79.050781 52.296875 78.910156 52.441406 78.882812 52.65625 C 78.839844 52.949219 78.742188 52.996094 78.164062 52.996094 C 77.601562 52.996094 77.492188 53.042969 77.492188 53.285156 C 77.492188 53.476562 77.371094 53.597656 77.152344 53.628906 C 76.933594 53.660156 76.796875 53.796875 76.765625 54.015625 C 76.734375 54.234375 76.609375 54.355469 76.421875 54.355469 C 76.234375 54.355469 76.132812 54.460938 76.132812 54.648438 C 76.132812 54.886719 76.007812 54.953125 75.488281 54.992188 C 74.953125 55.027344 74.839844 55.09375 74.796875 55.378906 C 74.765625 55.601562 74.644531 55.71875 74.441406 55.71875 C 74.269531 55.71875 74.105469 55.84375 74.0625 56.007812 C 74.007812 56.210938 73.796875 56.332031 73.394531 56.402344 C 72.949219 56.476562 72.804688 56.570312 72.804688 56.789062 C 72.804688 56.996094 72.699219 57.078125 72.425781 57.078125 C 72.152344 57.078125 72.046875 57.160156 72.046875 57.371094 C 72.046875 57.558594 71.925781 57.679688 71.707031 57.710938 C 71.488281 57.742188 71.351562 57.878906 71.320312 58.097656 C 71.289062 58.316406 71.167969 58.441406 70.980469 58.441406 C 70.792969 58.441406 70.6875 58.542969 70.6875 58.730469 C 70.6875 58.917969 70.566406 59.042969 70.347656 59.070312 C 70.132812 59.101562 69.988281 59.242188 69.960938 59.453125 C 69.921875 59.714844 69.796875 59.792969 69.355469 59.832031 C 68.835938 59.875 68.785156 59.917969 68.65625 60.507812 C 68.53125 61.066406 68.457031 61.148438 68.003906 61.234375 C 67.726562 61.285156 67.460938 61.421875 67.417969 61.535156 C 67.375 61.648438 67.171875 61.78125 66.96875 61.832031 C 66.746094 61.886719 66.601562 62.035156 66.601562 62.207031 C 66.601562 62.359375 66.46875 62.523438 66.300781 62.566406 C 66.132812 62.609375 66 62.75 66 62.875 C 66 63.003906 65.84375 63.128906 65.65625 63.15625 C 65.4375 63.1875 65.300781 63.324219 65.269531 63.542969 C 65.238281 63.761719 65.117188 63.882812 64.933594 63.882812 C 64.753906 63.882812 64.609375 64.023438 64.550781 64.25 C 64.5 64.449219 64.335938 64.644531 64.179688 64.683594 C 63.996094 64.734375 63.886719 64.925781 63.855469 65.253906 C 63.8125 65.6875 63.730469 65.769531 63.199219 65.917969 C 62.648438 66.070312 62.589844 66.136719 62.550781 66.640625 C 62.511719 67.078125 62.433594 67.203125 62.171875 67.242188 C 61.960938 67.269531 61.820312 67.414062 61.789062 67.628906 C 61.761719 67.847656 61.636719 67.96875 61.449219 67.96875 C 61.273438 67.96875 61.160156 68.070312 61.160156 68.234375 C 61.160156 68.382812 61.003906 68.570312 60.820312 68.652344 C 60.566406 68.761719 60.464844 68.949219 60.429688 69.367188 C 60.394531 69.8125 60.320312 69.933594 60.089844 69.933594 C 59.878906 69.933594 59.796875 70.039062 59.796875 70.3125 C 59.796875 70.613281 59.722656 70.691406 59.417969 70.691406 C 59.148438 70.691406 59.042969 70.773438 59.042969 70.976562 C 59.042969 71.132812 58.90625 71.296875 58.738281 71.339844 C 58.5 71.402344 58.4375 71.546875 58.4375 72.027344 C 58.4375 72.542969 58.382812 72.644531 58.097656 72.683594 C 57.878906 72.714844 57.738281 72.855469 57.707031 73.074219 C 57.675781 73.292969 57.554688 73.414062 57.367188 73.414062 C 57.1875 73.414062 57.074219 73.515625 57.074219 73.679688 C 57.074219 73.824219 56.921875 74.011719 56.734375 74.09375 C 56.488281 74.203125 56.382812 74.394531 56.347656 74.796875 C 56.316406 75.191406 56.21875 75.371094 56.007812 75.425781 C 55.835938 75.46875 55.714844 75.632812 55.714844 75.820312 C 55.714844 76.027344 55.617188 76.136719 55.429688 76.136719 C 55.140625 76.136719 54.964844 76.515625 54.960938 77.15625 C 54.957031 77.394531 54.867188 77.496094 54.65625 77.496094 C 54.46875 77.496094 54.351562 77.597656 54.351562 77.761719 C 54.351562 77.910156 54.199219 78.097656 54.011719 78.179688 C 53.765625 78.289062 53.660156 78.480469 53.625 78.878906 C 53.59375 79.277344 53.496094 79.453125 53.285156 79.507812 C 53.054688 79.570312 52.992188 79.71875 52.992188 80.195312 C 52.992188 80.710938 52.941406 80.808594 52.652344 80.851562 C 52.390625 80.886719 52.300781 81.015625 52.261719 81.394531 C 52.234375 81.683594 52.09375 81.96875 51.921875 82.074219 C 51.730469 82.195312 51.628906 82.425781 51.628906 82.746094 C 51.628906 83.101562 51.527344 83.304688 51.253906 83.484375 C 50.960938 83.675781 50.875 83.859375 50.875 84.300781 C 50.875 84.746094 50.808594 84.890625 50.570312 84.949219 C 50.332031 85.011719 50.269531 85.15625 50.269531 85.640625 C 50.269531 86.15625 50.21875 86.253906 49.929688 86.296875 C 49.621094 86.339844 49.585938 86.4375 49.542969 87.363281 C 49.503906 88.261719 49.464844 88.386719 49.203125 88.386719 C 48.953125 88.386719 48.90625 88.492188 48.90625 89.054688 C 48.90625 89.636719 48.863281 89.734375 48.566406 89.773438 C 48.285156 89.816406 48.21875 89.929688 48.179688 90.464844 C 48.144531 90.984375 48.078125 91.109375 47.839844 91.109375 C 47.582031 91.109375 47.546875 91.21875 47.546875 92.082031 C 47.546875 92.972656 47.519531 93.058594 47.207031 93.101562 C 46.898438 93.144531 46.863281 93.242188 46.820312 94.15625 C 46.785156 95.003906 46.730469 95.171875 46.480469 95.238281 C 46.226562 95.304688 46.1875 95.449219 46.1875 96.3125 C 46.1875 97.105469 46.136719 97.308594 45.953125 97.308594 C 45.664062 97.308594 45.429688 97.914062 45.429688 98.664062 C 45.429688 99.113281 45.363281 99.257812 45.128906 99.320312 C 44.847656 99.390625 44.824219 99.527344 44.824219 101 L 44.824219 102.601562 L 46.1875 102.601562 C 47.464844 102.601562 47.546875 102.582031 47.546875 102.285156 C 47.546875 102.097656 47.667969 101.9375 47.847656 101.890625 C 48.128906 101.816406 48.152344 101.683594 48.152344 100.175781 C 48.152344 98.59375 48.164062 98.539062 48.492188 98.492188 C 48.796875 98.449219 48.835938 98.347656 48.878906 97.507812 C 48.914062 96.730469 48.972656 96.550781 49.21875 96.476562 C 49.46875 96.394531 49.511719 96.242188 49.511719 95.410156 C 49.511719 94.554688 49.546875 94.433594 49.800781 94.433594 C 50.121094 94.433594 50.269531 94.15625 50.269531 93.550781 C 50.269531 93.3125 50.390625 93.070312 50.570312 92.957031 C 50.832031 92.792969 50.875 92.605469 50.875 91.5625 C 50.875 90.371094 50.878906 90.351562 51.253906 90.351562 C 51.597656 90.351562 51.628906 90.296875 51.628906 89.671875 C 51.628906 89.089844 51.675781 88.992188 51.933594 88.992188 C 52.191406 88.992188 52.234375 88.890625 52.234375 88.320312 C 52.234375 87.742188 52.28125 87.644531 52.574219 87.601562 C 52.851562 87.5625 52.925781 87.441406 52.964844 86.957031 C 52.996094 86.578125 53.121094 86.28125 53.304688 86.152344 C 53.496094 86.019531 53.597656 85.769531 53.597656 85.4375 C 53.597656 85.023438 53.660156 84.917969 53.9375 84.878906 C 54.21875 84.839844 54.285156 84.722656 54.324219 84.1875 C 54.359375 83.667969 54.425781 83.546875 54.664062 83.546875 C 54.910156 83.546875 54.957031 83.4375 54.957031 82.875 C 54.957031 82.296875 55.003906 82.199219 55.296875 82.15625 C 55.582031 82.117188 55.644531 82 55.683594 81.464844 C 55.722656 80.945312 55.789062 80.824219 56.023438 80.824219 C 56.21875 80.824219 56.320312 80.71875 56.320312 80.519531 C 56.320312 80.355469 56.382812 80.21875 56.460938 80.21875 C 56.742188 80.21875 57.074219 79.730469 57.074219 79.316406 C 57.074219 79.019531 57.164062 78.871094 57.378906 78.8125 C 57.558594 78.765625 57.679688 78.605469 57.679688 78.417969 C 57.679688 78.234375 57.777344 78.101562 57.910156 78.101562 C 58.203125 78.101562 58.4375 77.496094 58.4375 76.730469 C 58.4375 76.234375 58.488281 76.136719 58.738281 76.136719 C 58.960938 76.136719 59.042969 76.035156 59.042969 75.757812 C 59.042969 75.453125 59.117188 75.378906 59.417969 75.378906 C 59.703125 75.378906 59.796875 75.300781 59.796875 75.0625 C 59.796875 74.871094 59.917969 74.714844 60.101562 74.667969 C 60.265625 74.625 60.402344 74.46875 60.402344 74.320312 C 60.402344 74.171875 60.535156 74.019531 60.699219 73.976562 C 60.914062 73.917969 61.027344 73.71875 61.097656 73.277344 C 61.171875 72.808594 61.265625 72.65625 61.480469 72.65625 C 61.660156 72.65625 61.761719 72.550781 61.761719 72.363281 C 61.761719 72.175781 61.886719 72.054688 62.105469 72.023438 C 62.324219 71.992188 62.460938 71.855469 62.492188 71.636719 C 62.519531 71.449219 62.644531 71.296875 62.769531 71.296875 C 62.898438 71.296875 63.035156 71.164062 63.078125 71.007812 C 63.117188 70.847656 63.28125 70.683594 63.441406 70.644531 C 63.597656 70.601562 63.773438 70.441406 63.832031 70.289062 C 63.890625 70.136719 64.058594 69.921875 64.210938 69.8125 C 64.386719 69.6875 64.484375 69.421875 64.484375 69.09375 C 64.484375 68.640625 64.535156 68.574219 64.863281 68.574219 C 65.132812 68.574219 65.242188 68.492188 65.242188 68.289062 C 65.242188 68.128906 65.378906 67.96875 65.542969 67.925781 C 65.726562 67.875 65.847656 67.71875 65.847656 67.527344 C 65.847656 67.308594 65.941406 67.210938 66.164062 67.210938 C 66.347656 67.210938 66.511719 67.089844 66.554688 66.921875 C 66.597656 66.765625 66.761719 66.601562 66.917969 66.558594 C 67.085938 66.515625 67.207031 66.351562 67.207031 66.167969 C 67.207031 65.945312 67.304688 65.851562 67.523438 65.851562 C 67.710938 65.851562 67.875 65.730469 67.917969 65.554688 C 67.960938 65.390625 68.125 65.214844 68.285156 65.164062 C 68.441406 65.113281 68.570312 64.941406 68.570312 64.78125 C 68.570312 64.585938 68.675781 64.488281 68.886719 64.488281 C 69.070312 64.488281 69.234375 64.367188 69.277344 64.199219 C 69.320312 64.042969 69.484375 63.878906 69.640625 63.835938 C 69.808594 63.792969 69.929688 63.628906 69.929688 63.445312 C 69.929688 63.222656 70.027344 63.128906 70.246094 63.128906 C 70.4375 63.128906 70.597656 63.007812 70.644531 62.824219 C 70.6875 62.660156 70.847656 62.523438 71.007812 62.523438 C 71.210938 62.523438 71.292969 62.414062 71.292969 62.144531 C 71.292969 61.863281 71.371094 61.765625 71.609375 61.765625 C 71.796875 61.765625 71.957031 61.644531 72.003906 61.464844 C 72.046875 61.296875 72.210938 61.164062 72.367188 61.164062 C 72.570312 61.164062 72.652344 61.054688 72.652344 60.785156 C 72.652344 60.480469 72.730469 60.40625 73.03125 60.40625 C 73.300781 60.40625 73.410156 60.324219 73.410156 60.121094 C 73.410156 59.964844 73.542969 59.800781 73.710938 59.757812 C 73.894531 59.710938 74.015625 59.550781 74.015625 59.363281 C 74.015625 59.085938 74.105469 59.042969 74.695312 59.042969 C 75.265625 59.042969 75.375 59 75.375 58.753906 C 75.375 58.566406 75.496094 58.445312 75.714844 58.414062 C 75.933594 58.382812 76.074219 58.242188 76.105469 58.023438 C 76.136719 57.804688 76.257812 57.683594 76.445312 57.683594 C 76.636719 57.683594 76.738281 57.578125 76.738281 57.382812 C 76.738281 57.148438 76.835938 57.078125 77.179688 57.078125 C 77.816406 57.078125 78.097656 56.933594 78.097656 56.609375 C 78.097656 56.402344 78.207031 56.324219 78.476562 56.324219 C 78.75 56.324219 78.855469 56.242188 78.855469 56.027344 C 78.855469 55.800781 78.976562 55.726562 79.421875 55.6875 C 79.839844 55.652344 80.027344 55.550781 80.136719 55.300781 C 80.21875 55.113281 80.40625 54.960938 80.554688 54.960938 C 80.714844 54.960938 80.820312 54.847656 80.820312 54.667969 C 80.820312 54.429688 80.941406 54.363281 81.464844 54.328125 C 81.996094 54.289062 82.113281 54.222656 82.152344 53.941406 C 82.195312 53.644531 82.292969 53.601562 82.871094 53.601562 C 83.441406 53.601562 83.542969 53.554688 83.542969 53.296875 C 83.542969 53.085938 83.644531 52.996094 83.882812 52.992188 C 84.523438 52.988281 84.902344 52.8125 84.902344 52.523438 C 84.902344 52.320312 85.011719 52.238281 85.28125 52.238281 C 85.554688 52.238281 85.660156 52.15625 85.660156 51.945312 C 85.660156 51.707031 85.78125 51.640625 86.300781 51.605469 C 86.835938 51.566406 86.953125 51.5 86.992188 51.21875 C 87.035156 50.929688 87.132812 50.878906 87.652344 50.878906 C 88.125 50.878906 88.277344 50.8125 88.335938 50.582031 C 88.394531 50.363281 88.570312 50.277344 89.039062 50.242188 C 89.558594 50.203125 89.675781 50.136719 89.714844 49.855469 C 89.757812 49.5625 89.855469 49.515625 90.433594 49.515625 C 91.003906 49.515625 91.105469 49.472656 91.105469 49.214844 C 91.105469 48.96875 91.207031 48.910156 91.625 48.910156 C 92.320312 48.910156 92.917969 48.667969 92.917969 48.386719 C 92.917969 48.210938 93.097656 48.15625 93.675781 48.15625 C 94.332031 48.15625 94.433594 48.113281 94.433594 47.851562 C 94.433594 47.589844 94.53125 47.550781 95.246094 47.550781 C 96.433594 47.550781 97.03125 47.398438 97.117188 47.074219 C 97.171875 46.855469 97.335938 46.792969 97.851562 46.792969 C 98.414062 46.792969 98.515625 46.75 98.515625 46.492188 C 98.515625 46.226562 98.617188 46.1875 99.328125 46.1875 C 100.503906 46.1875 101.0625 46.046875 101.167969 45.71875 C 101.246094 45.46875 101.417969 45.433594 102.449219 45.433594 C 103.460938 45.433594 103.671875 45.386719 103.847656 45.136719 C 104.027344 44.878906 104.265625 44.832031 105.632812 44.796875 C 107.105469 44.753906 107.222656 44.730469 107.359375 44.414062 C 107.503906 44.089844 107.59375 44.070312 109.136719 44.070312 C 110.664062 44.070312 110.765625 44.054688 110.765625 43.769531 C 110.765625 43.527344 110.867188 43.46875 111.265625 43.46875 C 111.539062 43.46875 111.847656 43.546875 111.945312 43.648438 C 112.085938 43.789062 112.167969 43.789062 112.308594 43.648438 C 112.445312 43.511719 114.460938 43.46875 120.457031 43.46875 C 128.300781 43.46875 128.425781 43.472656 128.503906 43.769531 C 128.578125 44.046875 128.710938 44.070312 130.253906 44.070312 C 131.75 44.070312 131.929688 44.101562 132.011719 44.355469 C 132.121094 44.707031 132.679688 44.828125 134.210938 44.828125 C 135.257812 44.828125 135.390625 44.859375 135.460938 45.128906 C 135.535156 45.410156 135.667969 45.433594 137.132812 45.433594 C 138.667969 45.433594 138.726562 45.445312 138.773438 45.773438 C 138.8125 46.050781 138.933594 46.121094 139.421875 46.164062 C 139.796875 46.191406 140.09375 46.316406 140.222656 46.503906 C 140.394531 46.75 140.613281 46.792969 141.617188 46.792969 C 142.738281 46.792969 142.8125 46.8125 142.855469 47.132812 C 142.902344 47.441406 143 47.480469 143.910156 47.519531 C 144.757812 47.554688 144.925781 47.609375 144.992188 47.859375 C 145.058594 48.113281 145.203125 48.15625 145.980469 48.15625 C 146.8125 48.15625 146.894531 48.1875 146.941406 48.496094 C 146.980469 48.777344 147.097656 48.84375 147.632812 48.882812 C 148.152344 48.921875 148.273438 48.984375 148.273438 49.222656 C 148.273438 49.484375 148.382812 49.515625 149.246094 49.515625 C 150.140625 49.515625 150.222656 49.542969 150.269531 49.855469 C 150.296875 50.070312 150.4375 50.214844 150.640625 50.242188 C 150.820312 50.269531 151 50.421875 151.042969 50.582031 C 151.101562 50.8125 151.253906 50.878906 151.722656 50.878906 C 152.191406 50.878906 152.339844 50.941406 152.402344 51.175781 C 152.457031 51.386719 152.660156 51.503906 153.097656 51.574219 C 153.570312 51.648438 153.71875 51.742188 153.71875 51.957031 C 153.71875 52.152344 153.828125 52.238281 154.078125 52.238281 C 154.3125 52.238281 154.46875 52.34375 154.519531 52.539062 C 154.574219 52.746094 154.773438 52.863281 155.203125 52.933594 C 155.621094 53 155.832031 53.117188 155.886719 53.316406 C 155.941406 53.53125 156.097656 53.601562 156.550781 53.601562 C 156.988281 53.601562 157.238281 53.699219 157.5 53.976562 C 157.695312 54.1875 157.972656 54.355469 158.113281 54.355469 C 158.257812 54.355469 158.40625 54.492188 158.453125 54.660156 C 158.507812 54.878906 158.65625 54.960938 158.996094 54.960938 C 159.324219 54.960938 159.53125 55.070312 159.707031 55.339844 C 159.84375 55.546875 160.082031 55.71875 160.238281 55.71875 C 160.425781 55.71875 160.523438 55.824219 160.523438 56.019531 C 160.523438 56.277344 160.625 56.324219 161.195312 56.324219 L 161.867188 56.324219 L 161.914062 56.964844 C 161.960938 57.601562 161.964844 57.609375 162.59375 57.652344 C 163.113281 57.691406 163.238281 57.757812 163.277344 58.03125 C 163.316406 58.304688 163.4375 58.371094 163.964844 58.410156 C 164.484375 58.449219 164.609375 58.511719 164.609375 58.75 C 164.609375 58.941406 164.710938 59.042969 164.898438 59.042969 C 165.089844 59.042969 165.210938 59.167969 165.242188 59.386719 C 165.277344 59.644531 165.402344 59.738281 165.777344 59.773438 C 166.289062 59.820312 166.726562 60.265625 166.726562 60.730469 C 166.726562 60.894531 166.894531 61.023438 167.1875 61.089844 C 167.441406 61.144531 167.730469 61.320312 167.828125 61.476562 C 167.925781 61.636719 168.164062 61.765625 168.351562 61.765625 C 168.613281 61.765625 168.691406 61.855469 168.691406 62.144531 C 168.691406 62.421875 168.773438 62.523438 168.996094 62.523438 C 169.195312 62.523438 169.296875 62.625 169.296875 62.824219 C 169.296875 63.046875 169.398438 63.128906 169.675781 63.128906 C 169.976562 63.128906 170.054688 63.203125 170.054688 63.507812 C 170.054688 63.785156 170.132812 63.882812 170.355469 63.882812 C 170.558594 63.882812 170.65625 63.984375 170.65625 64.1875 C 170.65625 64.410156 170.757812 64.488281 171.035156 64.488281 C 171.339844 64.488281 171.414062 64.566406 171.414062 64.867188 C 171.414062 65.144531 171.496094 65.246094 171.71875 65.246094 C 171.917969 65.246094 172.019531 65.347656 172.019531 65.546875 C 172.019531 65.769531 172.121094 65.851562 172.398438 65.851562 C 172.699219 65.851562 172.777344 65.925781 172.777344 66.230469 C 172.777344 66.507812 172.855469 66.605469 173.078125 66.605469 C 173.28125 66.605469 173.378906 66.707031 173.378906 66.910156 C 173.378906 67.132812 173.480469 67.210938 173.757812 67.210938 C 174.0625 67.210938 174.136719 67.289062 174.136719 67.589844 C 174.136719 67.859375 174.21875 67.96875 174.421875 67.96875 C 174.632812 67.96875 174.734375 68.117188 174.808594 68.515625 C 174.878906 68.875 175.011719 69.085938 175.207031 69.136719 C 175.371094 69.179688 175.496094 69.34375 175.496094 69.511719 C 175.496094 69.679688 175.625 69.84375 175.785156 69.886719 C 175.945312 69.929688 176.109375 70.097656 176.152344 70.261719 C 176.195312 70.425781 176.367188 70.597656 176.527344 70.640625 C 176.710938 70.6875 176.863281 70.894531 176.917969 71.183594 C 176.972656 71.441406 177.269531 71.886719 177.589844 72.1875 C 177.910156 72.488281 178.210938 72.851562 178.265625 72.996094 C 178.320312 73.140625 178.460938 73.261719 178.582031 73.261719 C 178.703125 73.261719 178.824219 73.414062 178.851562 73.601562 C 178.882812 73.820312 179.023438 73.960938 179.242188 73.992188 C 179.488281 74.027344 179.582031 74.140625 179.582031 74.40625 C 179.582031 74.667969 179.664062 74.773438 179.875 74.773438 C 180.105469 74.773438 180.179688 74.898438 180.214844 75.339844 C 180.25 75.757812 180.351562 75.949219 180.601562 76.058594 C 180.789062 76.140625 180.941406 76.328125 180.941406 76.472656 C 180.941406 76.636719 181.058594 76.738281 181.238281 76.738281 C 181.472656 76.738281 181.539062 76.863281 181.578125 77.382812 C 181.617188 77.917969 181.679688 78.035156 181.964844 78.074219 C 182.210938 78.109375 182.304688 78.222656 182.304688 78.488281 C 182.304688 78.753906 182.386719 78.859375 182.597656 78.859375 C 182.835938 78.859375 182.898438 78.980469 182.9375 79.5 C 182.976562 80.035156 183.042969 80.152344 183.324219 80.191406 C 183.613281 80.230469 183.664062 80.332031 183.664062 80.847656 C 183.664062 81.324219 183.730469 81.472656 183.960938 81.535156 C 184.171875 81.589844 184.265625 81.765625 184.300781 82.164062 C 184.332031 82.5625 184.4375 82.753906 184.6875 82.863281 C 184.949219 82.980469 185.027344 83.136719 185.027344 83.5625 C 185.027344 83.976562 185.097656 84.132812 185.308594 84.191406 C 185.492188 84.238281 185.628906 84.460938 185.695312 84.828125 C 185.765625 85.207031 185.898438 85.421875 186.09375 85.472656 C 186.28125 85.519531 186.386719 85.679688 186.386719 85.90625 C 186.386719 86.164062 186.472656 86.269531 186.683594 86.269531 C 186.9375 86.269531 186.984375 86.390625 187.023438 87.214844 C 187.0625 88.027344 187.117188 88.179688 187.410156 88.308594 C 187.671875 88.425781 187.75 88.582031 187.75 89.015625 C 187.75 89.4375 187.820312 89.597656 188.042969 89.667969 C 188.261719 89.738281 188.347656 89.925781 188.382812 90.398438 C 188.421875 90.925781 188.488281 91.039062 188.769531 91.082031 C 189.085938 91.125 189.109375 91.207031 189.109375 92.175781 C 189.109375 93.023438 189.167969 93.285156 189.414062 93.527344 C 189.578125 93.695312 189.714844 94.027344 189.714844 94.265625 C 189.714844 95.085938 189.90625 95.683594 190.191406 95.757812 C 190.410156 95.816406 190.472656 95.976562 190.472656 96.496094 C 190.472656 97.050781 190.519531 97.15625 190.765625 97.15625 C 191.027344 97.15625 191.066406 97.28125 191.105469 98.179688 C 191.148438 99.105469 191.183594 99.203125 191.492188 99.25 C 191.824219 99.296875 191.832031 99.339844 191.832031 101.234375 C 191.832031 103.046875 191.851562 103.175781 192.132812 103.25 C 192.316406 103.300781 192.4375 103.457031 192.4375 103.652344 C 192.4375 103.960938 192.496094 103.972656 193.761719 103.933594 L 195.082031 103.886719 L 195.125 102.261719 C 195.167969 100.714844 195.15625 100.636719 194.863281 100.636719 C 194.601562 100.636719 194.554688 100.539062 194.550781 99.992188 C 194.550781 99.089844 194.421875 98.710938 194.085938 98.621094 C 193.839844 98.558594 193.796875 98.402344 193.796875 97.550781 C 193.796875 96.652344 193.769531 96.554688 193.496094 96.554688 C 193.21875 96.554688 193.191406 96.453125 193.191406 95.429688 C 193.191406 94.113281 193.109375 93.832031 192.722656 93.832031 C 192.472656 93.832031 192.4375 93.710938 192.4375 92.910156 C 192.4375 92.121094 192.394531 91.976562 192.140625 91.910156 C 191.914062 91.851562 191.835938 91.679688 191.800781 91.128906 C 191.761719 90.535156 191.707031 90.421875 191.417969 90.378906 C 191.113281 90.335938 191.074219 90.246094 191.074219 89.519531 C 191.074219 88.886719 191.011719 88.660156 190.785156 88.5 C 190.601562 88.371094 190.476562 88.078125 190.445312 87.699219 C 190.40625 87.210938 190.332031 87.089844 190.054688 87.050781 C 189.761719 87.011719 189.714844 86.914062 189.714844 86.332031 C 189.714844 85.765625 189.667969 85.664062 189.414062 85.664062 C 189.15625 85.664062 189.109375 85.5625 189.109375 85.019531 C 189.105469 84.117188 188.976562 83.738281 188.640625 83.648438 C 188.417969 83.589844 188.355469 83.4375 188.355469 82.957031 C 188.355469 82.4375 188.304688 82.335938 188.050781 82.335938 C 187.808594 82.335938 187.75 82.234375 187.75 81.816406 C 187.75 81.324219 187.4375 80.824219 187.132812 80.824219 C 187.054688 80.824219 186.992188 80.6875 186.992188 80.519531 C 186.992188 80.324219 186.890625 80.21875 186.699219 80.21875 C 186.460938 80.21875 186.394531 80.09375 186.359375 79.574219 C 186.320312 79.042969 186.253906 78.925781 185.972656 78.886719 C 185.683594 78.84375 185.632812 78.742188 185.632812 78.226562 C 185.632812 77.753906 185.566406 77.601562 185.335938 77.542969 C 185.175781 77.5 185.023438 77.320312 184.996094 77.140625 C 184.96875 76.9375 184.824219 76.796875 184.609375 76.765625 C 184.324219 76.726562 184.269531 76.625 184.269531 76.125 C 184.269531 75.644531 184.214844 75.53125 183.984375 75.53125 C 183.761719 75.53125 183.675781 75.378906 183.597656 74.851562 C 183.515625 74.3125 183.433594 74.167969 183.203125 74.167969 C 183.003906 74.167969 182.910156 74.066406 182.910156 73.851562 C 182.910156 73.667969 182.789062 73.503906 182.613281 73.457031 C 182.453125 73.417969 182.300781 73.234375 182.273438 73.058594 C 182.246094 72.855469 182.101562 72.714844 181.886719 72.683594 C 181.605469 72.644531 181.546875 72.542969 181.546875 72.066406 C 181.546875 71.605469 181.476562 71.460938 181.167969 71.324219 C 180.960938 71.226562 180.792969 71.046875 180.792969 70.921875 C 180.792969 70.792969 180.660156 70.691406 180.488281 70.691406 C 180.28125 70.691406 180.1875 70.589844 180.1875 70.375 C 180.1875 70.183594 180.066406 70.027344 179.882812 69.976562 C 179.65625 69.917969 179.582031 69.773438 179.582031 69.382812 C 179.582031 68.980469 179.5 68.832031 179.203125 68.695312 C 178.996094 68.601562 178.824219 68.398438 178.824219 68.246094 C 178.824219 68.074219 178.714844 67.96875 178.539062 67.96875 C 178.378906 67.96875 178.21875 67.832031 178.171875 67.65625 C 178.128906 67.480469 177.949219 67.304688 177.777344 67.257812 C 177.601562 67.210938 177.464844 67.054688 177.464844 66.890625 C 177.464844 66.710938 177.355469 66.605469 177.171875 66.605469 C 176.984375 66.605469 176.863281 66.484375 176.832031 66.265625 C 176.800781 66.046875 176.660156 65.910156 176.441406 65.878906 C 176.21875 65.847656 176.101562 65.726562 176.101562 65.527344 C 176.101562 64.996094 175.8125 64.65625 175.269531 64.554688 C 174.886719 64.484375 174.742188 64.375 174.742188 64.171875 C 174.742188 63.984375 174.636719 63.882812 174.4375 63.882812 C 174.246094 63.882812 174.136719 63.785156 174.136719 63.605469 C 174.136719 63.449219 173.972656 63.144531 173.769531 62.929688 C 173.570312 62.710938 173.382812 62.414062 173.355469 62.265625 C 173.320312 62.085938 173.089844 61.945312 172.660156 61.851562 C 172.195312 61.75 172.019531 61.632812 172.019531 61.4375 C 172.019531 61.265625 171.910156 61.164062 171.726562 61.164062 C 171.539062 61.164062 171.417969 61.039062 171.386719 60.820312 C 171.355469 60.601562 171.21875 60.464844 171 60.433594 C 170.78125 60.402344 170.65625 60.28125 170.65625 60.09375 C 170.65625 59.90625 170.554688 59.800781 170.367188 59.800781 C 170.179688 59.800781 170.058594 59.679688 170.027344 59.460938 C 170 59.265625 169.851562 59.097656 169.675781 59.066406 C 169.511719 59.035156 169.285156 58.878906 169.175781 58.722656 C 169.066406 58.566406 168.890625 58.441406 168.785156 58.441406 C 168.679688 58.441406 168.433594 58.269531 168.238281 58.0625 C 168.042969 57.855469 167.757812 57.683594 167.605469 57.683594 C 167.433594 57.683594 167.332031 57.574219 167.332031 57.382812 C 167.332031 57.160156 167.230469 57.078125 166.953125 57.078125 C 166.667969 57.078125 166.574219 57 166.574219 56.761719 C 166.574219 56.574219 166.453125 56.414062 166.277344 56.367188 C 166.113281 56.324219 165.9375 56.160156 165.890625 56.003906 C 165.820312 55.789062 165.652344 55.71875 165.214844 55.71875 C 164.722656 55.71875 164.621094 55.664062 164.582031 55.378906 C 164.550781 55.160156 164.410156 55.019531 164.191406 54.988281 C 163.972656 54.957031 163.851562 54.835938 163.851562 54.648438 C 163.851562 54.4375 163.746094 54.355469 163.472656 54.355469 C 163.195312 54.355469 163.097656 54.277344 163.097656 54.054688 C 163.097656 53.875 162.996094 53.75 162.847656 53.75 C 162.710938 53.75 162.445312 53.582031 162.25 53.375 C 162.054688 53.160156 161.730469 52.996094 161.515625 52.996094 C 161.238281 52.996094 161.128906 52.914062 161.128906 52.707031 C 161.128906 52.382812 160.847656 52.238281 160.210938 52.238281 C 159.871094 52.238281 159.769531 52.167969 159.769531 51.9375 C 159.769531 51.679688 159.667969 51.632812 159.089844 51.632812 C 158.464844 51.632812 158.40625 51.601562 158.40625 51.253906 C 158.40625 50.984375 158.324219 50.878906 158.121094 50.878906 C 157.964844 50.878906 157.800781 50.742188 157.757812 50.574219 C 157.695312 50.335938 157.550781 50.273438 157.070312 50.273438 C 156.554688 50.273438 156.453125 50.222656 156.414062 49.933594 C 156.375 49.652344 156.257812 49.585938 155.738281 49.546875 C 155.265625 49.511719 155.09375 49.425781 155.035156 49.207031 C 154.972656 48.976562 154.824219 48.910156 154.347656 48.910156 C 153.832031 48.910156 153.734375 48.859375 153.691406 48.570312 C 153.652344 48.289062 153.535156 48.222656 153.015625 48.183594 C 152.542969 48.152344 152.371094 48.066406 152.3125 47.84375 C 152.253906 47.617188 152.101562 47.550781 151.652344 47.550781 C 151.191406 47.550781 151.035156 47.476562 150.917969 47.210938 C 150.808594 46.960938 150.621094 46.855469 150.210938 46.824219 C 149.8125 46.789062 149.621094 46.691406 149.558594 46.484375 C 149.476562 46.234375 149.320312 46.1875 148.5 46.1875 C 147.617188 46.1875 147.535156 46.160156 147.492188 45.847656 C 147.449219 45.566406 147.332031 45.5 146.816406 45.464844 C 146.34375 45.429688 146.167969 45.34375 146.109375 45.121094 C 146.046875 44.871094 145.898438 44.828125 145.121094 44.828125 C 144.359375 44.828125 144.195312 44.78125 144.121094 44.542969 C 144.015625 44.210938 143.617188 44.078125 142.734375 44.074219 C 142.238281 44.070312 142.09375 44.011719 142.03125 43.769531 C 141.960938 43.507812 141.824219 43.46875 141.039062 43.46875 C 140.277344 43.46875 140.113281 43.417969 140.035156 43.179688 C 139.925781 42.835938 139.53125 42.714844 138.503906 42.710938 C 137.929688 42.710938 137.664062 42.632812 137.460938 42.40625 C 137.214844 42.136719 136.996094 42.105469 135.28125 42.105469 C 133.449219 42.105469 133.367188 42.09375 133.222656 41.765625 C 133.082031 41.441406 132.980469 41.421875 131.128906 41.382812 C 129.34375 41.34375 129.179688 41.316406 129.109375 41.042969 C 129.035156 40.753906 128.882812 40.746094 124.605469 40.746094 C 120.304688 40.746094 120.175781 40.734375 120.097656 40.441406 C 120.046875 40.238281 119.914062 40.136719 119.703125 40.140625 C 119.53125 40.140625 119.304688 40.277344 119.199219 40.441406 M 45.433594 137.757812 C 45.351562 137.972656 45.183594 138.144531 45.054688 138.144531 C 44.878906 138.144531 44.824219 138.320312 44.828125 138.863281 C 44.828125 139.824219 44.957031 140.257812 45.210938 140.164062 C 45.367188 140.101562 45.425781 140.3125 45.460938 141.042969 C 45.5 141.90625 45.539062 142.007812 45.84375 142.050781 C 46.160156 142.09375 46.1875 142.175781 46.1875 143.085938 C 46.1875 143.9375 46.226562 144.082031 46.480469 144.148438 C 46.742188 144.214844 46.785156 144.382812 46.824219 145.457031 C 46.863281 146.570312 46.898438 146.703125 47.207031 146.839844 C 47.507812 146.972656 47.546875 147.097656 47.546875 147.9375 C 47.546875 148.773438 47.582031 148.882812 47.839844 148.882812 C 48.078125 148.882812 48.144531 149.007812 48.179688 149.527344 C 48.21875 150.058594 48.285156 150.175781 48.566406 150.214844 C 48.878906 150.261719 48.90625 150.34375 48.90625 151.21875 C 48.90625 152.046875 48.949219 152.183594 49.210938 152.253906 C 49.425781 152.3125 49.511719 152.460938 49.511719 152.78125 C 49.511719 153.601562 49.691406 154.164062 49.984375 154.257812 C 50.140625 154.308594 50.269531 154.484375 50.269531 154.65625 C 50.269531 154.832031 50.394531 154.992188 50.570312 155.039062 C 50.78125 155.09375 50.875 155.246094 50.875 155.535156 C 50.875 156.339844 51.066406 156.9375 51.351562 157.011719 C 51.503906 157.050781 51.628906 157.21875 51.628906 157.382812 C 51.628906 157.554688 51.757812 157.71875 51.933594 157.761719 C 52.097656 157.804688 52.234375 157.957031 52.234375 158.101562 C 52.234375 158.242188 52.40625 158.519531 52.613281 158.714844 C 52.820312 158.910156 52.992188 159.226562 52.992188 159.421875 C 52.992188 159.613281 53.117188 159.898438 53.273438 160.054688 C 53.429688 160.210938 53.605469 160.652344 53.660156 161.039062 C 53.746094 161.59375 53.828125 161.738281 54.058594 161.738281 C 54.273438 161.738281 54.351562 161.84375 54.351562 162.117188 C 54.351562 162.394531 54.433594 162.496094 54.65625 162.496094 C 54.886719 162.496094 54.957031 162.59375 54.957031 162.9375 C 54.957031 163.574219 55.101562 163.855469 55.425781 163.855469 C 55.632812 163.855469 55.714844 163.964844 55.714844 164.234375 C 55.714844 164.507812 55.796875 164.613281 56.007812 164.613281 C 56.246094 164.613281 56.308594 164.734375 56.347656 165.253906 C 56.386719 165.789062 56.453125 165.90625 56.734375 165.945312 C 56.953125 165.976562 57.074219 166.097656 57.074219 166.285156 C 57.074219 166.46875 57.179688 166.578125 57.359375 166.578125 C 57.574219 166.578125 57.664062 166.726562 57.742188 167.199219 C 57.8125 167.640625 57.925781 167.839844 58.136719 167.898438 C 58.308594 167.941406 58.4375 168.101562 58.4375 168.273438 C 58.4375 168.441406 58.5625 168.605469 58.726562 168.648438 C 58.882812 168.691406 59.046875 168.851562 59.089844 169.011719 C 59.132812 169.179688 59.296875 169.300781 59.480469 169.300781 C 59.71875 169.300781 59.796875 169.394531 59.796875 169.679688 C 59.796875 169.886719 59.925781 170.1875 60.085938 170.34375 C 60.246094 170.503906 60.398438 170.757812 60.425781 170.914062 C 60.457031 171.066406 60.632812 171.257812 60.820312 171.339844 C 61.007812 171.421875 61.160156 171.609375 61.160156 171.757812 C 61.160156 171.917969 61.273438 172.023438 61.449219 172.023438 C 61.636719 172.023438 61.761719 172.144531 61.789062 172.363281 C 61.820312 172.582031 61.960938 172.722656 62.179688 172.75 C 62.390625 172.78125 62.519531 172.90625 62.519531 173.074219 C 62.519531 173.226562 62.625 173.390625 62.753906 173.441406 C 62.882812 173.492188 63.085938 173.769531 63.210938 174.0625 C 63.332031 174.355469 63.53125 174.59375 63.65625 174.59375 C 63.792969 174.59375 63.882812 174.738281 63.882812 174.960938 C 63.882812 175.195312 63.988281 175.363281 64.175781 175.421875 C 64.339844 175.476562 64.511719 175.648438 64.5625 175.8125 C 64.617188 175.972656 64.789062 176.105469 64.949219 176.105469 C 65.132812 176.105469 65.242188 176.210938 65.242188 176.382812 C 65.242188 176.539062 65.414062 176.742188 65.621094 176.835938 C 65.828125 176.929688 66 177.109375 66 177.238281 C 66 177.363281 66.128906 177.46875 66.289062 177.46875 C 66.453125 177.46875 66.625 177.605469 66.679688 177.769531 C 66.746094 177.980469 66.957031 178.101562 67.371094 178.167969 C 67.757812 178.230469 67.964844 178.34375 67.964844 178.492188 C 67.964844 178.617188 68.082031 178.804688 68.222656 178.910156 C 68.363281 179.011719 68.558594 179.328125 68.652344 179.605469 C 68.796875 180.042969 68.898438 180.121094 69.367188 180.160156 C 69.796875 180.195312 69.921875 180.277344 69.960938 180.539062 C 69.988281 180.75 70.132812 180.886719 70.347656 180.917969 C 70.566406 180.949219 70.6875 181.070312 70.6875 181.257812 C 70.6875 181.445312 70.792969 181.550781 70.972656 181.550781 C 71.132812 181.550781 71.292969 181.6875 71.339844 181.863281 C 71.382812 182.039062 71.554688 182.214844 71.71875 182.257812 C 71.886719 182.300781 72.054688 182.464844 72.09375 182.625 C 72.140625 182.792969 72.304688 182.914062 72.488281 182.914062 C 72.703125 182.914062 72.804688 183.007812 72.804688 183.214844 C 72.804688 183.445312 72.9375 183.535156 73.394531 183.609375 C 73.800781 183.671875 74.011719 183.792969 74.0625 183.988281 C 74.105469 184.152344 74.269531 184.273438 74.453125 184.273438 C 74.671875 184.273438 74.769531 184.371094 74.769531 184.578125 C 74.769531 184.765625 74.917969 184.941406 75.148438 185.03125 C 75.355469 185.109375 75.527344 185.277344 75.527344 185.402344 C 75.527344 185.53125 75.660156 185.632812 75.824219 185.632812 C 75.988281 185.632812 76.191406 185.769531 76.28125 185.929688 C 76.367188 186.09375 76.667969 186.269531 76.953125 186.324219 C 77.277344 186.382812 77.492188 186.523438 77.539062 186.707031 C 77.597656 186.929688 77.753906 186.996094 78.222656 186.996094 C 78.738281 186.996094 78.839844 187.046875 78.882812 187.335938 C 78.90625 187.519531 79.054688 187.699219 79.207031 187.726562 C 79.359375 187.753906 79.617188 187.910156 79.773438 188.066406 C 79.933594 188.226562 80.21875 188.355469 80.40625 188.355469 C 80.617188 188.355469 80.804688 188.488281 80.898438 188.699219 C 81.007812 188.945312 81.199219 189.050781 81.597656 189.082031 C 81.996094 189.117188 82.171875 189.210938 82.226562 189.425781 C 82.289062 189.652344 82.4375 189.71875 82.914062 189.71875 C 83.429688 189.71875 83.527344 189.769531 83.570312 190.058594 C 83.605469 190.296875 83.734375 190.414062 84.019531 190.445312 C 84.238281 190.46875 84.539062 190.625 84.683594 190.785156 C 84.832031 190.945312 85.105469 191.078125 85.292969 191.078125 C 85.535156 191.078125 85.652344 191.179688 85.6875 191.417969 C 85.726562 191.707031 85.839844 191.765625 86.4375 191.804688 C 86.898438 191.835938 87.230469 191.953125 87.40625 192.144531 C 87.589844 192.351562 87.871094 192.441406 88.320312 192.441406 C 88.875 192.441406 88.972656 192.488281 89.015625 192.78125 C 89.042969 192.972656 89.191406 193.140625 89.363281 193.175781 C 89.53125 193.207031 89.753906 193.359375 89.863281 193.515625 C 90.03125 193.753906 90.261719 193.800781 91.253906 193.800781 C 92.375 193.800781 92.449219 193.820312 92.492188 194.140625 C 92.535156 194.425781 92.648438 194.488281 93.183594 194.527344 C 93.703125 194.566406 93.828125 194.632812 93.828125 194.867188 C 93.828125 195.121094 93.933594 195.164062 94.566406 195.164062 C 95.15625 195.164062 95.320312 195.21875 95.378906 195.441406 C 95.457031 195.742188 96.132812 195.914062 97.25 195.917969 C 97.746094 195.917969 97.890625 195.980469 97.953125 196.222656 C 98.023438 196.480469 98.160156 196.523438 98.929688 196.523438 C 99.742188 196.523438 99.84375 196.5625 100 196.902344 C 100.167969 197.269531 100.214844 197.28125 101.746094 197.28125 C 103.191406 197.28125 103.328125 197.304688 103.398438 197.582031 C 103.46875 197.855469 103.605469 197.886719 104.777344 197.886719 C 105.949219 197.886719 106.078125 197.914062 106.078125 198.171875 C 106.078125 198.578125 106.457031 198.636719 109.140625 198.640625 C 111.320312 198.640625 111.546875 198.667969 111.824219 198.945312 C 112.121094 199.238281 112.328125 199.246094 119.898438 199.246094 C 127.542969 199.246094 127.671875 199.242188 127.75 198.945312 C 127.824219 198.65625 127.957031 198.640625 130.328125 198.640625 C 132.398438 198.640625 132.867188 198.601562 133.0625 198.402344 C 133.195312 198.273438 133.300781 198.101562 133.300781 198.027344 C 133.300781 197.949219 133.886719 197.886719 134.601562 197.886719 C 135.773438 197.886719 135.910156 197.855469 135.980469 197.582031 C 136.050781 197.3125 136.1875 197.28125 137.242188 197.28125 C 138.546875 197.28125 139.199219 197.105469 139.199219 196.753906 C 139.199219 196.570312 139.414062 196.523438 140.273438 196.523438 C 141.210938 196.523438 141.355469 196.488281 141.421875 196.226562 C 141.488281 195.980469 141.65625 195.925781 142.429688 195.886719 C 143.261719 195.847656 143.363281 195.808594 143.40625 195.503906 C 143.453125 195.191406 143.535156 195.164062 144.441406 195.164062 C 145.300781 195.164062 145.4375 195.125 145.507812 194.859375 C 145.570312 194.621094 145.714844 194.558594 146.210938 194.554688 C 147.128906 194.554688 147.519531 194.414062 147.519531 194.085938 C 147.519531 193.839844 147.636719 193.800781 148.441406 193.800781 C 149.234375 193.800781 149.371094 193.761719 149.441406 193.5 C 149.5 193.273438 149.648438 193.195312 150.019531 193.195312 C 150.496094 193.195312 150.996094 192.882812 150.996094 192.582031 C 150.996094 192.503906 151.273438 192.441406 151.617188 192.441406 C 152.101562 192.441406 152.25 192.378906 152.3125 192.144531 C 152.371094 191.925781 152.542969 191.839844 153.015625 191.804688 C 153.535156 191.769531 153.652344 191.699219 153.691406 191.417969 C 153.734375 191.132812 153.832031 191.078125 154.347656 191.078125 C 154.824219 191.078125 154.972656 191.015625 155.035156 190.785156 C 155.089844 190.574219 155.265625 190.476562 155.664062 190.445312 C 156.0625 190.410156 156.253906 190.304688 156.363281 190.058594 C 156.476562 189.804688 156.640625 189.71875 157.019531 189.71875 C 157.402344 189.71875 157.546875 189.640625 157.609375 189.414062 C 157.660156 189.21875 157.8125 189.113281 158.046875 189.113281 C 158.332031 189.113281 158.40625 189.03125 158.40625 188.734375 C 158.40625 188.386719 158.464844 188.355469 159.089844 188.355469 C 159.660156 188.355469 159.769531 188.308594 159.769531 188.066406 C 159.769531 187.878906 159.890625 187.753906 160.109375 187.726562 C 160.328125 187.695312 160.464844 187.554688 160.496094 187.335938 C 160.539062 187.042969 160.636719 186.996094 161.214844 186.996094 C 161.785156 186.996094 161.886719 186.949219 161.886719 186.695312 C 161.886719 186.492188 161.988281 186.390625 162.1875 186.390625 C 162.410156 186.390625 162.492188 186.289062 162.492188 186.011719 C 162.492188 185.664062 162.546875 185.632812 163.171875 185.632812 C 163.734375 185.632812 163.851562 185.585938 163.851562 185.351562 C 163.851562 185.136719 164.003906 185.042969 164.472656 184.96875 C 164.914062 184.898438 165.117188 184.785156 165.171875 184.570312 C 165.214844 184.40625 165.371094 184.273438 165.523438 184.273438 C 165.675781 184.273438 165.839844 184.144531 165.890625 183.988281 C 165.9375 183.828125 166.113281 183.667969 166.277344 183.625 C 166.453125 183.578125 166.574219 183.417969 166.574219 183.230469 C 166.574219 182.980469 166.667969 182.914062 167.019531 182.914062 C 167.582031 182.914062 167.9375 182.558594 167.9375 181.992188 C 167.9375 181.621094 167.996094 181.550781 168.3125 181.550781 C 168.585938 181.550781 168.691406 181.46875 168.691406 181.257812 C 168.691406 181.027344 168.816406 180.953125 169.257812 180.917969 C 169.675781 180.882812 169.867188 180.78125 169.976562 180.53125 C 170.058594 180.34375 170.246094 180.191406 170.390625 180.191406 C 170.554688 180.191406 170.65625 180.074219 170.65625 179.898438 C 170.65625 179.710938 170.78125 179.589844 171 179.558594 C 171.21875 179.527344 171.355469 179.386719 171.386719 179.167969 C 171.417969 178.949219 171.539062 178.828125 171.726562 178.828125 C 171.914062 178.828125 172.019531 178.722656 172.019531 178.535156 C 172.019531 178.347656 172.140625 178.226562 172.359375 178.195312 C 172.578125 178.164062 172.71875 178.027344 172.75 177.808594 C 172.78125 177.589844 172.902344 177.46875 173.089844 177.46875 C 173.277344 177.46875 173.378906 177.363281 173.378906 177.175781 C 173.378906 176.988281 173.503906 176.867188 173.722656 176.835938 C 173.941406 176.804688 174.078125 176.664062 174.109375 176.445312 C 174.140625 176.226562 174.261719 176.105469 174.449219 176.105469 C 174.636719 176.105469 174.742188 176.003906 174.742188 175.816406 C 174.742188 175.625 174.863281 175.503906 175.082031 175.472656 C 175.300781 175.441406 175.441406 175.304688 175.46875 175.085938 C 175.496094 174.898438 175.609375 174.746094 175.71875 174.746094 C 176.007812 174.746094 176.859375 173.910156 176.859375 173.625 C 176.859375 173.484375 176.984375 173.382812 177.160156 173.382812 C 177.355469 173.382812 177.464844 173.28125 177.464844 173.097656 C 177.464844 172.9375 177.601562 172.777344 177.777344 172.730469 C 177.949219 172.6875 178.128906 172.507812 178.171875 172.335938 C 178.21875 172.160156 178.378906 172.023438 178.539062 172.023438 C 178.777344 172.023438 178.824219 171.90625 178.824219 171.34375 C 178.824219 170.71875 178.855469 170.660156 179.203125 170.660156 C 179.472656 170.660156 179.582031 170.578125 179.582031 170.375 C 179.582031 170.21875 179.714844 170.058594 179.882812 170.011719 C 180.066406 169.964844 180.1875 169.804688 180.1875 169.617188 C 180.1875 169.40625 180.28125 169.300781 180.472656 169.300781 C 180.796875 169.300781 180.941406 169.019531 180.941406 168.378906 C 180.941406 168.039062 181.011719 167.9375 181.246094 167.9375 C 181.441406 167.9375 181.546875 167.839844 181.546875 167.648438 C 181.546875 167.460938 181.667969 167.339844 181.886719 167.308594 C 182.082031 167.277344 182.25 167.132812 182.28125 166.957031 C 182.3125 166.789062 182.464844 166.53125 182.621094 166.382812 C 182.78125 166.234375 182.910156 165.910156 182.910156 165.664062 C 182.910156 165.289062 182.96875 165.21875 183.285156 165.21875 C 183.585938 165.21875 183.664062 165.140625 183.664062 164.855469 C 183.664062 164.625 183.773438 164.46875 183.96875 164.417969 C 184.199219 164.355469 184.269531 164.210938 184.269531 163.804688 C 184.269531 163.367188 184.332031 163.261719 184.609375 163.222656 C 184.804688 163.195312 184.972656 163.046875 185.003906 162.871094 C 185.035156 162.707031 185.1875 162.449219 185.34375 162.300781 C 185.503906 162.152344 185.632812 161.828125 185.632812 161.582031 C 185.632812 161.242188 185.699219 161.132812 185.917969 161.132812 C 186.242188 161.132812 186.386719 160.851562 186.386719 160.214844 C 186.386719 159.875 186.457031 159.773438 186.691406 159.773438 C 186.886719 159.773438 186.992188 159.671875 186.992188 159.480469 C 186.992188 159.292969 187.113281 159.171875 187.332031 159.140625 C 187.640625 159.097656 187.675781 159 187.71875 158.070312 C 187.757812 157.175781 187.796875 157.050781 188.058594 157.050781 C 188.308594 157.050781 188.355469 156.945312 188.355469 156.371094 C 188.355469 155.746094 188.382812 155.6875 188.730469 155.6875 C 189.015625 155.6875 189.109375 155.609375 189.109375 155.371094 C 189.109375 155.183594 189.230469 155.023438 189.414062 154.976562 C 189.648438 154.914062 189.714844 154.769531 189.714844 154.316406 C 189.714844 153.898438 189.820312 153.628906 190.09375 153.359375 C 190.417969 153.035156 190.472656 152.84375 190.472656 152.007812 C 190.472656 151.164062 190.511719 151.023438 190.773438 150.957031 C 191.011719 150.894531 191.074219 150.75 191.074219 150.292969 C 191.074219 149.835938 191.148438 149.679688 191.417969 149.5625 C 191.664062 149.453125 191.769531 149.261719 191.804688 148.851562 C 191.835938 148.457031 191.933594 148.265625 192.144531 148.199219 C 192.402344 148.117188 192.4375 147.960938 192.4375 146.839844 C 192.4375 145.644531 192.457031 145.574219 192.777344 145.527344 C 193.066406 145.488281 193.125 145.375 193.164062 144.777344 C 193.199219 144.230469 193.273438 144.058594 193.503906 143.996094 C 193.753906 143.929688 193.796875 143.785156 193.796875 143.003906 C 193.796875 142.242188 193.847656 142.058594 194.101562 141.925781 C 194.28125 141.828125 194.402344 141.609375 194.402344 141.375 C 194.402344 141.117188 194.304688 140.964844 194.101562 140.910156 C 193.90625 140.859375 193.796875 140.703125 193.796875 140.472656 C 193.796875 140.121094 193.765625 140.109375 192.527344 140.109375 C 191.085938 140.109375 191.074219 140.121094 191.074219 141.355469 C 191.074219 141.886719 191 142.175781 190.828125 142.300781 C 190.675781 142.414062 190.554688 142.785156 190.511719 143.300781 C 190.457031 143.878906 190.347656 144.1875 190.132812 144.359375 C 189.917969 144.53125 189.800781 144.847656 189.75 145.402344 C 189.691406 146.015625 189.605469 146.21875 189.390625 146.273438 C 189.144531 146.335938 189.109375 146.503906 189.109375 147.605469 C 189.109375 148.792969 189.089844 148.863281 188.769531 148.910156 C 188.488281 148.949219 188.421875 149.066406 188.382812 149.585938 C 188.347656 150.058594 188.265625 150.230469 188.042969 150.289062 C 187.871094 150.335938 187.75 150.496094 187.75 150.683594 C 187.75 150.867188 187.652344 151 187.519531 151 C 187.226562 151 186.992188 151.605469 186.992188 152.359375 C 186.992188 152.8125 186.921875 152.96875 186.691406 153.042969 C 186.460938 153.113281 186.386719 153.269531 186.386719 153.695312 C 186.386719 154.132812 186.3125 154.289062 186.046875 154.40625 C 185.800781 154.511719 185.695312 154.703125 185.660156 155.105469 C 185.628906 155.503906 185.53125 155.679688 185.320312 155.734375 C 185.089844 155.792969 185.027344 155.945312 185.027344 156.421875 C 185.027344 156.9375 184.972656 157.035156 184.6875 157.078125 C 184.40625 157.117188 184.335938 157.234375 184.300781 157.753906 C 184.265625 158.222656 184.179688 158.398438 183.960938 158.457031 C 183.730469 158.515625 183.664062 158.667969 183.664062 159.144531 C 183.664062 159.660156 183.613281 159.757812 183.324219 159.800781 C 183.113281 159.828125 182.96875 159.96875 182.9375 160.171875 C 182.914062 160.351562 182.757812 160.53125 182.597656 160.574219 C 182.367188 160.632812 182.304688 160.785156 182.304688 161.261719 C 182.304688 161.777344 182.253906 161.875 181.964844 161.917969 C 181.75 161.945312 181.605469 162.085938 181.578125 162.289062 C 181.550781 162.46875 181.398438 162.648438 181.238281 162.691406 C 181.015625 162.75 180.941406 162.902344 180.941406 163.300781 C 180.941406 163.738281 180.882812 163.84375 180.601562 163.882812 C 180.339844 163.921875 180.25 164.046875 180.214844 164.429688 C 180.1875 164.714844 180.042969 165 179.875 165.105469 C 179.714844 165.207031 179.582031 165.445312 179.582031 165.632812 C 179.582031 165.878906 179.492188 165.972656 179.265625 165.972656 C 179.078125 165.972656 178.917969 166.09375 178.871094 166.269531 C 178.828125 166.433594 178.664062 166.609375 178.507812 166.660156 C 178.347656 166.707031 178.21875 166.882812 178.21875 167.042969 C 178.21875 167.226562 178.117188 167.335938 177.933594 167.335938 C 177.609375 167.335938 177.464844 167.617188 177.464844 168.253906 C 177.464844 168.632812 177.40625 168.695312 177.046875 168.699219 C 176.457031 168.699219 176.296875 168.847656 176.175781 169.488281 C 176.097656 169.90625 175.992188 170.058594 175.785156 170.058594 C 175.597656 170.058594 175.496094 170.164062 175.496094 170.359375 C 175.496094 170.527344 175.433594 170.660156 175.359375 170.660156 C 175.074219 170.660156 174.742188 171.148438 174.742188 171.566406 C 174.742188 171.949219 174.675781 172.007812 174.148438 172.097656 C 173.597656 172.1875 173.546875 172.242188 173.453125 172.789062 C 173.378906 173.238281 173.285156 173.382812 173.066406 173.382812 C 172.855469 173.382812 172.777344 173.492188 172.777344 173.761719 C 172.777344 174.066406 172.699219 174.140625 172.398438 174.140625 C 172.121094 174.140625 172.019531 174.222656 172.019531 174.441406 C 172.019531 174.644531 171.917969 174.746094 171.71875 174.746094 C 171.496094 174.746094 171.414062 174.847656 171.414062 175.125 C 171.414062 175.425781 171.339844 175.5 171.035156 175.5 C 170.757812 175.5 170.65625 175.582031 170.65625 175.804688 C 170.65625 176.003906 170.558594 176.105469 170.355469 176.105469 C 170.132812 176.105469 170.054688 176.207031 170.054688 176.484375 C 170.054688 176.800781 169.980469 176.863281 169.609375 176.863281 C 169.046875 176.863281 168.691406 177.214844 168.691406 177.78125 C 168.691406 178.152344 168.632812 178.222656 168.3125 178.222656 C 168.039062 178.222656 167.9375 178.304688 167.9375 178.515625 C 167.9375 178.746094 167.8125 178.820312 167.367188 178.859375 C 166.953125 178.890625 166.761719 178.996094 166.652344 179.246094 C 166.570312 179.433594 166.382812 179.585938 166.234375 179.585938 C 166.074219 179.585938 165.96875 179.699219 165.96875 179.875 C 165.96875 180.066406 165.847656 180.1875 165.628906 180.21875 C 165.410156 180.25 165.273438 180.386719 165.242188 180.605469 C 165.199219 180.890625 165.097656 180.945312 164.609375 180.945312 C 164.167969 180.945312 164 181.015625 163.933594 181.230469 C 163.882812 181.390625 163.707031 181.554688 163.542969 181.597656 C 163.367188 181.640625 163.246094 181.804688 163.246094 181.992188 C 163.246094 182.210938 163.152344 182.308594 162.929688 182.308594 C 162.742188 182.308594 162.582031 182.429688 162.535156 182.609375 C 162.492188 182.777344 162.328125 182.914062 162.171875 182.914062 C 161.96875 182.914062 161.886719 183.019531 161.886719 183.289062 C 161.886719 183.636719 161.832031 183.667969 161.207031 183.667969 C 160.640625 183.667969 160.523438 183.71875 160.523438 183.953125 C 160.523438 184.167969 160.375 184.257812 159.90625 184.335938 C 159.464844 184.40625 159.261719 184.519531 159.207031 184.730469 C 159.164062 184.902344 159 185.03125 158.828125 185.03125 C 158.660156 185.03125 158.496094 185.15625 158.453125 185.324219 C 158.398438 185.535156 158.222656 185.632812 157.824219 185.664062 C 157.421875 185.699219 157.234375 185.804688 157.125 186.050781 C 157.042969 186.238281 156.855469 186.390625 156.707031 186.390625 C 156.542969 186.390625 156.441406 186.503906 156.441406 186.683594 C 156.441406 186.921875 156.316406 186.988281 155.796875 187.023438 C 155.265625 187.0625 155.148438 187.128906 155.109375 187.410156 C 155.066406 187.707031 154.96875 187.753906 154.390625 187.753906 C 153.828125 187.753906 153.71875 187.800781 153.71875 188.046875 C 153.71875 188.285156 153.597656 188.347656 153.078125 188.386719 C 152.542969 188.425781 152.425781 188.488281 152.386719 188.773438 C 152.34375 189.066406 152.246094 189.113281 151.667969 189.113281 C 151.105469 189.113281 150.996094 189.160156 150.996094 189.40625 C 150.996094 189.644531 150.875 189.710938 150.355469 189.746094 C 149.820312 189.785156 149.703125 189.851562 149.664062 190.132812 C 149.621094 190.433594 149.527344 190.472656 148.882812 190.472656 C 148.019531 190.472656 147.667969 190.582031 147.667969 190.851562 C 147.667969 190.964844 147.386719 191.085938 146.988281 191.148438 C 146.453125 191.226562 146.308594 191.3125 146.308594 191.542969 C 146.308594 191.789062 146.199219 191.835938 145.613281 191.835938 C 145.046875 191.835938 144.902344 191.890625 144.839844 192.136719 C 144.769531 192.398438 144.632812 192.441406 143.832031 192.441406 C 142.644531 192.445312 142.269531 192.550781 142.175781 192.910156 C 142.113281 193.152344 141.960938 193.195312 141.164062 193.195312 C 140.359375 193.195312 140.21875 193.238281 140.152344 193.5 C 140.085938 193.753906 139.945312 193.800781 139.269531 193.800781 C 138.5 193.800781 137.988281 194.046875 137.988281 194.417969 C 137.988281 194.496094 137.417969 194.558594 136.722656 194.558594 C 135.582031 194.558594 135.445312 194.589844 135.375 194.859375 C 135.300781 195.140625 135.167969 195.164062 133.65625 195.164062 C 131.746094 195.167969 131.390625 195.238281 131.289062 195.628906 C 131.21875 195.898438 131.042969 195.917969 128.664062 195.921875 C 126.371094 195.925781 126.078125 195.957031 125.738281 196.222656 C 125.378906 196.503906 125.078125 196.515625 118.761719 196.519531 C 112.289062 196.523438 112.160156 196.519531 112.082031 196.222656 C 112.011719 195.941406 111.878906 195.917969 110.375 195.917969 C 108.898438 195.917969 108.710938 195.886719 108.386719 195.582031 C 108.0625 195.277344 107.84375 195.242188 105.996094 195.1875 C 104.125 195.132812 103.960938 195.105469 103.960938 194.84375 C 103.960938 194.59375 103.839844 194.558594 102.964844 194.558594 C 102.113281 194.558594 101.953125 194.515625 101.890625 194.273438 C 101.8125 193.972656 101.277344 193.800781 100.421875 193.800781 C 100.132812 193.800781 99.84375 193.683594 99.683594 193.5 C 99.46875 193.246094 99.238281 193.195312 98.289062 193.195312 C 97.277344 193.195312 97.15625 193.164062 97.15625 192.910156 C 97.15625 192.546875 96.871094 192.441406 95.917969 192.441406 C 95.289062 192.441406 95.148438 192.390625 95.082031 192.136719 C 95.011719 191.875 94.875 191.835938 94.046875 191.835938 C 93.171875 191.835938 93.085938 191.808594 93.042969 191.496094 C 93.003906 191.210938 92.886719 191.148438 92.351562 191.109375 C 91.832031 191.070312 91.710938 191.003906 91.710938 190.769531 C 91.710938 190.519531 91.601562 190.472656 91.027344 190.472656 C 90.457031 190.472656 90.347656 190.429688 90.347656 190.179688 C 90.347656 189.949219 90.207031 189.867188 89.679688 189.789062 C 89.203125 189.714844 88.992188 189.605469 88.941406 189.402344 C 88.882812 189.175781 88.726562 189.113281 88.246094 189.113281 C 87.738281 189.113281 87.625 189.0625 87.625 188.828125 C 87.625 188.464844 87.34375 188.355469 86.402344 188.355469 C 85.761719 188.355469 85.660156 188.316406 85.660156 188.054688 C 85.660156 187.832031 85.558594 187.753906 85.28125 187.753906 C 85.007812 187.753906 84.902344 187.671875 84.902344 187.457031 C 84.902344 187.226562 84.761719 187.144531 84.222656 187.0625 C 83.691406 186.984375 83.542969 186.898438 83.542969 186.675781 C 83.542969 186.4375 83.429688 186.390625 82.863281 186.390625 C 82.238281 186.390625 82.179688 186.359375 82.179688 186.011719 C 82.179688 185.730469 82.101562 185.632812 81.863281 185.632812 C 81.675781 185.632812 81.515625 185.511719 81.46875 185.332031 C 81.40625 185.097656 81.261719 185.03125 80.8125 185.03125 C 80.332031 185.03125 80.226562 184.972656 80.1875 184.6875 C 80.15625 184.476562 80.019531 184.332031 79.816406 184.304688 C 79.636719 184.277344 79.457031 184.125 79.414062 183.960938 C 79.351562 183.730469 79.203125 183.667969 78.71875 183.667969 C 78.191406 183.667969 78.097656 183.621094 78.097656 183.351562 C 78.097656 183.164062 77.976562 183.003906 77.800781 182.957031 C 77.636719 182.914062 77.460938 182.75 77.414062 182.59375 C 77.363281 182.4375 77.199219 182.308594 77.046875 182.308594 C 76.894531 182.308594 76.738281 182.171875 76.695312 182.007812 C 76.636719 181.796875 76.4375 181.683594 75.996094 181.613281 C 75.527344 181.535156 75.375 181.445312 75.375 181.230469 C 75.375 181.058594 75.269531 180.945312 75.109375 180.945312 C 74.960938 180.945312 74.773438 180.792969 74.691406 180.605469 C 74.585938 180.359375 74.394531 180.253906 73.988281 180.21875 C 73.472656 180.175781 73.425781 180.132812 73.335938 179.589844 C 73.242188 179.046875 73.1875 178.996094 72.640625 178.902344 C 72.191406 178.828125 72.046875 178.730469 72.046875 178.511719 C 72.046875 178.304688 71.941406 178.222656 71.671875 178.222656 C 71.386719 178.222656 71.292969 178.144531 71.292969 177.90625 C 71.292969 177.722656 71.171875 177.558594 71.003906 177.515625 C 70.84375 177.472656 70.679688 177.308594 70.640625 177.152344 C 70.59375 176.984375 70.433594 176.863281 70.246094 176.863281 C 70.027344 176.863281 69.929688 176.765625 69.929688 176.546875 C 69.929688 176.363281 69.808594 176.199219 69.640625 176.152344 C 69.484375 176.113281 69.320312 175.949219 69.277344 175.789062 C 69.234375 175.621094 69.070312 175.5 68.886719 175.5 C 68.675781 175.5 68.570312 175.40625 68.570312 175.210938 C 68.570312 175.046875 68.441406 174.875 68.285156 174.824219 C 68.125 174.777344 67.960938 174.601562 67.917969 174.4375 C 67.875 174.261719 67.710938 174.140625 67.523438 174.140625 C 67.304688 174.140625 67.207031 174.042969 67.207031 173.824219 C 67.207031 173.640625 67.085938 173.476562 66.917969 173.429688 C 66.761719 173.390625 66.597656 173.226562 66.554688 173.066406 C 66.511719 172.898438 66.347656 172.777344 66.164062 172.777344 C 65.941406 172.777344 65.847656 172.683594 65.847656 172.460938 C 65.847656 172.273438 65.726562 172.113281 65.542969 172.066406 C 65.378906 172.023438 65.242188 171.859375 65.242188 171.703125 C 65.242188 171.5 65.132812 171.417969 64.863281 171.417969 C 64.550781 171.417969 64.484375 171.347656 64.484375 170.984375 C 64.484375 170.734375 64.328125 170.382812 64.109375 170.148438 C 63.898438 169.921875 63.730469 169.683594 63.730469 169.613281 C 63.730469 169.542969 63.59375 169.453125 63.425781 169.40625 C 63.246094 169.359375 63.125 169.203125 63.125 169.011719 C 63.125 168.800781 63.027344 168.695312 62.832031 168.695312 C 62.644531 168.695312 62.523438 168.574219 62.492188 168.355469 C 62.460938 168.140625 62.324219 167.996094 62.121094 167.96875 C 61.882812 167.933594 61.765625 167.78125 61.695312 167.394531 C 61.640625 167.101562 61.503906 166.828125 61.390625 166.785156 C 61.277344 166.742188 61.144531 166.542969 61.09375 166.339844 C 61.035156 166.105469 60.894531 165.972656 60.703125 165.972656 C 60.5 165.972656 60.402344 165.871094 60.402344 165.65625 C 60.402344 165.46875 60.28125 165.308594 60.101562 165.261719 C 59.886719 165.207031 59.796875 165.054688 59.796875 164.757812 C 59.796875 164.34375 59.464844 163.855469 59.183594 163.855469 C 59.105469 163.855469 59.042969 163.71875 59.042969 163.554688 C 59.042969 163.359375 58.941406 163.25 58.757812 163.25 C 58.542969 163.25 58.449219 163.101562 58.375 162.628906 C 58.304688 162.191406 58.191406 161.988281 57.976562 161.933594 C 57.808594 161.886719 57.679688 161.726562 57.679688 161.554688 C 57.679688 161.382812 57.550781 161.222656 57.378906 161.175781 C 57.164062 161.121094 57.074219 160.972656 57.074219 160.671875 C 57.074219 160.257812 56.742188 159.773438 56.460938 159.773438 C 56.382812 159.773438 56.320312 159.527344 56.320312 159.230469 C 56.320312 158.816406 56.246094 158.667969 56.023438 158.609375 C 55.863281 158.566406 55.710938 158.386719 55.683594 158.207031 C 55.65625 158.003906 55.511719 157.863281 55.296875 157.832031 C 55.003906 157.792969 54.957031 157.695312 54.957031 157.113281 C 54.957031 156.550781 54.910156 156.445312 54.664062 156.445312 C 54.425781 156.445312 54.359375 156.320312 54.324219 155.800781 C 54.285156 155.269531 54.21875 155.152344 53.9375 155.109375 C 53.648438 155.070312 53.597656 154.96875 53.597656 154.453125 C 53.597656 153.972656 53.535156 153.828125 53.292969 153.765625 C 53.050781 153.703125 52.992188 153.558594 52.992188 153.050781 C 52.992188 152.566406 52.902344 152.328125 52.613281 152.058594 C 52.40625 151.863281 52.234375 151.546875 52.234375 151.351562 C 52.234375 151.101562 52.148438 151 51.933594 151 C 51.667969 151 51.628906 150.898438 51.628906 150.179688 C 51.628906 149.394531 51.386719 148.882812 51.015625 148.882812 C 50.9375 148.882812 50.875 148.46875 50.875 147.960938 C 50.875 147.175781 50.832031 147.027344 50.578125 146.960938 C 50.359375 146.90625 50.273438 146.730469 50.238281 146.257812 C 50.203125 145.738281 50.132812 145.621094 49.851562 145.582031 C 49.542969 145.539062 49.511719 145.453125 49.511719 144.570312 C 49.511719 143.75 49.46875 143.597656 49.21875 143.515625 C 48.972656 143.4375 48.914062 143.257812 48.878906 142.484375 C 48.835938 141.65625 48.792969 141.542969 48.507812 141.5 C 48.199219 141.457031 48.175781 141.355469 48.128906 139.9375 C 48.085938 138.753906 48.023438 138.382812 47.828125 138.242188 C 47.691406 138.140625 47.554688 137.925781 47.523438 137.761719 C 47.476562 137.507812 47.324219 137.457031 46.523438 137.417969 C 45.632812 137.375 45.570312 137.394531 45.433594 137.757812 " fill-opacity="1" fill-rule="evenodd"/><g fill="#ffffff" fill-opacity="1"><g transform="translate(70.893917, 135.953229)"><g><path d="M 9.765625 0.546875 C 7.585938 0.546875 5.582031 0.140625 3.75 -0.671875 C 1.925781 -1.484375 0.429688 -2.640625 -0.734375 -4.140625 L 3.40625 -9.125 C 5.15625 -6.757812 7.15625 -5.578125 9.40625 -5.578125 C 12.445312 -5.578125 13.96875 -7.359375 13.96875 -10.921875 L 13.96875 -26.265625 L 2.625 -26.265625 L 2.625 -32.25 L 21.375 -32.25 L 21.375 -11.328125 C 21.375 -7.367188 20.390625 -4.398438 18.421875 -2.421875 C 16.460938 -0.441406 13.578125 0.546875 9.765625 0.546875 Z M 9.765625 0.546875 "/></g></g></g><g fill="#ffffff" fill-opacity="1"><g transform="translate(95.819602, 135.953229)"><g><path d="M 38.703125 3.453125 C 37.660156 4.742188 36.394531 5.726562 34.90625 6.40625 C 33.414062 7.082031 31.78125 7.421875 30 7.421875 C 27.601562 7.421875 25.4375 6.90625 23.5 5.875 C 21.5625 4.84375 19.347656 3.023438 16.859375 0.421875 C 13.941406 0.046875 11.335938 -0.890625 9.046875 -2.390625 C 6.765625 -3.898438 4.984375 -5.84375 3.703125 -8.21875 C 2.429688 -10.601562 1.796875 -13.238281 1.796875 -16.125 C 1.796875 -19.289062 2.554688 -22.140625 4.078125 -24.671875 C 5.597656 -27.203125 7.703125 -29.191406 10.390625 -30.640625 C 13.078125 -32.085938 16.09375 -32.8125 19.4375 -32.8125 C 22.789062 -32.8125 25.800781 -32.085938 28.46875 -30.640625 C 31.144531 -29.191406 33.25 -27.203125 34.78125 -24.671875 C 36.320312 -22.140625 37.09375 -19.289062 37.09375 -16.125 C 37.09375 -12.375 36.039062 -9.085938 33.9375 -6.265625 C 31.832031 -3.441406 29.046875 -1.476562 25.578125 -0.375 C 26.335938 0.425781 27.078125 1.003906 27.796875 1.359375 C 28.523438 1.710938 29.304688 1.890625 30.140625 1.890625 C 32.128906 1.890625 33.878906 1.09375 35.390625 -0.5 Z M 9.359375 -16.125 C 9.359375 -14.125 9.796875 -12.34375 10.671875 -10.78125 C 11.546875 -9.21875 12.75 -8 14.28125 -7.125 C 15.820312 -6.25 17.539062 -5.8125 19.4375 -5.8125 C 21.34375 -5.8125 23.0625 -6.25 24.59375 -7.125 C 26.132812 -8 27.34375 -9.21875 28.21875 -10.78125 C 29.09375 -12.34375 29.53125 -14.125 29.53125 -16.125 C 29.53125 -18.125 29.09375 -19.90625 28.21875 -21.46875 C 27.34375 -23.039062 26.132812 -24.265625 24.59375 -25.140625 C 23.0625 -26.015625 21.34375 -26.453125 19.4375 -26.453125 C 17.539062 -26.453125 15.820312 -26.015625 14.28125 -25.140625 C 12.75 -24.265625 11.546875 -23.039062 10.671875 -21.46875 C 9.796875 -19.90625 9.359375 -18.125 9.359375 -16.125 Z M 9.359375 -16.125 "/></g></g></g><g fill="#ffffff" fill-opacity="1"><g transform="translate(134.70551, 135.953229)"><g><path d="M 34.828125 -32.25 L 20.875 0 L 13.5 0 L -0.421875 -32.25 L 7.65625 -32.25 L 17.46875 -9.21875 L 27.421875 -32.25 Z M 34.828125 -32.25 "/></g></g></g><g fill="#ffffff" fill-opacity="1"><g transform="translate(84.404304, 161.989998)"><g><path d="M 1.296875 -10.953125 L 3.828125 -10.953125 L 3.828125 0 L 1.296875 0 Z M 1.296875 -10.953125 "/></g></g></g><g fill="#ffffff" fill-opacity="1"><g transform="translate(89.537823, 161.989998)"><g><path d="M 11.265625 0 L 11.25 -6.578125 L 8.03125 -1.15625 L 6.890625 -1.15625 L 3.671875 -6.4375 L 3.671875 0 L 1.296875 0 L 1.296875 -10.953125 L 3.390625 -10.953125 L 7.5 -4.15625 L 11.53125 -10.953125 L 13.625 -10.953125 L 13.65625 0 Z M 11.265625 0 "/></g></g></g><g fill="#ffffff" fill-opacity="1"><g transform="translate(104.484502, 161.989998)"><g><path d="M 9.34375 -5.703125 C 9.96875 -5.503906 10.457031 -5.171875 10.8125 -4.703125 C 11.164062 -4.242188 11.34375 -3.671875 11.34375 -2.984375 C 11.34375 -2.023438 10.96875 -1.285156 10.21875 -0.765625 C 9.476562 -0.253906 8.394531 0 6.96875 0 L 1.296875 0 L 1.296875 -10.953125 L 6.65625 -10.953125 C 7.988281 -10.953125 9.007812 -10.695312 9.71875 -10.1875 C 10.4375 -9.675781 10.796875 -8.984375 10.796875 -8.109375 C 10.796875 -7.578125 10.664062 -7.101562 10.40625 -6.6875 C 10.15625 -6.269531 9.800781 -5.941406 9.34375 -5.703125 Z M 3.8125 -9.046875 L 3.8125 -6.46875 L 6.34375 -6.46875 C 6.96875 -6.46875 7.441406 -6.578125 7.765625 -6.796875 C 8.085938 -7.015625 8.25 -7.335938 8.25 -7.765625 C 8.25 -8.191406 8.085938 -8.507812 7.765625 -8.71875 C 7.441406 -8.9375 6.96875 -9.046875 6.34375 -9.046875 Z M 6.78125 -1.90625 C 7.445312 -1.90625 7.945312 -2.015625 8.28125 -2.234375 C 8.625 -2.453125 8.796875 -2.789062 8.796875 -3.25 C 8.796875 -4.164062 8.125 -4.625 6.78125 -4.625 L 3.8125 -4.625 L 3.8125 -1.90625 Z M 6.78125 -1.90625 "/></g></g></g><g fill="#ffffff" fill-opacity="1"><g transform="translate(116.457493, 161.989998)"><g><path d="M 8.515625 -2.34375 L 3.421875 -2.34375 L 2.453125 0 L -0.140625 0 L 4.75 -10.953125 L 7.25 -10.953125 L 12.15625 0 L 9.484375 0 Z M 7.71875 -4.28125 L 5.984375 -8.46875 L 4.25 -4.28125 Z M 7.71875 -4.28125 "/></g></g></g><g fill="#ffffff" fill-opacity="1"><g transform="translate(128.44614, 161.989998)"><g><path d="M 8.28125 0 L 6.171875 -3.046875 L 3.828125 -3.046875 L 3.828125 0 L 1.296875 0 L 1.296875 -10.953125 L 6.046875 -10.953125 C 7.015625 -10.953125 7.851562 -10.789062 8.5625 -10.46875 C 9.28125 -10.144531 9.832031 -9.6875 10.21875 -9.09375 C 10.601562 -8.5 10.796875 -7.796875 10.796875 -6.984375 C 10.796875 -6.171875 10.597656 -5.46875 10.203125 -4.875 C 9.816406 -4.289062 9.265625 -3.835938 8.546875 -3.515625 L 11 0 Z M 8.234375 -6.984375 C 8.234375 -7.597656 8.035156 -8.066406 7.640625 -8.390625 C 7.242188 -8.722656 6.664062 -8.890625 5.90625 -8.890625 L 3.828125 -8.890625 L 3.828125 -5.078125 L 5.90625 -5.078125 C 6.664062 -5.078125 7.242188 -5.242188 7.640625 -5.578125 C 8.035156 -5.910156 8.234375 -6.378906 8.234375 -6.984375 Z M 8.234375 -6.984375 "/></g></g></g><g fill="#ffffff" fill-opacity="1"><g transform="translate(139.949601, 161.989998)"><g><path d="M 1.296875 -10.953125 L 3.828125 -10.953125 L 3.828125 0 L 1.296875 0 Z M 1.296875 -10.953125 "/></g></g></g><g fill="#ffffff" fill-opacity="1"><g transform="translate(145.083121, 161.989998)"><g><path d="M 9.78125 -2.03125 L 9.78125 0 L 1.296875 0 L 1.296875 -10.953125 L 9.578125 -10.953125 L 9.578125 -8.921875 L 3.8125 -8.921875 L 3.8125 -6.546875 L 8.90625 -6.546875 L 8.90625 -4.578125 L 3.8125 -4.578125 L 3.8125 -2.03125 Z M 6.8125 -11.859375 L 5.4375 -13.046875 L 4.078125 -11.859375 L 2.296875 -11.859375 L 4.359375 -14.109375 L 6.53125 -14.109375 L 8.59375 -11.859375 Z M 6.8125 -11.859375 "/></g></g></g></svg>