<svg width="613" height="650" viewBox="0 0 613 650" fill="none" xmlns="http://www.w3.org/2000/svg">
<path d="M505 257L448 393H417.872L361 257H394L434.085 354.124L474.745 257H505Z" fill="black"/>
<path d="M363.213 427H320.787L285 391.213L306.213 370L363.213 427Z" fill="black"/>
<path d="M279.023 392.166C267.202 390.641 256.646 386.828 247.372 380.727C238.13 374.595 230.914 366.683 225.723 357.024C220.564 347.333 218 336.609 218 324.869C218 312.001 221.07 300.403 227.242 290.108C233.398 279.814 241.928 271.727 252.816 265.833C263.704 259.955 275.922 257 289.468 257C303.047 257 315.248 259.955 326.057 265.833C336.898 271.727 345.428 279.814 351.631 290.108C357.867 300.403 361 312.001 361 324.869C361 340.12 356.727 353.497 348.213 364.968C339.683 376.454 328.399 384.445 314.346 388.925C300.293 393.405 290.845 393.691 279.023 392.166ZM248.638 324.869C248.638 333.003 250.411 340.248 253.956 346.602C257.501 352.957 262.375 357.914 268.579 361.472C274.814 365.031 281.777 366.81 289.468 366.81C297.191 366.81 304.154 365.031 310.358 361.472C316.593 357.914 321.499 352.957 325.044 346.602C328.589 340.248 330.362 333.003 330.362 324.869C330.362 316.735 328.589 309.49 325.044 303.136C321.499 296.749 316.593 291.761 310.358 288.202C304.154 284.643 297.191 282.864 289.468 282.864C281.777 282.864 274.814 284.643 268.579 288.202C262.375 291.761 257.501 296.749 253.956 303.136C250.411 309.49 248.638 316.735 248.638 324.869Z" fill="black"/>
<path d="M150.742 393C141.869 393 133.712 391.315 126.254 387.946C118.829 384.577 112.739 379.782 108 373.562L124.855 352.893C131.979 362.709 140.12 367.601 149.279 367.601C161.65 367.601 167.852 360.215 167.852 345.442V281.816V257H198V343.757C198 360.182 193.993 372.493 185.979 380.689C177.996 388.902 166.261 393 150.742 393Z" fill="black"/>
<path d="M609.022 393C585.358 538.738 458.923 650 306.5 650C154.077 650 27.6417 538.738 3.97754 393H18.3438C42.2696 530.477 162.178 635 306.5 635C450.822 635 570.73 530.476 594.656 393H609.022ZM306.5 0C458.923 0 585.358 111.262 609.022 257H594.656C570.73 119.524 450.822 15 306.5 15C162.178 15 42.2696 119.524 18.3438 257H3.97754C27.6418 111.262 154.077 0 306.5 0Z" fill="black"/>
<path d="M231.672 509V472.45H217.257V463.956H256.51V472.45H242.096V509H231.672ZM271.707 482.102H293.393V490.21H271.707V482.102ZM272.479 500.635H296.996V509H262.119V463.956H296.16V472.321H272.479V500.635ZM314.879 482.102H336.565V490.21H314.879V482.102ZM315.651 500.635H340.168V509H305.291V463.956H339.332V472.321H315.651V500.635ZM348.463 509V463.956H357.085L383.662 496.388H379.479V463.956H389.775V509H381.216L354.576 476.568H358.759V509H348.463Z" fill="black"/>
</svg>
