<svg xmlns="http://www.w3.org/2000/svg" xmlns:xlink="http://www.w3.org/1999/xlink" width="320" zoomAndPan="magnify" viewBox="0 0 240 239.999995" height="320" preserveAspectRatio="xMidYMid meet" version="1.0"><defs><g/><clipPath id="e55bcb0f30"><path d="M 23.921875 23.921875 L 216.078125 23.921875 L 216.078125 216.078125 L 23.921875 216.078125 Z M 23.921875 23.921875 " clip-rule="nonzero"/></clipPath><clipPath id="4eadcd4783"><path d="M 120 23.921875 C 66.9375 23.921875 23.921875 66.9375 23.921875 120 C 23.921875 173.0625 66.9375 216.078125 120 216.078125 C 173.0625 216.078125 216.078125 173.0625 216.078125 120 C 216.078125 66.9375 173.0625 23.921875 120 23.921875 Z M 120 23.921875 " clip-rule="nonzero"/></clipPath></defs><g clip-path="url(#e55bcb0f30)"><g clip-path="url(#4eadcd4783)"><path fill="#ffffff" d="M 23.921875 23.921875 L 216.078125 23.921875 L 216.078125 216.078125 L 23.921875 216.078125 Z M 23.921875 23.921875 " fill-opacity="1" fill-rule="nonzero"/></g></g><path fill="#000000" d="M 119.589844 40.433594 C 119.40625 40.722656 119.234375 40.738281 115.40625 40.738281 C 111.539062 40.738281 111.410156 40.746094 111.332031 41.039062 C 111.257812 41.320312 111.125 41.339844 109.1875 41.34375 C 106.824219 41.34375 106.441406 41.410156 106.441406 41.808594 C 106.441406 42.070312 106.304688 42.09375 104.792969 42.09375 C 103.269531 42.09375 103.136719 42.117188 103.0625 42.394531 C 102.992188 42.664062 102.855469 42.695312 101.84375 42.695312 C 100.738281 42.695312 100.226562 42.890625 100.226562 43.3125 C 100.226562 43.386719 99.785156 43.449219 99.242188 43.449219 C 98.367188 43.449219 98.257812 43.484375 98.257812 43.746094 C 98.257812 44 98.132812 44.046875 97.3125 44.085938 C 96.496094 44.121094 96.34375 44.175781 96.214844 44.46875 C 96.082031 44.769531 95.953125 44.808594 95.117188 44.808594 C 94.269531 44.808594 94.167969 44.839844 94.167969 45.109375 C 94.167969 45.375 94.066406 45.410156 93.34375 45.410156 C 92.558594 45.410156 92.046875 45.652344 92.046875 46.023438 C 92.046875 46.101562 91.765625 46.164062 91.425781 46.164062 C 90.9375 46.164062 90.789062 46.226562 90.726562 46.457031 C 90.667969 46.679688 90.496094 46.761719 90.023438 46.796875 C 89.503906 46.835938 89.386719 46.902344 89.34375 47.183594 C 89.300781 47.492188 89.214844 47.523438 88.382812 47.523438 C 87.605469 47.523438 87.460938 47.566406 87.394531 47.816406 C 87.335938 48.035156 87.160156 48.121094 86.6875 48.15625 C 86.167969 48.191406 86.050781 48.257812 86.011719 48.539062 C 85.972656 48.828125 85.871094 48.878906 85.355469 48.878906 C 84.882812 48.878906 84.726562 48.945312 84.667969 49.164062 C 84.617188 49.359375 84.402344 49.476562 83.984375 49.542969 C 83.558594 49.613281 83.355469 49.726562 83.300781 49.9375 C 83.25 50.128906 83.09375 50.234375 82.859375 50.234375 C 82.605469 50.234375 82.5 50.320312 82.5 50.527344 C 82.5 50.765625 82.375 50.832031 81.855469 50.867188 C 81.320312 50.90625 81.203125 50.972656 81.164062 51.253906 C 81.125 51.53125 81.019531 51.59375 80.582031 51.59375 C 80.179688 51.59375 80.027344 51.664062 79.96875 51.886719 C 79.925781 52.046875 79.746094 52.199219 79.566406 52.226562 C 79.363281 52.253906 79.222656 52.398438 79.191406 52.609375 C 79.152344 52.902344 79.054688 52.949219 78.472656 52.949219 C 77.910156 52.949219 77.800781 52.996094 77.800781 53.242188 C 77.800781 53.425781 77.679688 53.546875 77.460938 53.578125 C 77.242188 53.609375 77.101562 53.75 77.070312 53.96875 C 77.039062 54.183594 76.917969 54.304688 76.730469 54.304688 C 76.542969 54.304688 76.4375 54.410156 76.4375 54.597656 C 76.4375 54.835938 76.316406 54.902344 75.792969 54.9375 C 75.257812 54.976562 75.140625 55.042969 75.101562 55.324219 C 75.070312 55.546875 74.949219 55.664062 74.746094 55.664062 C 74.570312 55.664062 74.40625 55.789062 74.363281 55.953125 C 74.3125 56.152344 74.101562 56.277344 73.695312 56.34375 C 73.25 56.417969 73.105469 56.515625 73.105469 56.730469 C 73.105469 56.9375 73 57.019531 72.726562 57.019531 C 72.453125 57.019531 72.347656 57.101562 72.347656 57.3125 C 72.347656 57.5 72.226562 57.621094 72.007812 57.652344 C 71.789062 57.679688 71.648438 57.820312 71.617188 58.039062 C 71.585938 58.257812 71.464844 58.378906 71.277344 58.378906 C 71.089844 58.378906 70.984375 58.480469 70.984375 58.667969 C 70.984375 58.855469 70.863281 58.976562 70.644531 59.007812 C 70.425781 59.039062 70.285156 59.175781 70.253906 59.386719 C 70.21875 59.648438 70.089844 59.726562 69.648438 59.761719 C 69.128906 59.804688 69.078125 59.851562 68.949219 60.4375 C 68.824219 60.996094 68.75 61.078125 68.296875 61.164062 C 68.015625 61.214844 67.75 61.351562 67.707031 61.460938 C 67.664062 61.574219 67.460938 61.707031 67.261719 61.757812 C 67.035156 61.816406 66.890625 61.960938 66.890625 62.132812 C 66.890625 62.285156 66.757812 62.449219 66.589844 62.492188 C 66.421875 62.535156 66.285156 62.675781 66.285156 62.800781 C 66.285156 62.925781 66.132812 63.050781 65.945312 63.078125 C 65.726562 63.109375 65.585938 63.246094 65.554688 63.464844 C 65.523438 63.683594 65.402344 63.804688 65.21875 63.804688 C 65.039062 63.804688 64.894531 63.941406 64.835938 64.167969 C 64.785156 64.367188 64.621094 64.5625 64.464844 64.601562 C 64.28125 64.652344 64.171875 64.84375 64.136719 65.171875 C 64.09375 65.605469 64.015625 65.683594 63.484375 65.832031 C 62.929688 65.984375 62.871094 66.046875 62.832031 66.550781 C 62.792969 66.988281 62.714844 67.113281 62.453125 67.148438 C 62.242188 67.179688 62.101562 67.320312 62.070312 67.535156 C 62.039062 67.753906 61.917969 67.875 61.730469 67.875 C 61.550781 67.875 61.4375 67.980469 61.4375 68.140625 C 61.4375 68.289062 61.285156 68.472656 61.097656 68.554688 C 60.847656 68.664062 60.742188 68.855469 60.707031 69.269531 C 60.671875 69.714844 60.597656 69.835938 60.367188 69.835938 C 60.15625 69.835938 60.074219 69.941406 60.074219 70.210938 C 60.074219 70.515625 60 70.589844 59.695312 70.589844 C 59.425781 70.589844 59.316406 70.671875 59.316406 70.875 C 59.316406 71.03125 59.179688 71.191406 59.011719 71.238281 C 58.773438 71.296875 58.710938 71.441406 58.710938 71.921875 C 58.710938 72.4375 58.660156 72.535156 58.371094 72.578125 C 58.148438 72.609375 58.011719 72.746094 57.980469 72.964844 C 57.949219 73.183594 57.828125 73.304688 57.640625 73.304688 C 57.460938 73.304688 57.347656 73.40625 57.347656 73.570312 C 57.347656 73.714844 57.191406 73.902344 57.003906 73.984375 C 56.757812 74.09375 56.652344 74.28125 56.617188 74.683594 C 56.585938 75.078125 56.488281 75.253906 56.277344 75.308594 C 56.105469 75.355469 55.984375 75.515625 55.984375 75.703125 C 55.984375 75.910156 55.886719 76.015625 55.699219 76.015625 C 55.40625 76.015625 55.230469 76.398438 55.226562 77.035156 C 55.226562 77.273438 55.132812 77.375 54.921875 77.375 C 54.734375 77.375 54.617188 77.476562 54.617188 77.640625 C 54.617188 77.785156 54.464844 77.972656 54.277344 78.054688 C 54.03125 78.164062 53.925781 78.355469 53.890625 78.753906 C 53.859375 79.148438 53.761719 79.324219 53.550781 79.378906 C 53.320312 79.441406 53.253906 79.589844 53.253906 80.0625 C 53.253906 80.578125 53.203125 80.679688 52.914062 80.71875 C 52.652344 80.753906 52.5625 80.882812 52.527344 81.261719 C 52.496094 81.550781 52.355469 81.832031 52.183594 81.9375 C 51.992188 82.058594 51.890625 82.289062 51.890625 82.609375 C 51.890625 82.960938 51.789062 83.164062 51.511719 83.34375 C 51.21875 83.535156 51.132812 83.71875 51.132812 84.160156 C 51.132812 84.601562 51.066406 84.746094 50.832031 84.804688 C 50.589844 84.867188 50.527344 85.011719 50.527344 85.492188 C 50.527344 86.003906 50.476562 86.105469 50.1875 86.144531 C 49.878906 86.191406 49.84375 86.289062 49.800781 87.210938 C 49.761719 88.105469 49.71875 88.230469 49.460938 88.230469 C 49.210938 88.230469 49.164062 88.335938 49.164062 88.898438 C 49.164062 89.476562 49.117188 89.574219 48.824219 89.613281 C 48.539062 89.652344 48.472656 89.769531 48.4375 90.304688 C 48.398438 90.820312 48.332031 90.945312 48.09375 90.945312 C 47.832031 90.945312 47.800781 91.054688 47.800781 91.914062 C 47.800781 92.804688 47.773438 92.886719 47.460938 92.929688 C 47.148438 92.976562 47.113281 93.074219 47.074219 93.980469 C 47.035156 94.828125 46.984375 94.996094 46.734375 95.058594 C 46.476562 95.125 46.4375 95.269531 46.4375 96.132812 C 46.4375 96.921875 46.390625 97.125 46.207031 97.125 C 45.914062 97.125 45.679688 97.726562 45.679688 98.472656 C 45.679688 98.921875 45.613281 99.066406 45.375 99.128906 C 45.097656 99.203125 45.074219 99.335938 45.074219 100.804688 L 45.074219 102.402344 L 46.4375 102.402344 C 47.71875 102.402344 47.800781 102.382812 47.800781 102.085938 C 47.800781 101.898438 47.921875 101.738281 48.101562 101.691406 C 48.382812 101.621094 48.40625 101.488281 48.40625 99.984375 C 48.40625 98.40625 48.417969 98.351562 48.746094 98.304688 C 49.054688 98.261719 49.09375 98.160156 49.132812 97.320312 C 49.171875 96.550781 49.230469 96.371094 49.472656 96.292969 C 49.726562 96.214844 49.769531 96.058594 49.769531 95.230469 C 49.769531 94.378906 49.804688 94.261719 50.058594 94.261719 C 50.378906 94.261719 50.527344 93.980469 50.527344 93.378906 C 50.527344 93.140625 50.648438 92.898438 50.832031 92.789062 C 51.09375 92.625 51.132812 92.4375 51.132812 91.394531 C 51.132812 90.210938 51.140625 90.191406 51.511719 90.191406 C 51.859375 90.191406 51.890625 90.132812 51.890625 89.511719 C 51.890625 88.933594 51.9375 88.832031 52.195312 88.832031 C 52.453125 88.832031 52.496094 88.730469 52.496094 88.164062 C 52.496094 87.585938 52.542969 87.492188 52.839844 87.449219 C 53.117188 87.410156 53.1875 87.289062 53.226562 86.804688 C 53.257812 86.425781 53.382812 86.132812 53.570312 86.003906 C 53.757812 85.871094 53.859375 85.625 53.859375 85.292969 C 53.859375 84.878906 53.925781 84.773438 54.203125 84.734375 C 54.484375 84.695312 54.550781 84.578125 54.589844 84.046875 C 54.628906 83.527344 54.691406 83.40625 54.929688 83.40625 C 55.179688 83.40625 55.226562 83.296875 55.226562 82.738281 C 55.226562 82.160156 55.269531 82.0625 55.566406 82.019531 C 55.847656 81.980469 55.914062 81.863281 55.953125 81.332031 C 55.992188 80.8125 56.054688 80.691406 56.292969 80.691406 C 56.488281 80.691406 56.589844 80.585938 56.589844 80.390625 C 56.589844 80.222656 56.652344 80.089844 56.730469 80.089844 C 57.011719 80.089844 57.347656 79.601562 57.347656 79.191406 C 57.347656 78.894531 57.4375 78.742188 57.648438 78.6875 C 57.832031 78.640625 57.953125 78.480469 57.953125 78.292969 C 57.953125 78.109375 58.050781 77.976562 58.183594 77.976562 C 58.476562 77.976562 58.710938 77.375 58.710938 76.609375 C 58.710938 76.117188 58.761719 76.015625 59.011719 76.015625 C 59.234375 76.015625 59.316406 75.917969 59.316406 75.640625 C 59.316406 75.339844 59.390625 75.261719 59.695312 75.261719 C 59.980469 75.261719 60.074219 75.183594 60.074219 74.949219 C 60.074219 74.757812 60.195312 74.601562 60.375 74.554688 C 60.542969 74.511719 60.679688 74.355469 60.679688 74.207031 C 60.679688 74.0625 60.8125 73.90625 60.980469 73.863281 C 61.191406 73.808594 61.304688 73.605469 61.375 73.167969 C 61.453125 72.699219 61.546875 72.550781 61.761719 72.550781 C 61.9375 72.550781 62.042969 72.441406 62.042969 72.257812 C 62.042969 72.070312 62.164062 71.949219 62.382812 71.917969 C 62.605469 71.886719 62.742188 71.75 62.773438 71.53125 C 62.800781 71.34375 62.925781 71.191406 63.054688 71.191406 C 63.179688 71.191406 63.316406 71.0625 63.359375 70.90625 C 63.402344 70.746094 63.566406 70.582031 63.722656 70.542969 C 63.882812 70.5 64.058594 70.34375 64.117188 70.1875 C 64.171875 70.035156 64.34375 69.824219 64.496094 69.714844 C 64.671875 69.589844 64.769531 69.328125 64.769531 68.996094 C 64.769531 68.542969 64.820312 68.480469 65.148438 68.480469 C 65.421875 68.480469 65.527344 68.398438 65.527344 68.195312 C 65.527344 68.039062 65.664062 67.875 65.832031 67.832031 C 66.011719 67.785156 66.136719 67.625 66.136719 67.4375 C 66.136719 67.21875 66.230469 67.121094 66.453125 67.121094 C 66.636719 67.121094 66.800781 67 66.84375 66.835938 C 66.886719 66.675781 67.050781 66.511719 67.210938 66.472656 C 67.378906 66.429688 67.5 66.265625 67.5 66.082031 C 67.5 65.859375 67.59375 65.765625 67.816406 65.765625 C 68.003906 65.765625 68.164062 65.644531 68.210938 65.46875 C 68.253906 65.304688 68.417969 65.132812 68.574219 65.082031 C 68.734375 65.03125 68.863281 64.859375 68.863281 64.699219 C 68.863281 64.503906 68.96875 64.40625 69.179688 64.40625 C 69.363281 64.40625 69.527344 64.289062 69.574219 64.121094 C 69.613281 63.960938 69.777344 63.800781 69.9375 63.757812 C 70.105469 63.714844 70.226562 63.550781 70.226562 63.367188 C 70.226562 63.148438 70.320312 63.050781 70.542969 63.050781 C 70.734375 63.050781 70.890625 62.929688 70.941406 62.75 C 70.984375 62.582031 71.144531 62.449219 71.304688 62.449219 C 71.507812 62.449219 71.589844 62.339844 71.589844 62.070312 C 71.589844 61.789062 71.667969 61.695312 71.90625 61.695312 C 72.097656 61.695312 72.257812 61.574219 72.304688 61.394531 C 72.347656 61.226562 72.511719 61.089844 72.667969 61.089844 C 72.871094 61.089844 72.953125 60.984375 72.953125 60.714844 C 72.953125 60.414062 73.027344 60.335938 73.332031 60.335938 C 73.601562 60.335938 73.710938 60.253906 73.710938 60.054688 C 73.710938 59.894531 73.847656 59.734375 74.015625 59.691406 C 74.195312 59.644531 74.316406 59.484375 74.316406 59.296875 C 74.316406 59.023438 74.40625 58.980469 75 58.980469 C 75.570312 58.980469 75.679688 58.933594 75.679688 58.6875 C 75.679688 58.503906 75.804688 58.382812 76.023438 58.351562 C 76.242188 58.320312 76.378906 58.179688 76.410156 57.960938 C 76.441406 57.746094 76.5625 57.625 76.753906 57.625 C 76.945312 57.625 77.042969 57.519531 77.042969 57.320312 C 77.042969 57.089844 77.144531 57.019531 77.488281 57.019531 C 78.125 57.019531 78.410156 56.875 78.410156 56.550781 C 78.410156 56.347656 78.515625 56.265625 78.789062 56.265625 C 79.0625 56.265625 79.164062 56.183594 79.164062 55.972656 C 79.164062 55.746094 79.289062 55.671875 79.734375 55.632812 C 80.152344 55.601562 80.34375 55.5 80.453125 55.25 C 80.535156 55.0625 80.722656 54.910156 80.867188 54.910156 C 81.03125 54.910156 81.136719 54.796875 81.136719 54.617188 C 81.136719 54.378906 81.257812 54.316406 81.78125 54.277344 C 82.316406 54.238281 82.433594 54.171875 82.472656 53.890625 C 82.515625 53.597656 82.609375 53.550781 83.191406 53.550781 C 83.761719 53.550781 83.863281 53.507812 83.863281 53.25 C 83.863281 53.039062 83.964844 52.949219 84.203125 52.949219 C 84.84375 52.945312 85.226562 52.769531 85.226562 52.480469 C 85.226562 52.277344 85.335938 52.195312 85.605469 52.195312 C 85.878906 52.195312 85.984375 52.113281 85.984375 51.902344 C 85.984375 51.664062 86.109375 51.601562 86.628906 51.5625 C 87.164062 51.523438 87.28125 51.460938 87.320312 51.179688 C 87.363281 50.890625 87.460938 50.839844 87.980469 50.839844 C 88.457031 50.839844 88.605469 50.773438 88.667969 50.546875 C 88.722656 50.324219 88.898438 50.238281 89.371094 50.207031 C 89.890625 50.167969 90.007812 50.101562 90.046875 49.820312 C 90.089844 49.527344 90.1875 49.480469 90.769531 49.480469 C 91.339844 49.480469 91.441406 49.4375 91.441406 49.179688 C 91.441406 48.9375 91.539062 48.878906 91.960938 48.878906 C 92.660156 48.878906 93.257812 48.636719 93.257812 48.355469 C 93.257812 48.179688 93.4375 48.125 94.015625 48.125 C 94.671875 48.125 94.773438 48.085938 94.773438 47.824219 C 94.773438 47.558594 94.875 47.523438 95.585938 47.523438 C 96.777344 47.523438 97.378906 47.371094 97.460938 47.046875 C 97.519531 46.828125 97.679688 46.769531 98.199219 46.769531 C 98.761719 46.769531 98.863281 46.722656 98.863281 46.464844 C 98.863281 46.203125 98.964844 46.164062 99.679688 46.164062 C 100.855469 46.164062 101.417969 46.019531 101.523438 45.695312 C 101.601562 45.449219 101.769531 45.410156 102.804688 45.410156 C 103.820312 45.410156 104.03125 45.367188 104.207031 45.113281 C 104.386719 44.859375 104.625 44.8125 105.996094 44.777344 C 107.46875 44.734375 107.585938 44.710938 107.726562 44.394531 C 107.867188 44.070312 107.960938 44.054688 109.507812 44.054688 C 111.035156 44.054688 111.136719 44.035156 111.136719 43.753906 C 111.136719 43.511719 111.238281 43.449219 111.636719 43.449219 C 111.914062 43.449219 112.21875 43.53125 112.320312 43.632812 C 112.460938 43.773438 112.542969 43.773438 112.683594 43.632812 C 112.820312 43.496094 114.839844 43.449219 120.847656 43.449219 C 128.703125 43.449219 128.832031 43.457031 128.910156 43.753906 C 128.984375 44.03125 129.117188 44.054688 130.660156 44.054688 C 132.164062 44.054688 132.339844 44.082031 132.421875 44.335938 C 132.535156 44.6875 133.09375 44.808594 134.625 44.808594 C 135.671875 44.808594 135.808594 44.839844 135.878906 45.109375 C 135.953125 45.386719 136.085938 45.410156 137.554688 45.410156 C 139.09375 45.410156 139.152344 45.421875 139.195312 45.75 C 139.238281 46.027344 139.355469 46.097656 139.84375 46.136719 C 140.222656 46.167969 140.519531 46.292969 140.648438 46.476562 C 140.820312 46.722656 141.039062 46.769531 142.046875 46.769531 C 143.167969 46.769531 143.242188 46.789062 143.289062 47.105469 C 143.332031 47.414062 143.429688 47.449219 144.34375 47.492188 C 145.195312 47.527344 145.363281 47.582031 145.429688 47.828125 C 145.496094 48.082031 145.640625 48.125 146.417969 48.125 C 147.25 48.125 147.335938 48.15625 147.378906 48.464844 C 147.417969 48.746094 147.535156 48.8125 148.070312 48.847656 C 148.59375 48.886719 148.714844 48.953125 148.714844 49.1875 C 148.714844 49.449219 148.828125 49.480469 149.691406 49.480469 C 150.585938 49.480469 150.667969 49.507812 150.714844 49.820312 C 150.742188 50.035156 150.882812 50.175781 151.085938 50.207031 C 151.265625 50.230469 151.449219 50.382812 151.488281 50.546875 C 151.550781 50.773438 151.699219 50.839844 152.167969 50.839844 C 152.640625 50.839844 152.789062 50.902344 152.851562 51.136719 C 152.90625 51.347656 153.109375 51.460938 153.550781 51.53125 C 154.019531 51.605469 154.171875 51.699219 154.171875 51.914062 C 154.171875 52.109375 154.28125 52.195312 154.53125 52.195312 C 154.765625 52.195312 154.921875 52.300781 154.972656 52.492188 C 155.027344 52.703125 155.230469 52.820312 155.65625 52.886719 C 156.074219 52.953125 156.289062 53.074219 156.339844 53.269531 C 156.398438 53.484375 156.554688 53.550781 157.007812 53.550781 C 157.445312 53.550781 157.695312 53.652344 157.960938 53.929688 C 158.15625 54.136719 158.429688 54.304688 158.574219 54.304688 C 158.714844 54.304688 158.867188 54.441406 158.914062 54.609375 C 158.96875 54.828125 159.117188 54.910156 159.457031 54.910156 C 159.785156 54.910156 159.996094 55.019531 160.171875 55.285156 C 160.304688 55.492188 160.546875 55.664062 160.703125 55.664062 C 160.886719 55.664062 160.988281 55.769531 160.988281 55.964844 C 160.988281 56.222656 161.089844 56.265625 161.664062 56.265625 L 162.335938 56.265625 L 162.382812 56.90625 C 162.429688 57.542969 162.433594 57.546875 163.0625 57.59375 C 163.585938 57.632812 163.707031 57.699219 163.746094 57.96875 C 163.785156 58.242188 163.90625 58.308594 164.4375 58.347656 C 164.957031 58.386719 165.082031 58.449219 165.082031 58.6875 C 165.082031 58.875 165.183594 58.980469 165.375 58.980469 C 165.5625 58.980469 165.683594 59.101562 165.714844 59.320312 C 165.75 59.578125 165.878906 59.667969 166.253906 59.707031 C 166.761719 59.753906 167.203125 60.195312 167.203125 60.660156 C 167.203125 60.824219 167.371094 60.953125 167.664062 61.015625 C 167.917969 61.074219 168.207031 61.246094 168.304688 61.40625 C 168.40625 61.566406 168.640625 61.695312 168.828125 61.695312 C 169.09375 61.695312 169.171875 61.78125 169.171875 62.070312 C 169.171875 62.347656 169.253906 62.449219 169.476562 62.449219 C 169.675781 62.449219 169.777344 62.546875 169.777344 62.75 C 169.777344 62.972656 169.878906 63.050781 170.15625 63.050781 C 170.460938 63.050781 170.535156 63.125 170.535156 63.429688 C 170.535156 63.703125 170.617188 63.804688 170.839844 63.804688 C 171.039062 63.804688 171.140625 63.90625 171.140625 64.105469 C 171.140625 64.328125 171.242188 64.40625 171.519531 64.40625 C 171.824219 64.40625 171.898438 64.484375 171.898438 64.785156 C 171.898438 65.0625 171.980469 65.160156 172.203125 65.160156 C 172.40625 65.160156 172.503906 65.261719 172.503906 65.464844 C 172.503906 65.683594 172.605469 65.765625 172.882812 65.765625 C 173.1875 65.765625 173.261719 65.839844 173.261719 66.140625 C 173.261719 66.417969 173.34375 66.519531 173.566406 66.519531 C 173.769531 66.519531 173.871094 66.621094 173.871094 66.820312 C 173.871094 67.042969 173.96875 67.121094 174.246094 67.121094 C 174.550781 67.121094 174.625 67.199219 174.625 67.5 C 174.625 67.769531 174.707031 67.875 174.914062 67.875 C 175.121094 67.875 175.226562 68.023438 175.300781 68.421875 C 175.371094 68.777344 175.503906 68.992188 175.699219 69.039062 C 175.863281 69.082031 175.992188 69.246094 175.992188 69.414062 C 175.992188 69.582031 176.117188 69.746094 176.28125 69.789062 C 176.4375 69.828125 176.605469 70 176.648438 70.164062 C 176.691406 70.328125 176.859375 70.496094 177.023438 70.539062 C 177.207031 70.585938 177.359375 70.792969 177.414062 71.078125 C 177.464844 71.335938 177.765625 71.78125 178.085938 72.082031 C 178.40625 72.382812 178.710938 72.742188 178.761719 72.890625 C 178.816406 73.035156 178.960938 73.152344 179.082031 73.152344 C 179.203125 73.152344 179.324219 73.304688 179.351562 73.492188 C 179.382812 73.710938 179.523438 73.847656 179.742188 73.878906 C 179.988281 73.914062 180.082031 74.027344 180.082031 74.292969 C 180.082031 74.554688 180.164062 74.660156 180.375 74.660156 C 180.605469 74.660156 180.679688 74.78125 180.714844 75.226562 C 180.75 75.640625 180.855469 75.832031 181.105469 75.941406 C 181.292969 76.023438 181.445312 76.207031 181.445312 76.355469 C 181.445312 76.515625 181.558594 76.621094 181.738281 76.621094 C 181.976562 76.621094 182.042969 76.742188 182.082031 77.261719 C 182.121094 77.792969 182.183594 77.910156 182.46875 77.949219 C 182.714844 77.984375 182.808594 78.097656 182.808594 78.363281 C 182.808594 78.628906 182.894531 78.730469 183.105469 78.730469 C 183.339844 78.730469 183.40625 78.855469 183.445312 79.371094 C 183.484375 79.90625 183.546875 80.019531 183.832031 80.0625 C 184.121094 80.101562 184.171875 80.203125 184.171875 80.714844 C 184.171875 81.191406 184.238281 81.339844 184.46875 81.398438 C 184.679688 81.453125 184.777344 81.632812 184.808594 82.027344 C 184.84375 82.425781 184.949219 82.617188 185.195312 82.726562 C 185.460938 82.839844 185.535156 82.996094 185.535156 83.421875 C 185.535156 83.832031 185.609375 83.992188 185.820312 84.046875 C 186.003906 84.09375 186.140625 84.316406 186.207031 84.683594 C 186.277344 85.058594 186.410156 85.273438 186.605469 85.324219 C 186.792969 85.371094 186.898438 85.53125 186.898438 85.761719 C 186.898438 86.015625 186.984375 86.117188 187.195312 86.117188 C 187.453125 86.117188 187.496094 86.242188 187.535156 87.0625 C 187.574219 87.871094 187.628906 88.023438 187.921875 88.152344 C 188.1875 88.269531 188.265625 88.425781 188.265625 88.859375 C 188.265625 89.277344 188.335938 89.4375 188.558594 89.507812 C 188.777344 89.578125 188.867188 89.765625 188.898438 90.234375 C 188.9375 90.761719 189.003906 90.875 189.285156 90.917969 C 189.601562 90.960938 189.628906 91.039062 189.628906 92.007812 C 189.628906 92.855469 189.6875 93.113281 189.929688 93.355469 C 190.097656 93.523438 190.234375 93.851562 190.234375 94.089844 C 190.234375 94.910156 190.425781 95.503906 190.710938 95.578125 C 190.929688 95.636719 190.992188 95.796875 190.992188 96.3125 C 190.992188 96.867188 191.039062 96.972656 191.289062 96.972656 C 191.546875 96.972656 191.589844 97.097656 191.628906 97.992188 C 191.667969 98.917969 191.703125 99.015625 192.015625 99.058594 C 192.347656 99.105469 192.355469 99.148438 192.355469 101.039062 C 192.355469 102.84375 192.375 102.976562 192.660156 103.050781 C 192.84375 103.097656 192.960938 103.253906 192.960938 103.449219 C 192.960938 103.757812 193.019531 103.769531 194.289062 103.726562 L 195.613281 103.683594 L 195.65625 102.0625 C 195.695312 100.519531 195.683594 100.441406 195.390625 100.441406 C 195.128906 100.441406 195.082031 100.34375 195.082031 99.800781 C 195.078125 98.902344 194.949219 98.523438 194.613281 98.433594 C 194.367188 98.371094 194.324219 98.21875 194.324219 97.367188 C 194.324219 96.472656 194.292969 96.371094 194.023438 96.371094 C 193.746094 96.371094 193.71875 96.269531 193.71875 95.253906 C 193.71875 93.9375 193.636719 93.65625 193.25 93.65625 C 193 93.65625 192.960938 93.539062 192.960938 92.738281 C 192.960938 91.953125 192.917969 91.808594 192.667969 91.742188 C 192.4375 91.683594 192.359375 91.511719 192.324219 90.964844 C 192.285156 90.371094 192.226562 90.257812 191.9375 90.21875 C 191.632812 90.175781 191.597656 90.085938 191.597656 89.359375 C 191.597656 88.730469 191.53125 88.503906 191.304688 88.34375 C 191.121094 88.214844 190.996094 87.921875 190.964844 87.546875 C 190.925781 87.058594 190.851562 86.9375 190.574219 86.898438 C 190.28125 86.859375 190.234375 86.761719 190.234375 86.183594 C 190.234375 85.617188 190.1875 85.515625 189.929688 85.515625 C 189.675781 85.515625 189.628906 85.414062 189.625 84.875 C 189.621094 83.972656 189.492188 83.59375 189.160156 83.507812 C 188.933594 83.449219 188.871094 83.296875 188.871094 82.816406 C 188.871094 82.300781 188.820312 82.199219 188.566406 82.199219 C 188.324219 82.199219 188.265625 82.097656 188.265625 81.683594 C 188.265625 81.191406 187.953125 80.691406 187.648438 80.691406 C 187.570312 80.691406 187.507812 80.554688 187.507812 80.390625 C 187.507812 80.191406 187.40625 80.089844 187.210938 80.089844 C 186.972656 80.089844 186.910156 79.964844 186.871094 79.449219 C 186.832031 78.914062 186.765625 78.796875 186.484375 78.757812 C 186.195312 78.71875 186.144531 78.617188 186.144531 78.105469 C 186.144531 77.628906 186.078125 77.480469 185.847656 77.421875 C 185.6875 77.378906 185.53125 77.199219 185.507812 77.019531 C 185.476562 76.816406 185.332031 76.679688 185.121094 76.648438 C 184.832031 76.605469 184.777344 76.507812 184.777344 76.007812 C 184.777344 75.527344 184.726562 75.414062 184.492188 75.414062 C 184.269531 75.414062 184.183594 75.265625 184.105469 74.734375 C 184.023438 74.199219 183.941406 74.058594 183.710938 74.058594 C 183.511719 74.058594 183.414062 73.953125 183.414062 73.742188 C 183.414062 73.554688 183.292969 73.394531 183.121094 73.347656 C 182.957031 73.308594 182.804688 73.128906 182.78125 72.949219 C 182.75 72.746094 182.605469 72.605469 182.390625 72.578125 C 182.109375 72.535156 182.050781 72.433594 182.050781 71.960938 C 182.050781 71.5 181.980469 71.359375 181.671875 71.21875 C 181.464844 71.125 181.292969 70.945312 181.292969 70.820312 C 181.292969 70.691406 181.160156 70.589844 180.992188 70.589844 C 180.785156 70.589844 180.6875 70.488281 180.6875 70.273438 C 180.6875 70.085938 180.566406 69.925781 180.386719 69.878906 C 180.15625 69.820312 180.082031 69.675781 180.082031 69.289062 C 180.082031 68.886719 180 68.738281 179.703125 68.601562 C 179.496094 68.507812 179.324219 68.304688 179.324219 68.152344 C 179.324219 67.980469 179.214844 67.875 179.039062 67.875 C 178.878906 67.875 178.71875 67.738281 178.671875 67.5625 C 178.625 67.390625 178.449219 67.214844 178.273438 67.167969 C 178.097656 67.121094 177.960938 66.964844 177.960938 66.800781 C 177.960938 66.621094 177.851562 66.519531 177.667969 66.519531 C 177.480469 66.519531 177.359375 66.398438 177.328125 66.179688 C 177.296875 65.960938 177.15625 65.824219 176.9375 65.792969 C 176.714844 65.761719 176.597656 65.640625 176.597656 65.441406 C 176.597656 64.914062 176.304688 64.574219 175.761719 64.472656 C 175.378906 64.402344 175.234375 64.296875 175.234375 64.089844 C 175.234375 63.90625 175.125 63.804688 174.929688 63.804688 C 174.734375 63.804688 174.625 63.703125 174.625 63.527344 C 174.625 63.371094 174.460938 63.070312 174.261719 62.851562 C 174.058594 62.636719 173.871094 62.335938 173.84375 62.1875 C 173.808594 62.011719 173.574219 61.871094 173.148438 61.777344 C 172.683594 61.675781 172.503906 61.5625 172.503906 61.363281 C 172.503906 61.195312 172.394531 61.089844 172.214844 61.089844 C 172.023438 61.089844 171.902344 60.96875 171.871094 60.75 C 171.839844 60.535156 171.703125 60.394531 171.484375 60.363281 C 171.261719 60.332031 171.140625 60.210938 171.140625 60.023438 C 171.140625 59.839844 171.039062 59.734375 170.847656 59.734375 C 170.660156 59.734375 170.539062 59.613281 170.507812 59.394531 C 170.480469 59.203125 170.332031 59.035156 170.160156 59 C 169.992188 58.96875 169.765625 58.816406 169.65625 58.660156 C 169.546875 58.503906 169.371094 58.378906 169.265625 58.378906 C 169.160156 58.378906 168.914062 58.207031 168.71875 58 C 168.523438 57.792969 168.238281 57.625 168.085938 57.625 C 167.910156 57.625 167.808594 57.511719 167.808594 57.320312 C 167.808594 57.101562 167.707031 57.019531 167.429688 57.019531 C 167.144531 57.019531 167.050781 56.941406 167.050781 56.703125 C 167.050781 56.515625 166.929688 56.355469 166.753906 56.3125 C 166.589844 56.269531 166.414062 56.105469 166.363281 55.949219 C 166.292969 55.734375 166.128906 55.664062 165.6875 55.664062 C 165.195312 55.664062 165.09375 55.609375 165.054688 55.324219 C 165.023438 55.105469 164.882812 54.96875 164.664062 54.9375 C 164.445312 54.90625 164.324219 54.785156 164.324219 54.597656 C 164.324219 54.386719 164.21875 54.304688 163.945312 54.304688 C 163.667969 54.304688 163.566406 54.226562 163.566406 54.003906 C 163.566406 53.824219 163.464844 53.703125 163.316406 53.703125 C 163.179688 53.703125 162.910156 53.535156 162.71875 53.328125 C 162.519531 53.113281 162.199219 52.949219 161.980469 52.949219 C 161.703125 52.949219 161.59375 52.871094 161.59375 52.664062 C 161.59375 52.339844 161.3125 52.195312 160.675781 52.195312 C 160.332031 52.195312 160.230469 52.125 160.230469 51.894531 C 160.230469 51.636719 160.128906 51.59375 159.550781 51.59375 C 158.921875 51.59375 158.867188 51.5625 158.867188 51.214844 C 158.867188 50.945312 158.785156 50.839844 158.582031 50.839844 C 158.425781 50.839844 158.261719 50.703125 158.21875 50.535156 C 158.15625 50.296875 158.011719 50.234375 157.527344 50.234375 C 157.011719 50.234375 156.910156 50.183594 156.871094 49.894531 C 156.832031 49.617188 156.714844 49.550781 156.195312 49.511719 C 155.722656 49.476562 155.546875 49.394531 155.488281 49.171875 C 155.429688 48.941406 155.277344 48.878906 154.800781 48.878906 C 154.285156 48.878906 154.183594 48.828125 154.144531 48.539062 C 154.101562 48.257812 153.984375 48.191406 153.464844 48.15625 C 152.992188 48.121094 152.820312 48.035156 152.761719 47.816406 C 152.703125 47.589844 152.550781 47.523438 152.101562 47.523438 C 151.640625 47.523438 151.484375 47.449219 151.367188 47.183594 C 151.257812 46.933594 151.066406 46.832031 150.65625 46.796875 C 150.257812 46.765625 150.066406 46.664062 150 46.457031 C 149.921875 46.207031 149.765625 46.164062 148.945312 46.164062 C 148.058594 46.164062 147.976562 46.136719 147.929688 45.824219 C 147.890625 45.546875 147.773438 45.476562 147.253906 45.441406 C 146.78125 45.40625 146.605469 45.320312 146.546875 45.101562 C 146.484375 44.851562 146.335938 44.808594 145.558594 44.808594 C 144.796875 44.808594 144.628906 44.761719 144.554688 44.523438 C 144.449219 44.191406 144.050781 44.058594 143.164062 44.054688 C 142.667969 44.054688 142.523438 43.992188 142.460938 43.753906 C 142.390625 43.492188 142.253906 43.449219 141.46875 43.449219 C 140.703125 43.449219 140.539062 43.402344 140.464844 43.164062 C 140.355469 42.820312 139.957031 42.703125 138.929688 42.699219 C 138.351562 42.699219 138.085938 42.621094 137.882812 42.394531 C 137.636719 42.125 137.414062 42.09375 135.695312 42.09375 C 133.863281 42.09375 133.78125 42.082031 133.636719 41.753906 C 133.496094 41.429688 133.394531 41.414062 131.539062 41.371094 C 129.75 41.335938 129.585938 41.308594 129.515625 41.035156 C 129.441406 40.746094 129.285156 40.738281 125.003906 40.738281 C 120.695312 40.738281 120.566406 40.726562 120.488281 40.433594 C 120.4375 40.230469 120.304688 40.132812 120.09375 40.132812 C 119.917969 40.132812 119.691406 40.269531 119.589844 40.433594 M 45.683594 137.449219 C 45.601562 137.660156 45.429688 137.832031 45.304688 137.832031 C 45.128906 137.832031 45.074219 138.007812 45.074219 138.550781 C 45.078125 139.507812 45.207031 139.941406 45.460938 139.84375 C 45.613281 139.785156 45.675781 139.996094 45.710938 140.722656 C 45.75 141.582031 45.789062 141.683594 46.09375 141.726562 C 46.410156 141.769531 46.4375 141.851562 46.4375 142.757812 C 46.4375 143.609375 46.476562 143.753906 46.734375 143.820312 C 46.992188 143.886719 47.035156 144.050781 47.074219 145.125 C 47.113281 146.230469 47.152344 146.367188 47.460938 146.5 C 47.761719 146.632812 47.800781 146.757812 47.800781 147.59375 C 47.800781 148.429688 47.835938 148.539062 48.09375 148.539062 C 48.332031 148.539062 48.398438 148.660156 48.4375 149.179688 C 48.472656 149.710938 48.539062 149.828125 48.824219 149.867188 C 49.136719 149.914062 49.164062 149.996094 49.164062 150.867188 C 49.164062 151.695312 49.203125 151.832031 49.46875 151.898438 C 49.683594 151.957031 49.769531 152.105469 49.769531 152.425781 C 49.769531 153.242188 49.949219 153.804688 50.242188 153.894531 C 50.398438 153.945312 50.527344 154.125 50.527344 154.292969 C 50.527344 154.46875 50.652344 154.628906 50.832031 154.675781 C 51.042969 154.730469 51.132812 154.882812 51.132812 155.171875 C 51.132812 155.972656 51.328125 156.566406 51.613281 156.640625 C 51.765625 156.683594 51.890625 156.847656 51.890625 157.011719 C 51.890625 157.183594 52.019531 157.34375 52.195312 157.390625 C 52.359375 157.433594 52.496094 157.585938 52.496094 157.726562 C 52.496094 157.867188 52.667969 158.144531 52.875 158.339844 C 53.085938 158.535156 53.253906 158.851562 53.253906 159.042969 C 53.253906 159.234375 53.382812 159.519531 53.539062 159.675781 C 53.695312 159.828125 53.867188 160.269531 53.925781 160.65625 C 54.007812 161.210938 54.09375 161.355469 54.324219 161.355469 C 54.539062 161.355469 54.617188 161.457031 54.617188 161.730469 C 54.617188 162.007812 54.699219 162.109375 54.921875 162.109375 C 55.15625 162.109375 55.226562 162.207031 55.226562 162.546875 C 55.226562 163.183594 55.371094 163.464844 55.695312 163.464844 C 55.902344 163.464844 55.984375 163.574219 55.984375 163.839844 C 55.984375 164.113281 56.0625 164.21875 56.277344 164.21875 C 56.515625 164.21875 56.582031 164.339844 56.617188 164.859375 C 56.65625 165.390625 56.722656 165.507812 57.003906 165.546875 C 57.222656 165.578125 57.347656 165.699219 57.347656 165.886719 C 57.347656 166.070312 57.449219 166.179688 57.628906 166.179688 C 57.84375 166.179688 57.9375 166.328125 58.011719 166.796875 C 58.082031 167.234375 58.199219 167.4375 58.410156 167.492188 C 58.582031 167.539062 58.710938 167.699219 58.710938 167.867188 C 58.710938 168.035156 58.835938 168.199219 59 168.242188 C 59.15625 168.285156 59.324219 168.445312 59.363281 168.605469 C 59.40625 168.773438 59.570312 168.890625 59.757812 168.890625 C 59.992188 168.890625 60.074219 168.988281 60.074219 169.269531 C 60.074219 169.476562 60.203125 169.777344 60.363281 169.933594 C 60.523438 170.09375 60.675781 170.347656 60.703125 170.5 C 60.734375 170.652344 60.910156 170.84375 61.097656 170.925781 C 61.285156 171.007812 61.4375 171.195312 61.4375 171.339844 C 61.4375 171.503906 61.550781 171.605469 61.730469 171.605469 C 61.917969 171.605469 62.039062 171.726562 62.070312 171.945312 C 62.101562 172.164062 62.242188 172.300781 62.460938 172.332031 C 62.671875 172.363281 62.800781 172.484375 62.800781 172.65625 C 62.800781 172.808594 62.90625 172.972656 63.035156 173.019531 C 63.164062 173.070312 63.371094 173.347656 63.492188 173.640625 C 63.613281 173.929688 63.816406 174.167969 63.941406 174.167969 C 64.078125 174.167969 64.164062 174.3125 64.164062 174.535156 C 64.164062 174.765625 64.273438 174.9375 64.460938 174.996094 C 64.621094 175.046875 64.796875 175.222656 64.847656 175.382812 C 64.902344 175.546875 65.074219 175.675781 65.234375 175.675781 C 65.417969 175.675781 65.527344 175.78125 65.527344 175.953125 C 65.527344 176.105469 65.699219 176.308594 65.90625 176.402344 C 66.117188 176.5 66.285156 176.679688 66.285156 176.804688 C 66.285156 176.929688 66.417969 177.035156 66.578125 177.035156 C 66.742188 177.035156 66.914062 177.167969 66.96875 177.335938 C 67.035156 177.542969 67.25 177.667969 67.660156 177.730469 C 68.050781 177.792969 68.257812 177.90625 68.257812 178.054688 C 68.257812 178.179688 68.371094 178.367188 68.515625 178.46875 C 68.65625 178.574219 68.851562 178.886719 68.945312 179.164062 C 69.089844 179.601562 69.191406 179.679688 69.660156 179.71875 C 70.089844 179.753906 70.21875 179.835938 70.253906 180.097656 C 70.285156 180.304688 70.425781 180.445312 70.644531 180.476562 C 70.863281 180.503906 70.984375 180.625 70.984375 180.8125 C 70.984375 181 71.089844 181.105469 71.269531 181.105469 C 71.429688 181.105469 71.589844 181.242188 71.636719 181.417969 C 71.683594 181.589844 71.855469 181.765625 72.019531 181.808594 C 72.183594 181.851562 72.351562 182.015625 72.394531 182.175781 C 72.4375 182.339844 72.601562 182.460938 72.789062 182.460938 C 73.003906 182.460938 73.105469 182.558594 73.105469 182.761719 C 73.105469 182.992188 73.238281 183.082031 73.699219 183.15625 C 74.101562 183.21875 74.316406 183.339844 74.367188 183.535156 C 74.410156 183.699219 74.574219 183.820312 74.757812 183.820312 C 74.976562 183.820312 75.074219 183.914062 75.074219 184.125 C 75.074219 184.3125 75.222656 184.484375 75.453125 184.574219 C 75.660156 184.652344 75.832031 184.820312 75.832031 184.945312 C 75.832031 185.074219 75.964844 185.175781 76.128906 185.175781 C 76.292969 185.175781 76.5 185.308594 76.585938 185.472656 C 76.675781 185.632812 76.976562 185.808594 77.261719 185.863281 C 77.585938 185.921875 77.800781 186.0625 77.851562 186.246094 C 77.910156 186.46875 78.0625 186.53125 78.535156 186.53125 C 79.050781 186.53125 79.152344 186.585938 79.191406 186.871094 C 79.21875 187.054688 79.367188 187.230469 79.519531 187.261719 C 79.675781 187.289062 79.929688 187.445312 80.089844 187.601562 C 80.246094 187.761719 80.53125 187.890625 80.722656 187.890625 C 80.929688 187.890625 81.121094 188.019531 81.214844 188.230469 C 81.324219 188.476562 81.515625 188.582031 81.914062 188.613281 C 82.3125 188.648438 82.492188 188.742188 82.546875 188.953125 C 82.605469 189.183594 82.753906 189.246094 83.234375 189.246094 C 83.75 189.246094 83.851562 189.296875 83.890625 189.585938 C 83.925781 189.824219 84.058594 189.9375 84.339844 189.972656 C 84.558594 189.996094 84.859375 190.148438 85.007812 190.308594 C 85.152344 190.472656 85.429688 190.605469 85.617188 190.605469 C 85.859375 190.605469 85.976562 190.703125 86.011719 190.941406 C 86.054688 191.230469 86.167969 191.289062 86.761719 191.328125 C 87.226562 191.355469 87.558594 191.472656 87.734375 191.667969 C 87.917969 191.871094 88.199219 191.960938 88.648438 191.960938 C 89.203125 191.960938 89.304688 192.007812 89.34375 192.296875 C 89.375 192.492188 89.523438 192.660156 89.695312 192.691406 C 89.859375 192.722656 90.085938 192.878906 90.195312 193.035156 C 90.363281 193.269531 90.59375 193.316406 91.589844 193.316406 C 92.710938 193.316406 92.785156 193.335938 92.832031 193.65625 C 92.871094 193.9375 92.988281 194.003906 93.523438 194.042969 C 94.042969 194.078125 94.167969 194.144531 94.167969 194.382812 C 94.167969 194.632812 94.273438 194.675781 94.90625 194.675781 C 95.5 194.675781 95.660156 194.730469 95.71875 194.953125 C 95.800781 195.253906 96.476562 195.421875 97.597656 195.425781 C 98.09375 195.429688 98.238281 195.488281 98.300781 195.730469 C 98.371094 195.988281 98.507812 196.03125 99.28125 196.03125 C 100.09375 196.03125 100.195312 196.066406 100.351562 196.410156 C 100.519531 196.773438 100.566406 196.785156 102.101562 196.785156 C 103.550781 196.785156 103.683594 196.808594 103.757812 197.085938 C 103.828125 197.359375 103.964844 197.386719 105.136719 197.386719 C 106.3125 197.386719 106.441406 197.417969 106.441406 197.671875 C 106.441406 198.078125 106.820312 198.136719 109.507812 198.140625 C 111.691406 198.140625 111.921875 198.167969 112.199219 198.445312 C 112.492188 198.738281 112.703125 198.746094 120.289062 198.746094 C 127.945312 198.746094 128.074219 198.742188 128.152344 198.445312 C 128.226562 198.15625 128.359375 198.140625 130.734375 198.140625 C 132.808594 198.140625 133.28125 198.101562 133.476562 197.90625 C 133.609375 197.773438 133.714844 197.605469 133.714844 197.527344 C 133.714844 197.453125 134.300781 197.386719 135.015625 197.386719 C 136.191406 197.386719 136.328125 197.359375 136.398438 197.085938 C 136.46875 196.816406 136.605469 196.785156 137.664062 196.785156 C 138.972656 196.785156 139.625 196.609375 139.625 196.261719 C 139.625 196.078125 139.835938 196.03125 140.699219 196.03125 C 141.636719 196.03125 141.785156 195.992188 141.851562 195.738281 C 141.917969 195.492188 142.085938 195.433594 142.859375 195.398438 C 143.695312 195.359375 143.796875 195.316406 143.839844 195.011719 C 143.882812 194.703125 143.96875 194.675781 144.875 194.675781 C 145.738281 194.675781 145.875 194.636719 145.945312 194.371094 C 146.007812 194.132812 146.152344 194.070312 146.648438 194.070312 C 147.570312 194.066406 147.957031 193.925781 147.957031 193.601562 C 147.957031 193.355469 148.078125 193.316406 148.882812 193.316406 C 149.675781 193.316406 149.816406 193.277344 149.882812 193.015625 C 149.945312 192.789062 150.089844 192.714844 150.464844 192.714844 C 150.945312 192.714844 151.445312 192.402344 151.445312 192.101562 C 151.445312 192.023438 151.722656 191.960938 152.0625 191.960938 C 152.550781 191.960938 152.699219 191.898438 152.761719 191.667969 C 152.820312 191.445312 152.996094 191.363281 153.464844 191.328125 C 153.984375 191.289062 154.101562 191.222656 154.144531 190.941406 C 154.183594 190.65625 154.285156 190.605469 154.800781 190.605469 C 155.277344 190.605469 155.429688 190.539062 155.488281 190.308594 C 155.542969 190.097656 155.722656 190.003906 156.117188 189.972656 C 156.519531 189.9375 156.710938 189.832031 156.820312 189.585938 C 156.933594 189.332031 157.097656 189.246094 157.480469 189.246094 C 157.859375 189.246094 158.007812 189.171875 158.066406 188.945312 C 158.117188 188.75 158.273438 188.644531 158.507812 188.644531 C 158.792969 188.644531 158.867188 188.5625 158.867188 188.265625 C 158.867188 187.921875 158.921875 187.890625 159.550781 187.890625 C 160.121094 187.890625 160.230469 187.84375 160.230469 187.597656 C 160.230469 187.410156 160.355469 187.289062 160.574219 187.257812 C 160.792969 187.230469 160.929688 187.089844 160.960938 186.871094 C 161.003906 186.578125 161.101562 186.53125 161.683594 186.53125 C 162.253906 186.53125 162.351562 186.488281 162.351562 186.230469 C 162.351562 186.03125 162.453125 185.929688 162.65625 185.929688 C 162.878906 185.929688 162.960938 185.828125 162.960938 185.550781 C 162.960938 185.207031 163.015625 185.175781 163.640625 185.175781 C 164.207031 185.175781 164.324219 185.128906 164.324219 184.894531 C 164.324219 184.679688 164.472656 184.585938 164.945312 184.511719 C 165.386719 184.441406 165.589844 184.328125 165.644531 184.117188 C 165.6875 183.953125 165.847656 183.820312 165.996094 183.820312 C 166.148438 183.820312 166.3125 183.691406 166.363281 183.535156 C 166.414062 183.375 166.589844 183.214844 166.753906 183.171875 C 166.929688 183.125 167.050781 182.964844 167.050781 182.777344 C 167.050781 182.527344 167.144531 182.460938 167.496094 182.460938 C 168.058594 182.460938 168.414062 182.109375 168.414062 181.546875 C 168.414062 181.175781 168.476562 181.105469 168.792969 181.105469 C 169.066406 181.105469 169.171875 181.023438 169.171875 180.8125 C 169.171875 180.582031 169.296875 180.511719 169.738281 180.472656 C 170.15625 180.4375 170.347656 180.335938 170.457031 180.085938 C 170.539062 179.902344 170.726562 179.746094 170.875 179.746094 C 171.039062 179.746094 171.140625 179.632812 171.140625 179.457031 C 171.140625 179.269531 171.261719 179.148438 171.484375 179.117188 C 171.703125 179.085938 171.839844 178.949219 171.871094 178.730469 C 171.902344 178.511719 172.023438 178.390625 172.214844 178.390625 C 172.402344 178.390625 172.503906 178.285156 172.503906 178.101562 C 172.503906 177.914062 172.628906 177.792969 172.847656 177.761719 C 173.066406 177.730469 173.203125 177.589844 173.234375 177.375 C 173.265625 177.15625 173.390625 177.035156 173.578125 177.035156 C 173.765625 177.035156 173.871094 176.929688 173.871094 176.742188 C 173.871094 176.554688 173.992188 176.433594 174.210938 176.402344 C 174.429688 176.371094 174.566406 176.234375 174.597656 176.015625 C 174.628906 175.796875 174.753906 175.675781 174.941406 175.675781 C 175.128906 175.675781 175.234375 175.574219 175.234375 175.386719 C 175.234375 175.199219 175.355469 175.078125 175.574219 175.046875 C 175.792969 175.015625 175.933594 174.878906 175.964844 174.660156 C 175.988281 174.472656 176.101562 174.320312 176.210938 174.320312 C 176.503906 174.320312 177.355469 173.488281 177.355469 173.203125 C 177.355469 173.0625 177.480469 172.964844 177.65625 172.964844 C 177.851562 172.964844 177.960938 172.863281 177.960938 172.679688 C 177.960938 172.519531 178.097656 172.359375 178.273438 172.3125 C 178.449219 172.269531 178.625 172.089844 178.671875 171.917969 C 178.71875 171.742188 178.878906 171.605469 179.039062 171.605469 C 179.277344 171.605469 179.324219 171.492188 179.324219 170.929688 C 179.324219 170.304688 179.355469 170.25 179.703125 170.25 C 179.972656 170.25 180.082031 170.167969 180.082031 169.964844 C 180.082031 169.808594 180.21875 169.644531 180.382812 169.601562 C 180.566406 169.554688 180.6875 169.398438 180.6875 169.207031 C 180.6875 169 180.785156 168.890625 180.976562 168.890625 C 181.300781 168.890625 181.445312 168.613281 181.445312 167.976562 C 181.445312 167.636719 181.515625 167.535156 181.75 167.535156 C 181.945312 167.535156 182.050781 167.433594 182.050781 167.246094 C 182.050781 167.058594 182.171875 166.9375 182.390625 166.90625 C 182.585938 166.878906 182.753906 166.730469 182.785156 166.554688 C 182.816406 166.390625 182.972656 166.132812 183.128906 165.984375 C 183.285156 165.835938 183.414062 165.515625 183.414062 165.269531 C 183.414062 164.890625 183.476562 164.820312 183.792969 164.820312 C 184.09375 164.820312 184.171875 164.746094 184.171875 164.460938 C 184.171875 164.230469 184.28125 164.074219 184.476562 164.023438 C 184.707031 163.964844 184.777344 163.820312 184.777344 163.414062 C 184.777344 162.976562 184.839844 162.875 185.117188 162.835938 C 185.316406 162.804688 185.480469 162.660156 185.511719 162.484375 C 185.542969 162.320312 185.699219 162.0625 185.855469 161.914062 C 186.015625 161.765625 186.144531 161.441406 186.144531 161.199219 C 186.144531 160.859375 186.210938 160.75 186.429688 160.75 C 186.757812 160.75 186.898438 160.46875 186.898438 159.832031 C 186.898438 159.496094 186.96875 159.394531 187.203125 159.394531 C 187.402344 159.394531 187.507812 159.292969 187.507812 159.101562 C 187.507812 158.914062 187.628906 158.792969 187.847656 158.765625 C 188.15625 158.71875 188.191406 158.621094 188.234375 157.699219 C 188.273438 156.804688 188.3125 156.679688 188.574219 156.679688 C 188.824219 156.679688 188.871094 156.574219 188.871094 156 C 188.871094 155.378906 188.902344 155.324219 189.25 155.324219 C 189.53125 155.324219 189.628906 155.242188 189.628906 155.007812 C 189.628906 154.820312 189.75 154.660156 189.929688 154.613281 C 190.167969 154.550781 190.234375 154.40625 190.234375 153.957031 C 190.234375 153.539062 190.339844 153.269531 190.613281 153 C 190.9375 152.675781 190.992188 152.488281 190.992188 151.652344 C 190.992188 150.8125 191.03125 150.675781 191.292969 150.605469 C 191.53125 150.542969 191.597656 150.398438 191.597656 149.945312 C 191.597656 149.488281 191.667969 149.332031 191.9375 149.214844 C 192.1875 149.105469 192.292969 148.917969 192.324219 148.507812 C 192.359375 148.113281 192.457031 147.921875 192.667969 147.855469 C 192.925781 147.773438 192.960938 147.621094 192.960938 146.503906 C 192.960938 145.308594 192.980469 145.238281 193.300781 145.195312 C 193.59375 145.152344 193.648438 145.039062 193.6875 144.445312 C 193.722656 143.898438 193.800781 143.726562 194.03125 143.667969 C 194.28125 143.601562 194.324219 143.457031 194.324219 142.675781 C 194.324219 141.917969 194.375 141.738281 194.628906 141.601562 C 194.808594 141.507812 194.929688 141.289062 194.929688 141.054688 C 194.929688 140.796875 194.832031 140.644531 194.628906 140.589844 C 194.433594 140.539062 194.324219 140.386719 194.324219 140.152344 C 194.324219 139.804688 194.292969 139.792969 193.054688 139.792969 C 191.609375 139.792969 191.597656 139.800781 191.597656 141.035156 C 191.597656 141.5625 191.523438 141.851562 191.351562 141.976562 C 191.195312 142.089844 191.078125 142.457031 191.03125 142.972656 C 190.980469 143.550781 190.867188 143.859375 190.652344 144.03125 C 190.4375 144.199219 190.320312 144.515625 190.269531 145.066406 C 190.210938 145.679688 190.125 145.878906 189.910156 145.9375 C 189.664062 146 189.628906 146.167969 189.628906 147.265625 C 189.628906 148.449219 189.609375 148.519531 189.285156 148.566406 C 189.003906 148.605469 188.9375 148.722656 188.898438 149.238281 C 188.867188 149.710938 188.78125 149.882812 188.558594 149.941406 C 188.386719 149.988281 188.265625 150.148438 188.265625 150.332031 C 188.265625 150.515625 188.167969 150.648438 188.03125 150.648438 C 187.742188 150.648438 187.507812 151.25 187.507812 152.003906 C 187.507812 152.457031 187.4375 152.609375 187.203125 152.683594 C 186.972656 152.757812 186.898438 152.914062 186.898438 153.335938 C 186.898438 153.769531 186.824219 153.925781 186.558594 154.042969 C 186.3125 154.152344 186.207031 154.34375 186.171875 154.742188 C 186.140625 155.136719 186.042969 155.3125 185.832031 155.367188 C 185.601562 155.429688 185.535156 155.578125 185.535156 156.050781 C 185.535156 156.566406 185.484375 156.667969 185.195312 156.707031 C 184.914062 156.746094 184.847656 156.863281 184.808594 157.378906 C 184.773438 157.851562 184.691406 158.023438 184.46875 158.082031 C 184.238281 158.144531 184.171875 158.292969 184.171875 158.765625 C 184.171875 159.28125 184.121094 159.378906 183.832031 159.421875 C 183.617188 159.453125 183.472656 159.589844 183.445312 159.792969 C 183.417969 159.972656 183.265625 160.152344 183.105469 160.195312 C 182.875 160.253906 182.808594 160.402344 182.808594 160.878906 C 182.808594 161.390625 182.757812 161.492188 182.46875 161.53125 C 182.253906 161.5625 182.109375 161.699219 182.082031 161.902344 C 182.054688 162.082031 181.902344 162.261719 181.738281 162.304688 C 181.519531 162.363281 181.445312 162.511719 181.445312 162.914062 C 181.445312 163.347656 181.382812 163.453125 181.105469 163.492188 C 180.84375 163.527344 180.753906 163.65625 180.714844 164.035156 C 180.6875 164.324219 180.546875 164.605469 180.375 164.710938 C 180.214844 164.8125 180.082031 165.046875 180.082031 165.234375 C 180.082031 165.480469 179.992188 165.574219 179.765625 165.574219 C 179.578125 165.574219 179.414062 165.695312 179.371094 165.871094 C 179.328125 166.035156 179.164062 166.210938 179.003906 166.257812 C 178.847656 166.308594 178.71875 166.480469 178.71875 166.640625 C 178.71875 166.828125 178.613281 166.933594 178.429688 166.933594 C 178.105469 166.933594 177.960938 167.214844 177.960938 167.847656 C 177.960938 168.226562 177.902344 168.289062 177.542969 168.292969 C 176.949219 168.296875 176.789062 168.441406 176.667969 169.082031 C 176.589844 169.496094 176.488281 169.644531 176.277344 169.644531 C 176.089844 169.644531 175.992188 169.753906 175.992188 169.949219 C 175.992188 170.113281 175.925781 170.25 175.851562 170.25 C 175.566406 170.25 175.234375 170.734375 175.234375 171.152344 C 175.234375 171.53125 175.167969 171.589844 174.636719 171.679688 C 174.089844 171.773438 174.035156 171.824219 173.941406 172.371094 C 173.867188 172.820312 173.773438 172.964844 173.554688 172.964844 C 173.34375 172.964844 173.261719 173.070312 173.261719 173.339844 C 173.261719 173.640625 173.1875 173.71875 172.882812 173.71875 C 172.605469 173.71875 172.503906 173.796875 172.503906 174.019531 C 172.503906 174.21875 172.40625 174.320312 172.203125 174.320312 C 171.980469 174.320312 171.898438 174.421875 171.898438 174.695312 C 171.898438 175 171.824219 175.074219 171.519531 175.074219 C 171.242188 175.074219 171.140625 175.15625 171.140625 175.375 C 171.140625 175.578125 171.039062 175.675781 170.839844 175.675781 C 170.617188 175.675781 170.535156 175.777344 170.535156 176.054688 C 170.535156 176.371094 170.464844 176.429688 170.09375 176.429688 C 169.527344 176.429688 169.171875 176.785156 169.171875 177.347656 C 169.171875 177.71875 169.109375 177.789062 168.792969 177.789062 C 168.519531 177.789062 168.414062 177.867188 168.414062 178.082031 C 168.414062 178.308594 168.292969 178.382812 167.847656 178.417969 C 167.429688 178.453125 167.238281 178.554688 167.128906 178.804688 C 167.046875 178.992188 166.859375 179.144531 166.710938 179.144531 C 166.546875 179.144531 166.445312 179.257812 166.445312 179.4375 C 166.445312 179.621094 166.324219 179.746094 166.105469 179.773438 C 165.882812 179.804688 165.746094 179.945312 165.714844 180.164062 C 165.671875 180.449219 165.570312 180.5 165.082031 180.5 C 164.640625 180.5 164.472656 180.570312 164.402344 180.789062 C 164.355469 180.945312 164.179688 181.105469 164.015625 181.148438 C 163.839844 181.195312 163.71875 181.355469 163.71875 181.542969 C 163.71875 181.761719 163.621094 181.859375 163.398438 181.859375 C 163.210938 181.859375 163.050781 181.980469 163.003906 182.160156 C 162.960938 182.328125 162.796875 182.460938 162.636719 182.460938 C 162.433594 182.460938 162.351562 182.570312 162.351562 182.839844 C 162.351562 183.183594 162.296875 183.214844 161.671875 183.214844 C 161.105469 183.214844 160.988281 183.265625 160.988281 183.496094 C 160.988281 183.710938 160.839844 183.804688 160.367188 183.878906 C 159.925781 183.949219 159.722656 184.0625 159.667969 184.273438 C 159.625 184.445312 159.460938 184.574219 159.289062 184.574219 C 159.121094 184.574219 158.957031 184.699219 158.914062 184.867188 C 158.859375 185.078125 158.679688 185.171875 158.285156 185.207031 C 157.882812 185.238281 157.691406 185.34375 157.582031 185.589844 C 157.5 185.777344 157.3125 185.929688 157.164062 185.929688 C 157.003906 185.929688 156.898438 186.042969 156.898438 186.222656 C 156.898438 186.460938 156.773438 186.523438 156.253906 186.5625 C 155.71875 186.601562 155.601562 186.664062 155.5625 186.949219 C 155.519531 187.242188 155.421875 187.285156 154.84375 187.285156 C 154.277344 187.285156 154.171875 187.332031 154.171875 187.578125 C 154.171875 187.816406 154.046875 187.882812 153.527344 187.917969 C 152.992188 187.957031 152.875 188.023438 152.835938 188.304688 C 152.792969 188.597656 152.695312 188.644531 152.113281 188.644531 C 151.550781 188.644531 151.445312 188.691406 151.445312 188.9375 C 151.445312 189.171875 151.320312 189.238281 150.800781 189.277344 C 150.265625 189.3125 150.148438 189.378906 150.105469 189.660156 C 150.066406 189.960938 149.96875 190 149.324219 190 C 148.460938 190 148.109375 190.109375 148.109375 190.375 C 148.109375 190.488281 147.828125 190.613281 147.429688 190.671875 C 146.890625 190.75 146.746094 190.835938 146.746094 191.066406 C 146.746094 191.3125 146.636719 191.355469 146.050781 191.355469 C 145.480469 191.355469 145.339844 191.414062 145.273438 191.660156 C 145.207031 191.917969 145.066406 191.960938 144.265625 191.960938 C 143.074219 191.964844 142.703125 192.070312 142.609375 192.425781 C 142.542969 192.671875 142.390625 192.714844 141.59375 192.714844 C 140.785156 192.714844 140.644531 192.753906 140.578125 193.015625 C 140.511719 193.269531 140.371094 193.316406 139.695312 193.316406 C 138.925781 193.316406 138.414062 193.5625 138.414062 193.929688 C 138.414062 194.007812 137.839844 194.070312 137.140625 194.070312 C 136 194.070312 135.863281 194.101562 135.792969 194.371094 C 135.71875 194.652344 135.585938 194.675781 134.070312 194.675781 C 132.160156 194.679688 131.800781 194.75 131.699219 195.140625 C 131.628906 195.410156 131.453125 195.429688 129.070312 195.429688 C 126.769531 195.433594 126.480469 195.464844 126.140625 195.730469 C 125.777344 196.011719 125.476562 196.023438 119.148438 196.027344 C 112.664062 196.03125 112.535156 196.027344 112.457031 195.730469 C 112.382812 195.453125 112.25 195.429688 110.746094 195.429688 C 109.265625 195.429688 109.078125 195.398438 108.753906 195.09375 C 108.425781 194.789062 108.210938 194.753906 106.355469 194.699219 C 104.484375 194.644531 104.320312 194.617188 104.320312 194.355469 C 104.320312 194.105469 104.199219 194.070312 103.320312 194.070312 C 102.46875 194.070312 102.308594 194.03125 102.246094 193.785156 C 102.167969 193.488281 101.628906 193.316406 100.773438 193.316406 C 100.484375 193.316406 100.195312 193.199219 100.035156 193.015625 C 99.820312 192.765625 99.589844 192.714844 98.636719 192.714844 C 97.625 192.714844 97.5 192.683594 97.5 192.429688 C 97.5 192.066406 97.214844 191.960938 96.261719 191.960938 C 95.628906 191.960938 95.488281 191.910156 95.421875 191.660156 C 95.355469 191.398438 95.214844 191.355469 94.386719 191.355469 C 93.511719 191.355469 93.425781 191.328125 93.382812 191.019531 C 93.34375 190.734375 93.226562 190.671875 92.691406 190.632812 C 92.167969 190.59375 92.046875 190.53125 92.046875 190.292969 C 92.046875 190.046875 91.9375 190 91.363281 190 C 90.789062 190 90.683594 189.953125 90.683594 189.707031 C 90.683594 189.476562 90.539062 189.394531 90.015625 189.316406 C 89.535156 189.246094 89.324219 189.132812 89.269531 188.929688 C 89.210938 188.707031 89.058594 188.644531 88.574219 188.644531 C 88.066406 188.644531 87.953125 188.589844 87.953125 188.359375 C 87.953125 188 87.671875 187.890625 86.730469 187.890625 C 86.085938 187.890625 85.984375 187.847656 85.984375 187.589844 C 85.984375 187.367188 85.882812 187.285156 85.605469 187.285156 C 85.332031 187.285156 85.226562 187.207031 85.226562 186.996094 C 85.226562 186.761719 85.082031 186.679688 84.546875 186.601562 C 84.015625 186.519531 83.863281 186.4375 83.863281 186.214844 C 83.863281 185.976562 83.75 185.929688 83.179688 185.929688 C 82.554688 185.929688 82.5 185.898438 82.5 185.550781 C 82.5 185.269531 82.417969 185.175781 82.183594 185.175781 C 81.992188 185.175781 81.832031 185.054688 81.785156 184.875 C 81.722656 184.640625 81.578125 184.574219 81.128906 184.574219 C 80.644531 184.574219 80.542969 184.515625 80.503906 184.234375 C 80.472656 184.019531 80.332031 183.875 80.128906 183.847656 C 79.949219 183.824219 79.769531 183.671875 79.726562 183.507812 C 79.664062 183.277344 79.515625 183.214844 79.027344 183.214844 C 78.5 183.214844 78.410156 183.167969 78.410156 182.898438 C 78.410156 182.714844 78.289062 182.554688 78.109375 182.507812 C 77.945312 182.464844 77.773438 182.300781 77.722656 182.144531 C 77.671875 181.988281 77.507812 181.859375 77.355469 181.859375 C 77.203125 181.859375 77.042969 181.726562 77 181.5625 C 76.945312 181.351562 76.742188 181.234375 76.300781 181.164062 C 75.832031 181.089844 75.679688 181 75.679688 180.785156 C 75.679688 180.613281 75.574219 180.5 75.414062 180.5 C 75.265625 180.5 75.078125 180.347656 74.996094 180.164062 C 74.886719 179.914062 74.695312 179.8125 74.292969 179.777344 C 73.773438 179.734375 73.726562 179.691406 73.636719 179.148438 C 73.542969 178.609375 73.488281 178.554688 72.941406 178.464844 C 72.492188 178.390625 72.347656 178.292969 72.347656 178.078125 C 72.347656 177.871094 72.242188 177.789062 71.96875 177.789062 C 71.683594 177.789062 71.589844 177.707031 71.589844 177.472656 C 71.589844 177.289062 71.46875 177.125 71.300781 177.082031 C 71.140625 177.039062 70.976562 176.875 70.9375 176.71875 C 70.890625 176.550781 70.726562 176.429688 70.542969 176.429688 C 70.320312 176.429688 70.226562 176.335938 70.226562 176.117188 C 70.226562 175.933594 70.105469 175.769531 69.9375 175.722656 C 69.777344 175.683594 69.613281 175.519531 69.574219 175.363281 C 69.527344 175.195312 69.363281 175.074219 69.179688 175.074219 C 68.96875 175.074219 68.863281 174.976562 68.863281 174.78125 C 68.863281 174.621094 68.734375 174.449219 68.574219 174.402344 C 68.417969 174.351562 68.253906 174.175781 68.210938 174.015625 C 68.164062 173.839844 68.003906 173.71875 67.816406 173.71875 C 67.59375 173.71875 67.5 173.621094 67.5 173.402344 C 67.5 173.21875 67.378906 173.054688 67.210938 173.011719 C 67.050781 172.96875 66.886719 172.804688 66.84375 172.648438 C 66.800781 172.480469 66.636719 172.359375 66.453125 172.359375 C 66.230469 172.359375 66.136719 172.265625 66.136719 172.042969 C 66.136719 171.855469 66.011719 171.699219 65.832031 171.648438 C 65.664062 171.605469 65.527344 171.445312 65.527344 171.289062 C 65.527344 171.085938 65.421875 171.003906 65.148438 171.003906 C 64.835938 171.003906 64.769531 170.929688 64.769531 170.574219 C 64.769531 170.324219 64.613281 169.972656 64.390625 169.734375 C 64.183594 169.511719 64.011719 169.273438 64.011719 169.203125 C 64.011719 169.132812 63.878906 169.042969 63.710938 169 C 63.527344 168.953125 63.40625 168.792969 63.40625 168.605469 C 63.40625 168.394531 63.3125 168.289062 63.113281 168.289062 C 62.925781 168.289062 62.804688 168.167969 62.773438 167.949219 C 62.742188 167.738281 62.605469 167.59375 62.398438 167.566406 C 62.160156 167.53125 62.046875 167.375 61.976562 166.992188 C 61.921875 166.703125 61.78125 166.429688 61.671875 166.386719 C 61.558594 166.34375 61.421875 166.144531 61.371094 165.941406 C 61.3125 165.707031 61.171875 165.574219 60.980469 165.574219 C 60.777344 165.574219 60.679688 165.472656 60.679688 165.261719 C 60.679688 165.070312 60.558594 164.914062 60.375 164.867188 C 60.164062 164.808594 60.074219 164.660156 60.074219 164.363281 C 60.074219 163.949219 59.742188 163.464844 59.457031 163.464844 C 59.378906 163.464844 59.316406 163.328125 59.316406 163.164062 C 59.316406 162.96875 59.214844 162.863281 59.03125 162.863281 C 58.816406 162.863281 58.726562 162.710938 58.648438 162.242188 C 58.578125 161.804688 58.464844 161.601562 58.25 161.546875 C 58.082031 161.503906 57.953125 161.339844 57.953125 161.171875 C 57.953125 161 57.824219 160.839844 57.648438 160.792969 C 57.4375 160.738281 57.347656 160.589844 57.347656 160.292969 C 57.347656 159.878906 57.011719 159.394531 56.730469 159.394531 C 56.652344 159.394531 56.589844 159.148438 56.589844 158.851562 C 56.589844 158.441406 56.515625 158.292969 56.292969 158.234375 C 56.132812 158.191406 55.980469 158.011719 55.953125 157.832031 C 55.925781 157.628906 55.78125 157.492188 55.566406 157.460938 C 55.269531 157.417969 55.226562 157.324219 55.226562 156.746094 C 55.226562 156.183594 55.179688 156.078125 54.929688 156.078125 C 54.691406 156.078125 54.628906 155.953125 54.589844 155.4375 C 54.550781 154.902344 54.484375 154.789062 54.203125 154.746094 C 53.914062 154.707031 53.863281 154.605469 53.863281 154.09375 C 53.863281 153.613281 53.796875 153.46875 53.558594 153.40625 C 53.316406 153.34375 53.253906 153.199219 53.253906 152.691406 C 53.253906 152.210938 53.164062 151.972656 52.875 151.703125 C 52.667969 151.507812 52.496094 151.191406 52.496094 151 C 52.496094 150.75 52.410156 150.648438 52.195312 150.648438 C 51.929688 150.648438 51.890625 150.546875 51.890625 149.832031 C 51.890625 149.046875 51.648438 148.539062 51.273438 148.539062 C 51.195312 148.539062 51.132812 148.125 51.132812 147.621094 C 51.132812 146.835938 51.089844 146.691406 50.839844 146.625 C 50.617188 146.566406 50.53125 146.390625 50.496094 145.921875 C 50.460938 145.40625 50.394531 145.289062 50.109375 145.25 C 49.796875 145.203125 49.769531 145.121094 49.769531 144.242188 C 49.769531 143.421875 49.726562 143.269531 49.472656 143.1875 C 49.230469 143.109375 49.171875 142.933594 49.132812 142.160156 C 49.09375 141.335938 49.050781 141.21875 48.761719 141.179688 C 48.457031 141.136719 48.429688 141.035156 48.382812 139.621094 C 48.34375 138.4375 48.277344 138.070312 48.082031 137.929688 C 47.945312 137.832031 47.808594 137.617188 47.777344 137.453125 C 47.730469 137.199219 47.578125 137.148438 46.773438 137.109375 C 45.882812 137.066406 45.820312 137.085938 45.683594 137.449219 " fill-opacity="1" fill-rule="evenodd"/><g fill="#000000" fill-opacity="1"><g transform="translate(70.893917, 135.953229)"><g><path d="M 9.765625 0.546875 C 7.585938 0.546875 5.582031 0.140625 3.75 -0.671875 C 1.925781 -1.484375 0.429688 -2.640625 -0.734375 -4.140625 L 3.40625 -9.125 C 5.15625 -6.757812 7.15625 -5.578125 9.40625 -5.578125 C 12.445312 -5.578125 13.96875 -7.359375 13.96875 -10.921875 L 13.96875 -26.265625 L 2.625 -26.265625 L 2.625 -32.25 L 21.375 -32.25 L 21.375 -11.328125 C 21.375 -7.367188 20.390625 -4.398438 18.421875 -2.421875 C 16.460938 -0.441406 13.578125 0.546875 9.765625 0.546875 Z M 9.765625 0.546875 "/></g></g></g><g fill="#000000" fill-opacity="1"><g transform="translate(95.819602, 135.953229)"><g><path d="M 38.703125 3.453125 C 37.660156 4.742188 36.394531 5.726562 34.90625 6.40625 C 33.414062 7.082031 31.78125 7.421875 30 7.421875 C 27.601562 7.421875 25.4375 6.90625 23.5 5.875 C 21.5625 4.84375 19.347656 3.023438 16.859375 0.421875 C 13.941406 0.046875 11.335938 -0.890625 9.046875 -2.390625 C 6.765625 -3.898438 4.984375 -5.84375 3.703125 -8.21875 C 2.429688 -10.601562 1.796875 -13.238281 1.796875 -16.125 C 1.796875 -19.289062 2.554688 -22.140625 4.078125 -24.671875 C 5.597656 -27.203125 7.703125 -29.191406 10.390625 -30.640625 C 13.078125 -32.085938 16.09375 -32.8125 19.4375 -32.8125 C 22.789062 -32.8125 25.800781 -32.085938 28.46875 -30.640625 C 31.144531 -29.191406 33.25 -27.203125 34.78125 -24.671875 C 36.320312 -22.140625 37.09375 -19.289062 37.09375 -16.125 C 37.09375 -12.375 36.039062 -9.085938 33.9375 -6.265625 C 31.832031 -3.441406 29.046875 -1.476562 25.578125 -0.375 C 26.335938 0.425781 27.078125 1.003906 27.796875 1.359375 C 28.523438 1.710938 29.304688 1.890625 30.140625 1.890625 C 32.128906 1.890625 33.878906 1.09375 35.390625 -0.5 Z M 9.359375 -16.125 C 9.359375 -14.125 9.796875 -12.34375 10.671875 -10.78125 C 11.546875 -9.21875 12.75 -8 14.28125 -7.125 C 15.820312 -6.25 17.539062 -5.8125 19.4375 -5.8125 C 21.34375 -5.8125 23.0625 -6.25 24.59375 -7.125 C 26.132812 -8 27.34375 -9.21875 28.21875 -10.78125 C 29.09375 -12.34375 29.53125 -14.125 29.53125 -16.125 C 29.53125 -18.125 29.09375 -19.90625 28.21875 -21.46875 C 27.34375 -23.039062 26.132812 -24.265625 24.59375 -25.140625 C 23.0625 -26.015625 21.34375 -26.453125 19.4375 -26.453125 C 17.539062 -26.453125 15.820312 -26.015625 14.28125 -25.140625 C 12.75 -24.265625 11.546875 -23.039062 10.671875 -21.46875 C 9.796875 -19.90625 9.359375 -18.125 9.359375 -16.125 Z M 9.359375 -16.125 "/></g></g></g><g fill="#000000" fill-opacity="1"><g transform="translate(134.70551, 135.953229)"><g><path d="M 34.828125 -32.25 L 20.875 0 L 13.5 0 L -0.421875 -32.25 L 7.65625 -32.25 L 17.46875 -9.21875 L 27.421875 -32.25 Z M 34.828125 -32.25 "/></g></g></g><g fill="#000000" fill-opacity="1"><g transform="translate(84.404304, 161.989998)"><g><path d="M 1.296875 -10.953125 L 3.828125 -10.953125 L 3.828125 0 L 1.296875 0 Z M 1.296875 -10.953125 "/></g></g></g><g fill="#000000" fill-opacity="1"><g transform="translate(89.537823, 161.989998)"><g><path d="M 11.265625 0 L 11.25 -6.578125 L 8.03125 -1.15625 L 6.890625 -1.15625 L 3.671875 -6.4375 L 3.671875 0 L 1.296875 0 L 1.296875 -10.953125 L 3.390625 -10.953125 L 7.5 -4.15625 L 11.53125 -10.953125 L 13.625 -10.953125 L 13.65625 0 Z M 11.265625 0 "/></g></g></g><g fill="#000000" fill-opacity="1"><g transform="translate(104.484502, 161.989998)"><g><path d="M 9.34375 -5.703125 C 9.96875 -5.503906 10.457031 -5.171875 10.8125 -4.703125 C 11.164062 -4.242188 11.34375 -3.671875 11.34375 -2.984375 C 11.34375 -2.023438 10.96875 -1.285156 10.21875 -0.765625 C 9.476562 -0.253906 8.394531 0 6.96875 0 L 1.296875 0 L 1.296875 -10.953125 L 6.65625 -10.953125 C 7.988281 -10.953125 9.007812 -10.695312 9.71875 -10.1875 C 10.4375 -9.675781 10.796875 -8.984375 10.796875 -8.109375 C 10.796875 -7.578125 10.664062 -7.101562 10.40625 -6.6875 C 10.15625 -6.269531 9.800781 -5.941406 9.34375 -5.703125 Z M 3.8125 -9.046875 L 3.8125 -6.46875 L 6.34375 -6.46875 C 6.96875 -6.46875 7.441406 -6.578125 7.765625 -6.796875 C 8.085938 -7.015625 8.25 -7.335938 8.25 -7.765625 C 8.25 -8.191406 8.085938 -8.507812 7.765625 -8.71875 C 7.441406 -8.9375 6.96875 -9.046875 6.34375 -9.046875 Z M 6.78125 -1.90625 C 7.445312 -1.90625 7.945312 -2.015625 8.28125 -2.234375 C 8.625 -2.453125 8.796875 -2.789062 8.796875 -3.25 C 8.796875 -4.164062 8.125 -4.625 6.78125 -4.625 L 3.8125 -4.625 L 3.8125 -1.90625 Z M 6.78125 -1.90625 "/></g></g></g><g fill="#000000" fill-opacity="1"><g transform="translate(116.457493, 161.989998)"><g><path d="M 8.515625 -2.34375 L 3.421875 -2.34375 L 2.453125 0 L -0.140625 0 L 4.75 -10.953125 L 7.25 -10.953125 L 12.15625 0 L 9.484375 0 Z M 7.71875 -4.28125 L 5.984375 -8.46875 L 4.25 -4.28125 Z M 7.71875 -4.28125 "/></g></g></g><g fill="#000000" fill-opacity="1"><g transform="translate(128.44614, 161.989998)"><g><path d="M 8.28125 0 L 6.171875 -3.046875 L 3.828125 -3.046875 L 3.828125 0 L 1.296875 0 L 1.296875 -10.953125 L 6.046875 -10.953125 C 7.015625 -10.953125 7.851562 -10.789062 8.5625 -10.46875 C 9.28125 -10.144531 9.832031 -9.6875 10.21875 -9.09375 C 10.601562 -8.5 10.796875 -7.796875 10.796875 -6.984375 C 10.796875 -6.171875 10.597656 -5.46875 10.203125 -4.875 C 9.816406 -4.289062 9.265625 -3.835938 8.546875 -3.515625 L 11 0 Z M 8.234375 -6.984375 C 8.234375 -7.597656 8.035156 -8.066406 7.640625 -8.390625 C 7.242188 -8.722656 6.664062 -8.890625 5.90625 -8.890625 L 3.828125 -8.890625 L 3.828125 -5.078125 L 5.90625 -5.078125 C 6.664062 -5.078125 7.242188 -5.242188 7.640625 -5.578125 C 8.035156 -5.910156 8.234375 -6.378906 8.234375 -6.984375 Z M 8.234375 -6.984375 "/></g></g></g><g fill="#000000" fill-opacity="1"><g transform="translate(139.949601, 161.989998)"><g><path d="M 1.296875 -10.953125 L 3.828125 -10.953125 L 3.828125 0 L 1.296875 0 Z M 1.296875 -10.953125 "/></g></g></g><g fill="#000000" fill-opacity="1"><g transform="translate(145.083121, 161.989998)"><g><path d="M 9.78125 -2.03125 L 9.78125 0 L 1.296875 0 L 1.296875 -10.953125 L 9.578125 -10.953125 L 9.578125 -8.921875 L 3.8125 -8.921875 L 3.8125 -6.546875 L 8.90625 -6.546875 L 8.90625 -4.578125 L 3.8125 -4.578125 L 3.8125 -2.03125 Z M 6.8125 -11.859375 L 5.4375 -13.046875 L 4.078125 -11.859375 L 2.296875 -11.859375 L 4.359375 -14.109375 L 6.53125 -14.109375 L 8.59375 -11.859375 Z M 6.8125 -11.859375 "/></g></g></g></svg>