<svg xmlns="http://www.w3.org/2000/svg" xmlns:xlink="http://www.w3.org/1999/xlink" width="320" zoomAndPan="magnify" viewBox="0 0 240 239.999995" height="320" preserveAspectRatio="xMidYMid meet" version="1.0"><defs><g/></defs><path fill="#000000" d="M 119.394531 3.101562 C 119.128906 3.527344 118.875 3.542969 113.25 3.542969 C 107.570312 3.542969 107.378906 3.558594 107.265625 3.988281 C 107.15625 4.402344 106.960938 4.429688 104.113281 4.433594 C 100.644531 4.4375 100.078125 4.53125 100.078125 5.121094 C 100.078125 5.503906 99.878906 5.539062 97.65625 5.539062 C 95.417969 5.539062 95.222656 5.574219 95.117188 5.980469 C 95.011719 6.375 94.8125 6.425781 93.324219 6.425781 C 91.699219 6.425781 90.949219 6.707031 90.949219 7.324219 C 90.949219 7.4375 90.300781 7.53125 89.503906 7.53125 C 88.214844 7.53125 88.054688 7.578125 88.054688 7.964844 C 88.054688 8.339844 87.875 8.40625 86.664062 8.460938 C 85.46875 8.519531 85.242188 8.597656 85.054688 9.027344 C 84.859375 9.46875 84.671875 9.523438 83.441406 9.523438 C 82.195312 9.523438 82.046875 9.574219 82.046875 9.96875 C 82.046875 10.355469 81.898438 10.410156 80.835938 10.410156 C 79.679688 10.410156 78.929688 10.765625 78.929688 11.3125 C 78.929688 11.425781 78.519531 11.519531 78.015625 11.519531 C 77.300781 11.519531 77.082031 11.613281 76.992188 11.949219 C 76.90625 12.273438 76.648438 12.398438 75.957031 12.449219 C 75.191406 12.503906 75.019531 12.601562 74.960938 13.015625 C 74.898438 13.46875 74.769531 13.511719 73.550781 13.511719 C 72.40625 13.511719 72.191406 13.578125 72.09375 13.945312 C 72.007812 14.269531 71.753906 14.390625 71.058594 14.441406 C 70.296875 14.496094 70.121094 14.597656 70.0625 15.007812 C 70.003906 15.429688 69.855469 15.507812 69.097656 15.507812 C 68.40625 15.507812 68.175781 15.601562 68.089844 15.925781 C 68.015625 16.210938 67.703125 16.386719 67.085938 16.484375 C 66.457031 16.585938 66.160156 16.753906 66.078125 17.0625 C 66.003906 17.34375 65.773438 17.5 65.433594 17.5 C 65.058594 17.5 64.902344 17.625 64.902344 17.929688 C 64.902344 18.277344 64.722656 18.375 63.957031 18.429688 C 63.171875 18.484375 63 18.582031 62.941406 18.996094 C 62.882812 19.402344 62.726562 19.492188 62.085938 19.492188 C 61.496094 19.492188 61.273438 19.601562 61.1875 19.925781 C 61.125 20.160156 60.859375 20.386719 60.59375 20.421875 C 60.296875 20.464844 60.089844 20.675781 60.046875 20.988281 C 59.984375 21.421875 59.839844 21.488281 58.988281 21.488281 C 58.160156 21.488281 58 21.558594 58 21.914062 C 58 22.191406 57.824219 22.367188 57.5 22.414062 C 57.179688 22.457031 56.972656 22.664062 56.929688 22.984375 C 56.882812 23.304688 56.703125 23.480469 56.429688 23.480469 C 56.152344 23.480469 56 23.632812 56 23.910156 C 56 24.257812 55.816406 24.355469 55.050781 24.410156 C 54.265625 24.464844 54.09375 24.5625 54.035156 24.976562 C 53.988281 25.304688 53.8125 25.472656 53.511719 25.472656 C 53.253906 25.472656 53.015625 25.65625 52.949219 25.902344 C 52.875 26.195312 52.5625 26.375 51.96875 26.476562 C 51.3125 26.585938 51.101562 26.726562 51.101562 27.042969 C 51.101562 27.347656 50.945312 27.46875 50.542969 27.46875 C 50.140625 27.46875 49.988281 27.585938 49.988281 27.894531 C 49.988281 28.171875 49.808594 28.347656 49.488281 28.394531 C 49.164062 28.441406 48.960938 28.644531 48.914062 28.964844 C 48.867188 29.285156 48.691406 29.460938 48.414062 29.460938 C 48.136719 29.460938 47.984375 29.613281 47.984375 29.890625 C 47.984375 30.164062 47.804688 30.34375 47.484375 30.386719 C 47.164062 30.433594 46.957031 30.636719 46.914062 30.945312 C 46.855469 31.328125 46.671875 31.445312 46.023438 31.5 C 45.257812 31.5625 45.1875 31.628906 44.996094 32.492188 C 44.8125 33.308594 44.699219 33.429688 44.035156 33.554688 C 43.625 33.632812 43.234375 33.832031 43.167969 33.996094 C 43.105469 34.160156 42.808594 34.355469 42.511719 34.429688 C 42.183594 34.511719 41.972656 34.726562 41.972656 34.976562 C 41.972656 35.207031 41.773438 35.441406 41.527344 35.507812 C 41.28125 35.570312 41.082031 35.773438 41.082031 35.960938 C 41.082031 36.144531 40.855469 36.328125 40.582031 36.367188 C 40.257812 36.414062 40.054688 36.617188 40.007812 36.9375 C 39.964844 37.257812 39.785156 37.4375 39.511719 37.4375 C 39.25 37.4375 39.035156 37.640625 38.953125 37.96875 C 38.878906 38.261719 38.632812 38.550781 38.40625 38.609375 C 38.136719 38.679688 37.972656 38.960938 37.925781 39.441406 C 37.863281 40.078125 37.746094 40.199219 36.964844 40.414062 C 36.152344 40.636719 36.066406 40.734375 36.003906 41.472656 C 35.949219 42.113281 35.832031 42.296875 35.449219 42.351562 C 35.140625 42.394531 34.933594 42.601562 34.890625 42.917969 C 34.84375 43.238281 34.664062 43.417969 34.386719 43.417969 C 34.125 43.417969 33.957031 43.570312 33.957031 43.808594 C 33.957031 44.023438 33.734375 44.296875 33.457031 44.417969 C 33.089844 44.578125 32.9375 44.855469 32.886719 45.464844 C 32.832031 46.117188 32.726562 46.296875 32.386719 46.296875 C 32.074219 46.296875 31.953125 46.449219 31.953125 46.851562 C 31.953125 47.292969 31.84375 47.40625 31.398438 47.40625 C 31 47.40625 30.839844 47.523438 30.839844 47.820312 C 30.839844 48.054688 30.644531 48.289062 30.394531 48.355469 C 30.042969 48.445312 29.949219 48.65625 29.949219 49.363281 C 29.949219 50.117188 29.875 50.265625 29.449219 50.324219 C 29.128906 50.371094 28.921875 50.574219 28.878906 50.894531 C 28.832031 51.214844 28.652344 51.390625 28.378906 51.390625 C 28.113281 51.390625 27.949219 51.542969 27.949219 51.78125 C 27.949219 51.996094 27.722656 52.273438 27.445312 52.390625 C 27.082031 52.550781 26.925781 52.832031 26.878906 53.417969 C 26.828125 54 26.6875 54.257812 26.378906 54.339844 C 26.121094 54.40625 25.945312 54.640625 25.945312 54.914062 C 25.945312 55.222656 25.800781 55.378906 25.523438 55.378906 C 25.097656 55.378906 24.839844 55.9375 24.832031 56.875 C 24.832031 57.222656 24.699219 57.375 24.386719 57.375 C 24.109375 57.375 23.941406 57.519531 23.941406 57.761719 C 23.941406 57.976562 23.714844 58.253906 23.4375 58.371094 C 23.074219 58.53125 22.917969 58.8125 22.871094 59.398438 C 22.820312 59.980469 22.679688 60.238281 22.371094 60.320312 C 22.03125 60.410156 21.9375 60.628906 21.9375 61.324219 C 21.9375 62.082031 21.859375 62.226562 21.4375 62.285156 C 21.050781 62.339844 20.917969 62.523438 20.863281 63.085938 C 20.824219 63.507812 20.613281 63.921875 20.363281 64.078125 C 20.082031 64.253906 19.933594 64.59375 19.933594 65.0625 C 19.933594 65.582031 19.78125 65.878906 19.375 66.144531 C 18.945312 66.425781 18.820312 66.695312 18.820312 67.339844 C 18.820312 67.988281 18.71875 68.203125 18.375 68.292969 C 18.023438 68.382812 17.929688 68.59375 17.929688 69.300781 C 17.929688 70.054688 17.851562 70.199219 17.429688 70.261719 C 16.972656 70.324219 16.921875 70.46875 16.863281 71.828125 C 16.804688 73.140625 16.742188 73.324219 16.359375 73.324219 C 15.996094 73.324219 15.925781 73.476562 15.925781 74.304688 C 15.925781 75.152344 15.859375 75.292969 15.425781 75.355469 C 15.007812 75.414062 14.914062 75.585938 14.855469 76.367188 C 14.800781 77.128906 14.703125 77.308594 14.355469 77.308594 C 13.972656 77.308594 13.921875 77.472656 13.921875 78.734375 C 13.921875 80.042969 13.882812 80.164062 13.421875 80.230469 C 12.96875 80.292969 12.914062 80.4375 12.855469 81.773438 C 12.800781 83.015625 12.722656 83.261719 12.355469 83.355469 C 11.976562 83.457031 11.917969 83.667969 11.917969 84.929688 C 11.917969 86.09375 11.847656 86.390625 11.578125 86.390625 C 11.152344 86.390625 10.804688 87.277344 10.804688 88.375 C 10.804688 89.035156 10.707031 89.246094 10.359375 89.335938 C 9.949219 89.441406 9.914062 89.636719 9.914062 91.796875 L 9.914062 94.144531 L 11.917969 94.144531 C 13.804688 94.144531 13.921875 94.117188 13.921875 93.679688 C 13.921875 93.402344 14.101562 93.171875 14.367188 93.101562 C 14.777344 92.996094 14.8125 92.800781 14.8125 90.589844 C 14.8125 88.273438 14.828125 88.191406 15.3125 88.125 C 15.761719 88.0625 15.820312 87.910156 15.878906 86.679688 C 15.933594 85.546875 16.023438 85.285156 16.382812 85.171875 C 16.753906 85.054688 16.816406 84.828125 16.816406 83.609375 C 16.816406 82.359375 16.867188 82.183594 17.238281 82.183594 C 17.710938 82.183594 17.929688 81.773438 17.929688 80.890625 C 17.929688 80.535156 18.109375 80.183594 18.375 80.019531 C 18.757812 79.78125 18.820312 79.503906 18.820312 77.972656 C 18.820312 76.230469 18.828125 76.203125 19.375 76.203125 C 19.886719 76.203125 19.933594 76.121094 19.933594 75.207031 C 19.933594 74.355469 20 74.207031 20.378906 74.207031 C 20.757812 74.207031 20.824219 74.0625 20.824219 73.226562 C 20.824219 72.378906 20.890625 72.234375 21.324219 72.175781 C 21.730469 72.117188 21.839844 71.941406 21.898438 71.226562 C 21.941406 70.671875 22.125 70.242188 22.398438 70.050781 C 22.675781 69.855469 22.828125 69.492188 22.828125 69.003906 C 22.828125 68.398438 22.921875 68.246094 23.328125 68.1875 C 23.746094 68.128906 23.839844 67.957031 23.898438 67.175781 C 23.953125 66.414062 24.046875 66.234375 24.398438 66.234375 C 24.761719 66.234375 24.832031 66.078125 24.832031 65.253906 C 24.832031 64.402344 24.898438 64.261719 25.332031 64.199219 C 25.746094 64.140625 25.84375 63.96875 25.902344 63.1875 C 25.957031 62.425781 26.050781 62.246094 26.402344 62.246094 C 26.6875 62.246094 26.835938 62.09375 26.835938 61.804688 C 26.835938 61.558594 26.925781 61.359375 27.042969 61.359375 C 27.457031 61.359375 27.949219 60.648438 27.949219 60.042969 C 27.949219 59.605469 28.082031 59.382812 28.394531 59.300781 C 28.660156 59.234375 28.835938 59 28.835938 58.722656 C 28.835938 58.453125 28.980469 58.257812 29.175781 58.257812 C 29.609375 58.257812 29.949219 57.371094 29.949219 56.25 C 29.949219 55.527344 30.027344 55.378906 30.394531 55.378906 C 30.722656 55.378906 30.839844 55.230469 30.839844 54.824219 C 30.839844 54.382812 30.953125 54.273438 31.398438 54.273438 C 31.816406 54.273438 31.953125 54.15625 31.953125 53.808594 C 31.953125 53.53125 32.132812 53.296875 32.398438 53.226562 C 32.644531 53.164062 32.84375 52.9375 32.84375 52.722656 C 32.84375 52.507812 33.042969 52.277344 33.285156 52.214844 C 33.597656 52.132812 33.765625 51.839844 33.871094 51.191406 C 33.980469 50.503906 34.117188 50.285156 34.433594 50.285156 C 34.695312 50.285156 34.847656 50.128906 34.847656 49.855469 C 34.847656 49.582031 35.027344 49.402344 35.351562 49.359375 C 35.671875 49.3125 35.875 49.109375 35.921875 48.789062 C 35.960938 48.515625 36.144531 48.289062 36.332031 48.289062 C 36.519531 48.289062 36.722656 48.101562 36.78125 47.867188 C 36.84375 47.636719 37.085938 47.394531 37.316406 47.335938 C 37.550781 47.273438 37.808594 47.042969 37.894531 46.816406 C 37.976562 46.59375 38.230469 46.277344 38.453125 46.117188 C 38.707031 45.933594 38.855469 45.550781 38.855469 45.066406 C 38.855469 44.398438 38.925781 44.304688 39.414062 44.304688 C 39.808594 44.304688 39.96875 44.183594 39.96875 43.886719 C 39.96875 43.65625 40.167969 43.417969 40.414062 43.351562 C 40.679688 43.285156 40.859375 43.050781 40.859375 42.773438 C 40.859375 42.449219 41 42.308594 41.324219 42.308594 C 41.597656 42.308594 41.839844 42.132812 41.902344 41.886719 C 41.964844 41.65625 42.203125 41.414062 42.4375 41.355469 C 42.6875 41.289062 42.863281 41.050781 42.863281 40.78125 C 42.863281 40.457031 43.003906 40.316406 43.328125 40.316406 C 43.605469 40.316406 43.84375 40.140625 43.910156 39.878906 C 43.972656 39.640625 44.214844 39.386719 44.445312 39.3125 C 44.675781 39.238281 44.867188 38.984375 44.867188 38.75 C 44.867188 38.464844 45.019531 38.324219 45.332031 38.324219 C 45.605469 38.324219 45.84375 38.144531 45.910156 37.898438 C 45.972656 37.667969 46.210938 37.425781 46.445312 37.367188 C 46.691406 37.300781 46.871094 37.0625 46.871094 36.792969 C 46.871094 36.46875 47.011719 36.328125 47.335938 36.328125 C 47.617188 36.328125 47.847656 36.152344 47.917969 35.886719 C 47.984375 35.640625 48.222656 35.441406 48.453125 35.441406 C 48.753906 35.441406 48.875 35.285156 48.875 34.890625 C 48.875 34.472656 48.992188 34.335938 49.339844 34.335938 C 49.617188 34.335938 49.851562 34.15625 49.921875 33.890625 C 49.988281 33.648438 50.226562 33.449219 50.457031 33.449219 C 50.757812 33.449219 50.878906 33.289062 50.878906 32.894531 C 50.878906 32.453125 50.988281 32.339844 51.433594 32.339844 C 51.832031 32.339844 51.992188 32.222656 51.992188 31.925781 C 51.992188 31.695312 52.191406 31.457031 52.4375 31.390625 C 52.703125 31.320312 52.882812 31.089844 52.882812 30.8125 C 52.882812 30.410156 53.015625 30.347656 53.882812 30.347656 C 54.722656 30.347656 54.886719 30.28125 54.886719 29.921875 C 54.886719 29.644531 55.0625 29.46875 55.386719 29.421875 C 55.707031 29.375 55.914062 29.171875 55.957031 28.851562 C 56.003906 28.53125 56.183594 28.355469 56.460938 28.355469 C 56.738281 28.355469 56.886719 28.203125 56.886719 27.910156 C 56.886719 27.570312 57.039062 27.46875 57.539062 27.46875 C 58.476562 27.46875 58.890625 27.257812 58.890625 26.78125 C 58.890625 26.480469 59.050781 26.359375 59.449219 26.359375 C 59.851562 26.359375 60.003906 26.242188 60.003906 25.929688 C 60.003906 25.59375 60.1875 25.488281 60.839844 25.433594 C 61.453125 25.382812 61.734375 25.230469 61.894531 24.867188 C 62.015625 24.589844 62.292969 24.367188 62.507812 24.367188 C 62.746094 24.367188 62.898438 24.199219 62.898438 23.9375 C 62.898438 23.589844 63.082031 23.492188 63.847656 23.4375 C 64.632812 23.382812 64.804688 23.285156 64.863281 22.871094 C 64.925781 22.441406 65.066406 22.375 65.921875 22.375 C 66.757812 22.375 66.90625 22.304688 66.90625 21.929688 C 66.90625 21.621094 67.054688 21.488281 67.40625 21.484375 C 68.347656 21.480469 68.910156 21.222656 68.910156 20.796875 C 68.910156 20.5 69.070312 20.378906 69.46875 20.378906 C 69.871094 20.378906 70.023438 20.261719 70.023438 19.949219 C 70.023438 19.601562 70.203125 19.507812 70.96875 19.449219 C 71.757812 19.394531 71.929688 19.296875 71.988281 18.882812 C 72.046875 18.460938 72.195312 18.386719 72.953125 18.386719 C 73.65625 18.386719 73.875 18.292969 73.964844 17.953125 C 74.046875 17.628906 74.304688 17.507812 75 17.457031 C 75.761719 17.402344 75.933594 17.304688 75.996094 16.890625 C 76.054688 16.460938 76.199219 16.390625 77.050781 16.390625 C 77.890625 16.390625 78.039062 16.324219 78.039062 15.949219 C 78.039062 15.59375 78.1875 15.507812 78.804688 15.507812 C 79.828125 15.507812 80.710938 15.152344 80.710938 14.738281 C 80.710938 14.480469 80.972656 14.398438 81.824219 14.398438 C 82.789062 14.398438 82.9375 14.339844 82.9375 13.957031 C 82.9375 13.566406 83.085938 13.511719 84.132812 13.511719 C 85.878906 13.511719 86.761719 13.289062 86.886719 12.8125 C 86.972656 12.496094 87.207031 12.40625 87.972656 12.40625 C 88.796875 12.40625 88.945312 12.335938 88.945312 11.960938 C 88.945312 11.574219 89.09375 11.519531 90.144531 11.519531 C 91.871094 11.519531 92.699219 11.308594 92.851562 10.828125 C 92.964844 10.464844 93.214844 10.410156 94.738281 10.410156 C 96.226562 10.410156 96.535156 10.347656 96.796875 9.976562 C 97.0625 9.601562 97.414062 9.535156 99.425781 9.476562 C 101.589844 9.417969 101.761719 9.378906 101.96875 8.917969 C 102.175781 8.445312 102.3125 8.417969 104.582031 8.417969 C 106.832031 8.417969 106.980469 8.390625 106.980469 7.976562 C 106.980469 7.621094 107.128906 7.53125 107.714844 7.53125 C 108.117188 7.53125 108.570312 7.652344 108.714844 7.796875 C 108.921875 8.003906 109.042969 8.003906 109.25 7.796875 C 109.453125 7.597656 112.421875 7.53125 121.246094 7.53125 C 132.789062 7.53125 132.976562 7.539062 133.089844 7.976562 C 133.199219 8.382812 133.394531 8.417969 135.664062 8.417969 C 137.871094 8.417969 138.128906 8.460938 138.25 8.835938 C 138.414062 9.351562 139.234375 9.523438 141.488281 9.523438 C 143.027344 9.523438 143.226562 9.574219 143.332031 9.96875 C 143.4375 10.375 143.636719 10.410156 145.792969 10.410156 C 148.050781 10.410156 148.136719 10.429688 148.207031 10.910156 C 148.261719 11.316406 148.441406 11.421875 149.15625 11.480469 C 149.714844 11.523438 150.148438 11.707031 150.339844 11.976562 C 150.59375 12.339844 150.914062 12.40625 152.390625 12.40625 C 154.039062 12.40625 154.148438 12.433594 154.214844 12.902344 C 154.28125 13.355469 154.425781 13.40625 155.765625 13.464844 C 157.015625 13.523438 157.261719 13.597656 157.359375 13.964844 C 157.457031 14.335938 157.671875 14.398438 158.816406 14.398438 C 160.035156 14.398438 160.164062 14.441406 160.226562 14.898438 C 160.285156 15.3125 160.457031 15.40625 161.246094 15.464844 C 162.007812 15.519531 162.191406 15.613281 162.191406 15.960938 C 162.191406 16.34375 162.351562 16.390625 163.621094 16.390625 C 164.9375 16.390625 165.058594 16.433594 165.125 16.890625 C 165.167969 17.203125 165.375 17.414062 165.675781 17.457031 C 165.9375 17.496094 166.203125 17.71875 166.265625 17.957031 C 166.355469 18.289062 166.574219 18.386719 167.265625 18.386719 C 167.957031 18.386719 168.175781 18.480469 168.265625 18.824219 C 168.347656 19.132812 168.644531 19.300781 169.292969 19.40625 C 169.984375 19.515625 170.203125 19.652344 170.203125 19.964844 C 170.203125 20.253906 170.367188 20.378906 170.734375 20.378906 C 171.078125 20.378906 171.308594 20.535156 171.382812 20.816406 C 171.460938 21.125 171.757812 21.296875 172.390625 21.394531 C 173.003906 21.492188 173.316406 21.667969 173.394531 21.957031 C 173.476562 22.273438 173.707031 22.375 174.375 22.375 C 175.019531 22.375 175.386719 22.519531 175.769531 22.925781 C 176.058594 23.230469 176.464844 23.480469 176.675781 23.480469 C 176.882812 23.480469 177.105469 23.679688 177.171875 23.925781 C 177.253906 24.246094 177.472656 24.367188 177.972656 24.367188 C 178.453125 24.367188 178.761719 24.527344 179.019531 24.921875 C 179.21875 25.226562 179.574219 25.472656 179.804688 25.472656 C 180.074219 25.472656 180.222656 25.632812 180.222656 25.917969 C 180.222656 26.292969 180.371094 26.359375 181.210938 26.359375 L 182.199219 26.359375 L 182.269531 27.300781 C 182.335938 28.238281 182.34375 28.242188 183.269531 28.3125 C 184.035156 28.367188 184.214844 28.464844 184.273438 28.863281 C 184.328125 29.265625 184.507812 29.363281 185.289062 29.417969 C 186.054688 29.472656 186.234375 29.570312 186.234375 29.917969 C 186.234375 30.195312 186.386719 30.347656 186.664062 30.347656 C 186.941406 30.347656 187.117188 30.527344 187.164062 30.847656 C 187.21875 31.226562 187.40625 31.359375 187.957031 31.414062 C 188.707031 31.484375 189.351562 32.136719 189.351562 32.816406 C 189.351562 33.054688 189.597656 33.246094 190.027344 33.339844 C 190.402344 33.421875 190.828125 33.679688 190.972656 33.914062 C 191.121094 34.144531 191.464844 34.335938 191.742188 34.335938 C 192.128906 34.335938 192.246094 34.460938 192.246094 34.890625 C 192.246094 35.296875 192.363281 35.441406 192.691406 35.441406 C 192.988281 35.441406 193.136719 35.589844 193.136719 35.886719 C 193.136719 36.210938 193.285156 36.328125 193.691406 36.328125 C 194.136719 36.328125 194.25 36.441406 194.25 36.882812 C 194.25 37.289062 194.367188 37.4375 194.695312 37.4375 C 194.992188 37.4375 195.140625 37.585938 195.140625 37.878906 C 195.140625 38.203125 195.289062 38.324219 195.695312 38.324219 C 196.140625 38.324219 196.253906 38.433594 196.253906 38.875 C 196.253906 39.28125 196.371094 39.429688 196.699219 39.429688 C 196.996094 39.429688 197.144531 39.578125 197.144531 39.875 C 197.144531 40.199219 197.292969 40.316406 197.699219 40.316406 C 198.144531 40.316406 198.253906 40.425781 198.253906 40.871094 C 198.253906 41.277344 198.375 41.421875 198.699219 41.421875 C 198.996094 41.421875 199.144531 41.570312 199.144531 41.867188 C 199.144531 42.191406 199.292969 42.308594 199.703125 42.308594 C 200.148438 42.308594 200.257812 42.421875 200.257812 42.863281 C 200.257812 43.257812 200.378906 43.417969 200.679688 43.417969 C 200.988281 43.417969 201.140625 43.632812 201.25 44.21875 C 201.351562 44.742188 201.550781 45.054688 201.832031 45.128906 C 202.074219 45.191406 202.261719 45.433594 202.261719 45.679688 C 202.261719 45.921875 202.449219 46.167969 202.6875 46.226562 C 202.921875 46.289062 203.164062 46.535156 203.226562 46.777344 C 203.292969 47.019531 203.539062 47.265625 203.78125 47.332031 C 204.050781 47.398438 204.273438 47.707031 204.355469 48.125 C 204.433594 48.503906 204.867188 49.15625 205.34375 49.601562 C 205.8125 50.039062 206.257812 50.570312 206.335938 50.78125 C 206.414062 50.996094 206.625 51.171875 206.804688 51.171875 C 206.984375 51.171875 207.160156 51.394531 207.199219 51.667969 C 207.246094 51.988281 207.449219 52.191406 207.773438 52.238281 C 208.136719 52.289062 208.273438 52.457031 208.273438 52.847656 C 208.273438 53.234375 208.398438 53.386719 208.707031 53.386719 C 209.042969 53.386719 209.152344 53.566406 209.207031 54.214844 C 209.257812 54.828125 209.410156 55.105469 209.777344 55.265625 C 210.050781 55.386719 210.277344 55.660156 210.277344 55.875 C 210.277344 56.113281 210.445312 56.265625 210.710938 56.265625 C 211.058594 56.265625 211.15625 56.445312 211.210938 57.207031 C 211.269531 57.988281 211.363281 58.160156 211.78125 58.21875 C 212.144531 58.269531 212.28125 58.4375 212.28125 58.828125 C 212.28125 59.214844 212.402344 59.367188 212.714844 59.367188 C 213.0625 59.367188 213.160156 59.546875 213.214844 60.308594 C 213.269531 61.089844 213.367188 61.261719 213.785156 61.320312 C 214.207031 61.378906 214.285156 61.527344 214.285156 62.28125 C 214.285156 62.980469 214.378906 63.199219 214.71875 63.285156 C 215.027344 63.367188 215.171875 63.628906 215.21875 64.207031 C 215.269531 64.796875 215.421875 65.074219 215.789062 65.234375 C 216.175781 65.402344 216.289062 65.636719 216.289062 66.261719 C 216.289062 66.863281 216.394531 67.097656 216.703125 67.175781 C 216.972656 67.246094 217.171875 67.574219 217.273438 68.113281 C 217.378906 68.664062 217.574219 68.980469 217.863281 69.054688 C 218.136719 69.125 218.292969 69.355469 218.292969 69.691406 C 218.292969 70.070312 218.417969 70.222656 218.726562 70.222656 C 219.105469 70.222656 219.171875 70.402344 219.226562 71.605469 C 219.285156 72.796875 219.363281 73.019531 219.792969 73.207031 C 220.183594 73.378906 220.296875 73.609375 220.296875 74.246094 C 220.296875 74.863281 220.402344 75.097656 220.730469 75.203125 C 221.050781 75.304688 221.179688 75.578125 221.230469 76.269531 C 221.285156 77.039062 221.382812 77.210938 221.796875 77.269531 C 222.261719 77.335938 222.300781 77.453125 222.300781 78.875 C 222.300781 80.117188 222.386719 80.496094 222.746094 80.855469 C 222.988281 81.097656 223.191406 81.582031 223.191406 81.933594 C 223.191406 83.136719 223.46875 84.011719 223.890625 84.121094 C 224.210938 84.203125 224.304688 84.441406 224.304688 85.199219 C 224.304688 86.015625 224.371094 86.171875 224.738281 86.171875 C 225.121094 86.171875 225.179688 86.351562 225.238281 87.664062 C 225.296875 89.023438 225.351562 89.167969 225.804688 89.230469 C 226.296875 89.300781 226.304688 89.367188 226.304688 92.140625 C 226.304688 94.792969 226.335938 94.988281 226.75 95.09375 C 227.019531 95.164062 227.195312 95.398438 227.195312 95.683594 C 227.195312 96.132812 227.285156 96.152344 229.144531 96.09375 L 231.09375 96.027344 L 231.15625 93.648438 C 231.214844 91.378906 231.199219 91.265625 230.765625 91.265625 C 230.382812 91.265625 230.3125 91.121094 230.3125 90.324219 C 230.304688 89 230.117188 88.445312 229.625 88.316406 C 229.261719 88.222656 229.199219 87.996094 229.199219 86.746094 C 229.199219 85.433594 229.15625 85.285156 228.753906 85.285156 C 228.351562 85.285156 228.308594 85.136719 228.308594 83.640625 C 228.308594 81.710938 228.1875 81.296875 227.617188 81.296875 C 227.25 81.296875 227.195312 81.125 227.195312 79.945312 C 227.195312 78.796875 227.132812 78.582031 226.761719 78.484375 C 226.425781 78.394531 226.3125 78.144531 226.261719 77.34375 C 226.207031 76.46875 226.121094 76.300781 225.695312 76.242188 C 225.246094 76.179688 225.195312 76.046875 225.195312 74.980469 C 225.195312 74.058594 225.097656 73.722656 224.765625 73.492188 C 224.492188 73.300781 224.308594 72.871094 224.261719 72.316406 C 224.203125 71.601562 224.097656 71.425781 223.691406 71.367188 C 223.257812 71.308594 223.191406 71.164062 223.191406 70.316406 C 223.191406 69.484375 223.121094 69.335938 222.746094 69.335938 C 222.371094 69.335938 222.300781 69.1875 222.296875 68.394531 C 222.292969 67.070312 222.101562 66.511719 221.609375 66.386719 C 221.28125 66.300781 221.1875 66.074219 221.1875 65.367188 C 221.1875 64.609375 221.113281 64.460938 220.742188 64.460938 C 220.382812 64.460938 220.296875 64.3125 220.296875 63.703125 C 220.296875 62.980469 219.839844 62.246094 219.390625 62.246094 C 219.277344 62.246094 219.183594 62.046875 219.183594 61.804688 C 219.183594 61.511719 219.035156 61.359375 218.75 61.359375 C 218.402344 61.359375 218.304688 61.179688 218.25 60.417969 C 218.191406 59.636719 218.097656 59.464844 217.679688 59.40625 C 217.253906 59.347656 217.179688 59.199219 217.179688 58.445312 C 217.179688 57.75 217.085938 57.527344 216.746094 57.441406 C 216.507812 57.378906 216.28125 57.113281 216.246094 56.851562 C 216.203125 56.554688 215.988281 56.351562 215.675781 56.304688 C 215.253906 56.246094 215.175781 56.097656 215.175781 55.363281 C 215.175781 54.660156 215.09375 54.492188 214.753906 54.492188 C 214.429688 54.492188 214.300781 54.273438 214.183594 53.496094 C 214.066406 52.710938 213.945312 52.5 213.601562 52.5 C 213.3125 52.5 213.171875 52.347656 213.171875 52.035156 C 213.171875 51.761719 212.992188 51.527344 212.738281 51.460938 C 212.5 51.398438 212.277344 51.132812 212.238281 50.871094 C 212.195312 50.574219 211.984375 50.367188 211.667969 50.324219 C 211.25 50.265625 211.167969 50.117188 211.167969 49.417969 C 211.167969 48.742188 211.0625 48.535156 210.613281 48.332031 C 210.304688 48.191406 210.054688 47.925781 210.054688 47.742188 C 210.054688 47.550781 209.859375 47.40625 209.609375 47.40625 C 209.304688 47.40625 209.164062 47.257812 209.164062 46.941406 C 209.164062 46.664062 208.984375 46.429688 208.71875 46.363281 C 208.382812 46.273438 208.273438 46.058594 208.273438 45.492188 C 208.273438 44.902344 208.152344 44.683594 207.71875 44.484375 C 207.410156 44.347656 207.160156 44.050781 207.160156 43.824219 C 207.160156 43.574219 207 43.417969 206.742188 43.417969 C 206.503906 43.417969 206.269531 43.21875 206.203125 42.957031 C 206.136719 42.707031 205.871094 42.445312 205.617188 42.378906 C 205.359375 42.308594 205.15625 42.078125 205.15625 41.839844 C 205.15625 41.578125 205 41.421875 204.726562 41.421875 C 204.453125 41.421875 204.273438 41.246094 204.226562 40.925781 C 204.179688 40.605469 203.976562 40.402344 203.65625 40.355469 C 203.324219 40.308594 203.152344 40.132812 203.152344 39.84375 C 203.152344 39.066406 202.722656 38.566406 201.925781 38.417969 C 201.363281 38.3125 201.148438 38.15625 201.148438 37.855469 C 201.148438 37.585938 200.992188 37.4375 200.703125 37.4375 C 200.417969 37.4375 200.257812 37.289062 200.257812 37.027344 C 200.257812 36.800781 200.015625 36.355469 199.71875 36.035156 C 199.425781 35.71875 199.148438 35.28125 199.109375 35.0625 C 199.058594 34.800781 198.714844 34.597656 198.089844 34.457031 C 197.402344 34.308594 197.144531 34.140625 197.144531 33.851562 C 197.144531 33.601562 196.980469 33.449219 196.714844 33.449219 C 196.4375 33.449219 196.257812 33.269531 196.210938 32.949219 C 196.167969 32.628906 195.960938 32.425781 195.640625 32.382812 C 195.316406 32.335938 195.140625 32.15625 195.140625 31.882812 C 195.140625 31.609375 194.984375 31.457031 194.710938 31.457031 C 194.433594 31.457031 194.253906 31.277344 194.207031 30.960938 C 194.167969 30.675781 193.949219 30.425781 193.695312 30.378906 C 193.449219 30.332031 193.121094 30.109375 192.957031 29.878906 C 192.796875 29.648438 192.539062 29.460938 192.382812 29.460938 C 192.226562 29.460938 191.863281 29.210938 191.578125 28.90625 C 191.289062 28.601562 190.871094 28.355469 190.648438 28.355469 C 190.390625 28.355469 190.242188 28.191406 190.242188 27.910156 C 190.242188 27.585938 190.09375 27.46875 189.683594 27.46875 C 189.269531 27.46875 189.128906 27.351562 189.128906 27.003906 C 189.128906 26.730469 188.949219 26.496094 188.691406 26.425781 C 188.449219 26.363281 188.191406 26.125 188.117188 25.894531 C 188.019531 25.578125 187.773438 25.472656 187.125 25.472656 C 186.402344 25.472656 186.253906 25.394531 186.195312 24.976562 C 186.148438 24.65625 185.945312 24.453125 185.621094 24.40625 C 185.300781 24.359375 185.121094 24.183594 185.121094 23.910156 C 185.121094 23.601562 184.964844 23.480469 184.5625 23.480469 C 184.15625 23.480469 184.007812 23.363281 184.007812 23.039062 C 184.007812 22.773438 183.859375 22.59375 183.644531 22.59375 C 183.441406 22.59375 183.046875 22.34375 182.761719 22.039062 C 182.472656 21.730469 182 21.488281 181.679688 21.488281 C 181.273438 21.488281 181.113281 21.371094 181.113281 21.066406 C 181.113281 20.589844 180.699219 20.378906 179.757812 20.378906 C 179.257812 20.378906 179.109375 20.277344 179.109375 19.9375 C 179.109375 19.558594 178.960938 19.492188 178.109375 19.492188 C 177.1875 19.492188 177.105469 19.449219 177.105469 18.941406 C 177.105469 18.546875 176.984375 18.386719 176.6875 18.386719 C 176.453125 18.386719 176.214844 18.1875 176.152344 17.941406 C 176.058594 17.59375 175.847656 17.5 175.140625 17.5 C 174.378906 17.5 174.230469 17.425781 174.171875 17 C 174.113281 16.589844 173.941406 16.492188 173.175781 16.4375 C 172.484375 16.386719 172.226562 16.261719 172.140625 15.9375 C 172.050781 15.601562 171.832031 15.507812 171.132812 15.507812 C 170.371094 15.507812 170.226562 15.429688 170.164062 15.007812 C 170.105469 14.597656 169.933594 14.496094 169.171875 14.441406 C 168.476562 14.390625 168.21875 14.269531 168.132812 13.945312 C 168.046875 13.609375 167.824219 13.511719 167.160156 13.511719 C 166.484375 13.511719 166.257812 13.40625 166.082031 13.015625 C 165.921875 12.648438 165.640625 12.496094 165.039062 12.449219 C 164.457031 12.398438 164.175781 12.253906 164.078125 11.949219 C 163.960938 11.582031 163.730469 11.519531 162.523438 11.519531 C 161.226562 11.519531 161.101562 11.476562 161.039062 11.019531 C 160.976562 10.609375 160.804688 10.511719 160.042969 10.457031 C 159.347656 10.40625 159.089844 10.28125 159.007812 9.957031 C 158.910156 9.589844 158.695312 9.523438 157.550781 9.523438 C 156.429688 9.523438 156.1875 9.457031 156.074219 9.105469 C 155.921875 8.621094 155.335938 8.425781 154.035156 8.421875 C 153.304688 8.417969 153.089844 8.328125 153 7.976562 C 152.898438 7.59375 152.695312 7.53125 151.539062 7.53125 C 150.417969 7.53125 150.175781 7.460938 150.066406 7.113281 C 149.902344 6.609375 149.320312 6.429688 147.808594 6.425781 C 146.960938 6.425781 146.574219 6.3125 146.273438 5.980469 C 145.910156 5.582031 145.585938 5.539062 143.0625 5.539062 C 140.367188 5.539062 140.246094 5.519531 140.035156 5.039062 C 139.828125 4.566406 139.679688 4.539062 136.957031 4.480469 C 134.324219 4.421875 134.085938 4.382812 133.980469 3.980469 C 133.867188 3.558594 133.644531 3.542969 127.347656 3.542969 C 121.019531 3.542969 120.832031 3.53125 120.71875 3.101562 C 120.683594 2.96875 120.613281 2.863281 120.503906 2.78125 C 120.394531 2.695312 120.273438 2.65625 120.136719 2.660156 C 119.882812 2.660156 119.546875 2.859375 119.394531 3.101562 M 10.808594 145.636719 C 10.691406 145.949219 10.441406 146.203125 10.253906 146.203125 C 9.996094 146.203125 9.914062 146.457031 9.917969 147.253906 C 9.921875 148.664062 10.109375 149.300781 10.480469 149.15625 C 10.710938 149.070312 10.796875 149.375 10.851562 150.445312 C 10.910156 151.710938 10.964844 151.859375 11.417969 151.921875 C 11.878906 151.988281 11.917969 152.105469 11.917969 153.4375 C 11.917969 154.6875 11.976562 154.898438 12.355469 154.996094 C 12.738281 155.09375 12.800781 155.335938 12.855469 156.914062 C 12.914062 158.539062 12.96875 158.738281 13.421875 158.9375 C 13.863281 159.128906 13.921875 159.316406 13.921875 160.542969 C 13.921875 161.769531 13.972656 161.929688 14.355469 161.929688 C 14.703125 161.929688 14.800781 162.109375 14.855469 162.871094 C 14.914062 163.652344 15.007812 163.824219 15.425781 163.882812 C 15.882812 163.949219 15.925781 164.070312 15.925781 165.351562 C 15.925781 166.566406 15.984375 166.765625 16.371094 166.867188 C 16.691406 166.949219 16.816406 167.167969 16.816406 167.640625 C 16.816406 168.839844 17.082031 169.667969 17.511719 169.800781 C 17.742188 169.875 17.929688 170.136719 17.929688 170.382812 C 17.929688 170.644531 18.113281 170.878906 18.375 170.949219 C 18.683594 171.027344 18.820312 171.25 18.820312 171.675781 C 18.820312 172.855469 19.101562 173.726562 19.519531 173.835938 C 19.746094 173.894531 19.933594 174.140625 19.933594 174.382812 C 19.933594 174.632812 20.121094 174.867188 20.378906 174.933594 C 20.621094 175 20.824219 175.222656 20.824219 175.429688 C 20.824219 175.636719 21.074219 176.042969 21.378906 176.328125 C 21.6875 176.613281 21.9375 177.082031 21.9375 177.363281 C 21.9375 177.648438 22.125 178.066406 22.351562 178.292969 C 22.582031 178.519531 22.835938 179.167969 22.921875 179.730469 C 23.046875 180.546875 23.164062 180.757812 23.507812 180.757812 C 23.820312 180.757812 23.941406 180.910156 23.941406 181.3125 C 23.941406 181.71875 24.058594 181.867188 24.386719 181.867188 C 24.730469 181.867188 24.832031 182.015625 24.832031 182.511719 C 24.832031 183.445312 25.042969 183.859375 25.523438 183.859375 C 25.824219 183.859375 25.945312 184.019531 25.945312 184.414062 C 25.945312 184.8125 26.0625 184.96875 26.375 184.96875 C 26.726562 184.96875 26.820312 185.148438 26.878906 185.910156 C 26.933594 186.691406 27.03125 186.863281 27.445312 186.921875 C 27.769531 186.964844 27.949219 187.144531 27.949219 187.417969 C 27.949219 187.691406 28.101562 187.847656 28.363281 187.847656 C 28.679688 187.847656 28.816406 188.066406 28.925781 188.753906 C 29.03125 189.402344 29.199219 189.695312 29.511719 189.777344 C 29.761719 189.84375 29.949219 190.082031 29.949219 190.332031 C 29.949219 190.574219 30.136719 190.816406 30.375 190.878906 C 30.609375 190.9375 30.851562 191.179688 30.910156 191.410156 C 30.976562 191.65625 31.21875 191.835938 31.488281 191.835938 C 31.835938 191.835938 31.953125 191.972656 31.953125 192.386719 C 31.953125 192.691406 32.144531 193.132812 32.378906 193.363281 C 32.613281 193.597656 32.839844 193.972656 32.882812 194.195312 C 32.925781 194.417969 33.183594 194.703125 33.457031 194.820312 C 33.734375 194.941406 33.957031 195.214844 33.957031 195.429688 C 33.957031 195.667969 34.125 195.820312 34.386719 195.820312 C 34.664062 195.820312 34.84375 196 34.890625 196.320312 C 34.933594 196.640625 35.140625 196.84375 35.460938 196.890625 C 35.769531 196.933594 35.960938 197.113281 35.960938 197.363281 C 35.960938 197.585938 36.117188 197.828125 36.304688 197.898438 C 36.496094 197.972656 36.796875 198.382812 36.976562 198.808594 C 37.15625 199.238281 37.453125 199.585938 37.632812 199.585938 C 37.835938 199.585938 37.964844 199.796875 37.964844 200.125 C 37.964844 200.464844 38.125 200.714844 38.398438 200.800781 C 38.636719 200.878906 38.894531 201.132812 38.972656 201.371094 C 39.046875 201.609375 39.300781 201.800781 39.539062 201.800781 C 39.808594 201.800781 39.96875 201.953125 39.96875 202.210938 C 39.96875 202.433594 40.21875 202.730469 40.527344 202.871094 C 40.832031 203.007812 41.082031 203.273438 41.082031 203.460938 C 41.082031 203.644531 41.277344 203.796875 41.511719 203.796875 C 41.75 203.796875 42.007812 203.996094 42.085938 204.238281 C 42.179688 204.542969 42.496094 204.726562 43.101562 204.820312 C 43.671875 204.910156 43.976562 205.078125 43.976562 205.296875 C 43.976562 205.480469 44.148438 205.753906 44.355469 205.90625 C 44.566406 206.058594 44.847656 206.519531 44.988281 206.929688 C 45.203125 207.566406 45.351562 207.683594 46.039062 207.742188 C 46.671875 207.792969 46.859375 207.914062 46.914062 208.292969 C 46.957031 208.601562 47.164062 208.804688 47.484375 208.851562 C 47.804688 208.898438 47.984375 209.074219 47.984375 209.351562 C 47.984375 209.621094 48.136719 209.777344 48.402344 209.777344 C 48.640625 209.777344 48.875 209.976562 48.941406 210.238281 C 49.007812 210.488281 49.261719 210.746094 49.503906 210.8125 C 49.746094 210.875 49.996094 211.117188 50.058594 211.347656 C 50.121094 211.59375 50.363281 211.769531 50.632812 211.769531 C 50.949219 211.769531 51.101562 211.910156 51.101562 212.210938 C 51.101562 212.550781 51.296875 212.683594 51.972656 212.789062 C 52.566406 212.882812 52.878906 213.0625 52.953125 213.347656 C 53.015625 213.589844 53.257812 213.765625 53.527344 213.765625 C 53.847656 213.765625 53.996094 213.90625 53.996094 214.214844 C 53.996094 214.488281 54.210938 214.742188 54.550781 214.871094 C 54.855469 214.988281 55.109375 215.234375 55.109375 215.421875 C 55.109375 215.609375 55.300781 215.757812 55.546875 215.757812 C 55.785156 215.757812 56.085938 215.953125 56.214844 216.191406 C 56.34375 216.429688 56.789062 216.6875 57.203125 216.765625 C 57.6875 216.855469 58 217.0625 58.070312 217.328125 C 58.15625 217.65625 58.382812 217.75 59.078125 217.75 C 59.835938 217.75 59.984375 217.828125 60.046875 218.25 C 60.085938 218.519531 60.300781 218.78125 60.527344 218.820312 C 60.75 218.863281 61.128906 219.089844 61.363281 219.324219 C 61.59375 219.554688 62.011719 219.746094 62.289062 219.746094 C 62.597656 219.746094 62.878906 219.9375 63.015625 220.242188 C 63.171875 220.605469 63.453125 220.761719 64.046875 220.808594 C 64.628906 220.859375 64.890625 221 64.972656 221.308594 C 65.058594 221.644531 65.28125 221.738281 65.980469 221.738281 C 66.738281 221.738281 66.886719 221.816406 66.945312 222.238281 C 66.996094 222.589844 67.191406 222.757812 67.605469 222.804688 C 67.929688 222.839844 68.371094 223.066406 68.585938 223.300781 C 68.804688 223.539062 69.207031 223.734375 69.484375 223.734375 C 69.84375 223.734375 70.015625 223.882812 70.0625 224.230469 C 70.125 224.65625 70.289062 224.738281 71.167969 224.796875 C 71.84375 224.839844 72.335938 225.011719 72.59375 225.292969 C 72.867188 225.59375 73.277344 225.726562 73.9375 225.726562 C 74.753906 225.726562 74.902344 225.796875 74.960938 226.222656 C 75.003906 226.507812 75.222656 226.753906 75.476562 226.804688 C 75.71875 226.847656 76.050781 227.074219 76.210938 227.304688 C 76.457031 227.652344 76.792969 227.71875 78.257812 227.71875 C 79.90625 227.71875 80.015625 227.75 80.082031 228.21875 C 80.140625 228.632812 80.3125 228.730469 81.097656 228.785156 C 81.863281 228.839844 82.046875 228.9375 82.046875 229.285156 C 82.046875 229.652344 82.203125 229.714844 83.132812 229.714844 C 84.003906 229.714844 84.242188 229.796875 84.328125 230.121094 C 84.441406 230.5625 85.4375 230.816406 87.085938 230.820312 C 87.816406 230.820312 88.027344 230.910156 88.121094 231.265625 C 88.222656 231.644531 88.425781 231.707031 89.558594 231.707031 C 90.75 231.707031 90.902344 231.761719 91.132812 232.261719 C 91.378906 232.800781 91.449219 232.816406 93.703125 232.816406 C 95.832031 232.816406 96.027344 232.851562 96.136719 233.257812 C 96.242188 233.65625 96.4375 233.703125 98.164062 233.703125 C 99.890625 233.703125 100.078125 233.742188 100.078125 234.117188 C 100.078125 234.71875 100.636719 234.800781 104.585938 234.804688 C 107.792969 234.808594 108.128906 234.847656 108.539062 235.25 C 108.972656 235.683594 109.28125 235.695312 120.421875 235.695312 C 131.675781 235.695312 131.863281 235.6875 131.976562 235.25 C 132.089844 234.832031 132.28125 234.808594 135.773438 234.808594 C 138.820312 234.808594 139.511719 234.75 139.800781 234.460938 C 139.992188 234.269531 140.152344 234.019531 140.152344 233.90625 C 140.152344 233.792969 141.011719 233.703125 142.0625 233.703125 C 143.789062 233.703125 143.988281 233.65625 144.09375 233.257812 C 144.195312 232.863281 144.398438 232.816406 145.949219 232.816406 C 147.875 232.816406 148.832031 232.558594 148.832031 232.046875 C 148.832031 231.773438 149.144531 231.707031 150.414062 231.707031 C 151.792969 231.707031 152.003906 231.652344 152.105469 231.273438 C 152.199219 230.914062 152.449219 230.832031 153.585938 230.777344 C 154.8125 230.71875 154.960938 230.660156 155.027344 230.210938 C 155.09375 229.753906 155.214844 229.714844 156.550781 229.714844 C 157.816406 229.714844 158.015625 229.65625 158.117188 229.269531 C 158.210938 228.917969 158.425781 228.828125 159.15625 228.824219 C 160.503906 228.820312 161.078125 228.617188 161.078125 228.136719 C 161.078125 227.773438 161.253906 227.71875 162.433594 227.71875 C 163.601562 227.71875 163.804688 227.660156 163.90625 227.277344 C 163.992188 226.945312 164.210938 226.835938 164.761719 226.835938 C 165.464844 226.835938 166.199219 226.375 166.199219 225.933594 C 166.199219 225.820312 166.609375 225.726562 167.109375 225.726562 C 167.824219 225.726562 168.042969 225.632812 168.132812 225.296875 C 168.21875 224.972656 168.476562 224.847656 169.171875 224.796875 C 169.933594 224.742188 170.105469 224.644531 170.164062 224.230469 C 170.226562 223.808594 170.371094 223.734375 171.132812 223.734375 C 171.832031 223.734375 172.050781 223.640625 172.140625 223.300781 C 172.222656 222.992188 172.484375 222.851562 173.066406 222.804688 C 173.65625 222.753906 173.9375 222.601562 174.097656 222.238281 C 174.261719 221.863281 174.503906 221.738281 175.066406 221.738281 C 175.625 221.738281 175.839844 221.628906 175.929688 221.296875 C 176.003906 221.007812 176.230469 220.851562 176.574219 220.851562 C 176.992188 220.851562 177.105469 220.734375 177.105469 220.300781 C 177.105469 219.789062 177.1875 219.746094 178.109375 219.746094 C 178.949219 219.746094 179.109375 219.675781 179.109375 219.316406 C 179.109375 219.042969 179.289062 218.863281 179.609375 218.820312 C 179.933594 218.773438 180.136719 218.570312 180.183594 218.25 C 180.246094 217.820312 180.386719 217.75 181.242188 217.75 C 182.078125 217.75 182.226562 217.683594 182.226562 217.308594 C 182.226562 217.011719 182.375 216.867188 182.671875 216.867188 C 183 216.867188 183.117188 216.71875 183.117188 216.3125 C 183.117188 215.804688 183.199219 215.757812 184.117188 215.757812 C 184.949219 215.757812 185.121094 215.6875 185.121094 215.34375 C 185.121094 215.027344 185.34375 214.894531 186.035156 214.785156 C 186.683594 214.679688 186.980469 214.511719 187.0625 214.203125 C 187.125 213.960938 187.359375 213.765625 187.582031 213.765625 C 187.804688 213.765625 188.046875 213.574219 188.117188 213.34375 C 188.191406 213.113281 188.449219 212.875 188.691406 212.8125 C 188.949219 212.746094 189.128906 212.507812 189.128906 212.234375 C 189.128906 211.871094 189.265625 211.769531 189.78125 211.769531 C 190.609375 211.769531 191.132812 211.253906 191.132812 210.425781 C 191.132812 209.882812 191.222656 209.777344 191.6875 209.777344 C 192.089844 209.777344 192.246094 209.660156 192.246094 209.347656 C 192.246094 209.011719 192.425781 208.902344 193.078125 208.847656 C 193.691406 208.796875 193.972656 208.648438 194.132812 208.28125 C 194.253906 208.007812 194.53125 207.785156 194.746094 207.785156 C 194.984375 207.785156 195.140625 207.617188 195.140625 207.355469 C 195.140625 207.082031 195.316406 206.902344 195.640625 206.859375 C 195.960938 206.8125 196.167969 206.609375 196.210938 206.289062 C 196.257812 205.96875 196.4375 205.789062 196.714844 205.789062 C 196.988281 205.789062 197.144531 205.636719 197.144531 205.363281 C 197.144531 205.085938 197.320312 204.910156 197.644531 204.863281 C 197.964844 204.820312 198.167969 204.613281 198.214844 204.292969 C 198.261719 203.972656 198.441406 203.796875 198.714844 203.796875 C 198.992188 203.796875 199.144531 203.644531 199.144531 203.367188 C 199.144531 203.09375 199.324219 202.914062 199.648438 202.871094 C 199.96875 202.824219 200.171875 202.621094 200.21875 202.300781 C 200.265625 201.980469 200.445312 201.800781 200.71875 201.800781 C 200.996094 201.800781 201.148438 201.648438 201.148438 201.375 C 201.148438 201.101562 201.328125 200.921875 201.652344 200.875 C 201.972656 200.832031 202.175781 200.628906 202.222656 200.308594 C 202.261719 200.035156 202.425781 199.808594 202.589844 199.808594 C 203.015625 199.808594 204.265625 198.585938 204.265625 198.167969 C 204.265625 197.964844 204.453125 197.816406 204.710938 197.816406 C 205 197.816406 205.15625 197.667969 205.15625 197.398438 C 205.15625 197.164062 205.359375 196.929688 205.617188 196.859375 C 205.871094 196.792969 206.136719 196.535156 206.203125 196.28125 C 206.269531 196.019531 206.503906 195.820312 206.742188 195.820312 C 207.089844 195.820312 207.160156 195.652344 207.160156 194.824219 C 207.160156 193.910156 207.207031 193.828125 207.71875 193.828125 C 208.113281 193.828125 208.273438 193.707031 208.273438 193.410156 C 208.273438 193.179688 208.472656 192.941406 208.71875 192.878906 C 208.984375 192.808594 209.164062 192.574219 209.164062 192.296875 C 209.164062 191.992188 209.304688 191.835938 209.585938 191.835938 C 210.066406 191.835938 210.277344 191.421875 210.277344 190.488281 C 210.277344 189.988281 210.378906 189.839844 210.722656 189.839844 C 211.015625 189.839844 211.167969 189.691406 211.167969 189.414062 C 211.167969 189.140625 211.347656 188.960938 211.667969 188.914062 C 211.957031 188.875 212.199219 188.65625 212.246094 188.402344 C 212.292969 188.15625 212.519531 187.78125 212.75 187.5625 C 212.980469 187.34375 213.171875 186.871094 213.171875 186.507812 C 213.171875 185.957031 213.261719 185.851562 213.726562 185.851562 C 214.167969 185.851562 214.285156 185.742188 214.285156 185.324219 C 214.285156 184.984375 214.441406 184.757812 214.730469 184.679688 C 215.070312 184.59375 215.175781 184.378906 215.175781 183.785156 C 215.175781 183.144531 215.265625 182.992188 215.675781 182.933594 C 215.964844 182.890625 216.207031 182.675781 216.253906 182.417969 C 216.300781 182.175781 216.527344 181.796875 216.757812 181.582031 C 216.988281 181.363281 217.179688 180.890625 217.179688 180.527344 C 217.179688 180.03125 217.28125 179.871094 217.601562 179.871094 C 218.082031 179.871094 218.292969 179.460938 218.292969 178.523438 C 218.292969 178.027344 218.394531 177.878906 218.738281 177.878906 C 219.027344 177.878906 219.183594 177.730469 219.183594 177.453125 C 219.183594 177.175781 219.363281 177 219.683594 176.953125 C 220.136719 176.886719 220.191406 176.746094 220.25 175.386719 C 220.308594 174.074219 220.367188 173.890625 220.75 173.890625 C 221.117188 173.890625 221.1875 173.734375 221.1875 172.894531 C 221.1875 171.980469 221.230469 171.898438 221.742188 171.898438 C 222.160156 171.898438 222.300781 171.78125 222.300781 171.433594 C 222.300781 171.15625 222.476562 170.921875 222.746094 170.855469 C 223.09375 170.765625 223.191406 170.550781 223.191406 169.886719 C 223.191406 169.277344 223.347656 168.882812 223.746094 168.484375 C 224.222656 168.007812 224.304688 167.730469 224.304688 166.507812 C 224.304688 165.269531 224.359375 165.066406 224.75 164.964844 C 225.097656 164.875 225.195312 164.664062 225.195312 163.996094 C 225.195312 163.324219 225.300781 163.097656 225.695312 162.921875 C 226.058594 162.761719 226.214844 162.484375 226.261719 161.886719 C 226.3125 161.304688 226.457031 161.023438 226.765625 160.929688 C 227.148438 160.808594 227.195312 160.578125 227.195312 158.9375 C 227.195312 157.1875 227.222656 157.082031 227.699219 157.015625 C 228.125 156.957031 228.207031 156.789062 228.265625 155.914062 C 228.316406 155.113281 228.429688 154.863281 228.765625 154.773438 C 229.136719 154.675781 229.199219 154.464844 229.199219 153.320312 C 229.199219 152.203125 229.277344 151.9375 229.644531 151.738281 C 229.914062 151.597656 230.089844 151.277344 230.089844 150.9375 C 230.089844 150.554688 229.945312 150.332031 229.644531 150.253906 C 229.359375 150.179688 229.199219 149.949219 229.199219 149.609375 C 229.199219 149.09375 229.152344 149.082031 227.332031 149.082031 C 225.207031 149.082031 225.195312 149.09375 225.195312 150.902344 C 225.195312 151.683594 225.082031 152.101562 224.832031 152.289062 C 224.601562 152.453125 224.425781 152.996094 224.359375 153.75 C 224.285156 154.601562 224.121094 155.054688 223.804688 155.308594 C 223.488281 155.554688 223.320312 156.015625 223.242188 156.832031 C 223.152344 157.726562 223.03125 158.023438 222.714844 158.109375 C 222.351562 158.203125 222.300781 158.449219 222.300781 160.058594 C 222.300781 161.796875 222.273438 161.902344 221.796875 161.96875 C 221.382812 162.027344 221.285156 162.199219 221.230469 162.957031 C 221.179688 163.648438 221.054688 163.90625 220.730469 163.988281 C 220.472656 164.058594 220.296875 164.292969 220.296875 164.566406 C 220.296875 164.835938 220.152344 165.03125 219.957031 165.03125 C 219.527344 165.03125 219.183594 165.917969 219.183594 167.023438 C 219.183594 167.6875 219.082031 167.914062 218.738281 168.019531 C 218.398438 168.128906 218.292969 168.355469 218.292969 168.980469 C 218.292969 169.617188 218.179688 169.847656 217.792969 170.019531 C 217.425781 170.175781 217.273438 170.457031 217.222656 171.042969 C 217.171875 171.625 217.03125 171.882812 216.722656 171.964844 C 216.382812 172.054688 216.289062 172.273438 216.289062 172.96875 C 216.289062 173.726562 216.210938 173.871094 215.789062 173.929688 C 215.375 173.988281 215.273438 174.160156 215.21875 174.921875 C 215.167969 175.613281 215.042969 175.867188 214.71875 175.953125 C 214.378906 176.039062 214.285156 176.257812 214.285156 176.957031 C 214.285156 177.710938 214.207031 177.859375 213.785156 177.917969 C 213.46875 177.964844 213.257812 178.167969 213.214844 178.464844 C 213.175781 178.726562 212.953125 178.992188 212.714844 179.054688 C 212.375 179.140625 212.28125 179.359375 212.28125 180.058594 C 212.28125 180.8125 212.203125 180.960938 211.78125 181.019531 C 211.464844 181.0625 211.253906 181.269531 211.210938 181.566406 C 211.171875 181.828125 210.949219 182.09375 210.710938 182.15625 C 210.386719 182.238281 210.277344 182.460938 210.277344 183.046875 C 210.277344 183.6875 210.1875 183.839844 209.777344 183.898438 C 209.390625 183.953125 209.257812 184.136719 209.207031 184.699219 C 209.164062 185.121094 208.953125 185.535156 208.703125 185.691406 C 208.46875 185.839844 208.273438 186.183594 208.273438 186.460938 C 208.273438 186.820312 208.144531 186.960938 207.808594 186.960938 C 207.53125 186.960938 207.296875 187.136719 207.226562 187.398438 C 207.164062 187.636719 206.921875 187.890625 206.691406 187.964844 C 206.460938 188.039062 206.269531 188.289062 206.269531 188.527344 C 206.269531 188.800781 206.117188 188.953125 205.847656 188.953125 C 205.367188 188.953125 205.15625 189.367188 205.15625 190.300781 C 205.15625 190.859375 205.070312 190.949219 204.546875 190.953125 C 203.675781 190.957031 203.4375 191.167969 203.261719 192.113281 C 203.144531 192.722656 202.992188 192.941406 202.683594 192.941406 C 202.410156 192.941406 202.261719 193.097656 202.261719 193.386719 C 202.261719 193.628906 202.171875 193.828125 202.054688 193.828125 C 201.636719 193.828125 201.148438 194.542969 201.148438 195.152344 C 201.148438 195.710938 201.054688 195.800781 200.277344 195.929688 C 199.46875 196.066406 199.390625 196.140625 199.253906 196.945312 C 199.144531 197.601562 199.003906 197.816406 198.679688 197.816406 C 198.375 197.816406 198.253906 197.972656 198.253906 198.367188 C 198.253906 198.8125 198.144531 198.921875 197.699219 198.921875 C 197.292969 198.921875 197.144531 199.039062 197.144531 199.367188 C 197.144531 199.660156 196.996094 199.808594 196.699219 199.808594 C 196.371094 199.808594 196.253906 199.957031 196.253906 200.363281 C 196.253906 200.804688 196.140625 200.917969 195.695312 200.917969 C 195.289062 200.917969 195.140625 201.035156 195.140625 201.359375 C 195.140625 201.65625 194.992188 201.800781 194.695312 201.800781 C 194.367188 201.800781 194.25 201.949219 194.25 202.355469 C 194.25 202.820312 194.144531 202.910156 193.597656 202.910156 C 192.765625 202.910156 192.246094 203.429688 192.246094 204.253906 C 192.246094 204.800781 192.15625 204.902344 191.6875 204.902344 C 191.285156 204.902344 191.132812 205.023438 191.132812 205.332031 C 191.132812 205.671875 190.949219 205.777344 190.296875 205.832031 C 189.683594 205.882812 189.402344 206.03125 189.242188 206.398438 C 189.121094 206.671875 188.847656 206.898438 188.628906 206.898438 C 188.390625 206.898438 188.238281 207.0625 188.238281 207.324219 C 188.238281 207.601562 188.058594 207.777344 187.738281 207.824219 C 187.414062 207.867188 187.210938 208.074219 187.164062 208.394531 C 187.105469 208.8125 186.957031 208.890625 186.234375 208.890625 C 185.585938 208.890625 185.339844 208.996094 185.238281 209.308594 C 185.167969 209.539062 184.910156 209.78125 184.667969 209.84375 C 184.410156 209.910156 184.230469 210.144531 184.230469 210.421875 C 184.230469 210.746094 184.089844 210.886719 183.765625 210.886719 C 183.484375 210.886719 183.25 211.0625 183.183594 211.328125 C 183.117188 211.574219 182.878906 211.769531 182.644531 211.769531 C 182.347656 211.769531 182.226562 211.929688 182.226562 212.324219 C 182.226562 212.832031 182.144531 212.878906 181.226562 212.878906 C 180.394531 212.878906 180.222656 212.949219 180.222656 213.292969 C 180.222656 213.609375 180.003906 213.742188 179.308594 213.851562 C 178.660156 213.957031 178.363281 214.125 178.28125 214.433594 C 178.21875 214.683594 177.976562 214.871094 177.726562 214.871094 C 177.480469 214.871094 177.238281 215.058594 177.175781 215.304688 C 177.09375 215.613281 176.832031 215.753906 176.25 215.800781 C 175.660156 215.851562 175.375 216.003906 175.21875 216.367188 C 175.097656 216.640625 174.820312 216.867188 174.605469 216.867188 C 174.363281 216.867188 174.210938 217.03125 174.210938 217.296875 C 174.210938 217.644531 174.03125 217.738281 173.265625 217.792969 C 172.480469 217.851562 172.308594 217.945312 172.25 218.359375 C 172.1875 218.792969 172.042969 218.859375 171.191406 218.859375 C 170.363281 218.859375 170.203125 218.929688 170.203125 219.289062 C 170.203125 219.636719 170.023438 219.734375 169.257812 219.789062 C 168.472656 219.84375 168.300781 219.941406 168.242188 220.355469 C 168.179688 220.785156 168.039062 220.851562 167.183594 220.851562 C 166.355469 220.851562 166.199219 220.921875 166.199219 221.285156 C 166.199219 221.632812 166.015625 221.726562 165.25 221.78125 C 164.464844 221.839844 164.292969 221.933594 164.234375 222.347656 C 164.171875 222.785156 164.035156 222.847656 163.082031 222.847656 C 161.816406 222.847656 161.300781 223.007812 161.300781 223.398438 C 161.300781 223.566406 160.886719 223.746094 160.296875 223.832031 C 159.507812 223.949219 159.296875 224.070312 159.296875 224.410156 C 159.296875 224.773438 159.136719 224.839844 158.273438 224.839844 C 157.4375 224.839844 157.230469 224.921875 157.132812 225.285156 C 157.035156 225.664062 156.828125 225.726562 155.652344 225.730469 C 153.902344 225.734375 153.351562 225.886719 153.214844 226.410156 C 153.121094 226.769531 152.894531 226.835938 151.726562 226.835938 C 150.535156 226.835938 150.332031 226.894531 150.234375 227.277344 C 150.136719 227.648438 149.929688 227.71875 148.933594 227.71875 C 147.804688 227.71875 147.050781 228.082031 147.050781 228.621094 C 147.050781 228.734375 146.210938 228.828125 145.1875 228.828125 C 143.507812 228.828125 143.308594 228.871094 143.203125 229.269531 C 143.09375 229.679688 142.898438 229.714844 140.671875 229.71875 C 137.863281 229.71875 137.339844 229.824219 137.1875 230.398438 C 137.082031 230.792969 136.824219 230.820312 133.324219 230.828125 C 129.945312 230.832031 129.519531 230.875 129.019531 231.265625 C 128.488281 231.679688 128.046875 231.699219 118.75 231.703125 C 109.21875 231.707031 109.03125 231.699219 108.917969 231.265625 C 108.8125 230.855469 108.613281 230.820312 106.402344 230.820312 C 104.230469 230.820312 103.953125 230.773438 103.476562 230.328125 C 102.996094 229.882812 102.675781 229.828125 99.957031 229.75 C 97.203125 229.667969 96.960938 229.628906 96.960938 229.246094 C 96.960938 228.878906 96.78125 228.828125 95.492188 228.828125 C 94.242188 228.828125 94.007812 228.765625 93.914062 228.410156 C 93.800781 227.972656 93.007812 227.71875 91.75 227.71875 C 91.324219 227.71875 90.898438 227.546875 90.667969 227.277344 C 90.351562 226.90625 90.011719 226.835938 88.613281 226.835938 C 87.125 226.835938 86.941406 226.789062 86.941406 226.414062 C 86.941406 225.882812 86.523438 225.726562 85.125 225.726562 C 84.195312 225.726562 83.988281 225.652344 83.890625 225.285156 C 83.789062 224.898438 83.585938 224.839844 82.367188 224.839844 C 81.082031 224.839844 80.957031 224.800781 80.890625 224.34375 C 80.832031 223.929688 80.660156 223.832031 79.875 223.777344 C 79.109375 223.71875 78.929688 223.625 78.929688 223.277344 C 78.929688 222.914062 78.769531 222.847656 77.925781 222.847656 C 77.085938 222.847656 76.925781 222.777344 76.925781 222.417969 C 76.925781 222.078125 76.714844 221.957031 75.945312 221.839844 C 75.242188 221.738281 74.929688 221.574219 74.851562 221.273438 C 74.765625 220.945312 74.539062 220.851562 73.828125 220.851562 C 73.082031 220.851562 72.917969 220.777344 72.917969 220.433594 C 72.917969 219.90625 72.5 219.746094 71.117188 219.746094 C 70.171875 219.746094 70.023438 219.6875 70.023438 219.300781 C 70.023438 218.976562 69.875 218.859375 69.46875 218.859375 C 69.066406 218.859375 68.910156 218.742188 68.910156 218.429688 C 68.910156 218.089844 68.699219 217.96875 67.910156 217.851562 C 67.128906 217.734375 66.90625 217.609375 66.90625 217.285156 C 66.90625 216.9375 66.738281 216.867188 65.90625 216.867188 C 64.984375 216.867188 64.902344 216.820312 64.902344 216.3125 C 64.902344 215.898438 64.785156 215.757812 64.4375 215.757812 C 64.160156 215.757812 63.925781 215.582031 63.855469 215.316406 C 63.765625 214.96875 63.550781 214.871094 62.890625 214.871094 C 62.179688 214.871094 62.027344 214.792969 61.96875 214.375 C 61.925781 214.0625 61.71875 213.851562 61.417969 213.808594 C 61.15625 213.769531 60.890625 213.546875 60.828125 213.308594 C 60.738281 212.972656 60.519531 212.878906 59.804688 212.878906 C 59.027344 212.878906 58.890625 212.808594 58.890625 212.414062 C 58.890625 212.140625 58.714844 211.90625 58.453125 211.835938 C 58.214844 211.773438 57.957031 211.535156 57.882812 211.304688 C 57.808594 211.074219 57.566406 210.886719 57.34375 210.886719 C 57.121094 210.886719 56.890625 210.6875 56.824219 210.449219 C 56.746094 210.136719 56.445312 209.96875 55.796875 209.867188 C 55.105469 209.753906 54.886719 209.621094 54.886719 209.304688 C 54.886719 209.058594 54.726562 208.890625 54.492188 208.890625 C 54.277344 208.890625 54 208.667969 53.878906 208.394531 C 53.71875 208.03125 53.4375 207.875 52.84375 207.828125 C 52.085938 207.761719 52.015625 207.699219 51.878906 206.902344 C 51.746094 206.113281 51.667969 206.03125 50.859375 205.898438 C 50.199219 205.785156 49.988281 205.648438 49.988281 205.328125 C 49.988281 205.023438 49.832031 204.902344 49.429688 204.902344 C 49.015625 204.902344 48.875 204.789062 48.875 204.441406 C 48.875 204.171875 48.695312 203.929688 48.449219 203.867188 C 48.214844 203.804688 47.976562 203.566406 47.914062 203.332031 C 47.847656 203.085938 47.609375 202.910156 47.335938 202.910156 C 47.011719 202.910156 46.871094 202.769531 46.871094 202.445312 C 46.871094 202.175781 46.691406 201.9375 46.445312 201.871094 C 46.210938 201.8125 45.972656 201.570312 45.910156 201.339844 C 45.84375 201.09375 45.605469 200.917969 45.332031 200.917969 C 45.019531 200.917969 44.867188 200.773438 44.867188 200.488281 C 44.867188 200.253906 44.675781 200 44.445312 199.925781 C 44.214844 199.855469 43.972656 199.597656 43.910156 199.359375 C 43.84375 199.101562 43.605469 198.921875 43.328125 198.921875 C 43.003906 198.921875 42.863281 198.78125 42.863281 198.460938 C 42.863281 198.1875 42.6875 197.949219 42.4375 197.886719 C 42.203125 197.824219 41.964844 197.585938 41.902344 197.351562 C 41.839844 197.105469 41.597656 196.929688 41.324219 196.929688 C 41 196.929688 40.859375 196.789062 40.859375 196.464844 C 40.859375 196.1875 40.679688 195.957031 40.414062 195.886719 C 40.167969 195.820312 39.96875 195.582031 39.96875 195.351562 C 39.96875 195.054688 39.808594 194.9375 39.414062 194.9375 C 38.949219 194.9375 38.855469 194.832031 38.855469 194.304688 C 38.855469 193.9375 38.621094 193.421875 38.300781 193.074219 C 37.992188 192.746094 37.742188 192.394531 37.742188 192.292969 C 37.742188 192.191406 37.542969 192.054688 37.296875 191.992188 C 37.03125 191.921875 36.851562 191.6875 36.851562 191.410156 C 36.851562 191.101562 36.710938 190.949219 36.421875 190.949219 C 36.144531 190.949219 35.96875 190.769531 35.921875 190.449219 C 35.878906 190.136719 35.671875 189.925781 35.371094 189.882812 C 35.023438 189.835938 34.855469 189.605469 34.746094 189.042969 C 34.667969 188.613281 34.464844 188.214844 34.300781 188.152344 C 34.132812 188.089844 33.9375 187.792969 33.863281 187.5 C 33.777344 187.15625 33.566406 186.960938 33.285156 186.960938 C 32.988281 186.960938 32.84375 186.8125 32.84375 186.496094 C 32.84375 186.21875 32.667969 185.988281 32.398438 185.917969 C 32.085938 185.835938 31.953125 185.617188 31.953125 185.179688 C 31.953125 184.574219 31.464844 183.859375 31.046875 183.859375 C 30.933594 183.859375 30.839844 183.660156 30.839844 183.417969 C 30.839844 183.132812 30.691406 182.972656 30.425781 182.972656 C 30.109375 182.972656 29.972656 182.753906 29.863281 182.066406 C 29.757812 181.421875 29.589844 181.125 29.277344 181.042969 C 29.027344 180.976562 28.839844 180.738281 28.839844 180.492188 C 28.839844 180.238281 28.648438 180.003906 28.394531 179.9375 C 28.082031 179.855469 27.949219 179.632812 27.949219 179.199219 C 27.949219 178.589844 27.457031 177.878906 27.042969 177.878906 C 26.925781 177.878906 26.835938 177.519531 26.835938 177.082031 C 26.835938 176.480469 26.730469 176.257812 26.402344 176.175781 C 26.164062 176.113281 25.9375 175.847656 25.902344 175.585938 C 25.859375 175.289062 25.644531 175.082031 25.332031 175.039062 C 24.898438 174.976562 24.832031 174.835938 24.832031 173.988281 C 24.832031 173.164062 24.761719 173.003906 24.398438 173.003906 C 24.046875 173.003906 23.953125 172.824219 23.898438 172.0625 C 23.839844 171.28125 23.746094 171.109375 23.328125 171.050781 C 22.902344 170.992188 22.828125 170.84375 22.828125 170.089844 C 22.828125 169.382812 22.734375 169.171875 22.382812 169.082031 C 22.027344 168.988281 21.9375 168.78125 21.9375 168.035156 C 21.9375 167.324219 21.800781 166.976562 21.378906 166.582031 C 21.074219 166.296875 20.824219 165.828125 20.824219 165.546875 C 20.824219 165.179688 20.695312 165.03125 20.378906 165.03125 C 19.988281 165.03125 19.933594 164.882812 19.933594 163.828125 C 19.933594 162.679688 19.574219 161.929688 19.027344 161.929688 C 18.914062 161.929688 18.820312 161.320312 18.820312 160.578125 C 18.820312 159.429688 18.757812 159.214844 18.386719 159.117188 C 18.058594 159.03125 17.9375 158.777344 17.886719 158.085938 C 17.828125 157.324219 17.730469 157.15625 17.316406 157.097656 C 16.859375 157.03125 16.816406 156.910156 16.816406 155.617188 C 16.816406 154.410156 16.753906 154.1875 16.382812 154.070312 C 16.023438 153.957031 15.933594 153.691406 15.878906 152.558594 C 15.820312 151.34375 15.757812 151.179688 15.332031 151.117188 C 14.882812 151.054688 14.847656 150.90625 14.777344 148.828125 C 14.71875 147.089844 14.621094 146.550781 14.335938 146.34375 C 14.136719 146.199219 13.9375 145.882812 13.890625 145.640625 C 13.820312 145.269531 13.59375 145.195312 12.414062 145.140625 C 11.101562 145.078125 11.011719 145.105469 10.808594 145.636719 " fill-opacity="1" fill-rule="evenodd"/><g fill="#000000" fill-opacity="1"><g transform="translate(47.851833, 143.438992)"><g><path d="M 14.359375 0.8125 C 11.148438 0.8125 8.203125 0.210938 5.515625 -0.984375 C 2.828125 -2.179688 0.628906 -3.882812 -1.078125 -6.09375 L 5.015625 -13.40625 C 7.585938 -9.925781 10.519531 -8.1875 13.8125 -8.1875 C 18.28125 -8.1875 20.515625 -10.804688 20.515625 -16.046875 L 20.515625 -38.59375 L 3.859375 -38.59375 L 3.859375 -47.390625 L 31.421875 -47.390625 L 31.421875 -16.65625 C 31.421875 -10.832031 29.972656 -6.460938 27.078125 -3.546875 C 24.191406 -0.640625 19.953125 0.8125 14.359375 0.8125 Z M 14.359375 0.8125 "/></g></g></g><g fill="#000000" fill-opacity="1"><g transform="translate(84.473418, 143.438992)"><g><path d="M 56.875 5.078125 C 55.332031 6.972656 53.46875 8.414062 51.28125 9.40625 C 49.09375 10.40625 46.691406 10.90625 44.078125 10.90625 C 40.554688 10.90625 37.375 10.144531 34.53125 8.625 C 31.6875 7.113281 28.4375 4.441406 24.78125 0.609375 C 20.488281 0.0664062 16.660156 -1.304688 13.296875 -3.515625 C 9.941406 -5.734375 7.328125 -8.585938 5.453125 -12.078125 C 3.578125 -15.578125 2.640625 -19.453125 2.640625 -23.703125 C 2.640625 -28.347656 3.753906 -32.53125 5.984375 -36.25 C 8.222656 -39.976562 11.316406 -42.898438 15.265625 -45.015625 C 19.210938 -47.140625 23.648438 -48.203125 28.578125 -48.203125 C 33.492188 -48.203125 37.914062 -47.140625 41.84375 -45.015625 C 45.769531 -42.898438 48.859375 -39.976562 51.109375 -36.25 C 53.367188 -32.53125 54.5 -28.347656 54.5 -23.703125 C 54.5 -18.191406 52.953125 -13.359375 49.859375 -9.203125 C 46.765625 -5.054688 42.671875 -2.171875 37.578125 -0.546875 C 38.703125 0.628906 39.796875 1.476562 40.859375 2 C 41.921875 2.519531 43.0625 2.78125 44.28125 2.78125 C 47.207031 2.78125 49.78125 1.601562 52 -0.75 Z M 13.75 -23.703125 C 13.75 -20.765625 14.390625 -18.144531 15.671875 -15.84375 C 16.960938 -13.539062 18.734375 -11.742188 20.984375 -10.453125 C 23.242188 -9.171875 25.773438 -8.53125 28.578125 -8.53125 C 31.367188 -8.53125 33.890625 -9.171875 36.140625 -10.453125 C 38.398438 -11.742188 40.171875 -13.539062 41.453125 -15.84375 C 42.742188 -18.144531 43.390625 -20.765625 43.390625 -23.703125 C 43.390625 -26.628906 42.742188 -29.242188 41.453125 -31.546875 C 40.171875 -33.847656 38.398438 -35.640625 36.140625 -36.921875 C 33.890625 -38.210938 31.367188 -38.859375 28.578125 -38.859375 C 25.773438 -38.859375 23.242188 -38.210938 20.984375 -36.921875 C 18.734375 -35.640625 16.960938 -33.847656 15.671875 -31.546875 C 14.390625 -29.242188 13.75 -26.628906 13.75 -23.703125 Z M 13.75 -23.703125 "/></g></g></g><g fill="#000000" fill-opacity="1"><g transform="translate(141.605794, 143.438992)"><g><path d="M 51.1875 -47.390625 L 30.671875 0 L 19.84375 0 L -0.609375 -47.390625 L 11.234375 -47.390625 L 25.65625 -13.546875 L 40.28125 -47.390625 Z M 51.1875 -47.390625 "/></g></g></g><g fill="#000000" fill-opacity="1"><g transform="translate(67.701718, 181.692998)"><g><path d="M 1.90625 -16.09375 L 5.640625 -16.09375 L 5.640625 0 L 1.90625 0 Z M 1.90625 -16.09375 "/></g></g></g><g fill="#000000" fill-opacity="1"><g transform="translate(75.244043, 181.692998)"><g><path d="M 16.5625 0 L 16.53125 -9.65625 L 11.796875 -1.703125 L 10.125 -1.703125 L 5.40625 -9.453125 L 5.40625 0 L 1.90625 0 L 1.90625 -16.09375 L 4.984375 -16.09375 L 11.015625 -6.09375 L 16.953125 -16.09375 L 20.015625 -16.09375 L 20.0625 0 Z M 16.5625 0 "/></g></g></g><g fill="#000000" fill-opacity="1"><g transform="translate(97.204164, 181.692998)"><g><path d="M 13.734375 -8.375 C 14.648438 -8.082031 15.367188 -7.59375 15.890625 -6.90625 C 16.410156 -6.226562 16.671875 -5.390625 16.671875 -4.390625 C 16.671875 -2.984375 16.125 -1.898438 15.03125 -1.140625 C 13.9375 -0.378906 12.335938 0 10.234375 0 L 1.90625 0 L 1.90625 -16.09375 L 9.78125 -16.09375 C 11.738281 -16.09375 13.242188 -15.71875 14.296875 -14.96875 C 15.347656 -14.21875 15.875 -13.195312 15.875 -11.90625 C 15.875 -11.125 15.6875 -10.425781 15.3125 -9.8125 C 14.9375 -9.207031 14.410156 -8.726562 13.734375 -8.375 Z M 5.609375 -13.296875 L 5.609375 -9.5 L 9.3125 -9.5 C 10.226562 -9.5 10.925781 -9.660156 11.40625 -9.984375 C 11.882812 -10.304688 12.125 -10.78125 12.125 -11.40625 C 12.125 -12.03125 11.882812 -12.5 11.40625 -12.8125 C 10.925781 -13.132812 10.226562 -13.296875 9.3125 -13.296875 Z M 9.953125 -2.8125 C 10.941406 -2.8125 11.679688 -2.96875 12.171875 -3.28125 C 12.671875 -3.601562 12.921875 -4.101562 12.921875 -4.78125 C 12.921875 -6.113281 11.929688 -6.78125 9.953125 -6.78125 L 5.609375 -6.78125 L 5.609375 -2.8125 Z M 9.953125 -2.8125 "/></g></g></g><g fill="#000000" fill-opacity="1"><g transform="translate(114.79525, 181.692998)"><g><path d="M 12.515625 -3.453125 L 5.03125 -3.453125 L 3.609375 0 L -0.203125 0 L 6.96875 -16.09375 L 10.65625 -16.09375 L 17.84375 0 L 13.9375 0 Z M 11.34375 -6.28125 L 8.78125 -12.4375 L 6.234375 -6.28125 Z M 11.34375 -6.28125 "/></g></g></g><g fill="#000000" fill-opacity="1"><g transform="translate(132.40934, 181.692998)"><g><path d="M 12.171875 0 L 9.0625 -4.484375 L 5.640625 -4.484375 L 5.640625 0 L 1.90625 0 L 1.90625 -16.09375 L 8.875 -16.09375 C 10.300781 -16.09375 11.539062 -15.851562 12.59375 -15.375 C 13.644531 -14.90625 14.453125 -14.234375 15.015625 -13.359375 C 15.585938 -12.484375 15.875 -11.453125 15.875 -10.265625 C 15.875 -9.066406 15.582031 -8.03125 15 -7.15625 C 14.425781 -6.289062 13.613281 -5.628906 12.5625 -5.171875 L 16.171875 0 Z M 12.09375 -10.265625 C 12.09375 -11.160156 11.800781 -11.847656 11.21875 -12.328125 C 10.632812 -12.816406 9.785156 -13.0625 8.671875 -13.0625 L 5.640625 -13.0625 L 5.640625 -7.453125 L 8.671875 -7.453125 C 9.785156 -7.453125 10.632812 -7.695312 11.21875 -8.1875 C 11.800781 -8.675781 12.09375 -9.367188 12.09375 -10.265625 Z M 12.09375 -10.265625 "/></g></g></g><g fill="#000000" fill-opacity="1"><g transform="translate(149.310581, 181.692998)"><g><path d="M 1.90625 -16.09375 L 5.640625 -16.09375 L 5.640625 0 L 1.90625 0 Z M 1.90625 -16.09375 "/></g></g></g><g fill="#000000" fill-opacity="1"><g transform="translate(156.852906, 181.692998)"><g><path d="M 14.375 -2.984375 L 14.375 0 L 1.90625 0 L 1.90625 -16.09375 L 14.078125 -16.09375 L 14.078125 -13.109375 L 5.609375 -13.109375 L 5.609375 -9.609375 L 13.09375 -9.609375 L 13.09375 -6.71875 L 5.609375 -6.71875 L 5.609375 -2.984375 Z M 10 -17.40625 L 8 -19.15625 L 6 -17.40625 L 3.390625 -17.40625 L 6.421875 -20.71875 L 9.59375 -20.71875 L 12.625 -17.40625 Z M 10 -17.40625 "/></g></g></g></svg>