<svg width="613" height="650" viewBox="0 0 613 650" fill="none" xmlns="http://www.w3.org/2000/svg">
<path d="M505 257L448 393H417.872L361 257H394L434.085 354.124L474.745 257H505Z" fill="black"/>
<path d="M363.213 427H320.787L285 391.213L306.213 370L363.213 427Z" fill="black"/>
<path d="M279.023 392.166C267.202 390.641 256.646 386.828 247.372 380.727C238.13 374.595 230.914 366.683 225.723 357.024C220.564 347.333 218 336.609 218 324.869C218 312.001 221.07 300.403 227.242 290.108C233.398 279.814 241.928 271.727 252.816 265.833C263.704 259.955 275.922 257 289.468 257C303.047 257 315.248 259.955 326.057 265.833C336.898 271.727 345.428 279.814 351.631 290.108C357.867 300.403 361 312.001 361 324.869C361 340.12 356.727 353.497 348.213 364.968C339.683 376.454 328.399 384.445 314.346 388.925C300.293 393.405 290.845 393.691 279.023 392.166ZM248.638 324.869C248.638 333.003 250.411 340.248 253.956 346.602C257.501 352.957 262.375 357.914 268.579 361.472C274.814 365.031 281.777 366.81 289.468 366.81C297.191 366.81 304.154 365.031 310.358 361.472C316.593 357.914 321.499 352.957 325.044 346.602C328.589 340.248 330.362 333.003 330.362 324.869C330.362 316.735 328.589 309.49 325.044 303.136C321.499 296.749 316.593 291.761 310.358 288.202C304.154 284.643 297.191 282.864 289.468 282.864C281.777 282.864 274.814 284.643 268.579 288.202C262.375 291.761 257.501 296.749 253.956 303.136C250.411 309.49 248.638 316.735 248.638 324.869Z" fill="black"/>
<path d="M150.742 393C141.869 393 133.712 391.315 126.254 387.946C118.829 384.577 112.739 379.782 108 373.562L124.855 352.893C131.979 362.709 140.12 367.601 149.279 367.601C161.65 367.601 167.852 360.215 167.852 345.442V281.816V257H198V343.758C198 360.182 193.993 372.493 185.979 380.689C177.996 388.902 166.261 393 150.742 393Z" fill="black"/>
<path d="M609.022 393C585.358 538.738 458.923 650 306.5 650C154.077 650 27.6417 538.738 3.97754 393H18.3438C42.2696 530.476 162.178 635 306.5 635C450.822 635 570.73 530.476 594.656 393H609.022ZM306.5 0C458.923 0 585.358 111.262 609.022 257H594.656C570.73 119.524 450.822 15 306.5 15C162.178 15 42.2696 119.524 18.3438 257H3.97754C27.6418 111.262 154.077 0 306.5 0Z" fill="black"/>
<path d="M208.718 491V459.64H215.976V491H208.718ZM223.418 491V459.64H229.422L242.772 481.771H239.591L252.718 459.64H258.676L258.766 491H251.956L251.911 470.078H253.166L242.682 487.685H239.412L228.705 470.078H230.228V491H223.418ZM266.206 491V459.64H281.527C285.47 459.64 288.427 460.387 290.398 461.88C292.399 463.373 293.4 465.345 293.4 467.794C293.4 469.436 292.996 470.87 292.19 472.094C291.384 473.289 290.278 474.215 288.875 474.872C287.471 475.529 285.858 475.858 284.036 475.858L284.887 474.021C286.859 474.021 288.606 474.349 290.129 475.006C291.652 475.634 292.832 476.574 293.668 477.829C294.534 479.083 294.967 480.621 294.967 482.443C294.967 485.131 293.907 487.237 291.787 488.76C289.666 490.253 286.545 491 282.423 491H266.206ZM273.419 485.534H281.886C283.767 485.534 285.186 485.236 286.142 484.638C287.128 484.011 287.62 483.026 287.62 481.682C287.62 480.367 287.128 479.397 286.142 478.77C285.186 478.113 283.767 477.784 281.886 477.784H272.881V472.498H280.632C282.394 472.498 283.738 472.199 284.664 471.602C285.619 470.974 286.097 470.034 286.097 468.779C286.097 467.555 285.619 466.644 284.664 466.046C283.738 465.419 282.394 465.106 280.632 465.106H273.419V485.534ZM296.341 491L310.318 459.64H317.486L331.509 491H323.893L312.424 463.314H315.291L303.777 491H296.341ZM303.329 484.28L305.256 478.77H321.384L323.355 484.28H303.329ZM334.762 491V459.64H348.337C351.144 459.64 353.563 460.103 355.594 461.029C357.625 461.925 359.193 463.224 360.298 464.926C361.403 466.629 361.956 468.66 361.956 471.019C361.956 473.349 361.403 475.365 360.298 477.067C359.193 478.74 357.625 480.024 355.594 480.92C353.563 481.816 351.144 482.264 348.337 482.264H338.794L342.02 479.083V491H334.762ZM354.698 491L346.858 479.621H354.609L362.538 491H354.698ZM342.02 479.89L338.794 476.485H347.933C350.173 476.485 351.846 476.007 352.951 475.051C354.056 474.066 354.609 472.722 354.609 471.019C354.609 469.287 354.056 467.943 352.951 466.987C351.846 466.031 350.173 465.554 347.933 465.554H338.794L342.02 462.104V479.89ZM367.706 491V459.64H374.963V491H367.706ZM389.081 472.274H404.179V477.918H389.081V472.274ZM389.619 485.176H406.687V491H382.406V459.64H406.105V465.464H389.619V485.176ZM385.273 457.086L391.187 450.635H397.369L403.283 457.086H398.176L391.993 451.71H396.563L390.38 457.086H385.273Z" fill="black"/>
</svg>
