<svg width="713" height="766" viewBox="0 0 713 766" fill="none" xmlns="http://www.w3.org/2000/svg">
<rect width="713" height="766" rx="356.5" fill="white"/>
<path d="M555 315L498 451H467.872L411 315H444L484.085 412.124L524.745 315H555Z" fill="black"/>
<path d="M413.213 485H370.787L335 449.213L356.213 428L413.213 485Z" fill="black"/>
<path d="M329.023 450.166C317.202 448.641 306.646 444.828 297.372 438.727C288.13 432.595 280.914 424.683 275.723 415.024C270.564 405.333 268 394.609 268 382.869C268 370.001 271.07 358.403 277.242 348.108C283.398 337.814 291.928 329.727 302.816 323.833C313.704 317.955 325.922 315 339.468 315C353.047 315 365.248 317.955 376.057 323.833C386.898 329.727 395.428 337.814 401.631 348.108C407.867 358.403 411 370.001 411 382.869C411 398.12 406.727 411.497 398.213 422.968C389.683 434.454 378.399 442.445 364.346 446.925C350.293 451.405 340.845 451.691 329.023 450.166ZM298.638 382.869C298.638 391.003 300.411 398.248 303.956 404.602C307.501 410.957 312.375 415.914 318.579 419.472C324.814 423.031 331.777 424.81 339.468 424.81C347.191 424.81 354.154 423.031 360.358 419.472C366.593 415.914 371.499 410.957 375.044 404.602C378.589 398.248 380.362 391.003 380.362 382.869C380.362 374.735 378.589 367.49 375.044 361.136C371.499 354.749 366.593 349.761 360.358 346.202C354.154 342.643 347.191 340.864 339.468 340.864C331.777 340.864 324.814 342.643 318.579 346.202C312.375 349.761 307.501 354.749 303.956 361.136C300.411 367.49 298.638 374.735 298.638 382.869Z" fill="black"/>
<path d="M200.742 451C191.869 451 183.712 449.315 176.254 445.946C168.829 442.577 162.739 437.782 158 431.562L174.855 410.893C181.979 420.709 190.12 425.601 199.279 425.601C211.65 425.601 217.852 418.215 217.852 403.442V339.816V315H248V401.758C248 418.182 243.993 430.493 235.979 438.689C227.996 446.902 216.261 451 200.742 451Z" fill="black"/>
<path d="M659.022 451C635.358 596.738 508.923 708 356.5 708C204.077 708 77.6417 596.738 53.9775 451H68.3438C92.2696 588.476 212.178 693 356.5 693C500.822 693 620.73 588.476 644.656 451H659.022ZM356.5 58C508.923 58 635.358 169.262 659.022 315H644.656C620.73 177.524 500.822 73 356.5 73C212.178 73 92.2696 177.524 68.3438 315H53.9775C77.6418 169.262 204.077 58 356.5 58Z" fill="black"/>
</svg>
