<svg xmlns="http://www.w3.org/2000/svg" xmlns:xlink="http://www.w3.org/1999/xlink" width="320" zoomAndPan="magnify" viewBox="0 0 240 239.999995" height="320" preserveAspectRatio="xMidYMid meet" version="1.0"><defs><g/><clipPath id="fbde1c2bfd"><path d="M 23.921875 23.921875 L 216.078125 23.921875 L 216.078125 216.078125 L 23.921875 216.078125 Z M 23.921875 23.921875 " clip-rule="nonzero"/></clipPath><clipPath id="cb492eca6d"><path d="M 120 23.921875 C 66.9375 23.921875 23.921875 66.9375 23.921875 120 C 23.921875 173.0625 66.9375 216.078125 120 216.078125 C 173.0625 216.078125 216.078125 173.0625 216.078125 120 C 216.078125 66.9375 173.0625 23.921875 120 23.921875 Z M 120 23.921875 " clip-rule="nonzero"/></clipPath></defs><g clip-path="url(#fbde1c2bfd)"><g clip-path="url(#cb492eca6d)"><path fill="#ffffff" d="M 23.921875 23.921875 L 216.078125 23.921875 L 216.078125 216.078125 L 23.921875 216.078125 Z M 23.921875 23.921875 " fill-opacity="1" fill-rule="nonzero"/></g></g><path fill="#000000" d="M 119.101562 40.445312 C 118.921875 40.734375 118.75 40.75 114.929688 40.75 C 111.074219 40.75 110.945312 40.757812 110.867188 41.050781 C 110.792969 41.335938 110.660156 41.355469 108.726562 41.355469 C 106.371094 41.359375 105.984375 41.425781 105.984375 41.824219 C 105.984375 42.085938 105.851562 42.109375 104.339844 42.109375 C 102.824219 42.109375 102.6875 42.132812 102.617188 42.414062 C 102.546875 42.683594 102.410156 42.714844 101.398438 42.714844 C 100.296875 42.714844 99.789062 42.910156 99.789062 43.332031 C 99.789062 43.410156 99.347656 43.472656 98.804688 43.472656 C 97.929688 43.472656 97.824219 43.507812 97.824219 43.769531 C 97.824219 44.027344 97.699219 44.070312 96.878906 44.109375 C 96.066406 44.148438 95.910156 44.203125 95.785156 44.496094 C 95.652344 44.796875 95.523438 44.835938 94.6875 44.835938 C 93.84375 44.835938 93.742188 44.867188 93.742188 45.136719 C 93.742188 45.402344 93.640625 45.441406 92.921875 45.441406 C 92.136719 45.441406 91.625 45.683594 91.625 46.058594 C 91.625 46.136719 91.347656 46.199219 91.003906 46.199219 C 90.519531 46.199219 90.371094 46.261719 90.308594 46.492188 C 90.253906 46.714844 90.078125 46.800781 89.605469 46.832031 C 89.085938 46.871094 88.972656 46.9375 88.929688 47.21875 C 88.886719 47.53125 88.800781 47.5625 87.972656 47.5625 C 87.195312 47.5625 87.050781 47.605469 86.984375 47.855469 C 86.925781 48.078125 86.75 48.160156 86.28125 48.195312 C 85.761719 48.234375 85.644531 48.300781 85.605469 48.582031 C 85.5625 48.871094 85.464844 48.921875 84.949219 48.921875 C 84.480469 48.921875 84.324219 48.988281 84.265625 49.207031 C 84.214844 49.40625 84 49.523438 83.585938 49.589844 C 83.15625 49.660156 82.953125 49.777344 82.898438 49.988281 C 82.847656 50.179688 82.691406 50.285156 82.460938 50.285156 C 82.207031 50.285156 82.101562 50.371094 82.101562 50.578125 C 82.101562 50.816406 81.976562 50.882812 81.457031 50.921875 C 80.925781 50.957031 80.808594 51.023438 80.765625 51.308594 C 80.726562 51.585938 80.625 51.648438 80.1875 51.648438 C 79.785156 51.648438 79.632812 51.722656 79.578125 51.941406 C 79.535156 52.105469 79.355469 52.257812 79.175781 52.28125 C 78.972656 52.3125 78.832031 52.457031 78.800781 52.667969 C 78.761719 52.964844 78.664062 53.011719 78.085938 53.011719 C 77.523438 53.011719 77.414062 53.058594 77.414062 53.300781 C 77.414062 53.492188 77.292969 53.613281 77.074219 53.644531 C 76.855469 53.675781 76.71875 53.8125 76.6875 54.03125 C 76.65625 54.25 76.535156 54.371094 76.34375 54.371094 C 76.15625 54.371094 76.054688 54.476562 76.054688 54.667969 C 76.054688 54.90625 75.929688 54.96875 75.410156 55.007812 C 74.878906 55.046875 74.761719 55.113281 74.71875 55.394531 C 74.6875 55.621094 74.570312 55.734375 74.367188 55.734375 C 74.191406 55.734375 74.027344 55.859375 73.984375 56.027344 C 73.933594 56.226562 73.722656 56.351562 73.316406 56.417969 C 72.871094 56.496094 72.726562 56.589844 72.726562 56.808594 C 72.726562 57.015625 72.621094 57.097656 72.351562 57.097656 C 72.078125 57.097656 71.972656 57.179688 71.972656 57.390625 C 71.972656 57.578125 71.851562 57.699219 71.632812 57.730469 C 71.414062 57.761719 71.273438 57.902344 71.242188 58.121094 C 71.210938 58.339844 71.089844 58.460938 70.902344 58.460938 C 70.714844 58.460938 70.613281 58.566406 70.613281 58.753906 C 70.613281 58.941406 70.488281 59.0625 70.273438 59.09375 C 70.054688 59.125 69.914062 59.261719 69.882812 59.472656 C 69.847656 59.738281 69.722656 59.816406 69.28125 59.851562 C 68.761719 59.894531 68.710938 59.941406 68.582031 60.53125 C 68.457031 61.089844 68.382812 61.171875 67.933594 61.257812 C 67.652344 61.308594 67.386719 61.445312 67.34375 61.558594 C 67.300781 61.671875 67.097656 61.804688 66.898438 61.855469 C 66.671875 61.914062 66.53125 62.058594 66.53125 62.230469 C 66.53125 62.386719 66.394531 62.546875 66.226562 62.589844 C 66.0625 62.636719 65.925781 62.773438 65.925781 62.902344 C 65.925781 63.027344 65.773438 63.152344 65.585938 63.179688 C 65.367188 63.210938 65.226562 63.351562 65.195312 63.570312 C 65.164062 63.789062 65.042969 63.910156 64.859375 63.910156 C 64.679688 63.910156 64.535156 64.046875 64.480469 64.273438 C 64.429688 64.476562 64.261719 64.671875 64.109375 64.710938 C 63.925781 64.761719 63.8125 64.953125 63.78125 65.28125 C 63.738281 65.714844 63.660156 65.796875 63.128906 65.945312 C 62.578125 66.097656 62.519531 66.164062 62.476562 66.667969 C 62.441406 67.105469 62.363281 67.230469 62.101562 67.269531 C 61.890625 67.300781 61.75 67.441406 61.71875 67.65625 C 61.6875 67.875 61.566406 67.996094 61.378906 67.996094 C 61.203125 67.996094 61.089844 68.101562 61.089844 68.265625 C 61.089844 68.410156 60.933594 68.597656 60.746094 68.679688 C 60.496094 68.789062 60.394531 68.980469 60.359375 69.398438 C 60.324219 69.84375 60.25 69.964844 60.019531 69.964844 C 59.808594 69.964844 59.726562 70.070312 59.726562 70.34375 C 59.726562 70.648438 59.652344 70.722656 59.347656 70.722656 C 59.078125 70.722656 58.972656 70.804688 58.972656 71.007812 C 58.972656 71.164062 58.835938 71.328125 58.667969 71.371094 C 58.429688 71.433594 58.367188 71.578125 58.367188 72.058594 C 58.367188 72.578125 58.316406 72.675781 58.027344 72.71875 C 57.808594 72.75 57.667969 72.886719 57.636719 73.105469 C 57.605469 73.324219 57.484375 73.449219 57.296875 73.449219 C 57.121094 73.449219 57.007812 73.550781 57.007812 73.714844 C 57.007812 73.859375 56.851562 74.046875 56.667969 74.132812 C 56.417969 74.238281 56.3125 74.429688 56.28125 74.832031 C 56.246094 75.230469 56.152344 75.40625 55.941406 75.460938 C 55.765625 75.507812 55.644531 75.667969 55.644531 75.855469 C 55.644531 76.066406 55.550781 76.171875 55.359375 76.171875 C 55.070312 76.171875 54.894531 76.554688 54.890625 77.195312 C 54.890625 77.433594 54.800781 77.535156 54.585938 77.535156 C 54.398438 77.535156 54.285156 77.636719 54.285156 77.800781 C 54.285156 77.949219 54.132812 78.136719 53.945312 78.21875 C 53.699219 78.328125 53.59375 78.519531 53.558594 78.921875 C 53.527344 79.316406 53.429688 79.492188 53.21875 79.550781 C 52.988281 79.609375 52.925781 79.757812 52.925781 80.234375 C 52.925781 80.75 52.871094 80.851562 52.585938 80.894531 C 52.324219 80.929688 52.234375 81.054688 52.195312 81.4375 C 52.167969 81.726562 52.027344 82.011719 51.855469 82.117188 C 51.664062 82.238281 51.5625 82.46875 51.5625 82.789062 C 51.5625 83.144531 51.460938 83.347656 51.1875 83.527344 C 50.894531 83.722656 50.808594 83.90625 50.808594 84.347656 C 50.808594 84.789062 50.742188 84.933594 50.507812 84.996094 C 50.265625 85.058594 50.203125 85.203125 50.203125 85.683594 C 50.203125 86.203125 50.152344 86.300781 49.863281 86.34375 C 49.554688 86.386719 49.519531 86.484375 49.476562 87.414062 C 49.4375 88.3125 49.398438 88.433594 49.136719 88.433594 C 48.890625 88.433594 48.84375 88.539062 48.84375 89.105469 C 48.84375 89.6875 48.796875 89.78125 48.503906 89.824219 C 48.21875 89.863281 48.15625 89.980469 48.117188 90.515625 C 48.078125 91.035156 48.011719 91.160156 47.777344 91.160156 C 47.515625 91.160156 47.484375 91.269531 47.484375 92.132812 C 47.484375 93.027344 47.453125 93.109375 47.140625 93.15625 C 46.832031 93.199219 46.796875 93.296875 46.757812 94.210938 C 46.71875 95.058594 46.667969 95.226562 46.417969 95.292969 C 46.160156 95.359375 46.121094 95.503906 46.121094 96.367188 C 46.121094 97.160156 46.074219 97.367188 45.890625 97.367188 C 45.601562 97.367188 45.367188 97.972656 45.367188 98.722656 C 45.367188 99.171875 45.300781 99.316406 45.0625 99.378906 C 44.785156 99.453125 44.761719 99.585938 44.761719 101.0625 L 44.761719 102.664062 L 46.121094 102.664062 C 47.402344 102.664062 47.484375 102.644531 47.484375 102.347656 C 47.484375 102.160156 47.605469 102 47.785156 101.953125 C 48.0625 101.878906 48.085938 101.746094 48.085938 100.234375 C 48.085938 98.652344 48.097656 98.597656 48.425781 98.550781 C 48.730469 98.507812 48.773438 98.40625 48.8125 97.5625 C 48.847656 96.789062 48.910156 96.609375 49.152344 96.53125 C 49.40625 96.453125 49.449219 96.296875 49.449219 95.464844 C 49.449219 94.609375 49.484375 94.492188 49.734375 94.492188 C 50.054688 94.492188 50.203125 94.210938 50.203125 93.605469 C 50.203125 93.363281 50.324219 93.125 50.507812 93.011719 C 50.765625 92.847656 50.808594 92.660156 50.808594 91.613281 C 50.808594 90.421875 50.816406 90.402344 51.1875 90.402344 C 51.535156 90.402344 51.5625 90.347656 51.5625 89.722656 C 51.5625 89.140625 51.609375 89.039062 51.867188 89.039062 C 52.125 89.039062 52.167969 88.941406 52.167969 88.371094 C 52.167969 87.789062 52.214844 87.691406 52.507812 87.652344 C 52.785156 87.609375 52.859375 87.492188 52.898438 87.003906 C 52.929688 86.625 53.054688 86.328125 53.238281 86.199219 C 53.425781 86.066406 53.53125 85.816406 53.53125 85.484375 C 53.53125 85.070312 53.59375 84.964844 53.871094 84.925781 C 54.152344 84.886719 54.21875 84.769531 54.257812 84.234375 C 54.292969 83.714844 54.359375 83.589844 54.597656 83.589844 C 54.84375 83.589844 54.890625 83.484375 54.890625 82.917969 C 54.890625 82.339844 54.9375 82.242188 55.230469 82.199219 C 55.511719 82.160156 55.578125 82.042969 55.617188 81.507812 C 55.652344 80.988281 55.71875 80.867188 55.957031 80.867188 C 56.148438 80.867188 56.25 80.761719 56.25 80.5625 C 56.25 80.394531 56.3125 80.261719 56.390625 80.261719 C 56.671875 80.261719 57.007812 79.773438 57.007812 79.359375 C 57.007812 79.058594 57.097656 78.910156 57.308594 78.855469 C 57.488281 78.804688 57.609375 78.648438 57.609375 78.457031 C 57.609375 78.273438 57.707031 78.140625 57.839844 78.140625 C 58.132812 78.140625 58.367188 77.535156 58.367188 76.769531 C 58.367188 76.273438 58.417969 76.171875 58.667969 76.171875 C 58.890625 76.171875 58.972656 76.070312 58.972656 75.792969 C 58.972656 75.492188 59.046875 75.414062 59.347656 75.414062 C 59.632812 75.414062 59.726562 75.335938 59.726562 75.097656 C 59.726562 74.910156 59.847656 74.75 60.03125 74.703125 C 60.195312 74.660156 60.332031 74.503906 60.332031 74.355469 C 60.332031 74.207031 60.464844 74.054688 60.628906 74.011719 C 60.839844 73.953125 60.957031 73.753906 61.027344 73.3125 C 61.101562 72.839844 61.195312 72.691406 61.410156 72.691406 C 61.589844 72.691406 61.691406 72.582031 61.691406 72.398438 C 61.691406 72.210938 61.8125 72.089844 62.03125 72.058594 C 62.25 72.027344 62.390625 71.886719 62.421875 71.667969 C 62.449219 71.480469 62.574219 71.328125 62.699219 71.328125 C 62.828125 71.328125 62.964844 71.199219 63.003906 71.039062 C 63.046875 70.878906 63.210938 70.71875 63.367188 70.675781 C 63.527344 70.632812 63.703125 70.472656 63.761719 70.320312 C 63.816406 70.167969 63.988281 69.953125 64.140625 69.84375 C 64.3125 69.71875 64.414062 69.453125 64.414062 69.125 C 64.414062 68.667969 64.460938 68.601562 64.792969 68.601562 C 65.0625 68.601562 65.167969 68.519531 65.167969 68.316406 C 65.167969 68.160156 65.304688 67.996094 65.472656 67.953125 C 65.652344 67.90625 65.773438 67.746094 65.773438 67.558594 C 65.773438 67.335938 65.871094 67.242188 66.089844 67.242188 C 66.273438 67.242188 66.4375 67.121094 66.484375 66.953125 C 66.523438 66.792969 66.6875 66.628906 66.847656 66.585938 C 67.015625 66.542969 67.136719 66.378906 67.136719 66.195312 C 67.136719 65.972656 67.230469 65.878906 67.453125 65.878906 C 67.640625 65.878906 67.800781 65.757812 67.84375 65.582031 C 67.886719 65.417969 68.050781 65.242188 68.210938 65.191406 C 68.367188 65.140625 68.496094 64.96875 68.496094 64.808594 C 68.496094 64.613281 68.601562 64.515625 68.8125 64.515625 C 68.996094 64.515625 69.160156 64.394531 69.203125 64.226562 C 69.246094 64.066406 69.410156 63.902344 69.566406 63.863281 C 69.734375 63.820312 69.855469 63.65625 69.855469 63.46875 C 69.855469 63.25 69.953125 63.152344 70.171875 63.152344 C 70.363281 63.152344 70.519531 63.03125 70.566406 62.851562 C 70.613281 62.683594 70.773438 62.546875 70.933594 62.546875 C 71.132812 62.546875 71.214844 62.4375 71.214844 62.167969 C 71.214844 61.886719 71.296875 61.789062 71.53125 61.789062 C 71.722656 61.789062 71.882812 61.667969 71.929688 61.488281 C 71.972656 61.320312 72.132812 61.183594 72.292969 61.183594 C 72.496094 61.183594 72.578125 61.078125 72.578125 60.808594 C 72.578125 60.503906 72.652344 60.429688 72.953125 60.429688 C 73.222656 60.429688 73.332031 60.347656 73.332031 60.144531 C 73.332031 59.984375 73.46875 59.824219 73.636719 59.777344 C 73.816406 59.730469 73.9375 59.574219 73.9375 59.382812 C 73.9375 59.109375 74.027344 59.066406 74.617188 59.066406 C 75.1875 59.066406 75.296875 59.019531 75.296875 58.773438 C 75.296875 58.585938 75.417969 58.464844 75.636719 58.433594 C 75.855469 58.402344 75.996094 58.261719 76.027344 58.042969 C 76.058594 57.824219 76.179688 57.703125 76.367188 57.703125 C 76.558594 57.703125 76.660156 57.597656 76.660156 57.402344 C 76.660156 57.167969 76.757812 57.097656 77.101562 57.097656 C 77.738281 57.097656 78.019531 56.953125 78.019531 56.628906 C 78.019531 56.421875 78.128906 56.339844 78.398438 56.339844 C 78.671875 56.339844 78.773438 56.257812 78.773438 56.046875 C 78.773438 55.816406 78.898438 55.742188 79.34375 55.707031 C 79.757812 55.671875 79.949219 55.570312 80.058594 55.320312 C 80.140625 55.132812 80.328125 54.980469 80.472656 54.980469 C 80.636719 54.980469 80.742188 54.863281 80.742188 54.683594 C 80.742188 54.445312 80.863281 54.382812 81.382812 54.34375 C 81.917969 54.304688 82.035156 54.238281 82.074219 53.957031 C 82.117188 53.660156 82.210938 53.617188 82.792969 53.617188 C 83.359375 53.617188 83.460938 53.570312 83.460938 53.3125 C 83.460938 53.101562 83.5625 53.011719 83.800781 53.007812 C 84.441406 53.003906 84.820312 52.828125 84.820312 52.539062 C 84.820312 52.335938 84.929688 52.253906 85.199219 52.253906 C 85.472656 52.253906 85.578125 52.171875 85.578125 51.960938 C 85.578125 51.722656 85.699219 51.65625 86.21875 51.617188 C 86.753906 51.582031 86.871094 51.515625 86.910156 51.230469 C 86.953125 50.941406 87.050781 50.890625 87.566406 50.890625 C 88.042969 50.890625 88.191406 50.828125 88.253906 50.597656 C 88.3125 50.375 88.484375 50.289062 88.957031 50.253906 C 89.476562 50.21875 89.59375 50.152344 89.632812 49.871094 C 89.675781 49.574219 89.769531 49.527344 90.351562 49.527344 C 90.917969 49.527344 91.019531 49.484375 91.019531 49.226562 C 91.019531 48.980469 91.121094 48.921875 91.539062 48.921875 C 92.234375 48.921875 92.835938 48.679688 92.835938 48.398438 C 92.835938 48.222656 93.011719 48.167969 93.589844 48.167969 C 94.246094 48.167969 94.347656 48.125 94.347656 47.863281 C 94.347656 47.597656 94.445312 47.5625 95.160156 47.5625 C 96.34375 47.5625 96.945312 47.40625 97.027344 47.082031 C 97.085938 46.863281 97.246094 46.804688 97.765625 46.804688 C 98.328125 46.804688 98.425781 46.757812 98.425781 46.5 C 98.425781 46.234375 98.527344 46.199219 99.238281 46.199219 C 100.414062 46.199219 100.972656 46.054688 101.078125 45.726562 C 101.15625 45.480469 101.328125 45.441406 102.359375 45.441406 C 103.371094 45.441406 103.582031 45.398438 103.757812 45.144531 C 103.9375 44.886719 104.175781 44.839844 105.542969 44.804688 C 107.011719 44.761719 107.128906 44.738281 107.269531 44.417969 C 107.410156 44.097656 107.503906 44.078125 109.046875 44.078125 C 110.570312 44.078125 110.671875 44.058594 110.671875 43.777344 C 110.671875 43.535156 110.773438 43.472656 111.171875 43.472656 C 111.445312 43.472656 111.75 43.554688 111.851562 43.65625 C 111.992188 43.796875 112.074219 43.796875 112.214844 43.65625 C 112.351562 43.519531 114.367188 43.472656 120.359375 43.472656 C 128.195312 43.472656 128.324219 43.476562 128.402344 43.777344 C 128.476562 44.054688 128.609375 44.078125 130.148438 44.078125 C 131.648438 44.078125 131.824219 44.109375 131.90625 44.363281 C 132.019531 44.714844 132.574219 44.835938 134.105469 44.835938 C 135.152344 44.835938 135.285156 44.867188 135.355469 45.136719 C 135.429688 45.417969 135.5625 45.441406 137.027344 45.441406 C 138.5625 45.441406 138.621094 45.453125 138.667969 45.78125 C 138.707031 46.058594 138.824219 46.132812 139.3125 46.171875 C 139.691406 46.203125 139.984375 46.328125 140.113281 46.511719 C 140.289062 46.757812 140.503906 46.804688 141.507812 46.804688 C 142.628906 46.804688 142.703125 46.824219 142.746094 47.144531 C 142.792969 47.453125 142.890625 47.488281 143.800781 47.527344 C 144.648438 47.566406 144.816406 47.621094 144.882812 47.871094 C 144.949219 48.121094 145.09375 48.167969 145.871094 48.167969 C 146.699219 48.167969 146.785156 48.195312 146.828125 48.507812 C 146.871094 48.789062 146.988281 48.855469 147.519531 48.894531 C 148.039062 48.929688 148.164062 48.996094 148.164062 49.234375 C 148.164062 49.496094 148.273438 49.527344 149.136719 49.527344 C 150.027344 49.527344 150.109375 49.554688 150.15625 49.871094 C 150.1875 50.082031 150.324219 50.226562 150.527344 50.257812 C 150.707031 50.28125 150.886719 50.433594 150.929688 50.597656 C 150.988281 50.824219 151.140625 50.890625 151.609375 50.890625 C 152.078125 50.890625 152.226562 50.957031 152.289062 51.191406 C 152.34375 51.402344 152.546875 51.515625 152.984375 51.585938 C 153.453125 51.664062 153.605469 51.753906 153.605469 51.96875 C 153.605469 52.167969 153.714844 52.253906 153.964844 52.253906 C 154.195312 52.253906 154.355469 52.359375 154.402344 52.550781 C 154.457031 52.761719 154.660156 52.878906 155.089844 52.949219 C 155.503906 53.015625 155.71875 53.132812 155.769531 53.332031 C 155.828125 53.550781 155.984375 53.617188 156.4375 53.617188 C 156.875 53.617188 157.121094 53.714844 157.382812 53.996094 C 157.578125 54.203125 157.855469 54.371094 157.996094 54.371094 C 158.140625 54.371094 158.292969 54.507812 158.335938 54.675781 C 158.394531 54.894531 158.542969 54.980469 158.878906 54.980469 C 159.207031 54.980469 159.414062 55.089844 159.589844 55.355469 C 159.726562 55.566406 159.964844 55.734375 160.121094 55.734375 C 160.308594 55.734375 160.40625 55.84375 160.40625 56.039062 C 160.40625 56.296875 160.507812 56.339844 161.078125 56.339844 L 161.75 56.339844 L 161.796875 56.984375 C 161.84375 57.621094 161.847656 57.628906 162.476562 57.671875 C 162.996094 57.710938 163.117188 57.78125 163.15625 58.050781 C 163.195312 58.324219 163.316406 58.394531 163.847656 58.429688 C 164.367188 58.46875 164.488281 58.535156 164.488281 58.773438 C 164.488281 58.960938 164.59375 59.066406 164.78125 59.066406 C 164.96875 59.066406 165.089844 59.1875 165.121094 59.40625 C 165.160156 59.667969 165.285156 59.757812 165.660156 59.792969 C 166.167969 59.84375 166.605469 60.289062 166.605469 60.753906 C 166.605469 60.917969 166.773438 61.046875 167.066406 61.109375 C 167.320312 61.167969 167.609375 61.34375 167.707031 61.5 C 167.808594 61.660156 168.042969 61.789062 168.230469 61.789062 C 168.492188 61.789062 168.570312 61.878906 168.570312 62.167969 C 168.570312 62.445312 168.652344 62.546875 168.875 62.546875 C 169.074219 62.546875 169.175781 62.648438 169.175781 62.851562 C 169.175781 63.074219 169.277344 63.152344 169.554688 63.152344 C 169.855469 63.152344 169.933594 63.230469 169.933594 63.53125 C 169.933594 63.808594 170.011719 63.910156 170.234375 63.910156 C 170.4375 63.910156 170.535156 64.011719 170.535156 64.214844 C 170.535156 64.433594 170.636719 64.515625 170.914062 64.515625 C 171.214844 64.515625 171.292969 64.589844 171.292969 64.894531 C 171.292969 65.171875 171.371094 65.273438 171.59375 65.273438 C 171.796875 65.273438 171.898438 65.375 171.898438 65.574219 C 171.898438 65.796875 171.996094 65.878906 172.273438 65.878906 C 172.578125 65.878906 172.652344 65.953125 172.652344 66.257812 C 172.652344 66.535156 172.734375 66.636719 172.957031 66.636719 C 173.15625 66.636719 173.257812 66.734375 173.257812 66.9375 C 173.257812 67.160156 173.359375 67.242188 173.636719 67.242188 C 173.9375 67.242188 174.011719 67.316406 174.011719 67.621094 C 174.011719 67.890625 174.09375 67.996094 174.300781 67.996094 C 174.507812 67.996094 174.613281 68.144531 174.6875 68.542969 C 174.753906 68.902344 174.890625 69.117188 175.082031 69.167969 C 175.246094 69.210938 175.375 69.375 175.375 69.542969 C 175.375 69.710938 175.5 69.875 175.664062 69.917969 C 175.820312 69.960938 175.984375 70.128906 176.027344 70.292969 C 176.070312 70.457031 176.242188 70.628906 176.40625 70.671875 C 176.585938 70.71875 176.738281 70.929688 176.792969 71.214844 C 176.847656 71.472656 177.144531 71.917969 177.464844 72.222656 C 177.785156 72.523438 178.085938 72.886719 178.140625 73.03125 C 178.191406 73.175781 178.335938 73.296875 178.457031 73.296875 C 178.578125 73.296875 178.699219 73.449219 178.726562 73.636719 C 178.757812 73.855469 178.898438 73.996094 179.117188 74.027344 C 179.363281 74.0625 179.457031 74.175781 179.457031 74.441406 C 179.457031 74.707031 179.539062 74.808594 179.75 74.808594 C 179.976562 74.808594 180.050781 74.933594 180.089844 75.378906 C 180.125 75.796875 180.226562 75.984375 180.476562 76.09375 C 180.664062 76.175781 180.816406 76.363281 180.816406 76.511719 C 180.816406 76.675781 180.929688 76.777344 181.109375 76.777344 C 181.347656 76.777344 181.414062 76.902344 181.449219 77.421875 C 181.488281 77.957031 181.554688 78.074219 181.835938 78.113281 C 182.082031 78.148438 182.175781 78.261719 182.175781 78.53125 C 182.175781 78.792969 182.261719 78.898438 182.46875 78.898438 C 182.707031 78.898438 182.773438 79.019531 182.808594 79.539062 C 182.847656 80.074219 182.914062 80.191406 183.195312 80.234375 C 183.484375 80.273438 183.539062 80.375 183.539062 80.890625 C 183.539062 81.367188 183.601562 81.515625 183.832031 81.578125 C 184.042969 81.632812 184.136719 81.808594 184.171875 82.207031 C 184.203125 82.605469 184.308594 82.796875 184.558594 82.90625 C 184.820312 83.023438 184.898438 83.179688 184.898438 83.609375 C 184.898438 84.019531 184.96875 84.179688 185.179688 84.234375 C 185.363281 84.28125 185.5 84.507812 185.566406 84.875 C 185.636719 85.253906 185.769531 85.464844 185.964844 85.515625 C 186.152344 85.566406 186.257812 85.726562 186.257812 85.953125 C 186.257812 86.210938 186.34375 86.316406 186.554688 86.316406 C 186.808594 86.316406 186.855469 86.441406 186.894531 87.261719 C 186.933594 88.074219 186.984375 88.230469 187.277344 88.355469 C 187.542969 88.472656 187.617188 88.632812 187.617188 89.066406 C 187.617188 89.488281 187.691406 89.648438 187.914062 89.71875 C 188.132812 89.789062 188.21875 89.976562 188.253906 90.449219 C 188.292969 90.976562 188.355469 91.09375 188.640625 91.132812 C 188.953125 91.175781 188.980469 91.257812 188.980469 92.230469 C 188.980469 93.078125 189.039062 93.335938 189.28125 93.582031 C 189.449219 93.75 189.585938 94.082031 189.585938 94.320312 C 189.585938 95.144531 189.773438 95.738281 190.058594 95.816406 C 190.277344 95.871094 190.339844 96.035156 190.339844 96.550781 C 190.339844 97.109375 190.386719 97.214844 190.636719 97.214844 C 190.894531 97.214844 190.9375 97.339844 190.976562 98.238281 C 191.015625 99.164062 191.050781 99.261719 191.359375 99.308594 C 191.691406 99.355469 191.699219 99.398438 191.699219 101.296875 C 191.699219 103.109375 191.71875 103.242188 192.003906 103.316406 C 192.1875 103.363281 192.304688 103.519531 192.304688 103.714844 C 192.304688 104.023438 192.363281 104.039062 193.628906 103.996094 L 194.949219 103.953125 L 194.992188 102.324219 C 195.035156 100.773438 195.023438 100.695312 194.730469 100.695312 C 194.46875 100.695312 194.421875 100.597656 194.417969 100.054688 C 194.417969 99.148438 194.289062 98.769531 193.953125 98.679688 C 193.707031 98.617188 193.664062 98.460938 193.664062 97.609375 C 193.664062 96.710938 193.636719 96.609375 193.363281 96.609375 C 193.089844 96.609375 193.0625 96.507812 193.0625 95.488281 C 193.0625 94.167969 192.976562 93.886719 192.589844 93.886719 C 192.34375 93.886719 192.304688 93.765625 192.304688 92.960938 C 192.304688 92.175781 192.261719 92.027344 192.011719 91.960938 C 191.78125 91.902344 191.707031 91.730469 191.671875 91.183594 C 191.632812 90.585938 191.574219 90.472656 191.285156 90.429688 C 190.980469 90.386719 190.945312 90.296875 190.945312 89.566406 C 190.945312 88.9375 190.878906 88.710938 190.652344 88.550781 C 190.46875 88.421875 190.34375 88.125 190.3125 87.746094 C 190.273438 87.257812 190.203125 87.140625 189.925781 87.101562 C 189.628906 87.058594 189.585938 86.960938 189.585938 86.378906 C 189.585938 85.8125 189.539062 85.710938 189.28125 85.710938 C 189.027344 85.710938 188.980469 85.609375 188.976562 85.066406 C 188.972656 84.160156 188.84375 83.78125 188.511719 83.695312 C 188.289062 83.636719 188.222656 83.480469 188.222656 83 C 188.222656 82.480469 188.175781 82.378906 187.921875 82.378906 C 187.675781 82.378906 187.617188 82.277344 187.617188 81.859375 C 187.617188 81.367188 187.308594 80.867188 187.003906 80.867188 C 186.925781 80.867188 186.863281 80.730469 186.863281 80.5625 C 186.863281 80.363281 186.761719 80.261719 186.570312 80.261719 C 186.332031 80.261719 186.265625 80.136719 186.230469 79.617188 C 186.191406 79.082031 186.125 78.964844 185.84375 78.925781 C 185.554688 78.882812 185.503906 78.785156 185.503906 78.265625 C 185.503906 77.792969 185.4375 77.640625 185.207031 77.582031 C 185.046875 77.539062 184.894531 77.359375 184.867188 77.179688 C 184.839844 76.976562 184.695312 76.835938 184.480469 76.804688 C 184.195312 76.765625 184.140625 76.664062 184.140625 76.160156 C 184.140625 75.679688 184.085938 75.566406 183.855469 75.566406 C 183.632812 75.566406 183.550781 75.417969 183.46875 74.886719 C 183.390625 74.347656 183.304688 74.203125 183.074219 74.203125 C 182.878906 74.203125 182.78125 74.101562 182.78125 73.886719 C 182.78125 73.699219 182.660156 73.539062 182.488281 73.492188 C 182.324219 73.453125 182.171875 73.269531 182.148438 73.089844 C 182.117188 72.886719 181.972656 72.75 181.761719 72.71875 C 181.476562 72.675781 181.421875 72.574219 181.421875 72.097656 C 181.421875 71.636719 181.347656 71.496094 181.042969 71.355469 C 180.835938 71.261719 180.664062 71.078125 180.664062 70.953125 C 180.664062 70.824219 180.53125 70.722656 180.363281 70.722656 C 180.15625 70.722656 180.058594 70.621094 180.058594 70.40625 C 180.058594 70.214844 179.9375 70.058594 179.757812 70.007812 C 179.53125 69.949219 179.457031 69.804688 179.457031 69.414062 C 179.457031 69.011719 179.371094 68.863281 179.078125 68.726562 C 178.871094 68.632812 178.699219 68.429688 178.699219 68.277344 C 178.699219 68.105469 178.589844 67.996094 178.414062 67.996094 C 178.253906 67.996094 178.09375 67.863281 178.046875 67.683594 C 178.003906 67.511719 177.824219 67.332031 177.652344 67.289062 C 177.476562 67.242188 177.339844 67.082031 177.339844 66.921875 C 177.339844 66.738281 177.230469 66.636719 177.046875 66.636719 C 176.859375 66.636719 176.738281 66.511719 176.707031 66.292969 C 176.675781 66.074219 176.539062 65.9375 176.320312 65.90625 C 176.097656 65.875 175.980469 65.753906 175.980469 65.554688 C 175.980469 65.023438 175.6875 64.683594 175.144531 64.582031 C 174.765625 64.507812 174.617188 64.402344 174.617188 64.195312 C 174.617188 64.011719 174.511719 63.910156 174.316406 63.910156 C 174.121094 63.910156 174.011719 63.808594 174.011719 63.628906 C 174.011719 63.476562 173.847656 63.171875 173.648438 62.953125 C 173.445312 62.738281 173.257812 62.4375 173.230469 62.289062 C 173.199219 62.109375 172.964844 61.96875 172.539062 61.875 C 172.074219 61.773438 171.898438 61.65625 171.898438 61.460938 C 171.898438 61.289062 171.785156 61.183594 171.605469 61.183594 C 171.417969 61.183594 171.296875 61.0625 171.265625 60.84375 C 171.234375 60.625 171.09375 60.488281 170.875 60.457031 C 170.65625 60.425781 170.535156 60.304688 170.535156 60.113281 C 170.535156 59.925781 170.433594 59.824219 170.246094 59.824219 C 170.058594 59.824219 169.933594 59.703125 169.90625 59.484375 C 169.875 59.289062 169.726562 59.121094 169.554688 59.085938 C 169.390625 59.054688 169.164062 58.902344 169.054688 58.746094 C 168.945312 58.589844 168.769531 58.460938 168.664062 58.460938 C 168.558594 58.460938 168.3125 58.289062 168.117188 58.082031 C 167.921875 57.875 167.636719 57.703125 167.488281 57.703125 C 167.3125 57.703125 167.210938 57.59375 167.210938 57.402344 C 167.210938 57.179688 167.109375 57.097656 166.832031 57.097656 C 166.550781 57.097656 166.453125 57.019531 166.453125 56.78125 C 166.453125 56.59375 166.332031 56.433594 166.15625 56.386719 C 165.992188 56.34375 165.820312 56.179688 165.769531 56.023438 C 165.699219 55.804688 165.535156 55.734375 165.09375 55.734375 C 164.605469 55.734375 164.503906 55.679688 164.460938 55.394531 C 164.429688 55.175781 164.292969 55.035156 164.074219 55.003906 C 163.855469 54.972656 163.734375 54.851562 163.734375 54.664062 C 163.734375 54.453125 163.628906 54.371094 163.355469 54.371094 C 163.078125 54.371094 162.976562 54.292969 162.976562 54.070312 C 162.976562 53.890625 162.875 53.765625 162.730469 53.765625 C 162.59375 53.765625 162.324219 53.597656 162.132812 53.390625 C 161.9375 53.175781 161.613281 53.011719 161.398438 53.011719 C 161.121094 53.011719 161.011719 52.929688 161.011719 52.722656 C 161.011719 52.398438 160.730469 52.253906 160.09375 52.253906 C 159.753906 52.253906 159.652344 52.183594 159.652344 51.949219 C 159.652344 51.691406 159.550781 51.648438 158.972656 51.648438 C 158.347656 51.648438 158.292969 51.617188 158.292969 51.269531 C 158.292969 51 158.210938 50.890625 158.007812 50.890625 C 157.847656 50.890625 157.6875 50.757812 157.644531 50.589844 C 157.582031 50.347656 157.4375 50.285156 156.957031 50.285156 C 156.441406 50.285156 156.339844 50.234375 156.300781 49.945312 C 156.257812 49.664062 156.140625 49.597656 155.625 49.558594 C 155.152344 49.523438 154.976562 49.441406 154.917969 49.21875 C 154.859375 48.988281 154.710938 48.921875 154.234375 48.921875 C 153.71875 48.921875 153.617188 48.871094 153.578125 48.582031 C 153.539062 48.300781 153.421875 48.234375 152.902344 48.195312 C 152.429688 48.160156 152.257812 48.078125 152.199219 47.855469 C 152.140625 47.628906 151.988281 47.5625 151.539062 47.5625 C 151.078125 47.5625 150.925781 47.488281 150.804688 47.21875 C 150.699219 46.972656 150.507812 46.867188 150.097656 46.832031 C 149.703125 46.800781 149.511719 46.699219 149.445312 46.492188 C 149.367188 46.242188 149.210938 46.199219 148.390625 46.199219 C 147.507812 46.199219 147.425781 46.171875 147.378906 45.859375 C 147.339844 45.574219 147.222656 45.507812 146.703125 45.472656 C 146.234375 45.4375 146.058594 45.351562 146 45.128906 C 145.933594 44.878906 145.789062 44.835938 145.011719 44.835938 C 144.25 44.835938 144.085938 44.789062 144.011719 44.550781 C 143.90625 44.21875 143.507812 44.082031 142.625 44.082031 C 142.128906 44.078125 141.984375 44.015625 141.921875 43.777344 C 141.851562 43.515625 141.714844 43.472656 140.929688 43.472656 C 140.171875 43.472656 140.003906 43.425781 139.929688 43.1875 C 139.820312 42.84375 139.425781 42.722656 138.398438 42.71875 C 137.820312 42.714844 137.558594 42.640625 137.355469 42.414062 C 137.109375 42.140625 136.886719 42.109375 135.175781 42.109375 C 133.34375 42.109375 133.261719 42.097656 133.121094 41.769531 C 132.976562 41.445312 132.878906 41.425781 131.027344 41.386719 C 129.242188 41.347656 129.078125 41.320312 129.007812 41.046875 C 128.929688 40.757812 128.777344 40.75 124.503906 40.75 C 120.207031 40.75 120.078125 40.738281 120 40.445312 C 119.949219 40.242188 119.816406 40.140625 119.605469 40.144531 C 119.433594 40.144531 119.207031 40.277344 119.101562 40.445312 M 45.367188 137.855469 C 45.289062 138.066406 45.117188 138.242188 44.992188 138.242188 C 44.816406 138.242188 44.761719 138.414062 44.761719 138.960938 C 44.765625 139.921875 44.894531 140.359375 45.148438 140.261719 C 45.300781 140.199219 45.363281 140.410156 45.394531 141.140625 C 45.4375 142.003906 45.476562 142.105469 45.78125 142.148438 C 46.09375 142.195312 46.121094 142.277344 46.121094 143.1875 C 46.121094 144.039062 46.160156 144.183594 46.417969 144.25 C 46.675781 144.320312 46.71875 144.484375 46.757812 145.5625 C 46.796875 146.671875 46.835938 146.808594 47.140625 146.945312 C 47.441406 147.074219 47.484375 147.203125 47.484375 148.042969 C 47.484375 148.878906 47.515625 148.988281 47.777344 148.988281 C 48.011719 148.988281 48.078125 149.113281 48.117188 149.632812 C 48.15625 150.167969 48.21875 150.285156 48.503906 150.324219 C 48.816406 150.367188 48.84375 150.453125 48.84375 151.328125 C 48.84375 152.15625 48.882812 152.296875 49.144531 152.363281 C 49.363281 152.421875 49.449219 152.570312 49.449219 152.890625 C 49.449219 153.710938 49.628906 154.277344 49.917969 154.371094 C 50.074219 154.417969 50.203125 154.597656 50.203125 154.765625 C 50.203125 154.945312 50.328125 155.105469 50.507812 155.152344 C 50.714844 155.207031 50.808594 155.359375 50.808594 155.648438 C 50.808594 156.457031 51 157.050781 51.285156 157.125 C 51.4375 157.167969 51.5625 157.335938 51.5625 157.5 C 51.5625 157.671875 51.691406 157.832031 51.867188 157.878906 C 52.03125 157.921875 52.167969 158.074219 52.167969 158.214844 C 52.167969 158.359375 52.339844 158.632812 52.546875 158.828125 C 52.753906 159.023438 52.925781 159.34375 52.925781 159.535156 C 52.925781 159.730469 53.050781 160.015625 53.207031 160.171875 C 53.363281 160.328125 53.535156 160.769531 53.59375 161.15625 C 53.675781 161.710938 53.757812 161.855469 53.992188 161.855469 C 54.203125 161.855469 54.285156 161.960938 54.285156 162.234375 C 54.285156 162.511719 54.367188 162.613281 54.585938 162.613281 C 54.820312 162.613281 54.890625 162.714844 54.890625 163.054688 C 54.890625 163.695312 55.035156 163.976562 55.359375 163.976562 C 55.5625 163.976562 55.644531 164.085938 55.644531 164.355469 C 55.644531 164.628906 55.726562 164.734375 55.9375 164.734375 C 56.175781 164.734375 56.242188 164.855469 56.28125 165.375 C 56.316406 165.910156 56.382812 166.027344 56.667969 166.070312 C 56.882812 166.101562 57.007812 166.222656 57.007812 166.410156 C 57.007812 166.59375 57.109375 166.703125 57.289062 166.703125 C 57.503906 166.703125 57.597656 166.851562 57.671875 167.324219 C 57.742188 167.761719 57.855469 167.964844 58.070312 168.019531 C 58.238281 168.066406 58.367188 168.226562 58.367188 168.398438 C 58.367188 168.566406 58.492188 168.730469 58.65625 168.773438 C 58.8125 168.816406 58.976562 168.980469 59.019531 169.136719 C 59.0625 169.304688 59.226562 169.425781 59.410156 169.425781 C 59.648438 169.425781 59.726562 169.523438 59.726562 169.804688 C 59.726562 170.011719 59.855469 170.3125 60.015625 170.472656 C 60.175781 170.632812 60.328125 170.886719 60.355469 171.039062 C 60.386719 171.191406 60.5625 171.386719 60.75 171.46875 C 60.933594 171.550781 61.089844 171.738281 61.089844 171.882812 C 61.089844 172.046875 61.203125 172.152344 61.378906 172.152344 C 61.566406 172.152344 61.6875 172.273438 61.71875 172.492188 C 61.75 172.710938 61.890625 172.851562 62.109375 172.882812 C 62.320312 172.910156 62.449219 173.035156 62.449219 173.207031 C 62.449219 173.355469 62.554688 173.523438 62.683594 173.570312 C 62.808594 173.621094 63.015625 173.902344 63.136719 174.191406 C 63.261719 174.484375 63.460938 174.726562 63.585938 174.726562 C 63.722656 174.726562 63.808594 174.867188 63.808594 175.09375 C 63.808594 175.324219 63.917969 175.496094 64.105469 175.554688 C 64.265625 175.605469 64.441406 175.78125 64.492188 175.945312 C 64.542969 176.105469 64.714844 176.238281 64.878906 176.238281 C 65.058594 176.238281 65.167969 176.34375 65.167969 176.515625 C 65.167969 176.671875 65.339844 176.875 65.546875 176.96875 C 65.753906 177.0625 65.925781 177.246094 65.925781 177.371094 C 65.925781 177.496094 66.058594 177.601562 66.21875 177.601562 C 66.378906 177.601562 66.554688 177.738281 66.605469 177.902344 C 66.671875 178.113281 66.886719 178.234375 67.296875 178.300781 C 67.683594 178.363281 67.890625 178.476562 67.890625 178.625 C 67.890625 178.75 68.007812 178.941406 68.148438 179.042969 C 68.289062 179.148438 68.484375 179.460938 68.578125 179.742188 C 68.722656 180.179688 68.824219 180.257812 69.292969 180.296875 C 69.71875 180.332031 69.847656 180.414062 69.882812 180.675781 C 69.914062 180.886719 70.054688 181.023438 70.273438 181.054688 C 70.488281 181.085938 70.613281 181.207031 70.613281 181.398438 C 70.613281 181.582031 70.714844 181.6875 70.894531 181.6875 C 71.058594 181.6875 71.214844 181.824219 71.261719 182.003906 C 71.308594 182.175781 71.480469 182.351562 71.644531 182.394531 C 71.808594 182.4375 71.976562 182.605469 72.019531 182.761719 C 72.0625 182.929688 72.226562 183.050781 72.410156 183.050781 C 72.625 183.050781 72.726562 183.148438 72.726562 183.351562 C 72.726562 183.585938 72.863281 183.675781 73.320312 183.746094 C 73.722656 183.8125 73.933594 183.933594 73.984375 184.128906 C 74.027344 184.292969 74.195312 184.414062 74.375 184.414062 C 74.59375 184.414062 74.695312 184.511719 74.695312 184.71875 C 74.695312 184.90625 74.839844 185.082031 75.070312 185.171875 C 75.277344 185.25 75.449219 185.417969 75.449219 185.546875 C 75.449219 185.675781 75.582031 185.777344 75.746094 185.777344 C 75.910156 185.777344 76.113281 185.910156 76.203125 186.074219 C 76.289062 186.234375 76.589844 186.414062 76.875 186.464844 C 77.199219 186.527344 77.414062 186.667969 77.460938 186.851562 C 77.519531 187.074219 77.675781 187.136719 78.144531 187.136719 C 78.660156 187.136719 78.761719 187.191406 78.800781 187.476562 C 78.828125 187.664062 78.976562 187.839844 79.128906 187.871094 C 79.28125 187.898438 79.535156 188.054688 79.695312 188.210938 C 79.855469 188.371094 80.136719 188.5 80.328125 188.5 C 80.535156 188.5 80.726562 188.632812 80.816406 188.839844 C 80.925781 189.089844 81.117188 189.195312 81.519531 189.226562 C 81.914062 189.261719 82.089844 189.359375 82.148438 189.570312 C 82.207031 189.800781 82.355469 189.863281 82.832031 189.863281 C 83.347656 189.863281 83.449219 189.914062 83.488281 190.203125 C 83.523438 190.445312 83.65625 190.558594 83.9375 190.589844 C 84.15625 190.617188 84.457031 190.769531 84.601562 190.933594 C 84.75 191.09375 85.023438 191.226562 85.210938 191.226562 C 85.453125 191.226562 85.570312 191.328125 85.605469 191.566406 C 85.644531 191.855469 85.757812 191.914062 86.355469 191.953125 C 86.816406 191.984375 87.148438 192.101562 87.324219 192.292969 C 87.507812 192.5 87.789062 192.589844 88.234375 192.589844 C 88.789062 192.589844 88.890625 192.636719 88.929688 192.925781 C 88.957031 193.121094 89.105469 193.292969 89.28125 193.324219 C 89.445312 193.355469 89.671875 193.507812 89.78125 193.667969 C 89.945312 193.902344 90.175781 193.949219 91.167969 193.949219 C 92.289062 193.949219 92.363281 193.972656 92.40625 194.292969 C 92.449219 194.574219 92.566406 194.640625 93.097656 194.679688 C 93.617188 194.714844 93.742188 194.78125 93.742188 195.019531 C 93.742188 195.269531 93.847656 195.3125 94.480469 195.3125 C 95.070312 195.3125 95.230469 195.371094 95.289062 195.59375 C 95.371094 195.894531 96.046875 196.066406 97.164062 196.070312 C 97.660156 196.070312 97.804688 196.132812 97.867188 196.375 C 97.933594 196.632812 98.074219 196.675781 98.84375 196.675781 C 99.652344 196.675781 99.757812 196.710938 99.910156 197.054688 C 100.078125 197.421875 100.125 197.433594 101.65625 197.433594 C 103.101562 197.433594 103.234375 197.457031 103.308594 197.734375 C 103.378906 198.007812 103.515625 198.039062 104.6875 198.039062 C 105.859375 198.039062 105.984375 198.066406 105.984375 198.324219 C 105.984375 198.734375 106.363281 198.792969 109.046875 198.792969 C 111.226562 198.796875 111.453125 198.820312 111.730469 199.097656 C 112.023438 199.394531 112.234375 199.402344 119.800781 199.402344 C 127.441406 199.402344 127.570312 199.394531 127.648438 199.097656 C 127.722656 198.8125 127.855469 198.796875 130.222656 198.796875 C 132.292969 198.796875 132.761719 198.753906 132.960938 198.558594 C 133.089844 198.425781 133.195312 198.257812 133.195312 198.179688 C 133.195312 198.101562 133.78125 198.039062 134.496094 198.039062 C 135.667969 198.039062 135.804688 198.007812 135.875 197.734375 C 135.945312 197.464844 136.082031 197.433594 137.136719 197.433594 C 138.441406 197.433594 139.09375 197.257812 139.09375 196.90625 C 139.09375 196.722656 139.304688 196.675781 140.164062 196.675781 C 141.101562 196.675781 141.246094 196.636719 141.316406 196.378906 C 141.378906 196.132812 141.546875 196.078125 142.320312 196.039062 C 143.152344 196 143.253906 195.960938 143.296875 195.652344 C 143.34375 195.339844 143.425781 195.3125 144.332031 195.3125 C 145.191406 195.3125 145.328125 195.273438 145.398438 195.011719 C 145.460938 194.769531 145.605469 194.707031 146.101562 194.707031 C 147.019531 194.703125 147.40625 194.5625 147.40625 194.234375 C 147.40625 193.988281 147.527344 193.949219 148.328125 193.949219 C 149.121094 193.949219 149.261719 193.910156 149.328125 193.648438 C 149.386719 193.421875 149.535156 193.34375 149.90625 193.34375 C 150.386719 193.34375 150.882812 193.03125 150.882812 192.730469 C 150.882812 192.652344 151.164062 192.589844 151.503906 192.589844 C 151.988281 192.589844 152.136719 192.523438 152.199219 192.292969 C 152.257812 192.070312 152.429688 191.988281 152.902344 191.953125 C 153.421875 191.914062 153.539062 191.847656 153.578125 191.566406 C 153.617188 191.277344 153.71875 191.226562 154.234375 191.226562 C 154.710938 191.226562 154.859375 191.160156 154.917969 190.929688 C 154.976562 190.71875 155.152344 190.625 155.546875 190.589844 C 155.949219 190.558594 156.140625 190.453125 156.25 190.203125 C 156.359375 189.949219 156.523438 189.863281 156.90625 189.863281 C 157.285156 189.863281 157.433594 189.789062 157.492188 189.5625 C 157.542969 189.363281 157.699219 189.257812 157.929688 189.257812 C 158.214844 189.257812 158.292969 189.175781 158.292969 188.878906 C 158.292969 188.53125 158.347656 188.5 158.972656 188.5 C 159.542969 188.5 159.652344 188.453125 159.652344 188.207031 C 159.652344 188.019531 159.773438 187.898438 159.992188 187.867188 C 160.210938 187.835938 160.347656 187.699219 160.378906 187.480469 C 160.421875 187.183594 160.519531 187.136719 161.097656 187.136719 C 161.667969 187.136719 161.769531 187.09375 161.769531 186.835938 C 161.769531 186.632812 161.871094 186.53125 162.070312 186.53125 C 162.292969 186.53125 162.375 186.433594 162.375 186.15625 C 162.375 185.808594 162.429688 185.777344 163.054688 185.777344 C 163.617188 185.777344 163.734375 185.726562 163.734375 185.492188 C 163.734375 185.277344 163.882812 185.183594 164.355469 185.109375 C 164.792969 185.039062 164.996094 184.925781 165.050781 184.710938 C 165.09375 184.546875 165.253906 184.414062 165.402344 184.414062 C 165.554688 184.414062 165.71875 184.285156 165.769531 184.128906 C 165.820312 183.96875 165.992188 183.804688 166.15625 183.761719 C 166.332031 183.71875 166.453125 183.554688 166.453125 183.367188 C 166.453125 183.117188 166.550781 183.050781 166.898438 183.050781 C 167.460938 183.050781 167.816406 182.699219 167.816406 182.132812 C 167.816406 181.761719 167.875 181.6875 168.191406 181.6875 C 168.464844 181.6875 168.570312 181.609375 168.570312 181.394531 C 168.570312 181.164062 168.695312 181.089844 169.136719 181.054688 C 169.554688 181.019531 169.746094 180.917969 169.855469 180.667969 C 169.9375 180.480469 170.125 180.328125 170.269531 180.328125 C 170.433594 180.328125 170.535156 180.210938 170.535156 180.035156 C 170.535156 179.847656 170.65625 179.722656 170.875 179.695312 C 171.09375 179.664062 171.234375 179.523438 171.265625 179.304688 C 171.296875 179.085938 171.417969 178.964844 171.605469 178.964844 C 171.792969 178.964844 171.898438 178.859375 171.898438 178.671875 C 171.898438 178.484375 172.019531 178.363281 172.238281 178.332031 C 172.457031 178.300781 172.59375 178.160156 172.625 177.941406 C 172.65625 177.722656 172.777344 177.601562 172.964844 177.601562 C 173.152344 177.601562 173.257812 177.496094 173.257812 177.308594 C 173.257812 177.121094 173.378906 177 173.597656 176.96875 C 173.816406 176.9375 173.953125 176.796875 173.984375 176.578125 C 174.015625 176.359375 174.136719 176.238281 174.328125 176.238281 C 174.515625 176.238281 174.617188 176.132812 174.617188 175.945312 C 174.617188 175.757812 174.738281 175.636719 174.957031 175.605469 C 175.175781 175.574219 175.316406 175.4375 175.347656 175.21875 C 175.375 175.03125 175.484375 174.875 175.59375 174.875 C 175.886719 174.875 176.734375 174.039062 176.734375 173.757812 C 176.734375 173.613281 176.859375 173.515625 177.035156 173.515625 C 177.230469 173.515625 177.339844 173.414062 177.339844 173.230469 C 177.339844 173.066406 177.476562 172.90625 177.652344 172.863281 C 177.824219 172.816406 178.003906 172.636719 178.046875 172.464844 C 178.09375 172.289062 178.253906 172.152344 178.414062 172.152344 C 178.652344 172.152344 178.699219 172.035156 178.699219 171.46875 C 178.699219 170.84375 178.730469 170.789062 179.078125 170.789062 C 179.347656 170.789062 179.457031 170.707031 179.457031 170.503906 C 179.457031 170.347656 179.589844 170.183594 179.757812 170.140625 C 179.9375 170.09375 180.058594 169.933594 180.058594 169.742188 C 180.058594 169.535156 180.15625 169.425781 180.347656 169.425781 C 180.671875 169.425781 180.816406 169.144531 180.816406 168.503906 C 180.816406 168.164062 180.886719 168.0625 181.117188 168.0625 C 181.316406 168.0625 181.421875 167.964844 181.421875 167.773438 C 181.421875 167.585938 181.542969 167.460938 181.757812 167.429688 C 181.957031 167.402344 182.121094 167.253906 182.152344 167.078125 C 182.183594 166.914062 182.339844 166.65625 182.496094 166.507812 C 182.652344 166.359375 182.78125 166.035156 182.78125 165.789062 C 182.78125 165.410156 182.839844 165.339844 183.160156 165.339844 C 183.457031 165.339844 183.539062 165.261719 183.539062 164.976562 C 183.539062 164.746094 183.644531 164.589844 183.839844 164.539062 C 184.070312 164.476562 184.140625 164.332031 184.140625 163.925781 C 184.140625 163.488281 184.203125 163.382812 184.480469 163.34375 C 184.675781 163.316406 184.84375 163.167969 184.875 162.992188 C 184.90625 162.824219 185.058594 162.566406 185.214844 162.417969 C 185.375 162.269531 185.503906 161.945312 185.503906 161.699219 C 185.503906 161.359375 185.570312 161.25 185.789062 161.25 C 186.113281 161.25 186.257812 160.96875 186.257812 160.332031 C 186.257812 159.988281 186.328125 159.890625 186.5625 159.890625 C 186.757812 159.890625 186.863281 159.789062 186.863281 159.597656 C 186.863281 159.410156 186.984375 159.289062 187.203125 159.257812 C 187.511719 159.210938 187.546875 159.113281 187.589844 158.1875 C 187.628906 157.289062 187.667969 157.164062 187.929688 157.164062 C 188.175781 157.164062 188.222656 157.058594 188.222656 156.484375 C 188.222656 155.855469 188.253906 155.800781 188.601562 155.800781 C 188.882812 155.800781 188.980469 155.722656 188.980469 155.484375 C 188.980469 155.296875 189.101562 155.136719 189.28125 155.089844 C 189.519531 155.027344 189.585938 154.882812 189.585938 154.429688 C 189.585938 154.011719 189.691406 153.742188 189.960938 153.46875 C 190.285156 153.144531 190.339844 152.953125 190.339844 152.117188 C 190.339844 151.269531 190.378906 151.132812 190.640625 151.066406 C 190.878906 151.003906 190.945312 150.859375 190.945312 150.402344 C 190.945312 149.941406 191.015625 149.785156 191.285156 149.667969 C 191.535156 149.558594 191.636719 149.367188 191.671875 148.957031 C 191.703125 148.5625 191.804688 148.371094 192.011719 148.304688 C 192.269531 148.222656 192.304688 148.066406 192.304688 146.945312 C 192.304688 145.75 192.324219 145.675781 192.644531 145.632812 C 192.933594 145.589844 192.992188 145.476562 193.03125 144.878906 C 193.066406 144.332031 193.140625 144.160156 193.371094 144.097656 C 193.621094 144.035156 193.664062 143.886719 193.664062 143.105469 C 193.664062 142.34375 193.714844 142.160156 193.96875 142.027344 C 194.148438 141.929688 194.269531 141.707031 194.269531 141.476562 C 194.269531 141.214844 194.171875 141.0625 193.96875 141.007812 C 193.773438 140.957031 193.664062 140.804688 193.664062 140.570312 C 193.664062 140.21875 193.632812 140.207031 192.398438 140.207031 C 190.953125 140.207031 190.945312 140.21875 190.945312 141.453125 C 190.945312 141.988281 190.871094 142.273438 190.699219 142.398438 C 190.542969 142.511719 190.425781 142.882812 190.378906 143.402344 C 190.328125 143.980469 190.21875 144.292969 190 144.464844 C 189.789062 144.632812 189.671875 144.949219 189.617188 145.503906 C 189.558594 146.117188 189.476562 146.320312 189.261719 146.378906 C 189.015625 146.441406 188.980469 146.609375 188.980469 147.710938 C 188.980469 148.898438 188.960938 148.972656 188.640625 149.015625 C 188.359375 149.058594 188.292969 149.175781 188.253906 149.691406 C 188.21875 150.164062 188.132812 150.339844 187.914062 150.398438 C 187.738281 150.441406 187.617188 150.605469 187.617188 150.792969 C 187.617188 150.976562 187.519531 151.109375 187.386719 151.109375 C 187.097656 151.109375 186.863281 151.714844 186.863281 152.472656 C 186.863281 152.921875 186.792969 153.078125 186.5625 153.152344 C 186.328125 153.226562 186.257812 153.382812 186.257812 153.808594 C 186.257812 154.242188 186.183594 154.402344 185.917969 154.515625 C 185.671875 154.625 185.566406 154.816406 185.53125 155.21875 C 185.5 155.613281 185.402344 155.792969 185.191406 155.847656 C 184.960938 155.90625 184.898438 156.058594 184.898438 156.535156 C 184.898438 157.050781 184.847656 157.152344 184.558594 157.191406 C 184.277344 157.230469 184.210938 157.347656 184.171875 157.867188 C 184.136719 158.339844 184.054688 158.515625 183.832031 158.574219 C 183.601562 158.632812 183.539062 158.78125 183.539062 159.257812 C 183.539062 159.777344 183.484375 159.875 183.195312 159.917969 C 182.984375 159.945312 182.839844 160.085938 182.8125 160.289062 C 182.785156 160.46875 182.632812 160.648438 182.46875 160.691406 C 182.242188 160.753906 182.175781 160.902344 182.175781 161.378906 C 182.175781 161.894531 182.125 161.996094 181.835938 162.035156 C 181.625 162.066406 181.480469 162.207031 181.449219 162.410156 C 181.425781 162.589844 181.273438 162.769531 181.109375 162.8125 C 180.890625 162.871094 180.816406 163.019531 180.816406 163.421875 C 180.816406 163.859375 180.753906 163.964844 180.476562 164.003906 C 180.214844 164.042969 180.125 164.167969 180.089844 164.550781 C 180.058594 164.835938 179.917969 165.121094 179.746094 165.230469 C 179.585938 165.328125 179.457031 165.566406 179.457031 165.753906 C 179.457031 166 179.367188 166.097656 179.140625 166.097656 C 178.953125 166.097656 178.789062 166.21875 178.746094 166.394531 C 178.703125 166.558594 178.539062 166.730469 178.382812 166.78125 C 178.222656 166.832031 178.09375 167.003906 178.09375 167.164062 C 178.09375 167.351562 177.992188 167.457031 177.808594 167.457031 C 177.484375 167.457031 177.339844 167.742188 177.339844 168.378906 C 177.339844 168.757812 177.28125 168.820312 176.921875 168.824219 C 176.332031 168.828125 176.171875 168.972656 176.050781 169.617188 C 175.972656 170.035156 175.871094 170.183594 175.660156 170.183594 C 175.476562 170.183594 175.375 170.289062 175.375 170.484375 C 175.375 170.652344 175.3125 170.789062 175.234375 170.789062 C 174.949219 170.789062 174.617188 171.277344 174.617188 171.695312 C 174.617188 172.078125 174.550781 172.136719 174.023438 172.226562 C 173.476562 172.316406 173.421875 172.371094 173.332031 172.917969 C 173.253906 173.367188 173.160156 173.515625 172.941406 173.515625 C 172.734375 173.515625 172.652344 173.621094 172.652344 173.890625 C 172.652344 174.195312 172.578125 174.269531 172.273438 174.269531 C 171.996094 174.269531 171.898438 174.351562 171.898438 174.574219 C 171.898438 174.777344 171.796875 174.875 171.59375 174.875 C 171.371094 174.875 171.292969 174.976562 171.292969 175.253906 C 171.292969 175.558594 171.214844 175.632812 170.914062 175.632812 C 170.636719 175.632812 170.535156 175.714844 170.535156 175.9375 C 170.535156 176.136719 170.4375 176.238281 170.234375 176.238281 C 170.011719 176.238281 169.933594 176.339844 169.933594 176.617188 C 169.933594 176.933594 169.859375 176.996094 169.488281 176.996094 C 168.925781 176.996094 168.570312 177.351562 168.570312 177.914062 C 168.570312 178.285156 168.511719 178.359375 168.191406 178.359375 C 167.921875 178.359375 167.816406 178.441406 167.816406 178.652344 C 167.816406 178.882812 167.691406 178.957031 167.25 178.992188 C 166.832031 179.027344 166.640625 179.128906 166.53125 179.378906 C 166.449219 179.566406 166.261719 179.722656 166.117188 179.722656 C 165.953125 179.722656 165.851562 179.835938 165.851562 180.011719 C 165.851562 180.199219 165.730469 180.324219 165.511719 180.355469 C 165.292969 180.382812 165.152344 180.523438 165.121094 180.742188 C 165.082031 181.027344 164.980469 181.082031 164.488281 181.082031 C 164.050781 181.082031 163.882812 181.152344 163.8125 181.371094 C 163.765625 181.527344 163.589844 181.691406 163.425781 181.734375 C 163.25 181.78125 163.128906 181.941406 163.128906 182.128906 C 163.128906 182.347656 163.03125 182.445312 162.8125 182.445312 C 162.625 182.445312 162.464844 182.566406 162.417969 182.75 C 162.375 182.917969 162.210938 183.050781 162.054688 183.050781 C 161.851562 183.050781 161.769531 183.160156 161.769531 183.429688 C 161.769531 183.777344 161.714844 183.808594 161.089844 183.808594 C 160.523438 183.808594 160.40625 183.855469 160.40625 184.089844 C 160.40625 184.304688 160.257812 184.398438 159.789062 184.472656 C 159.347656 184.542969 159.144531 184.660156 159.089844 184.871094 C 159.046875 185.042969 158.882812 185.171875 158.714844 185.171875 C 158.542969 185.171875 158.382812 185.296875 158.335938 185.464844 C 158.28125 185.675781 158.105469 185.773438 157.710938 185.804688 C 157.308594 185.839844 157.117188 185.945312 157.007812 186.191406 C 156.925781 186.378906 156.738281 186.53125 156.59375 186.53125 C 156.429688 186.53125 156.328125 186.648438 156.328125 186.828125 C 156.328125 187.066406 156.203125 187.128906 155.683594 187.167969 C 155.148438 187.207031 155.03125 187.273438 154.992188 187.554688 C 154.953125 187.851562 154.855469 187.894531 154.273438 187.894531 C 153.710938 187.894531 153.605469 187.941406 153.605469 188.191406 C 153.605469 188.425781 153.480469 188.492188 152.960938 188.53125 C 152.429688 188.570312 152.3125 188.632812 152.273438 188.917969 C 152.230469 189.210938 152.132812 189.257812 151.554688 189.257812 C 150.992188 189.257812 150.882812 189.304688 150.882812 189.550781 C 150.882812 189.789062 150.761719 189.855469 150.242188 189.894531 C 149.707031 189.929688 149.589844 189.996094 149.550781 190.28125 C 149.507812 190.578125 149.414062 190.621094 148.769531 190.621094 C 147.910156 190.621094 147.558594 190.730469 147.558594 190.996094 C 147.558594 191.113281 147.277344 191.234375 146.878906 191.292969 C 146.339844 191.375 146.199219 191.457031 146.199219 191.691406 C 146.199219 191.9375 146.089844 191.984375 145.503906 191.984375 C 144.9375 191.984375 144.792969 192.039062 144.730469 192.285156 C 144.660156 192.546875 144.523438 192.589844 143.722656 192.589844 C 142.535156 192.59375 142.164062 192.699219 142.070312 193.054688 C 142.003906 193.300781 141.851562 193.34375 141.058594 193.34375 C 140.25 193.34375 140.113281 193.386719 140.042969 193.648438 C 139.976562 193.902344 139.835938 193.949219 139.160156 193.949219 C 138.394531 193.949219 137.882812 194.199219 137.882812 194.566406 C 137.882812 194.644531 137.3125 194.707031 136.617188 194.707031 C 135.476562 194.707031 135.339844 194.738281 135.269531 195.011719 C 135.195312 195.289062 135.0625 195.3125 133.550781 195.316406 C 131.644531 195.316406 131.285156 195.386719 131.183594 195.78125 C 131.113281 196.050781 130.9375 196.070312 128.5625 196.074219 C 126.269531 196.078125 125.980469 196.105469 125.636719 196.375 C 125.277344 196.65625 124.976562 196.667969 118.664062 196.671875 C 112.195312 196.675781 112.066406 196.671875 111.988281 196.375 C 111.917969 196.09375 111.78125 196.070312 110.28125 196.070312 C 108.804688 196.070312 108.617188 196.039062 108.292969 195.734375 C 107.96875 195.429688 107.75 195.390625 105.902344 195.339844 C 104.03125 195.285156 103.871094 195.253906 103.871094 194.992188 C 103.871094 194.742188 103.75 194.707031 102.871094 194.707031 C 102.023438 194.707031 101.863281 194.667969 101.800781 194.421875 C 101.722656 194.125 101.1875 193.949219 100.332031 193.949219 C 100.042969 193.949219 99.753906 193.832031 99.597656 193.648438 C 99.378906 193.394531 99.148438 193.34375 98.203125 193.34375 C 97.1875 193.34375 97.066406 193.316406 97.066406 193.058594 C 97.066406 192.695312 96.78125 192.589844 95.832031 192.589844 C 95.199219 192.589844 95.058594 192.539062 94.996094 192.285156 C 94.925781 192.023438 94.789062 191.984375 93.960938 191.984375 C 93.085938 191.984375 93.003906 191.953125 92.957031 191.640625 C 92.917969 191.359375 92.800781 191.292969 92.265625 191.253906 C 91.746094 191.21875 91.625 191.152344 91.625 190.914062 C 91.625 190.667969 91.515625 190.621094 90.945312 190.621094 C 90.371094 190.621094 90.265625 190.574219 90.265625 190.328125 C 90.265625 190.097656 90.121094 190.011719 89.597656 189.933594 C 89.121094 189.863281 88.910156 189.75 88.855469 189.546875 C 88.796875 189.324219 88.644531 189.257812 88.160156 189.257812 C 87.65625 189.257812 87.542969 189.207031 87.542969 188.972656 C 87.542969 188.609375 87.257812 188.5 86.320312 188.5 C 85.679688 188.5 85.578125 188.460938 85.578125 188.199219 C 85.578125 187.976562 85.476562 187.894531 85.199219 187.894531 C 84.925781 187.894531 84.820312 187.8125 84.820312 187.601562 C 84.820312 187.371094 84.679688 187.289062 84.140625 187.207031 C 83.613281 187.125 83.460938 187.042969 83.460938 186.820312 C 83.460938 186.582031 83.347656 186.53125 82.78125 186.53125 C 82.15625 186.53125 82.101562 186.503906 82.101562 186.15625 C 82.101562 185.871094 82.019531 185.777344 81.785156 185.777344 C 81.59375 185.777344 81.4375 185.65625 81.390625 185.472656 C 81.328125 185.238281 81.183594 185.171875 80.734375 185.171875 C 80.25 185.171875 80.148438 185.117188 80.109375 184.828125 C 80.078125 184.617188 79.9375 184.472656 79.734375 184.441406 C 79.558594 184.417969 79.375 184.265625 79.332031 184.101562 C 79.273438 183.871094 79.125 183.808594 78.636719 183.808594 C 78.109375 183.808594 78.019531 183.761719 78.019531 183.492188 C 78.019531 183.304688 77.898438 183.140625 77.722656 183.097656 C 77.558594 183.054688 77.382812 182.890625 77.332031 182.730469 C 77.285156 182.574219 77.121094 182.445312 76.96875 182.445312 C 76.816406 182.445312 76.660156 182.3125 76.617188 182.148438 C 76.558594 181.933594 76.359375 181.820312 75.917969 181.75 C 75.449219 181.675781 75.296875 181.582031 75.296875 181.367188 C 75.296875 181.195312 75.191406 181.082031 75.03125 181.082031 C 74.886719 181.082031 74.699219 180.929688 74.617188 180.742188 C 74.507812 180.496094 74.316406 180.390625 73.910156 180.355469 C 73.394531 180.3125 73.347656 180.269531 73.257812 179.722656 C 73.167969 179.183594 73.113281 179.128906 72.566406 179.039062 C 72.117188 178.960938 71.972656 178.867188 71.972656 178.648438 C 71.972656 178.441406 71.867188 178.359375 71.59375 178.359375 C 71.3125 178.359375 71.214844 178.277344 71.214844 178.042969 C 71.214844 177.855469 71.097656 177.691406 70.929688 177.648438 C 70.769531 177.605469 70.605469 177.445312 70.5625 177.285156 C 70.519531 177.117188 70.355469 176.996094 70.171875 176.996094 C 69.953125 176.996094 69.855469 176.898438 69.855469 176.679688 C 69.855469 176.496094 69.734375 176.332031 69.566406 176.285156 C 69.410156 176.246094 69.246094 176.082031 69.203125 175.921875 C 69.160156 175.753906 68.996094 175.632812 68.8125 175.632812 C 68.601562 175.632812 68.496094 175.535156 68.496094 175.339844 C 68.496094 175.179688 68.367188 175.007812 68.210938 174.957031 C 68.050781 174.90625 67.886719 174.730469 67.84375 174.570312 C 67.800781 174.390625 67.640625 174.269531 67.453125 174.269531 C 67.230469 174.269531 67.136719 174.175781 67.136719 173.953125 C 67.136719 173.769531 67.015625 173.605469 66.847656 173.5625 C 66.6875 173.519531 66.523438 173.355469 66.484375 173.195312 C 66.4375 173.027344 66.273438 172.910156 66.089844 172.910156 C 65.871094 172.910156 65.773438 172.8125 65.773438 172.589844 C 65.773438 172.402344 65.652344 172.242188 65.472656 172.195312 C 65.304688 172.152344 65.167969 171.988281 65.167969 171.832031 C 65.167969 171.628906 65.0625 171.546875 64.792969 171.546875 C 64.476562 171.546875 64.414062 171.472656 64.414062 171.113281 C 64.414062 170.863281 64.253906 170.511719 64.035156 170.273438 C 63.828125 170.046875 63.65625 169.808594 63.65625 169.738281 C 63.65625 169.667969 63.523438 169.578125 63.355469 169.535156 C 63.175781 169.488281 63.054688 169.328125 63.054688 169.136719 C 63.054688 168.925781 62.957031 168.820312 62.761719 168.820312 C 62.574219 168.820312 62.453125 168.699219 62.421875 168.480469 C 62.390625 168.265625 62.25 168.121094 62.046875 168.09375 C 61.808594 168.058594 61.695312 167.90625 61.625 167.519531 C 61.570312 167.226562 61.433594 166.953125 61.320312 166.910156 C 61.207031 166.867188 61.074219 166.664062 61.023438 166.464844 C 60.964844 166.230469 60.824219 166.097656 60.632812 166.097656 C 60.429688 166.097656 60.332031 165.992188 60.332031 165.777344 C 60.332031 165.589844 60.210938 165.429688 60.03125 165.382812 C 59.816406 165.328125 59.726562 165.175781 59.726562 164.878906 C 59.726562 164.464844 59.394531 163.976562 59.113281 163.976562 C 59.035156 163.976562 58.972656 163.839844 58.972656 163.671875 C 58.972656 163.480469 58.871094 163.371094 58.6875 163.371094 C 58.472656 163.371094 58.382812 163.21875 58.304688 162.75 C 58.234375 162.308594 58.121094 162.105469 57.910156 162.050781 C 57.738281 162.007812 57.609375 161.84375 57.609375 161.675781 C 57.609375 161.503906 57.480469 161.339844 57.308594 161.296875 C 57.097656 161.238281 57.007812 161.089844 57.007812 160.789062 C 57.007812 160.375 56.671875 159.890625 56.390625 159.890625 C 56.3125 159.890625 56.25 159.644531 56.25 159.34375 C 56.25 158.933594 56.179688 158.78125 55.957031 158.722656 C 55.796875 158.683594 55.640625 158.5 55.617188 158.320312 C 55.585938 158.117188 55.441406 157.980469 55.230469 157.949219 C 54.9375 157.90625 54.890625 157.808594 54.890625 157.230469 C 54.890625 156.667969 54.84375 156.558594 54.597656 156.558594 C 54.359375 156.558594 54.292969 156.433594 54.257812 155.914062 C 54.21875 155.378906 54.152344 155.261719 53.871094 155.222656 C 53.582031 155.183594 53.53125 155.082031 53.53125 154.566406 C 53.53125 154.085938 53.464844 153.941406 53.226562 153.878906 C 52.984375 153.8125 52.925781 153.671875 52.925781 153.160156 C 52.925781 152.675781 52.832031 152.4375 52.546875 152.167969 C 52.339844 151.972656 52.167969 151.65625 52.167969 151.460938 C 52.167969 151.210938 52.082031 151.109375 51.867188 151.109375 C 51.601562 151.109375 51.5625 151.007812 51.5625 150.285156 C 51.5625 149.5 51.320312 148.988281 50.949219 148.988281 C 50.871094 148.988281 50.808594 148.574219 50.808594 148.066406 C 50.808594 147.28125 50.765625 147.132812 50.515625 147.066406 C 50.292969 147.007812 50.207031 146.835938 50.171875 146.363281 C 50.136719 145.84375 50.070312 145.726562 49.789062 145.6875 C 49.476562 145.640625 49.449219 145.558594 49.449219 144.675781 C 49.449219 143.851562 49.40625 143.699219 49.152344 143.617188 C 48.910156 143.539062 48.847656 143.359375 48.8125 142.585938 C 48.773438 141.757812 48.730469 141.640625 48.441406 141.601562 C 48.136719 141.558594 48.113281 141.457031 48.0625 140.035156 C 48.023438 138.847656 47.957031 138.480469 47.765625 138.339844 C 47.628906 138.238281 47.492188 138.023438 47.460938 137.859375 C 47.414062 137.605469 47.261719 137.554688 46.460938 137.515625 C 45.566406 137.472656 45.507812 137.492188 45.367188 137.855469 " fill-opacity="1" fill-rule="evenodd"/><g fill="#000000" fill-opacity="1"><g transform="translate(70.893917, 135.953229)"><g><path d="M 9.765625 0.546875 C 7.585938 0.546875 5.582031 0.140625 3.75 -0.671875 C 1.925781 -1.484375 0.429688 -2.640625 -0.734375 -4.140625 L 3.40625 -9.125 C 5.15625 -6.757812 7.15625 -5.578125 9.40625 -5.578125 C 12.445312 -5.578125 13.96875 -7.359375 13.96875 -10.921875 L 13.96875 -26.265625 L 2.625 -26.265625 L 2.625 -32.25 L 21.375 -32.25 L 21.375 -11.328125 C 21.375 -7.367188 20.390625 -4.398438 18.421875 -2.421875 C 16.460938 -0.441406 13.578125 0.546875 9.765625 0.546875 Z M 9.765625 0.546875 "/></g></g></g><g fill="#000000" fill-opacity="1"><g transform="translate(95.819602, 135.953229)"><g><path d="M 38.703125 3.453125 C 37.660156 4.742188 36.394531 5.726562 34.90625 6.40625 C 33.414062 7.082031 31.78125 7.421875 30 7.421875 C 27.601562 7.421875 25.4375 6.90625 23.5 5.875 C 21.5625 4.84375 19.347656 3.023438 16.859375 0.421875 C 13.941406 0.046875 11.335938 -0.890625 9.046875 -2.390625 C 6.765625 -3.898438 4.984375 -5.84375 3.703125 -8.21875 C 2.429688 -10.601562 1.796875 -13.238281 1.796875 -16.125 C 1.796875 -19.289062 2.554688 -22.140625 4.078125 -24.671875 C 5.597656 -27.203125 7.703125 -29.191406 10.390625 -30.640625 C 13.078125 -32.085938 16.09375 -32.8125 19.4375 -32.8125 C 22.789062 -32.8125 25.800781 -32.085938 28.46875 -30.640625 C 31.144531 -29.191406 33.25 -27.203125 34.78125 -24.671875 C 36.320312 -22.140625 37.09375 -19.289062 37.09375 -16.125 C 37.09375 -12.375 36.039062 -9.085938 33.9375 -6.265625 C 31.832031 -3.441406 29.046875 -1.476562 25.578125 -0.375 C 26.335938 0.425781 27.078125 1.003906 27.796875 1.359375 C 28.523438 1.710938 29.304688 1.890625 30.140625 1.890625 C 32.128906 1.890625 33.878906 1.09375 35.390625 -0.5 Z M 9.359375 -16.125 C 9.359375 -14.125 9.796875 -12.34375 10.671875 -10.78125 C 11.546875 -9.21875 12.75 -8 14.28125 -7.125 C 15.820312 -6.25 17.539062 -5.8125 19.4375 -5.8125 C 21.34375 -5.8125 23.0625 -6.25 24.59375 -7.125 C 26.132812 -8 27.34375 -9.21875 28.21875 -10.78125 C 29.09375 -12.34375 29.53125 -14.125 29.53125 -16.125 C 29.53125 -18.125 29.09375 -19.90625 28.21875 -21.46875 C 27.34375 -23.039062 26.132812 -24.265625 24.59375 -25.140625 C 23.0625 -26.015625 21.34375 -26.453125 19.4375 -26.453125 C 17.539062 -26.453125 15.820312 -26.015625 14.28125 -25.140625 C 12.75 -24.265625 11.546875 -23.039062 10.671875 -21.46875 C 9.796875 -19.90625 9.359375 -18.125 9.359375 -16.125 Z M 9.359375 -16.125 "/></g></g></g><g fill="#000000" fill-opacity="1"><g transform="translate(134.70551, 135.953229)"><g><path d="M 34.828125 -32.25 L 20.875 0 L 13.5 0 L -0.421875 -32.25 L 7.65625 -32.25 L 17.46875 -9.21875 L 27.421875 -32.25 Z M 34.828125 -32.25 "/></g></g></g></svg>